<svg width="167" height="108" viewBox="0 0 167 108" fill="none" xmlns="http://www.w3.org/2000/svg">
<path d="M40.1423 43.3323C38.6622 39.034 35.1394 35.9349 31.0276 35.4128C28.1317 35.0221 23.7098 35.7923 21.5752 39.3597C21.3991 39.6492 19.218 43.4307 21.2701 47.1073C22.084 48.48 23.2931 49.5752 24.7394 50.2496C26.1857 50.9241 27.8018 51.1464 29.3765 50.8877C27.5799 52.1635 26.2886 54.03 25.7282 56.1611C25.4213 57.3629 25.3629 58.6147 25.5567 59.8398C25.7506 61.0649 26.1925 62.2375 26.8554 63.2858C27.5929 64.3534 28.5471 65.2537 29.6557 65.928C30.7643 66.6023 32.0025 67.0355 33.2897 67.1994C33.9078 67.2845 38.376 67.8294 41.4358 64.3929C42.2548 63.4187 42.8647 62.2865 43.2275 61.0667C43.5904 59.8468 43.6985 58.5654 43.5452 57.302L61.654 52.8908C62.6397 54.8138 64.1952 56.3856 66.1079 57.3912C68.0206 58.3969 70.1972 58.7873 72.3402 58.5091C72.7099 58.4519 78.0819 57.5544 80.1337 52.4999C80.2623 52.1726 82.1033 47.3778 79.0198 43.1796C77.9798 41.7798 76.5805 40.6874 74.9701 40.0183C73.3597 39.3492 71.5983 39.1282 69.8725 39.3788C70.472 38.8069 71.0104 38.1743 71.479 37.4911C72.1531 36.4902 72.6674 35.3904 73.0034 34.2314C73.1423 33.6988 74.1839 29.7399 71.6364 26.617C68.9402 23.311 64.5448 23.7624 63.8959 23.8437C61.6514 24.1444 59.5858 25.2301 58.0653 26.9083C55.4915 29.8427 55.1394 34.4722 57.0902 38.6558L40.1423 43.3323Z" fill="#1A1A1A" stroke="#131313" stroke-width="1.5" stroke-linecap="round" stroke-linejoin="round"/>
<path d="M37.1142 42.1517C35.6342 37.8534 32.1114 34.7543 27.9995 34.2322C25.1036 33.8414 20.6817 34.6116 18.5471 38.179C18.371 38.4686 16.19 42.2501 18.242 45.9267C19.0559 47.2993 20.265 48.3945 21.7113 49.069C23.1576 49.7434 24.7737 49.9658 26.3484 49.707C24.5518 50.9828 23.2605 52.8493 22.7002 54.9805C22.3932 56.1822 22.3349 57.434 22.5287 58.6591C22.7225 59.8842 23.1644 61.0568 23.8273 62.1052C24.5649 63.1727 25.519 64.073 26.6276 64.7473C27.7362 65.4216 28.9744 65.8548 30.2616 66.0188C30.8798 66.1039 35.3479 66.6488 38.4078 63.2123C39.2267 62.2381 39.8366 61.1059 40.1994 59.886C40.5623 58.6662 40.6704 57.3847 40.5171 56.1213L58.6259 51.7101C59.6116 53.6332 61.1671 55.2049 63.0798 56.2106C64.9925 57.2162 67.1691 57.6066 69.3121 57.3284C69.6819 57.2713 75.0538 56.3738 77.1056 51.3193C77.2342 50.992 79.0752 46.1971 75.9918 41.9989C74.9518 40.5991 73.5524 39.5068 71.942 38.8376C70.3316 38.1685 68.5702 37.9475 66.8445 38.1981C67.4439 37.6263 67.9823 36.9937 68.451 36.3105C69.1251 35.3095 69.6393 34.2098 69.9753 33.0507C70.1142 32.5181 71.1558 28.5592 68.6083 25.4363C65.9121 22.1304 61.5167 22.5817 60.8678 22.663C58.6233 22.9637 56.5577 24.0494 55.0372 25.7276C52.4634 28.6621 52.1113 33.2916 54.0622 37.4751L37.1142 42.1517Z" fill="#F1EEE3" stroke="#131313" stroke-width="1.5" stroke-linecap="round" stroke-linejoin="round"/>
<path d="M46.7543 52.4534C50.7538 51.6217 54.7469 50.7641 58.7338 49.8806C58.8393 49.86 58.9322 49.7983 58.9922 49.7092C59.0522 49.6201 59.0744 49.5107 59.0538 49.4053C59.0332 49.2998 58.9715 49.2069 58.8824 49.1469C58.7932 49.0869 58.6839 49.0647 58.5784 49.0853C54.5881 49.9697 50.595 50.8273 46.599 51.6582C46.0816 51.7842 46.2669 52.5448 46.788 52.4343L46.7543 52.4534Z" fill="#131313"/>
<path d="M60.0103 50.4631C60.5641 51.6355 61.3645 52.6746 62.3567 53.5093C63.349 54.3441 64.5097 54.9548 65.7596 55.2999C66.2522 55.432 66.4828 54.6688 65.9838 54.5327C64.8344 54.2154 63.7676 53.6523 62.8571 52.8824C61.9465 52.1125 61.214 51.154 60.7101 50.0734C60.4857 49.5799 59.7974 49.9942 60.0103 50.4631Z" fill="#131313"/>
<path d="M64.3438 25.8174C65.0149 25.9973 65.6259 26.3532 66.1136 26.8481C66.6012 27.3431 66.9479 27.9593 67.1179 28.633C67.143 28.7359 67.2079 28.8247 67.2984 28.8797C67.3889 28.9348 67.4975 28.9516 67.6005 28.9265C67.7034 28.9015 67.7921 28.8365 67.8472 28.746C67.9022 28.6555 67.919 28.5469 67.894 28.444C67.6899 27.6344 67.2744 26.8935 66.69 26.2973C66.1056 25.701 65.3733 25.2706 64.568 25.0503C64.0702 24.9194 63.846 25.6865 64.3438 25.8174Z" fill="#131313"/>
<path d="M19.0138 39.8247C18.5524 40.5601 18.3516 41.4292 18.4436 42.2925C18.5356 43.1557 18.915 43.963 19.521 44.5846C19.8831 44.9459 20.4612 44.394 20.0927 44.0288C19.6119 43.5311 19.3131 42.8857 19.2449 42.1971C19.1766 41.5084 19.3428 40.8169 19.7165 40.2345C19.9994 39.7983 19.3135 39.3899 19.0345 39.8196L19.0138 39.8247Z" fill="#131313"/>
<g clip-path="url(#clip0_52_398)">
<path d="M117.392 68.0432C120.077 66.6754 119.945 65.6445 122.519 64.2426C123.864 63.5021 125.844 62.4138 128.244 62.849C129.511 63.0543 130.685 63.6445 131.605 64.5395C133.771 66.7411 132.288 69.0644 133.911 73.1557C134.348 74.2534 135.621 75.9779 138.166 79.4316C139.652 81.3594 140.733 83.568 141.343 85.9246C141.385 86.0891 141.419 86.2557 141.443 86.4237C141.59 87.3863 142.096 90.8036 139.899 93.4712C137.702 96.1388 134.323 96.2095 133.688 96.2134C130.668 96.2103 128.422 94.4872 125.496 92.2287C122.637 90.0327 122.879 89.4081 120.968 88.5029C119.058 87.5977 118.412 87.9762 113.461 87.4021C109.525 86.9452 107.527 86.6984 106.063 85.7812C104.047 84.5056 102.577 82.5275 101.936 80.2299C101.704 79.3682 100.884 75.7961 103.028 72.8067C104.055 71.4239 105.495 70.4029 107.14 69.8907C109.358 69.1935 110.051 70.1039 113.092 69.5534C114.592 69.2641 116.041 68.7552 117.392 68.0432Z" fill="#1A1A1A" stroke="#131313" stroke-width="1.48" stroke-linecap="round" stroke-linejoin="round"/>
<path d="M116.335 57.8202C118.08 55.35 117.932 52.2434 116.004 50.8816C114.076 49.5198 111.098 50.4183 109.353 52.8885C107.608 55.3588 107.757 58.4653 109.685 59.8272C111.612 61.189 114.59 60.2905 116.335 57.8202Z" fill="#1A1A1A" stroke="#131313" stroke-width="1.5" stroke-linecap="round" stroke-linejoin="round"/>
<path d="M144.761 56.661C146.506 54.1908 146.358 51.0843 144.43 49.7224C142.502 48.3606 139.524 49.2591 137.779 51.7294C136.034 54.1996 136.183 57.3061 138.111 58.668C140.038 60.0298 143.016 59.1313 144.761 56.661Z" fill="#1A1A1A" stroke="#131313" stroke-width="1.5" stroke-linecap="round" stroke-linejoin="round"/>
<path d="M151.527 70.7279C153.272 68.2577 153.123 65.1512 151.195 63.7893C149.268 62.4275 146.29 63.326 144.545 65.7963C142.8 68.2665 142.948 71.373 144.876 72.7349C146.804 74.0967 149.782 73.1982 151.527 70.7279Z" fill="#1A1A1A" stroke="#131313" stroke-width="1.5" stroke-linecap="round" stroke-linejoin="round"/>
<path d="M131.213 51.7056C132.958 49.2353 132.81 46.1288 130.882 44.767C128.954 43.4051 125.977 44.3037 124.232 46.7739C122.487 49.2442 122.635 52.3507 124.563 53.7125C126.491 55.0744 129.468 54.1758 131.213 51.7056Z" fill="#1A1A1A" stroke="#131313" stroke-width="1.5" stroke-linecap="round" stroke-linejoin="round"/>
<path d="M132.474 65.646C132.828 67.2635 132.843 68.9368 132.519 70.5605L132.474 65.646Z" fill="#1A1A1A"/>
<path d="M132.145 65.7551C132.473 67.3138 132.484 68.9226 132.177 70.4856C132.157 70.5762 132.174 70.6709 132.224 70.749C132.274 70.827 132.353 70.882 132.444 70.9019C132.534 70.9217 132.629 70.9048 132.707 70.8548C132.785 70.8048 132.84 70.7258 132.86 70.6352C133.19 68.9517 133.172 67.2186 132.807 65.5423C132.779 65.4566 132.718 65.3852 132.638 65.3436C132.558 65.3019 132.465 65.2934 132.379 65.3197C132.294 65.3497 132.224 65.4106 132.183 65.49C132.142 65.5695 132.132 65.6617 132.156 65.748L132.145 65.7551Z" fill="#131313"/>
<path d="M132.941 73.8163C133.241 75.6928 133.983 77.4711 135.106 79.0045C135.91 80.0824 136.897 81.0192 137.655 82.1346C138.448 83.3215 138.957 84.6747 139.144 86.0897C139.331 87.5047 139.191 88.9438 138.734 90.296" fill="#1A1A1A"/>
<path d="M132.593 73.8355C132.827 75.2659 133.302 76.6462 133.998 77.9174C134.775 79.3184 135.903 80.4195 136.883 81.6698C137.822 82.858 138.448 84.2621 138.704 85.7542C138.961 87.2463 138.839 88.7789 138.352 90.2122C138.206 90.6574 138.889 90.8071 139.035 90.3618C139.494 88.9951 139.642 87.5431 139.469 86.1118C139.295 84.6805 138.805 83.3059 138.032 82.0885C137.163 80.7434 135.947 79.6707 135.037 78.3359C134.144 76.9607 133.547 75.4146 133.284 73.796C133.213 73.3559 132.514 73.3889 132.588 73.8345L132.593 73.8355Z" fill="#131313"/>
<path d="M103.727 75.4695C102.422 77.6598 103.366 80.6673 105.301 82.3318C107.236 83.9962 109.873 84.5692 112.408 84.738" fill="#1A1A1A"/>
<path d="M103.422 75.2976C102.163 77.4933 102.898 80.2593 104.528 82.0525C106.506 84.237 109.633 84.8839 112.452 85.0817C112.898 85.1127 112.86 84.4172 112.415 84.3817C109.872 84.2063 107.092 83.6307 105.221 81.7608C103.656 80.1964 102.905 77.6321 104.051 75.6263C104.275 75.2364 103.659 74.9107 103.435 75.3006L103.422 75.2976Z" fill="#131313"/>
<path d="M149.561 65.0954C150.425 65.0079 151.158 65.8414 151.288 66.7049C151.342 67.5748 151.175 68.4442 150.802 69.2319" fill="#1A1A1A"/>
<path d="M149.58 65.4432C150.255 65.3907 150.752 65.9958 150.911 66.5984C151.128 67.4141 150.778 68.3155 150.494 69.0691C150.454 69.152 150.447 69.2467 150.474 69.3346C150.5 69.4226 150.559 69.4974 150.638 69.5443C150.721 69.5874 150.817 69.596 150.907 69.5681C150.996 69.5403 151.07 69.4784 151.114 69.3958C151.476 68.4206 151.883 67.3219 151.545 66.2745C151.426 65.8347 151.165 65.4465 150.803 65.1697C150.441 64.8929 149.998 64.743 149.543 64.7432C149.096 64.7789 149.129 65.4779 149.58 65.4432Z" fill="#131313"/>
<path d="M143.434 50.4846C143.82 50.6058 144.16 50.8413 144.409 51.1599C144.658 51.4786 144.804 51.8654 144.828 52.269C144.858 53.078 144.721 53.8845 144.423 54.6375" fill="#1A1A1A"/>
<path d="M143.36 50.8261C143.65 50.9219 143.908 51.0979 144.103 51.334C144.297 51.57 144.422 51.8563 144.461 52.1599C144.613 52.9662 144.324 53.8047 144.082 54.5627C144.062 54.6533 144.079 54.748 144.129 54.826C144.179 54.9041 144.258 54.9591 144.349 54.9789C144.439 54.9975 144.533 54.9801 144.611 54.9302C144.689 54.8804 144.744 54.8022 144.765 54.7123C145.058 53.7889 145.345 52.8068 145.099 51.8369C145.013 51.437 144.819 51.068 144.539 50.7697C144.259 50.4713 143.903 50.2547 143.509 50.1432C143.419 50.1233 143.324 50.1403 143.246 50.1903C143.168 50.2403 143.113 50.3192 143.093 50.4098C143.073 50.5004 143.09 50.5951 143.14 50.6732C143.19 50.7512 143.269 50.8062 143.36 50.8261Z" fill="#131313"/>
<path d="M128.81 43.3015C129.345 43.4371 129.808 43.7689 130.109 44.2309C130.41 44.6929 130.527 45.2512 130.435 45.7949" fill="#1A1A1A"/>
<path d="M128.735 43.6429C128.803 43.653 128.87 43.6677 128.936 43.6868C129.031 43.7078 128.867 43.6719 128.936 43.6868L129.022 43.7058C129.084 43.734 129.144 43.7662 129.201 43.8023L129.277 43.8476C129.3 43.8525 129.351 43.9019 129.305 43.8535C129.405 43.9306 129.5 44.0152 129.588 44.1065L129.669 44.1957L129.691 44.2007C129.732 44.25 129.77 44.3013 129.806 44.3545C129.837 44.409 129.872 44.4645 129.902 44.5236L129.943 44.5993C129.906 44.5291 129.938 44.6221 129.935 44.6357C129.986 44.7535 130.026 44.8758 130.055 45.0008C130.075 45.0862 130.061 44.9735 130.047 45.0373L130.057 45.1252C130.066 45.1879 130.071 45.2513 130.072 45.3147C130.068 45.3486 130.06 45.3821 130.05 45.4149C130.05 45.4149 130.027 45.5196 130.045 45.4376C130.031 45.5014 130.016 45.5697 130.001 45.638C129.982 45.7285 129.999 45.8232 130.049 45.9013C130.099 45.9794 130.178 46.0344 130.268 46.0542C130.359 46.074 130.453 46.0571 130.531 46.0071C130.609 45.9571 130.665 45.8781 130.684 45.7876C130.794 45.1535 130.659 44.5016 130.309 43.9622C129.958 43.4228 129.417 43.0355 128.793 42.8779C128.703 42.8581 128.608 42.875 128.53 42.925C128.452 42.975 128.397 43.054 128.377 43.1445C128.357 43.2351 128.374 43.3298 128.424 43.4079C128.474 43.486 128.553 43.541 128.643 43.5608L128.735 43.6429Z" fill="#131313"/>
<path d="M115.615 52.3098C115.924 52.7641 116.108 53.2923 116.147 53.8405C116.186 54.3888 116.079 54.9376 115.837 55.4312" fill="#1A1A1A"/>
<path d="M115.318 52.5119C115.59 52.9133 115.753 53.3786 115.791 53.862C115.829 54.3454 115.74 54.8304 115.534 55.2694C115.336 55.6744 115.956 56.0011 116.154 55.5961C116.418 55.0476 116.534 54.4396 116.491 53.8325C116.447 53.2254 116.245 52.6402 115.906 52.1351C115.648 51.7638 115.06 52.1406 115.318 52.5119Z" fill="#131313"/>
<path d="M116.739 65.9917C119.242 64.7604 119.521 63.8577 121.944 62.2081C124.605 60.4055 127.027 58.7367 129.704 59.2564C132.033 59.7095 133.941 61.6925 134.759 63.6464C136.011 66.6404 134.096 67.9766 135.133 71.9347C135.304 72.5924 135.389 72.6826 138.019 77.4908C140.964 82.9072 141.237 83.4443 141.401 84.5251C141.553 85.4886 142.086 88.9119 139.857 91.5725C137.628 94.2331 134.167 94.2859 133.536 94.2909C130.449 94.2728 128.143 92.5367 125.117 90.2562C122.19 88.0452 122.427 87.4197 120.471 86.5045C118.515 85.5893 117.851 85.9639 112.786 85.3648C108.763 84.889 106.72 84.6322 105.215 83.7061C103.162 82.4326 101.65 80.4469 100.969 78.1287C100.729 77.265 99.8722 73.685 102.048 70.7025C103.103 69.3176 104.569 68.3027 106.237 67.8035C108.506 67.1173 109.217 68.0317 112.326 67.4962C113.863 67.2135 115.35 66.7066 116.739 65.9917Z" fill="#FB865B" stroke="#131313" stroke-width="1.5" stroke-linecap="round" stroke-linejoin="round"/>
<path d="M116.178 56.3521C117.923 53.8818 117.775 50.7753 115.847 49.4135C113.919 48.0516 110.942 48.9502 109.197 51.4204C107.452 53.8907 107.6 56.9972 109.528 58.359C111.456 59.7209 114.433 58.8223 116.178 56.3521Z" fill="#FB865B" stroke="#131313" stroke-width="1.5" stroke-linecap="round" stroke-linejoin="round"/>
<path d="M144.608 55.1984C146.353 52.7281 146.204 49.6216 144.277 48.2598C142.349 46.8979 139.371 47.7965 137.626 50.2667C135.881 52.737 136.03 55.8435 137.957 57.2053C139.885 58.5672 142.863 57.6686 144.608 55.1984Z" fill="#FB865B" stroke="#131313" stroke-width="1.5" stroke-linecap="round" stroke-linejoin="round"/>
<path d="M151.37 69.2598C153.115 66.7895 152.967 63.683 151.039 62.3212C149.111 60.9593 146.133 61.8579 144.388 64.3281C142.643 66.7984 142.792 69.9049 144.72 71.2667C146.647 72.6286 149.625 71.73 151.37 69.2598Z" fill="#FB865B" stroke="#131313" stroke-width="1.5" stroke-linecap="round" stroke-linejoin="round"/>
<path d="M131.056 50.2375C132.801 47.7672 132.653 44.6607 130.725 43.2988C128.798 41.937 125.82 42.8355 124.075 45.3058C122.33 47.776 122.478 50.8826 124.406 52.2444C126.334 53.6062 129.311 52.7077 131.056 50.2375Z" fill="#FB865B" stroke="#131313" stroke-width="1.5" stroke-linecap="round" stroke-linejoin="round"/>
<path d="M131.989 64.2895C132.317 65.8482 132.328 67.4571 132.021 69.0201C132.001 69.1106 132.018 69.2053 132.068 69.2834C132.118 69.3615 132.197 69.4165 132.288 69.4363C132.378 69.4562 132.473 69.4392 132.551 69.3892C132.629 69.3392 132.684 69.2602 132.704 69.1697C133.034 67.4862 133.016 65.753 132.651 64.0768C132.623 63.991 132.562 63.9196 132.482 63.878C132.402 63.8364 132.309 63.8278 132.223 63.8541C132.138 63.8841 132.068 63.945 132.027 64.0245C131.986 64.1039 131.976 64.1961 132 64.2824L131.989 64.2895Z" fill="#131313"/>
<path d="M132.437 72.3699C132.671 73.8003 133.146 75.1806 133.842 76.4518C134.619 77.8528 135.747 78.954 136.727 80.2042C137.666 81.3924 138.292 82.7965 138.548 84.2886C138.805 85.7807 138.683 87.3133 138.196 88.7466C138.05 89.1919 138.733 89.3415 138.879 88.8962C139.338 87.5295 139.486 86.0775 139.313 84.6462C139.139 83.2149 138.649 81.8403 137.876 80.6229C137.007 79.2778 135.791 78.2052 134.881 76.8703C133.988 75.4951 133.391 73.949 133.128 72.3304C133.057 71.8904 132.358 71.9233 132.432 72.3689L132.437 72.3699Z" fill="#131313"/>
<path d="M103.266 73.832C102.007 76.0277 102.741 78.7937 104.372 80.587C106.35 82.7715 109.477 83.4183 112.296 83.6161C112.742 83.6471 112.704 82.9516 112.259 82.9161C109.716 82.7407 106.936 82.1651 105.065 80.2952C103.5 78.7308 102.749 76.1665 103.895 74.1608C104.119 73.7708 103.503 73.4451 103.279 73.835L103.266 73.832Z" fill="#131313"/>
<path d="M149.424 63.9776C150.099 63.9251 150.596 64.5302 150.755 65.1328C150.972 65.9486 150.622 66.8499 150.338 67.6035C150.298 67.6864 150.291 67.7811 150.318 67.8691C150.344 67.957 150.403 68.0318 150.482 68.0788C150.565 68.1218 150.661 68.1304 150.75 68.1026C150.84 68.0747 150.914 68.0128 150.958 67.9302C151.32 66.955 151.727 65.8563 151.389 64.8089C151.27 64.3692 151.009 63.9809 150.647 63.7041C150.285 63.4274 149.842 63.2775 149.387 63.2776C148.94 63.3133 148.973 64.0124 149.424 63.9776Z" fill="#131313"/>
<path d="M143.204 49.3606C143.494 49.4564 143.752 49.6325 143.947 49.8685C144.141 50.1045 144.266 50.3909 144.305 50.6944C144.457 51.5008 144.168 52.3393 143.926 53.0972C143.906 53.1878 143.923 53.2825 143.973 53.3606C144.023 53.4387 144.102 53.4937 144.193 53.5135C144.283 53.5321 144.377 53.5146 144.455 53.4648C144.533 53.415 144.588 53.3368 144.609 53.2469C144.902 52.3234 145.189 51.3414 144.943 50.3715C144.857 49.9715 144.663 49.6026 144.383 49.3042C144.103 49.0058 143.747 48.7893 143.353 48.6777C143.263 48.6579 143.168 48.6748 143.09 48.7248C143.012 48.7748 142.957 48.8538 142.937 48.9444C142.917 49.0349 142.934 49.1296 142.984 49.2077C143.034 49.2858 143.113 49.3408 143.204 49.3606Z" fill="#131313"/>
<path d="M128.991 44.6532C129.059 44.6633 129.126 44.6779 129.191 44.6971C129.287 44.718 129.123 44.6821 129.191 44.6971L129.278 44.716C129.34 44.7442 129.399 44.7765 129.457 44.8125L129.533 44.8578C129.533 44.8578 129.607 44.9122 129.56 44.8638C129.661 44.9409 129.756 45.0254 129.844 45.1167L129.924 45.206L129.947 45.2109C129.988 45.2602 130.026 45.3116 130.061 45.3648C130.092 45.4193 130.128 45.4748 130.158 45.5338L130.198 45.6095C130.161 45.5394 130.193 45.6323 130.19 45.646C130.242 45.7638 130.282 45.886 130.311 46.0111C130.33 46.0965 130.317 45.9838 130.303 46.0475L130.312 46.1354C130.322 46.1982 130.327 46.2615 130.328 46.325C130.323 46.3589 130.316 46.3924 130.306 46.4251C130.306 46.4251 130.283 46.5298 130.301 46.4479C130.287 46.5116 130.272 46.5799 130.257 46.6482C130.237 46.7388 130.254 46.8335 130.304 46.9116C130.354 46.9896 130.433 47.0446 130.524 47.0645C130.614 47.0843 130.709 47.0674 130.787 47.0173C130.865 46.9673 130.92 46.8884 130.94 46.7978C131.049 46.1638 130.915 45.5119 130.565 44.9725C130.214 44.433 129.673 44.0458 129.049 43.8882C128.958 43.8683 128.864 43.8853 128.785 43.9353C128.707 43.9853 128.652 44.0642 128.633 44.1548C128.613 44.2454 128.63 44.3401 128.68 44.4182C128.73 44.4962 128.809 44.5512 128.899 44.5711L128.991 44.6532Z" fill="#131313"/>
<path d="M115.162 51.0463C115.434 51.4477 115.597 51.913 115.635 52.3964C115.673 52.8798 115.584 53.3648 115.378 53.8038C115.18 54.2088 115.8 54.5355 115.998 54.1305C116.262 53.582 116.378 52.9741 116.335 52.3669C116.291 51.7598 116.089 51.1746 115.75 50.6695C115.492 50.2982 114.904 50.675 115.162 51.0463Z" fill="#131313"/>
</g>
<defs>
<clipPath id="clip0_52_398">
<rect width="66.0547" height="66.0547" fill="white" transform="translate(102.003 29.2888) rotate(12.3576)"/>
</clipPath>
</defs>
</svg>
