<svg width="58" height="58" viewBox="0 0 58 58" fill="none" xmlns="http://www.w3.org/2000/svg">
<path d="M28.5468 57.0935C44.3127 57.0935 57.0936 44.3127 57.0936 28.5468C57.0936 12.7808 44.3127 0 28.5468 0C12.7808 0 0 12.7808 0 28.5468C0 44.3127 12.7808 57.0935 28.5468 57.0935Z" fill="#FFC95F"/>
<path d="M33.4658 9.46113C30.1207 6.87386 23.9325 6.98489 21.2246 9.75075C19.651 11.3581 20.0226 12.9655 18.198 13.9261C15.7846 15.1956 13.569 13.2214 12.1498 14.5053C10.6486 15.8617 11.7733 19.3082 12.005 19.9743C12.8392 22.2469 14.4113 24.1743 16.47 25.4481C18.0756 26.4247 19.9021 26.9793 21.7797 27.0603C21.5266 30.0014 21.6092 32.9617 22.0258 35.884C22.9337 42.0061 25.2467 47.8349 28.7836 52.9136C33.7455 53.1011 38.6425 51.7386 42.7947 49.0155C46.9468 46.2924 50.1478 42.3439 51.9531 37.7183C49.9306 35.7248 47.1261 32.8575 43.8679 29.2662C40.2863 25.3081 38.4231 23.3242 37.4963 21.4224C34.5519 15.408 36.5937 11.8746 33.4658 9.46113Z" fill="white" stroke="#1A1A1A" stroke-width="0.86" stroke-linecap="round" stroke-linejoin="round"/>
<path d="M25.8533 8.19127C26.336 7.62169 27.2628 7.65065 28.9136 7.70857C30.3618 7.68069 31.7912 8.03889 33.0551 8.74637C34.5563 9.6635 34.3584 9.79383 36.212 12.6418C38.4517 16.0834 39.2723 16.344 39.084 17.4012C38.7848 19.0665 36.3857 20.4084 34.3246 20.2973C32.2635 20.1863 30.9216 18.632 29.2901 16.6868C27.2193 14.1622 24.5259 9.70212 25.8533 8.19127Z" fill="#1A1A1A" stroke="#1A1A1A" stroke-width="0.86" stroke-linecap="round" stroke-linejoin="round"/>
<path d="M13.2646 12.8397C14.0273 13.5686 14.008 15.0167 13.2308 15.5525C12.4537 16.0883 11.0491 15.5525 10.6581 14.5871C10.4959 14.2438 10.4629 13.8535 10.5652 13.4878C10.6674 13.1222 10.898 12.8056 11.2148 12.5962C11.5315 12.3868 11.9131 12.2986 12.2896 12.3478C12.6661 12.3969 13.0123 12.5802 13.2646 12.8639V12.8397Z" fill="#1A1A1A" stroke="#1A1A1A" stroke-width="0.86" stroke-linecap="round" stroke-linejoin="round"/>
<path d="M30.6224 28.6436V31.5397C29.1104 31.4033 27.5861 31.5423 26.1237 31.95C24.3425 32.4327 22.4938 32.9589 21.4898 34.5373C20.6402 35.8695 21.1712 36.9508 19.9886 38.2203C19.2356 39.0119 18.8011 38.814 18.3522 39.4463C17.2903 40.9427 18.5646 43.6989 19.4431 45.036C20.8006 46.9894 22.8572 48.3461 25.1872 48.8252L25.3031 48.8493L26.5871 49.2499C26.9249 50.5967 27.258 51.9482 27.5959 53.295C32.0682 53.2047 36.4756 52.2079 40.5515 50.365C39.8596 48.5661 39.1662 46.7689 38.4711 44.9732C39.221 42.7601 39.3872 40.391 38.9538 38.0948C38.6188 35.8859 37.655 33.8202 36.1777 32.1442C34.7003 30.4683 32.7718 29.253 30.6224 28.6436Z" fill="white" stroke="#1A1A1A" stroke-width="0.86" stroke-linecap="round" stroke-linejoin="round"/>
<path d="M27.7168 38.8956L31.9452 38.0171L27.7168 38.8956Z" fill="#1A1A1A"/>
<path d="M27.7168 38.8956L31.9452 38.0171" stroke="#1A1A1A" stroke-width="0.86" stroke-linecap="round" stroke-linejoin="round"/>
<path d="M27.6387 40.7734L31.9588 41.3527L27.6387 40.7734Z" fill="#1A1A1A"/>
<path d="M27.6387 40.7734L31.9588 41.3527" stroke="#1A1A1A" stroke-width="0.86" stroke-linecap="round" stroke-linejoin="round"/>
<path d="M16.359 38.2683C16.5036 37.9801 16.7469 37.7535 17.0445 37.6295C17.3421 37.5055 17.6744 37.4923 17.9808 37.5925C18.1574 37.6767 18.3143 37.797 18.4413 37.9457C18.5683 38.0944 18.6627 38.2682 18.7182 38.4557C18.7737 38.6432 18.7892 38.8403 18.7636 39.0342C18.7381 39.2281 18.672 39.4145 18.5697 39.5812C18.4037 39.8397 18.1537 40.033 17.8619 40.1289C17.57 40.2247 17.2541 40.2171 16.9672 40.1074C16.8057 40.0274 16.6617 39.9162 16.5435 39.7801C16.4254 39.6441 16.3354 39.486 16.2788 39.3149C16.2222 39.1438 16.2002 38.9632 16.2139 38.7835C16.2277 38.6039 16.277 38.4287 16.359 38.2683Z" fill="#1A1A1A" stroke="#1A1A1A" stroke-width="0.86" stroke-linecap="round" stroke-linejoin="round"/>
<path d="M21.9865 15.3089C22.3657 15.3089 22.6732 15.0015 22.6732 14.6222C22.6732 14.243 22.3657 13.9355 21.9865 13.9355C21.6072 13.9355 21.2998 14.243 21.2998 14.6222C21.2998 15.0015 21.6072 15.3089 21.9865 15.3089Z" fill="#1A1A1A" stroke="#1A1A1A" stroke-width="1.19" stroke-linecap="round" stroke-linejoin="round"/>
<path d="M14.7031 23.7538C15.4194 23.9587 16.1654 24.0403 16.9091 23.9952C18.1425 23.9133 19.3289 23.4905 20.3362 22.7739" stroke="#1A1A1A" stroke-width="0.86" stroke-linecap="round" stroke-linejoin="round"/>
<path d="M24.3904 39.3433C24.9593 39.3433 25.4204 38.8821 25.4204 38.3132C25.4204 37.7444 24.9593 37.2832 24.3904 37.2832C23.8215 37.2832 23.3604 37.7444 23.3604 38.3132C23.3604 38.8821 23.8215 39.3433 24.3904 39.3433Z" fill="black"/>
<path d="M19.4668 45.0549C20.2594 45.2922 21.0901 45.3758 21.9141 45.3011C22.5897 45.2414 23.2523 45.0786 23.8787 44.8184" stroke="#1A1A1A" stroke-width="0.86" stroke-linecap="round" stroke-linejoin="round"/>
</svg>
