<svg width="602" height="441" viewBox="0 0 602 441" fill="none" xmlns="http://www.w3.org/2000/svg">
<path d="M344.243 148.109C339.677 150.92 309.93 169.812 301.887 203.791C293.907 237.516 312.044 266.048 292.97 289.318C289.983 292.962 286.938 295.434 284.945 296.891C293.273 299.23 304.687 302.174 318.383 304.909C345.317 310.286 403.808 321.382 474.429 307.136C483.547 305.297 495.442 302.517 509.205 298.227C506.093 296.103 501.697 292.557 498.059 287.091C482.869 264.275 501.198 240.367 497.613 211.809C493.431 178.476 460.773 151.16 430.737 140.536C425.155 138.563 382.848 124.362 344.243 148.109Z" fill="#1A1A1A" stroke="#1A1A1A" stroke-width="2.393" stroke-miterlimit="10"/>
<path d="M371.216 306.914C344.193 319.387 332.954 346.319 329.53 356.435C324.237 372.079 324.313 386.971 324.358 403.876C324.38 411.72 324.83 418.963 325.517 425.521C379.687 426.3 433.857 427.075 488.028 427.855C487.76 424.438 487.332 419.413 486.69 413.351C483.115 379.612 481.541 362.725 475.99 349.998C473.297 343.829 465.214 325.948 445.672 313.15C439.524 309.123 423.135 299.635 400.642 300.232C385.162 300.642 373.963 305.649 371.216 306.914Z" fill="#E1855E" stroke="#1A1A1A" stroke-width="3" stroke-miterlimit="10"/>
<path d="M418.922 294.441C418.966 294.539 418.98 294.632 419.015 294.806C419.564 297.376 418.293 300.294 415.355 303.795C410.535 309.537 407.272 313.417 401.98 313.595C397.209 313.756 393.879 310.798 389.496 306.914C388.453 305.987 382.34 300.566 383.192 296.044C383.214 295.933 383.223 295.866 383.254 295.777C383.972 293.835 387.597 294.035 399.527 293.55C413.523 292.98 418.012 292.316 418.922 294.441Z" fill="#F7D5B0" stroke="#1A1A1A" stroke-width="3" stroke-miterlimit="10"/>
<path d="M477.773 223.168C478.999 247.998 466.774 266.475 464.398 269.941C444.959 298.308 412.68 303.003 405.992 303.796C397.254 304.829 390.307 304.165 387.267 303.796C363.2 300.856 347.114 287.336 341.79 282.414C339.196 280.013 313.444 255.446 315.04 219.605C316.761 180.979 349.749 140.216 395.738 139.868C445.61 139.494 475.981 186.908 477.773 223.168Z" fill="#F7D5B0" stroke="#1A1A1A" stroke-width="3" stroke-miterlimit="10"/>
<path d="M306.885 194.735C309.658 202.767 323.983 206.009 328.246 206.976C346.169 211.034 360.957 202.949 364.867 200.646C370.69 203.065 383.227 207.359 399.309 205.711C418.039 203.791 430.665 194.927 435.561 191.078C438.209 193.541 447.937 201.996 462.525 202.334C469.49 202.495 483.966 200.958 487.234 193.857C494.038 179.064 455.793 132.18 408.498 127.556C353.155 122.144 300.434 176.066 306.885 194.735Z" fill="#1A1A1A"/>
<path d="M345.076 219.845C349.829 216.482 355.58 214.803 361.399 215.11C362.121 215.15 362.736 214.469 362.736 213.774C362.736 213.017 362.121 212.478 361.399 212.437C355.161 212.108 348.826 213.93 343.725 217.538C343.137 217.957 342.861 218.705 343.244 219.364C343.587 219.948 344.483 220.264 345.076 219.845Z" fill="black"/>
<path d="M420.634 211.061C426.055 208.865 432.306 209.493 437.161 212.78C437.759 213.185 438.646 212.896 438.989 212.299C439.377 211.64 439.11 210.878 438.508 210.473C433.144 206.838 425.93 206.049 419.916 208.481C419.247 208.753 418.775 209.372 418.98 210.125C419.163 210.762 419.961 211.332 420.634 211.061Z" fill="black"/>
<path d="M376.821 264.19C380.82 269.558 387.004 272.952 393.669 273.563C400.12 274.155 406.541 271.709 411.24 267.313C413.866 264.858 415.877 261.816 417.125 258.453C417.375 257.776 416.844 256.987 416.189 256.809C415.44 256.604 414.793 257.063 414.544 257.744C412.609 262.956 408.315 267.286 403.139 269.464C397.918 271.66 391.837 271.42 386.692 268.948C383.74 267.531 381.078 265.464 379.13 262.845C378.698 262.266 377.971 261.972 377.302 262.364C376.727 262.693 376.384 263.607 376.821 264.19Z" fill="#1A1A1A"/>
<path opacity="0.9" d="M342.041 255.468C350.038 255.161 356.414 252.123 356.282 248.681C356.15 245.239 349.56 242.697 341.563 243.004C333.566 243.31 327.19 246.348 327.322 249.79C327.454 253.232 334.044 255.774 342.041 255.468Z" fill="#F0D5E3" stroke="#F0D5E3" stroke-width="2" stroke-miterlimit="10"/>
<path opacity="0.9" d="M442.806 251.458C450.803 251.152 457.178 248.114 457.046 244.672C456.914 241.23 450.324 238.688 442.327 238.994C434.331 239.301 427.955 242.339 428.087 245.781C428.219 249.223 434.809 251.765 442.806 251.458Z" fill="#F0D5E3" stroke="#F0D5E3" stroke-width="2" stroke-miterlimit="10"/>
<path d="M358.956 248.782C365.604 248.782 370.993 242.699 370.993 235.196C370.993 227.692 365.604 221.609 358.956 221.609C352.307 221.609 346.918 227.692 346.918 235.196C346.918 242.699 352.307 248.782 358.956 248.782Z" fill="#F0EEE3" stroke="black" stroke-width="2.2413" stroke-miterlimit="10"/>
<path d="M359.178 238.982C364.226 238.982 368.318 235.149 368.318 230.421C368.318 225.692 364.226 221.859 359.178 221.859C354.131 221.859 350.039 225.692 350.039 230.421C350.039 235.149 354.131 238.982 359.178 238.982Z" fill="black" stroke="black" stroke-width="2.4863" stroke-miterlimit="10"/>
<path d="M361.88 225.952C363.668 225.952 363.673 223.177 361.88 223.177C360.093 223.177 360.088 225.952 361.88 225.952Z" fill="white"/>
<path d="M428.062 243.436C434.71 243.436 440.099 237.354 440.099 229.85C440.099 222.346 434.71 216.264 428.062 216.264C421.413 216.264 416.024 222.346 416.024 229.85C416.024 237.354 421.413 243.436 428.062 243.436Z" fill="#F0EEE3" stroke="black" stroke-width="2.2413" stroke-miterlimit="10"/>
<path d="M428.284 233.636C433.332 233.636 437.424 229.803 437.424 225.075C437.424 220.346 433.332 216.513 428.284 216.513C423.237 216.513 419.145 220.346 419.145 225.075C419.145 229.803 423.237 233.636 428.284 233.636Z" fill="black" stroke="black" stroke-width="2.4863" stroke-miterlimit="10"/>
<path d="M430.986 220.607C432.774 220.607 432.779 217.832 430.986 217.832C429.199 217.832 429.194 220.607 430.986 220.607Z" fill="white"/>
<path d="M125.555 248.559C84.328 266.783 73.6099 314.954 66.9266 345C59.3517 379.051 62.1873 407.952 65.1433 425.182C128.6 426.073 192.062 426.964 255.519 427.855C260.187 402.553 262.911 364.382 248.832 322.727C239.955 296.477 230.311 267.945 201.349 252.123C178.874 239.846 149.667 237.904 125.555 248.559Z" fill="#B6C5D0" stroke="#1A1A1A" stroke-width="3" stroke-miterlimit="10" stroke-linecap="round" stroke-linejoin="round"/>
<path d="M171.032 264.15C171.076 264.248 171.09 264.342 171.125 264.516C171.674 267.086 170.403 270.004 167.465 273.505C162.645 279.247 159.382 283.127 154.089 283.305C149.319 283.465 145.988 280.507 141.606 276.623C140.563 275.696 134.45 270.275 135.302 265.754C135.324 265.643 135.333 265.576 135.364 265.487C136.082 263.544 139.706 263.745 151.637 263.259C165.632 262.689 170.122 262.025 171.032 264.15Z" fill="#F7D5B0" stroke="#1A1A1A" stroke-width="3" stroke-miterlimit="10"/>
<path d="M229.883 167.486C230.4 167.072 234.208 164.119 238.8 165.259C243.669 166.471 246.156 171.473 246.379 175.505C246.419 176.208 246.616 181.398 242.367 184.859C238.354 188.129 233.624 187.216 233.004 187.086" fill="#F7D5B0"/>
<path d="M229.883 167.486C230.4 167.072 234.208 164.119 238.8 165.259C243.669 166.471 246.156 171.473 246.379 175.505C246.419 176.208 246.616 181.398 242.367 184.859C238.354 188.129 233.624 187.216 233.004 187.086" stroke="#1A1A1A" stroke-width="3.011" stroke-miterlimit="10" stroke-linecap="round" stroke-linejoin="round"/>
<path d="M232.112 168.823C239.291 199.145 231.1 237.552 201.349 259.696C168.53 284.12 130.348 273.22 126.893 272.168C86.1783 259.794 57.8091 216.166 64.4745 174.168C71.2201 131.65 110.628 111.235 115.747 108.687C122.983 105.083 136.082 98.7486 153.198 99.3321C188.567 100.535 223.08 130.652 232.112 168.823Z" fill="#F7D5B0" stroke="#1A1A1A" stroke-width="3.011" stroke-miterlimit="10" stroke-linecap="round" stroke-linejoin="round"/>
<path d="M80.5739 123.943C62.1827 141.245 48.9679 173.585 60.2344 189.523C66.0304 197.719 76.3695 198.851 77.3816 198.949C87.6494 199.973 98.0376 194.249 104.409 184.16C108.912 185.772 119.411 188.828 132.247 185.888C148.926 182.07 158.405 170.685 161.134 167.148C166.355 170.382 174.607 174.395 185.285 175.447C190.096 175.919 206.525 177.282 221.292 166.279C227.11 161.945 230.824 157.063 233 153.708C231.921 149.307 223.659 117.867 193.837 104.263C177.367 96.7481 162.101 98.2225 155.075 99.3896C155.052 98.276 154.78 90.5429 148.552 85.585C144.744 82.5559 140.66 82.1105 138.971 82.0303C139.359 82.5203 142.132 86.1418 141.142 90.9394C140.384 94.601 137.91 96.6456 137.219 97.1802C130.526 98.57 121.195 101.033 110.642 105.662C102.781 109.105 90.7169 114.397 80.5739 123.943Z" fill="#1A1A1A" stroke="#1A1A1A" stroke-width="2.9652" stroke-miterlimit="10" stroke-linecap="round" stroke-linejoin="round"/>
<path d="M68.7455 200.9C67.9252 200.414 62.8202 197.505 57.6439 199.581C51.9951 201.849 50.1314 208.076 50.1136 212.156C50.0913 218.344 54.26 225.427 61.2954 226.665C66.2086 227.529 71.3359 225.342 74.6753 221.172" fill="#F7D5B0"/>
<path d="M68.7455 200.9C67.9252 200.414 62.8202 197.505 57.6439 199.581C51.9951 201.849 50.1314 208.076 50.1136 212.156C50.0913 218.344 54.26 225.427 61.2954 226.665C66.2086 227.529 71.3359 225.342 74.6753 221.172" stroke="#1A1A1A" stroke-width="3.011" stroke-miterlimit="10" stroke-linecap="round" stroke-linejoin="round"/>
<path d="M180.541 107.176C182.829 107.029 185.089 107.582 187.046 108.78C187.782 109.23 188.455 108.076 187.719 107.626C185.579 106.312 183.047 105.68 180.541 105.84C180.18 105.862 179.873 106.129 179.873 106.508C179.873 106.851 180.18 107.199 180.541 107.176Z" fill="white"/>
<path d="M62.0311 178.463C61.6343 166.56 64.8801 154.635 71.1576 144.515C72.9365 141.646 74.9562 138.937 77.1988 136.412C77.7695 135.77 76.8243 134.821 76.2536 135.467C68.1481 144.59 62.8827 156.123 61.2286 168.204C60.7649 171.603 60.5777 175.033 60.6936 178.463C60.7248 179.322 62.0623 179.327 62.0311 178.463Z" fill="white"/>
<path d="M196.917 111.729C202.825 114.678 208.157 118.682 212.687 123.484C217.23 128.3 220.94 133.895 223.601 139.957C225.095 143.356 226.227 146.911 227.007 150.537C227.186 151.379 228.479 151.022 228.296 150.18C226.887 143.601 224.266 137.289 220.668 131.6C217.07 125.912 212.504 120.825 207.203 116.673C204.207 114.33 200.997 112.277 197.595 110.579C196.824 110.192 196.146 111.346 196.917 111.729Z" fill="white"/>
<path d="M190.744 221.731C197.366 221.147 202.2 214.614 201.54 207.14C200.879 199.666 194.976 194.08 188.353 194.664C181.731 195.248 176.898 201.78 177.558 209.255C178.218 216.729 184.122 222.315 190.744 221.731Z" fill="#F0EEE3" stroke="black" stroke-width="2.2413" stroke-miterlimit="10"/>
<path d="M194.71 218.473C198.88 218.105 201.883 213.542 201.419 208.28C200.954 203.019 197.197 199.052 193.027 199.419C188.858 199.787 185.854 204.35 186.319 209.612C186.784 214.873 190.541 218.84 194.71 218.473Z" fill="black" stroke="black" stroke-width="2.393" stroke-miterlimit="10"/>
<path d="M191.072 203.965C192.793 203.965 192.798 201.292 191.072 201.292C189.351 201.292 189.351 203.965 191.072 203.965Z" fill="white"/>
<path d="M123.369 234.299C129.992 233.715 134.825 227.182 134.165 219.708C133.505 212.234 127.601 206.648 120.979 207.232C114.356 207.816 109.523 214.348 110.183 221.822C110.843 229.297 116.747 234.882 123.369 234.299Z" fill="#F0EEE3" stroke="black" stroke-width="2.2413" stroke-miterlimit="10"/>
<path d="M127.336 231.045C131.506 230.677 134.509 226.114 134.044 220.853C133.58 215.591 129.823 211.624 125.653 211.992C121.483 212.359 118.48 216.922 118.945 222.184C119.409 227.445 123.166 231.412 127.336 231.045Z" fill="black" stroke="black" stroke-width="2.393" stroke-miterlimit="10"/>
<path d="M123.696 216.535C125.417 216.535 125.422 213.862 123.696 213.862C121.975 213.862 121.971 216.535 123.696 216.535Z" fill="white"/>
<path d="M109.233 204.473C109.269 204.424 109.541 204.09 109.353 204.303C109.162 204.526 109.487 204.156 109.492 204.152C109.643 203.978 109.804 203.813 109.969 203.653C110.134 203.493 110.307 203.346 110.481 203.194C110.767 202.949 110.298 203.31 110.499 203.181C110.584 203.123 110.664 203.061 110.749 203.003C111.15 202.731 111.578 202.486 112.015 202.281C112.069 202.254 112.474 202.09 112.198 202.196C111.948 202.29 112.269 202.174 112.318 202.156C112.559 202.067 112.804 201.987 113.049 201.916C113.272 201.853 113.495 201.796 113.723 201.751C113.825 201.729 113.923 201.711 114.026 201.693C114.048 201.689 114.53 201.635 114.217 201.662C113.905 201.684 114.347 201.653 114.409 201.649C114.512 201.64 114.614 201.635 114.717 201.631C114.971 201.617 115.23 201.617 115.484 201.626C115.716 201.635 115.943 201.657 116.175 201.675C116.429 201.693 115.787 201.604 116.175 201.68C116.277 201.698 116.375 201.715 116.478 201.738C116.728 201.791 116.977 201.853 117.222 201.929C117.37 201.974 118.065 202.241 117.61 202.045C118.573 202.45 119.804 202.366 120.357 201.328C120.812 200.468 120.669 199.02 119.639 198.584C117.196 197.55 114.565 197.323 111.993 198.049C109.456 198.766 107.298 200.308 105.773 202.45C105.162 203.306 105.595 204.718 106.491 205.194C107.521 205.738 108.582 205.386 109.233 204.473Z" fill="#1A1A1A"/>
<path d="M182.249 187.234C182.45 187.029 182.659 186.833 182.878 186.646C182.922 186.606 183.328 186.303 183.101 186.463C182.869 186.628 183.23 186.378 183.274 186.347C183.747 186.022 184.246 185.75 184.764 185.501C185.232 185.274 184.371 185.643 184.857 185.456C184.978 185.412 185.098 185.363 185.223 185.318C185.495 185.225 185.767 185.136 186.043 185.064C186.32 184.989 186.6 184.926 186.881 184.873C187.002 184.85 187.144 184.801 187.269 184.806C186.783 184.788 187.234 184.81 187.358 184.801C187.929 184.748 188.504 184.735 189.079 184.766C189.209 184.775 189.338 184.784 189.467 184.797C189.77 184.824 189.677 184.735 189.476 184.788C189.699 184.73 190.176 184.908 190.395 184.962C190.649 185.02 190.898 185.087 191.148 185.167C191.295 185.211 191.442 185.265 191.589 185.318C191.643 185.336 192.058 185.496 191.786 185.389C191.514 185.283 191.919 185.452 191.973 185.479C192.116 185.545 192.254 185.617 192.392 185.688C192.668 185.835 192.936 186 193.195 186.173C194.073 186.753 195.45 186.374 195.941 185.456C196.471 184.454 196.159 183.331 195.223 182.712C190.39 179.527 183.466 180.325 179.413 184.409C178.673 185.153 178.611 186.512 179.413 187.243C180.207 187.969 181.455 188.031 182.249 187.234Z" fill="#1A1A1A"/>
<path d="M105.046 261.923C98.2294 262.457 86.3966 264.382 74.7289 272.168C45.2718 291.826 46.1279 329.311 46.1947 330.968C47.238 357.451 63.819 379.541 83.6458 390.214C114.391 406.767 156.747 397.702 183.292 365.936C179.726 357.473 176.159 349.009 172.592 340.546C168.165 343.757 156.341 351.424 140.045 351.236C135.471 351.183 108.76 350.261 98.1358 328.964C89.5844 311.818 97.7746 294.138 99.0275 291.546" fill="#B6C5D0"/>
<path d="M105.046 261.923C98.2294 262.457 86.3966 264.382 74.7289 272.168C45.2718 291.826 46.1279 329.311 46.1947 330.968C47.238 357.451 63.819 379.541 83.6458 390.214C114.391 406.767 156.747 397.702 183.292 365.936C179.726 357.473 176.159 349.009 172.592 340.546C168.165 343.757 156.341 351.424 140.045 351.236C135.471 351.183 108.76 350.261 98.1358 328.964C89.5844 311.818 97.7746 294.138 99.0275 291.546" stroke="#1A1A1A" stroke-width="3" stroke-miterlimit="10" stroke-linecap="round" stroke-linejoin="round"/>
<path d="M147.259 291.715C143.211 286.686 136.563 285.893 134.896 285.697C124.624 284.472 116.545 291.127 112.314 294.717C97.1327 307.595 85.2687 333.503 94.8722 344.541C101.324 351.958 114.735 349.513 116.572 349.174C133.857 346.02 141.695 328.861 144.78 322.117C147.495 316.184 154.544 300.762 147.259 291.715Z" fill="#1A1A1A" stroke="#1A1A1A" stroke-width="0.7865" stroke-miterlimit="10"/>
<path d="M186.36 292.726C177.006 285.287 163.211 285.176 154.063 285.1C144.495 285.02 134.82 284.939 125.8 291.345C113.352 300.183 111.07 315.039 110.602 318.856C107.833 319.008 102.906 319.663 97.8058 322.661C86.8335 329.111 84.5062 340.853 84.1941 342.595C83.8686 344.385 82.1387 353.949 87.5424 362.382C92.3352 369.861 100.655 373.202 112.84 375.545C143.411 381.429 165.744 385.728 182.606 370.591C205.014 350.47 204.951 307.511 186.36 292.726Z" fill="#F7D5B0" stroke="#1A1A1A" stroke-width="3" stroke-miterlimit="10"/>
<path d="M111.19 319.369C116.179 319.382 121.168 319.729 126.108 320.424C126.469 320.473 126.821 320.335 126.933 319.957C127.022 319.645 126.821 319.186 126.465 319.133C121.404 318.415 116.304 318.041 111.19 318.028C110.33 318.032 110.33 319.369 111.19 319.369Z" fill="#1A1A1A"/>
<path d="M91.555 333.921C88.5188 334.594 85.438 333.547 83.7483 331.253C81.5235 328.233 82.0942 323.582 84.8807 321.511C87.3463 319.676 90.4939 320.651 90.9621 320.807C93.8422 321.752 95.9734 324.447 96.5039 327.801" fill="#1A1A1A"/>
<path d="M91.555 333.921C88.5188 334.594 85.438 333.547 83.7483 331.253C81.5235 328.233 82.0942 323.582 84.8807 321.511C87.3463 319.676 90.4939 320.651 90.9621 320.807C93.8422 321.752 95.9734 324.447 96.5039 327.801" stroke="#1A1A1A" stroke-width="0.7865" stroke-miterlimit="10"/>
<path d="M86.6685 323.297C86.9494 323.244 87.2303 323.19 87.5112 323.141C87.315 323.061 87.1143 322.981 86.9182 322.901C86.9316 322.919 86.9405 322.937 86.9494 322.959C86.9315 322.919 86.9137 322.874 86.8959 322.834C86.9048 322.856 86.9093 322.879 86.9137 322.901C86.9093 322.856 86.9003 322.807 86.8959 322.763C86.9003 322.79 86.9003 322.812 86.8959 322.839C86.9003 322.794 86.9093 322.745 86.9137 322.7C86.9093 322.736 86.9003 322.767 86.887 322.799C86.9048 322.758 86.9226 322.714 86.9405 322.674C86.9226 322.709 86.9048 322.745 86.8781 322.772C86.9048 322.736 86.9315 322.7 86.9583 322.665C86.9315 322.7 86.9003 322.727 86.8691 322.754C86.9048 322.727 86.9405 322.7 86.9761 322.674C86.9449 322.696 86.9093 322.718 86.8736 322.732C86.9137 322.714 86.9583 322.696 86.9984 322.678C86.9672 322.692 86.936 322.7 86.9048 322.705C86.9494 322.7 86.9984 322.692 87.043 322.687C87.0163 322.692 86.9851 322.692 86.9583 322.687C87.0029 322.692 87.0519 322.7 87.0965 322.705C87.0742 322.7 87.0519 322.696 87.0296 322.687C87.0698 322.705 87.1143 322.723 87.1545 322.741C87.1277 322.732 87.1054 322.718 87.0831 322.7C87.1188 322.727 87.1545 322.754 87.1901 322.781C87.1723 322.767 87.1545 322.749 87.1411 322.732C87.1678 322.767 87.1946 322.803 87.2213 322.839C87.208 322.821 87.1946 322.798 87.1857 322.776C87.2035 322.816 87.2214 322.861 87.2392 322.901C87.2303 322.874 87.2213 322.847 87.2169 322.821C87.2213 322.865 87.2303 322.914 87.2347 322.959C87.2303 322.923 87.2303 322.892 87.2347 322.856C87.2303 322.901 87.2213 322.95 87.2169 322.995C87.2213 322.954 87.2347 322.914 87.2481 322.879C87.2303 322.919 87.2124 322.963 87.1946 323.003C87.2124 322.963 87.2347 322.923 87.2615 322.888C87.2347 322.923 87.208 322.959 87.1812 322.995C87.2035 322.963 87.2303 322.937 87.257 322.914C87.2213 322.941 87.1857 322.968 87.15 322.995C87.1723 322.977 87.1991 322.959 87.2303 322.945C87.1901 322.963 87.1456 322.981 87.1054 322.999C87.1322 322.99 87.1545 322.981 87.1857 322.977C87.1411 322.981 87.0921 322.99 87.0475 322.995C87.0742 322.99 87.0965 322.99 87.1233 322.995C87.0787 322.99 87.0296 322.981 86.985 322.977C87.0029 322.981 87.0207 322.981 87.0386 322.99C86.9182 322.87 86.7933 322.745 86.673 322.625C86.6774 322.634 86.6774 322.643 86.6819 322.651C86.6774 322.607 86.6685 322.558 86.664 322.513C86.664 322.518 86.664 322.527 86.664 322.531C86.6685 322.487 86.6774 322.438 86.6819 322.393C86.6819 322.402 86.6774 322.411 86.6774 322.415C86.6952 322.375 86.7131 322.331 86.7309 322.291C86.7265 322.3 86.722 322.304 86.7175 322.313C86.7443 322.277 86.771 322.242 86.7978 322.206C86.7889 322.215 86.7844 322.224 86.7755 322.228C86.8112 322.202 86.8468 322.175 86.8825 322.148C86.8691 322.157 86.8558 322.166 86.8424 322.17C86.8825 322.153 86.9271 322.135 86.9672 322.117C86.9494 322.126 86.9316 322.13 86.9137 322.13C86.9583 322.126 87.0073 322.117 87.0519 322.112C87.0341 322.112 87.0207 322.112 87.0029 322.112C87.0475 322.117 87.0965 322.126 87.1411 322.13C87.1322 322.13 87.1188 322.126 87.1099 322.121C87.15 322.139 87.1946 322.157 87.2347 322.175C87.2258 322.17 87.2169 322.166 87.208 322.161C87.2436 322.188 87.2793 322.215 87.315 322.242C87.3105 322.237 87.3061 322.233 87.3016 322.228C87.3284 322.264 87.3551 322.3 87.3819 322.335C87.3774 322.326 87.3729 322.322 87.3685 322.313C87.3863 322.353 87.4041 322.398 87.422 322.438C87.4175 322.429 87.4175 322.42 87.4175 322.411C87.3997 322.344 87.3685 322.282 87.3239 322.233C87.2882 322.175 87.2392 322.13 87.1768 322.099C87.0653 322.032 86.8959 322.006 86.771 322.046C86.6417 322.086 86.5214 322.166 86.4545 322.286C86.4367 322.326 86.4188 322.371 86.401 322.411C86.3742 322.505 86.3742 322.598 86.401 322.692C86.401 322.7 86.4054 322.709 86.4054 322.718C86.4188 322.767 86.4411 322.816 86.4679 322.861C86.5125 322.941 86.6016 323.03 86.6819 323.075C86.7889 323.133 86.9182 323.173 87.0386 323.164C87.1634 323.155 87.2882 323.128 87.3952 323.057C87.4443 323.026 87.4933 322.99 87.5334 322.945C87.5647 322.91 87.6003 322.865 87.6271 322.825C87.6494 322.785 87.6761 322.727 87.685 322.678C87.6984 322.634 87.7073 322.567 87.7073 322.518C87.7073 322.491 87.6984 322.451 87.6984 322.438C87.6984 322.433 87.6939 322.38 87.685 322.357C87.6315 322.166 87.4889 322.019 87.2971 321.97C87.1589 321.934 87.0385 321.939 86.9003 321.966C86.878 321.97 86.8602 321.974 86.8424 321.983C86.78 322.006 86.7175 322.028 86.6596 322.063C86.5882 322.108 86.5125 322.161 86.459 322.228C86.401 322.295 86.343 322.366 86.3074 322.447C86.2672 322.527 86.2271 322.611 86.2137 322.7C86.187 322.852 86.187 322.945 86.2137 323.097C86.2271 323.182 86.2628 323.266 86.3074 323.342C86.3787 323.458 86.4679 323.542 86.5793 323.618C86.6997 323.694 86.8245 323.716 86.9583 323.734C87.0475 323.743 87.1411 323.729 87.2258 323.707C87.2882 323.689 87.3506 323.663 87.4086 323.632C87.4309 323.623 87.4532 323.609 87.471 323.596C87.5513 323.542 87.6315 323.485 87.6939 323.409C87.792 323.289 87.85 323.199 87.9035 323.048C87.9347 322.959 87.9481 322.856 87.9436 322.763C87.9392 322.696 87.9302 322.62 87.9124 322.558C87.8901 322.491 87.8634 322.424 87.8232 322.362C87.7965 322.326 87.7697 322.291 87.743 322.255C87.6939 322.202 87.6404 322.166 87.5736 322.148C87.5334 322.126 87.4889 322.112 87.4398 322.112C87.3685 322.095 87.3016 322.099 87.2303 322.121C86.9494 322.175 86.6685 322.228 86.3876 322.277C86.3207 322.295 86.2583 322.326 86.2093 322.371C86.1513 322.406 86.1067 322.456 86.0755 322.518C86.0086 322.629 85.9819 322.798 86.022 322.923C86.0622 323.052 86.1424 323.173 86.2628 323.239C86.3029 323.257 86.3475 323.275 86.3876 323.293C86.4812 323.324 86.5749 323.324 86.6685 323.297Z" fill="white"/>
<path d="M89.5977 323.244C89.7003 323.249 89.7984 323.253 89.9009 323.262C89.9723 323.271 89.9009 323.271 89.8742 323.257C89.9009 323.266 89.9411 323.266 89.9678 323.271C90.0168 323.28 90.0659 323.289 90.1194 323.302C90.2175 323.324 90.3156 323.351 90.4136 323.382C90.4627 323.396 90.5117 323.413 90.5563 323.431C90.5786 323.44 90.6054 323.449 90.6277 323.458C90.641 323.462 90.6499 323.467 90.6633 323.471C90.699 323.485 90.6856 323.48 90.6277 323.453C90.6544 323.48 90.7302 323.498 90.7659 323.516C90.8105 323.538 90.855 323.56 90.8996 323.587C90.9888 323.636 91.078 323.69 91.1627 323.743C91.2073 323.77 91.2474 323.801 91.2875 323.828C91.3009 323.837 91.3901 323.903 91.3276 323.854C91.2697 323.814 91.3366 323.863 91.3499 323.872C91.4346 323.939 91.5149 324.015 91.5907 324.09C91.7869 324.282 92.1435 324.3 92.3352 324.09C92.5359 323.872 92.5314 323.565 92.3352 323.347C91.6308 322.563 90.6633 322.104 89.629 321.97C89.5041 321.952 89.3392 322.041 89.2589 322.126C89.1697 322.215 89.0984 322.367 89.1029 322.496C89.1073 322.634 89.1519 322.772 89.2589 322.865C89.3704 322.968 89.4863 322.999 89.629 323.021C89.5978 323.017 89.5353 323.008 89.6022 323.017C89.629 323.021 89.6513 323.026 89.678 323.03C89.736 323.039 89.7895 323.053 89.8474 323.066C89.9544 323.088 90.057 323.119 90.1595 323.151C90.2086 323.164 90.2576 323.182 90.3022 323.2C90.3245 323.208 90.3512 323.217 90.3735 323.226C90.378 323.226 90.4939 323.275 90.4181 323.244C90.3512 323.213 90.4315 323.249 90.4404 323.257C90.4627 323.266 90.485 323.28 90.5073 323.289C90.5608 323.311 90.6098 323.338 90.6589 323.364C90.748 323.413 90.8372 323.462 90.9219 323.516C90.971 323.547 91.0155 323.578 91.0646 323.609C91.0869 323.623 91.1047 323.641 91.127 323.654C91.1359 323.663 91.2073 323.716 91.1493 323.672C91.0869 323.623 91.1805 323.698 91.185 323.703C91.2028 323.721 91.2251 323.734 91.2429 323.752C91.283 323.783 91.3187 323.819 91.3544 323.854C91.4391 323.93 91.5149 324.015 91.5951 324.099C91.8448 323.85 92.09 323.605 92.3397 323.355C91.613 322.638 90.6277 322.224 89.6067 322.197C89.3302 322.188 89.0672 322.442 89.0806 322.723C89.085 323.008 89.3035 323.24 89.5977 323.244Z" fill="white"/>
<path d="M143.278 308.02C143.848 303.118 140.88 298.746 136.649 298.255C132.417 297.763 128.525 301.339 127.955 306.241C127.385 311.143 130.353 315.515 134.585 316.007C138.816 316.498 142.708 312.922 143.278 308.02Z" fill="white" stroke="#1A1A1A" stroke-width="2" stroke-miterlimit="10"/>
<path d="M135.93 307.475C138.447 307.475 140.487 305.436 140.487 302.922C140.487 300.408 138.447 298.37 135.93 298.37C133.414 298.37 131.374 300.408 131.374 302.922C131.374 305.436 133.414 307.475 135.93 307.475Z" fill="#1A1A1A" stroke="#1A1A1A" stroke-width="1.573" stroke-miterlimit="10"/>
<path d="M137.861 301.163C139.216 301.163 139.216 299.06 137.861 299.06C136.51 299.06 136.505 301.163 137.861 301.163Z" fill="white"/>
<path d="M165.167 310.873C165.942 306 163.159 301.507 158.952 300.84C154.745 300.173 150.707 303.583 149.932 308.457C149.158 313.331 151.94 317.823 156.148 318.49C160.355 319.157 164.393 315.747 165.167 310.873Z" fill="white" stroke="#1A1A1A" stroke-width="2" stroke-miterlimit="10"/>
<path d="M157.875 310.019C160.391 310.019 162.431 307.98 162.431 305.466C162.431 302.952 160.391 300.914 157.875 300.914C155.358 300.914 153.318 302.952 153.318 305.466C153.318 307.98 155.358 310.019 157.875 310.019Z" fill="#1A1A1A" stroke="#1A1A1A" stroke-width="1.573" stroke-miterlimit="10"/>
<path d="M160.046 303.756C161.401 303.756 161.401 301.653 160.046 301.653C158.69 301.658 158.69 303.756 160.046 303.756Z" fill="white"/>
<path d="M205.808 256.132C208.741 257.103 241.11 268.466 251.284 302.905C258.319 326.727 251.311 350.029 239.509 365.518C235.336 370.997 226.058 382.819 209.058 387.675C187.965 393.697 170.028 384.561 165.681 382.195C172.07 370.614 178.464 359.032 184.853 347.45C194.216 341.067 203.578 334.679 212.941 328.295" fill="#B6C5D0"/>
<path d="M205.808 256.132C208.741 257.103 241.11 268.466 251.284 302.905C258.319 326.727 251.311 350.029 239.509 365.518C235.336 370.997 226.058 382.819 209.058 387.675C187.965 393.697 170.028 384.561 165.681 382.195C172.07 370.614 178.464 359.032 184.853 347.45C194.216 341.067 203.578 334.679 212.941 328.295" stroke="#1A1A1A" stroke-width="3" stroke-miterlimit="10" stroke-linecap="round" stroke-linejoin="round"/>
<path d="M177.795 293.497C182.887 289.528 189.543 290.281 191.206 290.468C201.487 291.63 207.823 299.956 211.117 304.419C222.937 320.434 228.546 348.363 216.664 356.907C208.679 362.649 196.191 357.197 194.479 356.449C178.379 349.419 174.683 330.924 173.23 323.65C171.954 317.257 168.633 300.633 177.795 293.497Z" fill="#1A1A1A" stroke="#1A1A1A" stroke-width="0.7865" stroke-miterlimit="10"/>
<path d="M59.3918 206.41C58.5848 210.905 60.2835 215.689 63.8458 218.58C64.5101 219.119 65.4597 218.179 64.791 217.636C61.6166 215.057 59.9535 210.811 60.6803 206.767C60.8319 205.925 59.5434 205.564 59.3918 206.41Z" fill="#1A1A1A"/>
<path d="M61.8306 214.041C62.3478 213.992 62.8739 213.979 63.3955 214.01C63.5159 214.019 63.6363 214.028 63.7566 214.036C63.828 214.045 63.8948 214.05 63.9662 214.059C63.9974 214.063 64.0241 214.068 64.0553 214.068C63.9751 214.059 63.9796 214.059 64.0553 214.068C64.3139 214.108 64.5681 214.152 64.8222 214.21C65.161 214.286 65.5623 214.108 65.647 213.742C65.7228 213.404 65.5445 213.003 65.1789 212.918C64.0821 212.669 62.9496 212.589 61.8306 212.696C61.4828 212.731 61.144 212.981 61.1618 213.364C61.1796 213.707 61.4605 214.077 61.8306 214.041Z" fill="#1A1A1A"/>
<path d="M67.5863 210.085C68.4691 211.568 69.0353 213.234 69.2092 214.954C69.2449 215.315 69.4901 215.622 69.878 215.622C70.2124 215.622 70.5824 215.315 70.5467 214.954C70.3506 212.994 69.7487 211.105 68.7411 209.408C68.3041 208.669 67.1449 209.341 67.5863 210.085Z" fill="#1A1A1A"/>
<path d="M238.666 175.571C238.524 175.825 238.363 176.066 238.185 176.293C238.22 176.248 238.256 176.204 238.287 176.159C238.002 176.525 237.677 176.859 237.311 177.148C237.186 177.251 237.115 177.469 237.115 177.62C237.115 177.785 237.186 177.981 237.311 178.093C237.44 178.208 237.605 178.297 237.784 178.289C237.841 178.28 237.904 178.271 237.962 178.266C238.073 178.235 238.171 178.177 238.256 178.093C238.885 177.585 239.42 176.948 239.817 176.244C239.99 175.941 239.901 175.5 239.576 175.331C239.268 175.161 238.854 175.246 238.666 175.571Z" fill="#1A1A1A"/>
<path d="M237.084 174.231C237.886 174.738 238.484 175.197 239.179 175.852C239.505 176.159 239.817 176.48 240.111 176.819C240.263 176.992 240.41 177.166 240.552 177.344C240.673 177.496 240.775 177.629 240.927 177.843C241.132 178.128 241.52 178.289 241.841 178.084C242.122 177.901 242.3 177.474 242.082 177.171C240.913 175.54 239.456 174.15 237.761 173.077C237.467 172.89 237.012 173.006 236.847 173.317C236.669 173.647 236.767 174.035 237.084 174.231Z" fill="#1A1A1A"/>
<path d="M105.301 239.873C106.75 239.873 108.199 239.873 109.652 239.873C110 239.873 110.339 239.566 110.321 239.205C110.303 238.844 110.027 238.537 109.652 238.537C108.203 238.537 106.754 238.537 105.301 238.537C104.953 238.537 104.614 238.844 104.632 239.205C104.65 239.57 104.926 239.873 105.301 239.873Z" fill="#1A1A1A"/>
<path d="M105.635 243.299C107.864 242.033 110.414 241.499 112.965 241.722C113.821 241.797 113.816 240.461 112.965 240.385C110.191 240.145 107.378 240.773 104.957 242.145C104.213 242.568 104.886 243.722 105.635 243.299Z" fill="#1A1A1A"/>
<path d="M204.064 220.389C205.348 219.431 206.704 218.781 208.229 218.389C208.567 218.299 208.804 217.907 208.697 217.564C208.585 217.217 208.237 217.003 207.872 217.097C206.258 217.511 204.724 218.237 203.387 219.235C203.097 219.449 202.95 219.814 203.146 220.148C203.32 220.433 203.774 220.607 204.064 220.389Z" fill="#1A1A1A"/>
<path d="M206.552 222.264C208.451 221.141 210.591 220.447 212.794 220.273C213.155 220.242 213.463 219.988 213.463 219.605C213.463 219.266 213.155 218.905 212.794 218.936C210.351 219.132 207.988 219.867 205.879 221.11C205.134 221.547 205.807 222.705 206.552 222.264Z" fill="#1A1A1A"/>
<path d="M317.715 213.814C316.613 213.52 312.779 212.642 309.244 214.705C304.335 217.573 303.755 223.926 304.339 227.623C304.518 228.745 305.458 234.732 310.581 236.977C313.39 238.211 316.092 237.717 317.269 237.423" fill="#F7D5B0"/>
<path d="M317.715 213.814C316.613 213.52 312.779 212.642 309.244 214.705C304.335 217.573 303.755 223.926 304.339 227.623C304.518 228.745 305.458 234.732 310.581 236.977C313.39 238.211 316.092 237.717 317.269 237.423" stroke="#1A1A1A" stroke-width="3" stroke-miterlimit="10" stroke-linecap="round" stroke-linejoin="round"/>
<path d="M475.361 210.696C476.463 210.402 480.297 209.524 483.832 211.586C488.741 214.455 489.321 220.807 488.737 224.505C488.558 225.627 487.618 231.614 482.495 233.859C479.686 235.093 476.984 234.599 475.807 234.305" fill="#F7D5B0"/>
<path d="M475.361 210.696C476.463 210.402 480.297 209.524 483.832 211.586C488.741 214.455 489.321 220.807 488.737 224.505C488.558 225.627 487.618 231.614 482.495 233.859C479.686 235.093 476.984 234.599 475.807 234.305" stroke="#1A1A1A" stroke-width="3" stroke-miterlimit="10" stroke-linecap="round" stroke-linejoin="round"/>
<g opacity="0.9">
<g opacity="0.9">
<path opacity="0.9" d="M311.196 222.117C311.254 224.839 310.305 227.534 308.512 229.592C307.951 230.238 308.891 231.187 309.458 230.536C311.482 228.211 312.596 225.2 312.534 222.117C312.516 221.257 311.179 221.253 311.196 222.117Z" fill="black"/>
</g>
</g>
<g opacity="0.9">
<g opacity="0.9">
<path opacity="0.9" d="M310.63 227.894C311.526 228.923 312.681 229.69 313.956 230.166C314.286 230.287 314.705 230.028 314.781 229.699C314.866 229.32 314.665 229.008 314.313 228.874C314.242 228.848 314.175 228.821 314.103 228.794C313.97 228.741 314.099 228.803 314.103 228.794C314.103 228.799 314.019 228.759 314.014 228.754C313.876 228.692 313.742 228.63 313.613 228.558C313.341 228.416 313.078 228.255 312.828 228.082C312.766 228.037 312.708 227.997 312.645 227.952C312.628 227.939 312.574 227.912 312.565 227.894C312.583 227.908 312.601 227.926 312.623 227.939C312.605 227.926 312.583 227.908 312.565 227.894C312.449 227.801 312.333 227.707 312.226 227.605C311.999 227.4 311.785 227.182 311.584 226.95C311.352 226.687 310.871 226.696 310.639 226.95C310.372 227.235 310.385 227.614 310.63 227.894Z" fill="black"/>
</g>
</g>
<g opacity="0.9">
<g opacity="0.9">
<path opacity="0.9" d="M481.3 219.03C480.738 221.453 479.895 223.796 478.763 226.01C478.371 226.776 479.525 227.454 479.918 226.683C481.104 224.367 482.004 221.917 482.593 219.382C482.78 218.549 481.492 218.188 481.3 219.03Z" fill="black"/>
</g>
</g>
<g opacity="0.9">
<g opacity="0.9">
<path opacity="0.9" d="M480.52 224.416C481.683 225.4 483.092 226.073 484.604 226.295C484.947 226.344 485.339 226.211 485.428 225.828C485.5 225.511 485.33 225.061 484.96 225.004C484.621 224.955 484.291 224.883 483.962 224.79C483.797 224.741 483.636 224.692 483.476 224.634C483.395 224.603 483.315 224.571 483.235 224.545C483.163 224.514 483.155 224.514 483.217 224.54C483.177 224.523 483.137 224.505 483.101 224.487C482.789 224.349 482.49 224.188 482.2 224.006C482.058 223.917 481.915 223.819 481.777 223.721C481.741 223.694 481.71 223.672 481.674 223.645C481.723 223.685 481.719 223.681 481.657 223.632C481.59 223.578 481.523 223.525 481.46 223.471C481.193 223.244 480.774 223.191 480.515 223.471C480.288 223.721 480.234 224.175 480.52 224.416Z" fill="black"/>
</g>
</g>
<path d="M295.833 153.647C293.001 167.523 291.566 179.296 290.781 188.036C289.265 204.896 289.827 214.309 291.726 223.374C294.816 238.118 299.618 243.179 304.041 245.459C306.149 246.546 307.79 247.393 309.725 247.036C318.468 245.433 318.86 221.935 324.884 195.608C327.447 184.392 331.817 169.264 339.726 151.753" fill="#F7D5B0"/>
<path d="M295.833 153.647C293.001 167.523 291.566 179.296 290.781 188.036C289.265 204.896 289.827 214.309 291.726 223.374C294.816 238.118 299.618 243.179 304.041 245.459C306.149 246.546 307.79 247.393 309.725 247.036C318.468 245.433 318.86 221.935 324.884 195.608C327.447 184.392 331.817 169.264 339.726 151.753" stroke="#1A1A1A" stroke-width="3" stroke-miterlimit="10"/>
<path d="M460.983 154.279C460.693 167.317 462.097 177.995 463.511 185.514C466.467 201.234 470.738 209.898 475.825 216.433C481.799 224.108 485.709 224.741 487.823 224.634C492.526 224.402 495.629 220.157 496.031 219.587C499.076 215.288 498.608 210.17 497.292 202.548C495.228 190.583 494.198 184.605 490.346 173.839C488.072 167.487 484.657 158.974 479.61 149.232" fill="#F7D5B0"/>
<path d="M460.983 154.279C460.693 167.317 462.097 177.995 463.511 185.514C466.467 201.234 470.738 209.898 475.825 216.433C481.799 224.108 485.709 224.741 487.823 224.634C492.526 224.402 495.629 220.157 496.031 219.587C499.076 215.288 498.608 210.17 497.292 202.548C495.228 190.583 494.198 184.605 490.346 173.839C488.072 167.487 484.657 158.974 479.61 149.232" stroke="#1A1A1A" stroke-width="3" stroke-miterlimit="10"/>
<path d="M266.148 87.0778C266.318 64.5868 269.033 58.6133 271.833 58.052C274.691 57.4818 278.757 62.3373 282.569 66.8854C285.551 70.4446 287.562 73.8167 288.886 76.3513C298.254 73.1975 307.621 70.0392 316.992 66.8854C317.938 60.306 319.15 54.9695 320.149 51.1118C321.206 47.0404 321.852 45.3209 323.306 44.7997C326.306 43.7307 330.519 48.5327 332.78 51.1118C335.388 54.083 338.888 58.9474 341.304 66.2573C343.418 67.5447 346.195 69.5492 348.884 72.5694C350.899 74.8323 352.317 77.0507 353.307 78.8815C355.959 77.2066 359.825 74.9125 364.676 72.5694C393.134 58.836 419.729 60.698 425.623 61.2103C434.803 62.0121 463.493 64.5156 485.62 85.1891C493.628 92.6728 497.15 99.1452 498.251 101.279C499.95 104.575 510.418 124.875 500.779 145.134C496.325 154.497 489.289 160.244 484.358 163.433C456.885 168.445 432.618 170.115 412.992 170.373C404.289 170.489 375.354 170.583 337.836 164.694C320.635 161.994 306.19 158.751 295.364 156.016C292.618 155.985 288.472 155.638 283.839 153.967C269.278 148.706 259.438 133.761 257.628 118.946C255.64 102.731 263.7 90.5078 266.148 87.0778Z" fill="#F7D5B0" stroke="#1A1A1A" stroke-width="3" stroke-miterlimit="10"/>
<path d="M485.611 85.1845C463.484 64.511 434.794 62.0075 425.614 61.2057C419.72 60.6934 393.13 58.8314 364.667 72.5648C360.81 74.4268 357.582 76.2532 355.086 77.7677C353.962 79.1353 353.342 80.4627 353.298 81.7144C353.088 87.6746 365.822 94.3386 376.665 94.6504C394.686 95.1672 407.571 78.1374 410.451 74.1417C411.815 77.6608 414.263 82.8236 418.659 88.0221C429.114 100.379 442.761 103.689 447.393 104.744C466.23 109.034 481.532 102.067 486.236 99.6974C485.709 101.92 484.631 107.867 487.497 114.21C491.791 123.707 501.524 126.558 504.787 127.267C504.885 114.179 499.424 103.577 498.233 101.274C497.145 99.1406 493.623 92.6682 485.611 85.1845Z" fill="#1A1A1A" stroke="#1A1A1A" stroke-width="2.1248" stroke-miterlimit="10"/>
<path d="M353.538 78.7256C353.463 78.7746 353.378 78.8236 353.302 78.8726C352.317 77.0462 350.899 74.8278 348.879 72.5605C346.191 69.5448 343.418 67.5358 341.3 66.2484C338.879 58.9385 335.379 54.0741 332.775 51.1029C330.515 48.5282 326.302 43.7218 323.301 44.7908C321.843 45.312 321.201 47.0315 320.145 51.1029C319.141 54.9606 317.933 60.2971 316.988 66.8765C307.621 70.0303 298.254 73.1886 288.882 76.3424C287.562 73.8078 285.547 70.4357 282.564 66.8765C278.752 62.3239 274.686 57.4729 271.828 58.0431C269.028 58.6044 266.313 64.5779 266.144 87.0689C263.937 90.1648 257.169 100.41 257.312 114.286C259.345 116.023 261.556 117.391 263.932 118.304C274.102 122.224 284.909 116.995 288.249 115.15C300.603 108.322 307.955 94.0537 307.197 78.2356C309.458 88.1558 314.429 91.6304 316.355 92.7485C327.345 99.1408 346.039 90.8286 353.538 78.7256Z" fill="#1A1A1A" stroke="#1A1A1A" stroke-width="2.1248" stroke-miterlimit="10"/>
<path d="M489.401 91.8084C493.623 93.7729 503.748 97.7775 516.557 95.911C520.066 95.3988 536.398 93.0156 546.242 78.8724C552.787 69.4688 555.587 56.1186 552.243 44.7996C549.773 36.4428 544.672 31.623 547.191 26.8166C549.028 23.3108 553.888 21.7829 557.611 22.0858C565.132 22.6917 569.475 30.8524 571.191 34.073C578.048 46.9556 574.673 60.9072 572.77 68.7784C571.138 75.527 568.235 87.5187 557.927 98.753C539.831 118.473 514.93 118.384 511.51 118.313C501.461 118.112 493.454 115.413 488.46 113.266" fill="#1A1A1A"/>
<path d="M489.401 91.8084C493.623 93.7728 503.748 97.7775 516.557 95.911C520.066 95.3988 536.398 93.0156 546.242 78.8724C552.787 69.4688 555.587 56.1186 552.243 44.7996C549.773 36.4428 544.672 31.623 547.191 26.8166C549.028 23.3108 553.888 21.7829 557.611 22.0858C565.132 22.6917 569.475 30.8524 571.191 34.073C578.048 46.9556 574.673 60.9072 572.77 68.7784C571.138 75.527 568.235 87.5187 557.927 98.753C539.831 118.473 514.93 118.384 511.51 118.313C501.461 118.112 493.454 115.413 488.46 113.266" stroke="#1A1A1A" stroke-width="2.1248" stroke-miterlimit="10"/>
<path d="M289.359 117.208C295.288 117.208 300.095 112.406 300.095 106.481C300.095 100.557 295.288 95.7549 289.359 95.7549C283.43 95.7549 278.623 100.557 278.623 106.481C278.623 112.406 283.43 117.208 289.359 117.208Z" fill="#F0EEE3" stroke="#1A1A1A" stroke-width="2.1248" stroke-miterlimit="10"/>
<path d="M326.302 103.956C332.231 103.956 337.038 99.1536 337.038 93.2295C337.038 87.3054 332.231 82.5029 326.302 82.5029C320.372 82.5029 315.566 87.3054 315.566 93.2295C315.566 99.1536 320.372 103.956 326.302 103.956Z" fill="#F0EEE3" stroke="#1A1A1A" stroke-width="2.1248" stroke-miterlimit="10"/>
<path d="M290.148 117.204C294.42 117.204 297.883 114.238 297.883 110.58C297.883 106.922 294.42 103.956 290.148 103.956C285.876 103.956 282.413 106.922 282.413 110.58C282.413 114.238 285.876 117.204 290.148 117.204Z" fill="#1A1A1A" stroke="#1A1A1A" stroke-width="2.1248" stroke-miterlimit="10"/>
<path d="M326.462 104.272C330.734 104.272 334.198 101.307 334.198 97.6483C334.198 93.99 330.734 91.0244 326.462 91.0244C322.19 91.0244 318.727 93.99 318.727 97.6483C318.727 101.307 322.19 104.272 326.462 104.272Z" fill="#1A1A1A" stroke="#1A1A1A" stroke-width="2.1248" stroke-miterlimit="10"/>
<path d="M293.514 108.433C295.342 108.433 295.347 105.595 293.514 105.595C291.686 105.591 291.682 108.433 293.514 108.433Z" fill="white"/>
<path d="M329.044 95.0289C330.872 95.0289 330.876 92.1914 329.044 92.1914C327.216 92.1914 327.211 95.0289 329.044 95.0289Z" fill="white"/>
<path d="M307.706 111.529C307.759 111.182 308.263 111.155 310.443 110.389C313.399 109.351 313.952 108.883 314.331 109.195C315.04 109.792 314.496 112.683 312.623 113.56C310.461 114.585 307.563 112.424 307.706 111.529Z" fill="#1A1A1A" stroke="#1A1A1A" stroke-width="0.7083" stroke-miterlimit="10"/>
<path d="M314.259 112.112C318.678 109.849 323.217 107.84 327.862 106.094C328.428 105.88 328.183 104.967 327.613 105.181C322.891 106.954 318.272 108.994 313.782 111.297C313.238 111.573 313.716 112.389 314.259 112.112Z" fill="#1A1A1A"/>
<path d="M313.983 112.62C318.74 111.422 323.582 110.571 328.464 110.081C329.066 110.023 329.07 109.074 328.464 109.137C323.497 109.631 318.571 110.491 313.729 111.707C313.14 111.854 313.39 112.767 313.983 112.62Z" fill="#1A1A1A"/>
<path d="M309.297 112.42C303.051 114.246 297.005 116.741 291.289 119.854C290.754 120.144 291.231 120.964 291.766 120.67C297.415 117.596 303.376 115.133 309.547 113.328C310.131 113.164 309.886 112.25 309.297 112.42Z" fill="#1A1A1A"/>
<path d="M310.028 112.91C305.686 115.275 301.597 118.082 297.821 121.267C297.353 121.659 298.026 122.327 298.49 121.935C302.208 118.799 306.234 116.05 310.505 113.725C311.04 113.436 310.563 112.62 310.028 112.91Z" fill="#1A1A1A"/>
<path d="M309.155 112.019C309.591 111.957 310.002 111.747 310.318 111.449C310.407 111.364 310.412 111.199 310.318 111.115C310.22 111.026 310.082 111.026 309.984 111.115C309.948 111.15 309.912 111.181 309.872 111.213C309.868 111.217 309.837 111.239 309.863 111.222C309.89 111.204 309.859 111.226 309.854 111.23C309.837 111.244 309.819 111.257 309.797 111.271C309.716 111.324 309.632 111.373 309.542 111.418C309.52 111.426 309.502 111.435 309.48 111.444C309.449 111.458 309.52 111.431 309.489 111.44C309.48 111.444 309.467 111.449 309.458 111.453C309.413 111.471 309.364 111.489 309.319 111.502C309.226 111.529 309.128 111.551 309.034 111.565C308.981 111.573 308.918 111.627 308.891 111.671C308.86 111.72 308.851 111.796 308.869 111.854C308.909 111.988 309.025 112.037 309.155 112.019Z" fill="#F0EEE3"/>
<path d="M310.813 111.19C310.88 111.172 310.947 111.159 311.014 111.141C311.045 111.132 311.072 111.119 311.094 111.097C311.121 111.079 311.139 111.057 311.156 111.03C311.174 111.003 311.183 110.972 311.183 110.941C311.192 110.91 311.188 110.878 311.179 110.847C311.17 110.829 311.161 110.812 311.156 110.789C311.134 110.754 311.107 110.727 311.072 110.705C311.054 110.696 311.036 110.687 311.014 110.682C310.974 110.669 310.929 110.669 310.889 110.682C310.822 110.7 310.755 110.714 310.688 110.731C310.657 110.74 310.63 110.754 310.608 110.776C310.581 110.794 310.563 110.816 310.546 110.843C310.528 110.869 310.519 110.901 310.519 110.932C310.51 110.963 310.514 110.994 310.523 111.025C310.532 111.043 310.541 111.061 310.546 111.083C310.568 111.119 310.595 111.146 310.63 111.168C310.648 111.177 310.666 111.186 310.688 111.19C310.728 111.204 310.768 111.204 310.813 111.19Z" fill="#F0EEE3"/>
<path d="M311.33 113.489C311.562 114.237 311.794 114.985 312.026 115.734C312.097 115.97 312.36 116.144 312.61 116.063C312.846 115.988 313.02 115.734 312.94 115.48C312.708 114.731 312.476 113.983 312.244 113.235C312.173 112.999 311.91 112.825 311.66 112.905C311.424 112.981 311.254 113.235 311.33 113.489Z" fill="#1A1A1A"/>
<path d="M312.306 116.046C312.208 117.307 311.927 118.843 310.853 119.659C310.05 120.269 308.758 120.398 308.071 119.556C307.91 119.36 307.567 119.387 307.402 119.556C307.206 119.752 307.242 120.028 307.402 120.224C308.347 121.383 310.189 121.293 311.326 120.478C312.726 119.476 313.131 117.659 313.261 116.042C313.278 115.788 313.029 115.569 312.788 115.569C312.507 115.574 312.324 115.792 312.306 116.046Z" fill="#1A1A1A"/>
<path d="M312.222 116.135C313.158 117.431 314.875 118.104 316.431 117.631C317.996 117.159 319.115 115.6 319.07 113.97C319.052 113.364 318.107 113.359 318.125 113.97C318.161 115.177 317.354 116.366 316.181 116.723C315.053 117.066 313.729 116.616 313.042 115.662C312.891 115.458 312.632 115.355 312.396 115.493C312.191 115.609 312.075 115.925 312.222 116.135Z" fill="#1A1A1A"/>
<path d="M325.125 46.7328C325.174 46.7373 325.223 46.7417 325.272 46.7462C325.232 46.7417 325.187 46.7328 325.147 46.7284C325.298 46.7506 325.446 46.7863 325.588 46.8397C325.62 46.8531 325.682 46.8843 325.557 46.8264C325.57 46.8353 325.588 46.8397 325.602 46.8486C325.637 46.862 325.669 46.8798 325.7 46.8976C325.767 46.9333 325.838 46.9734 325.9 47.0179C325.914 47.0268 325.927 47.0357 325.941 47.0446C325.954 47.0535 326.016 47.1025 325.954 47.0535C325.891 47.0045 325.941 47.0446 325.954 47.0535C325.972 47.0669 325.985 47.0803 326.003 47.0936C326.056 47.1426 326.11 47.1916 326.163 47.2495C326.19 47.2807 326.217 47.3119 326.244 47.3431C326.284 47.3921 326.221 47.3119 326.217 47.3075C326.23 47.3208 326.244 47.3386 326.253 47.3565C326.297 47.4188 326.337 47.4856 326.377 47.5569C326.498 47.7752 326.814 47.8643 327.024 47.7262C327.247 47.5836 327.323 47.3119 327.193 47.0803C326.783 46.3275 325.981 45.8464 325.134 45.7929C324.884 45.7751 324.648 46.0201 324.661 46.2651C324.661 46.5324 324.857 46.715 325.125 46.7328Z" fill="white"/>
<path d="M328.25 49.3657C330.506 51.4059 332.383 53.8158 333.805 56.5063C334.091 57.0453 334.907 56.5687 334.621 56.0297C333.163 53.2768 331.228 50.7867 328.919 48.6975C328.469 48.2877 327.795 48.9559 328.25 49.3657Z" fill="white"/>
<path d="M272.568 60.0029C272.675 59.9984 272.782 60.0029 272.889 60.0162C272.849 60.0118 272.805 60.0029 272.765 59.9984C272.925 60.0207 273.077 60.0652 273.228 60.1276C273.193 60.1098 273.152 60.0964 273.117 60.0786C273.259 60.1409 273.389 60.2167 273.509 60.3102C273.478 60.2835 273.447 60.2612 273.411 60.2345C273.527 60.3236 273.629 60.426 273.719 60.5419C273.692 60.5107 273.67 60.4795 273.643 60.4439C273.647 60.4483 273.652 60.4572 273.656 60.4617C273.732 60.5641 273.812 60.6443 273.937 60.6799C274.049 60.7111 274.2 60.6978 274.303 60.6309C274.405 60.5641 274.494 60.4706 274.521 60.3503C274.548 60.2345 274.548 60.083 274.472 59.985C274.249 59.691 273.977 59.4416 273.643 59.2812C273.308 59.1253 272.943 59.0318 272.568 59.054C272.323 59.0674 272.082 59.2634 272.096 59.5262C272.109 59.7757 272.305 60.0162 272.568 60.0029Z" fill="white"/>
<path d="M440.474 66.9565C447.286 67.7138 453.93 69.8743 459.89 73.2553C461.567 74.2041 463.185 75.2509 464.741 76.3824C465.236 76.7432 465.709 75.9191 465.218 75.5672C459.574 71.469 453.096 68.529 446.292 66.9833C444.371 66.5467 442.427 66.2304 440.469 66.0122C439.868 65.9454 439.872 66.8897 440.474 66.9565Z" fill="white"/>
<path d="M468.772 78.057C469.334 78.449 469.891 78.8366 470.453 79.2286C470.658 79.3711 470.988 79.2731 471.099 79.0593C471.228 78.8188 471.148 78.5648 470.93 78.4134C470.368 78.0214 469.811 77.6338 469.249 77.2418C469.044 77.0993 468.714 77.1973 468.602 77.4111C468.473 77.6517 468.553 77.9056 468.772 78.057Z" fill="white"/>
<path d="M558.512 24.4556C559.528 24.7764 560.451 25.1995 561.378 25.7653C561.579 25.89 561.851 25.8232 561.989 25.645C562.118 25.4757 562.136 25.1684 561.954 25.0258C561.191 24.4334 560.357 23.9745 559.439 23.6672C559.203 23.587 558.913 23.7563 558.855 23.9968C558.797 24.2596 558.935 24.4957 559.185 24.5804C559.595 24.7184 559.889 24.8432 560.277 25.0525C560.46 25.1505 560.638 25.253 560.808 25.3688C560.892 25.4267 560.982 25.4846 561.066 25.5425C561.106 25.5737 561.151 25.6004 561.191 25.6316C561.204 25.645 561.316 25.7252 561.28 25.6984C561.472 25.449 561.664 25.204 561.855 24.9545C560.888 24.3621 559.845 23.8899 558.766 23.5469C558.529 23.4712 558.24 23.636 558.182 23.8765C558.119 24.1304 558.257 24.3754 558.512 24.4556Z" fill="white"/>
<path d="M564.045 28.1884C568.445 33.3156 570.67 40.1221 570.202 46.8529C570.157 47.4588 571.107 47.4588 571.147 46.8529C571.637 39.8682 569.274 32.83 564.713 27.5202C564.317 27.0569 563.648 27.7296 564.045 28.1884Z" fill="white"/>
<path d="M309.146 116.593C309.449 116.593 309.449 116.121 309.146 116.121C308.842 116.121 308.842 116.593 309.146 116.593Z" fill="#1A1A1A"/>
<path d="M306.582 117.64C306.885 117.64 306.885 117.168 306.582 117.168C306.279 117.168 306.279 117.64 306.582 117.64Z" fill="#1A1A1A"/>
<path d="M308.098 118.34C308.401 118.34 308.401 117.868 308.098 117.868C307.795 117.868 307.79 118.34 308.098 118.34Z" fill="#1A1A1A"/>
<path d="M314.389 113.685C314.692 113.685 314.692 113.212 314.389 113.212C314.086 113.208 314.086 113.685 314.389 113.685Z" fill="#1A1A1A"/>
<path d="M315.905 114.379C316.208 114.379 316.208 113.907 315.905 113.907C315.597 113.907 315.597 114.379 315.905 114.379Z" fill="#1A1A1A"/>
<path d="M463.151 160.751C463.397 154.482 433.081 148.208 395.44 146.736C357.799 145.264 327.086 149.153 326.84 155.421C326.595 161.69 356.91 167.964 394.551 169.436C432.192 170.908 462.905 167.019 463.151 160.751Z" fill="#F0EEE3"/>
<path d="M303.439 238.234C302.993 241.419 304.045 244.675 306.346 246.947C306.961 247.553 307.906 246.608 307.291 246.002C305.36 244.1 304.353 241.289 304.732 238.59C304.781 238.234 304.643 237.873 304.264 237.766C303.951 237.681 303.492 237.873 303.439 238.234Z" fill="black"/>
<path d="M309.525 238.234C309.163 240.733 310.082 243.343 312.053 244.969C312.329 245.201 312.726 245.241 312.998 244.969C313.234 244.733 313.279 244.256 312.998 244.025C311.428 242.728 310.523 240.63 310.818 238.59C310.867 238.234 310.728 237.873 310.349 237.766C310.033 237.677 309.574 237.873 309.525 238.234Z" fill="black"/>
<path d="M484.198 217.703C485.094 220.758 487.185 223.404 489.963 224.968C490.712 225.391 491.389 224.237 490.636 223.814C488.157 222.415 486.285 220.077 485.487 217.346C485.246 216.527 483.953 216.874 484.198 217.703Z" fill="black"/>
<path d="M490.823 215.965C491.612 217.97 493.066 219.667 494.97 220.696C495.277 220.861 495.714 220.781 495.884 220.456C496.049 220.144 495.973 219.721 495.643 219.542C495.424 219.427 495.215 219.302 495.01 219.164C494.916 219.101 494.823 219.039 494.733 218.972C494.689 218.941 494.644 218.905 494.6 218.874C494.564 218.848 494.564 218.848 494.6 218.879C494.582 218.865 494.564 218.852 494.546 218.839C494.172 218.536 493.819 218.206 493.498 217.85C493.423 217.765 493.351 217.68 493.28 217.596C493.244 217.551 493.209 217.511 493.173 217.467C493.039 217.297 493.24 217.565 493.115 217.391C492.977 217.199 492.843 217.008 492.718 216.807C492.593 216.607 492.477 216.402 492.37 216.193C492.321 216.095 492.272 215.992 492.223 215.89C492.196 215.827 492.17 215.769 492.143 215.707C492.188 215.81 492.112 215.631 492.107 215.618C491.978 215.293 491.653 215.03 491.283 215.15C490.975 215.248 490.685 215.618 490.823 215.965Z" fill="black"/>
<path d="M303.92 292.695C307.487 296.339 312.775 298.183 317.844 297.626C319.128 297.484 320.372 297.203 321.585 296.775C322.24 296.544 322.927 296.258 323.627 296.232C324.429 296.201 324.906 296.637 325.41 297.203C327.229 299.243 329.623 300.548 332.258 301.221C335.771 302.121 339.441 301.876 343.021 301.626C343.877 301.568 343.881 300.232 343.021 300.29C337.412 300.682 330.653 301.06 326.529 296.45C326.128 296 325.731 295.532 325.196 295.238C324.545 294.882 323.8 294.837 323.078 294.949C321.781 295.149 320.577 295.764 319.293 296.045C316.872 296.575 314.322 296.477 311.937 295.84C309.261 295.123 306.805 293.733 304.861 291.751C304.263 291.136 303.318 292.08 303.92 292.695Z" fill="white"/>
<path d="M460.947 300.009C466.146 301.145 471.621 300.842 476.672 299.176C479.191 298.343 481.608 297.189 483.81 295.715C484.314 295.381 484.795 295.02 485.281 294.659C485.536 294.476 485.816 294.236 486.142 294.236C486.516 294.231 486.918 294.463 487.265 294.583C488.527 295.024 489.847 295.292 491.18 295.407C494.256 295.675 497.377 295.038 500.115 293.621C500.882 293.225 500.204 292.071 499.441 292.467C497.043 293.706 494.341 294.258 491.648 294.102C490.337 294.027 489.044 293.773 487.8 293.354C487.199 293.153 486.614 292.851 485.968 292.908C485.286 292.966 484.778 293.385 484.252 293.773C480.105 296.851 475.094 298.748 469.953 299.229C467.064 299.497 464.144 299.336 461.308 298.717C460.466 298.539 460.109 299.826 460.947 300.009Z" fill="white"/>
<path d="M441.143 190.213C442.262 191.073 443.381 191.933 444.504 192.793C444.781 193.006 445.267 192.846 445.418 192.552C445.605 192.2 445.476 191.866 445.177 191.639C444.058 190.779 442.939 189.919 441.816 189.06C441.539 188.846 441.053 189.006 440.902 189.3C440.719 189.652 440.848 189.982 441.143 190.213Z" fill="white"/>
<path d="M450.465 195.862C453.823 198.53 457.947 200.049 462.24 200.147C463.101 200.165 463.101 198.829 462.24 198.811C458.326 198.722 454.482 197.354 451.415 194.918C450.746 194.388 449.792 195.327 450.465 195.862Z" fill="white"/>
<path d="M401.235 200.953C407.093 201.038 412.921 199.145 417.593 195.612C418.271 195.1 417.606 193.937 416.92 194.459C412.421 197.862 406.879 199.702 401.235 199.621C400.374 199.608 400.37 200.944 401.235 200.953Z" fill="white"/>
<path d="M142.306 241.918C146.305 247.285 152.489 250.68 159.154 251.29C165.606 251.883 172.026 249.437 176.725 245.04C179.351 242.586 181.362 239.543 182.61 236.18C182.86 235.503 182.329 234.715 181.674 234.537C180.925 234.332 180.278 234.79 180.029 235.472C178.094 240.684 173.8 245.014 168.624 247.192C163.403 249.388 157.322 249.147 152.177 246.675C149.225 245.259 146.564 243.192 144.615 240.572C144.183 239.993 143.456 239.699 142.787 240.091C142.212 240.421 141.869 241.334 142.306 241.918Z" fill="#1A1A1A"/>
<path d="M157.656 220.05C159.337 218.794 161.579 218.838 163.006 220.05C164.758 221.538 164.602 224.211 163.452 225.841C162.15 227.685 159.475 228.327 157.21 227.177" stroke="#1A1A1A" stroke-width="4" stroke-miterlimit="10" stroke-linecap="round" stroke-linejoin="round"/>
<path d="M395.27 244.55C393.589 243.294 391.346 243.338 389.92 244.55C388.167 246.038 388.323 248.711 389.474 250.341C390.776 252.185 393.451 252.827 395.716 251.677" stroke="#1A1A1A" stroke-width="4" stroke-miterlimit="10" stroke-linecap="round" stroke-linejoin="round"/>
<path d="M352.477 355.036C350.721 363.526 349.285 372.084 348.162 380.681C347.043 389.256 346.24 397.871 345.763 406.504C345.491 411.399 345.326 416.304 345.259 421.208C345.246 422.068 346.583 422.068 346.597 421.208C346.713 412.598 347.141 403.996 347.894 395.417C348.648 386.828 349.718 378.267 351.109 369.754C351.893 364.947 352.781 360.163 353.766 355.392C353.94 354.555 352.651 354.194 352.477 355.036Z" fill="#1A1A1A"/>
<path d="M454.884 354.448C457.14 363.006 458.977 371.67 460.39 380.405C461.803 389.154 462.78 397.969 463.328 406.812C463.636 411.765 463.801 416.727 463.836 421.694C463.841 422.554 465.178 422.554 465.174 421.694C465.111 412.772 464.612 403.858 463.676 394.985C462.748 386.196 461.398 377.456 459.623 368.796C458.611 363.861 457.461 358.956 456.181 354.088C455.954 353.263 454.665 353.615 454.884 354.448Z" fill="#1A1A1A"/>
<path d="M17.8658 186.173C17.8435 185.607 17.848 185.042 17.8836 184.48C17.9015 184.2 17.9282 183.919 17.9639 183.639C17.9416 183.821 17.9728 183.567 17.9817 183.505C18.0085 183.34 18.0352 183.18 18.0664 183.019C18.1913 182.333 17.8792 181.545 17.1302 181.376C16.4525 181.22 15.6499 181.581 15.485 182.311C15.1996 183.576 15.1863 184.926 15.8283 186.089C16.4302 187.171 17.4868 187.83 18.704 187.946C18.704 187.055 18.704 186.164 18.704 185.273C16.9518 185.438 15.2041 185.607 13.4519 185.772C12.7564 185.839 12.0787 186.338 12.1144 187.109C12.1501 187.893 12.7029 188.369 13.4519 188.445C14.5041 188.552 15.5831 188.445 16.6041 188.164C16.1002 187.959 15.5964 187.755 15.0926 187.55C15.2665 187.924 15.0258 187.322 15.1595 187.71C15.1952 187.812 15.2308 187.915 15.2621 188.017C15.3289 188.245 15.3824 188.481 15.4226 188.717C15.3914 188.525 15.4226 188.726 15.427 188.815C15.4359 188.922 15.4404 189.033 15.4449 189.14C15.4493 189.269 15.4449 189.403 15.4404 189.532C15.4359 189.585 15.4003 189.96 15.4359 189.697C15.3423 190.387 15.6009 191.167 16.3722 191.34C17.0588 191.496 17.8435 191.136 18.0174 190.405C18.2448 189.452 18.3295 188.467 18.2225 187.492C18.1422 186.801 17.6652 186.12 16.8849 186.155C16.2295 186.187 15.4627 186.748 15.5474 187.492C15.592 187.897 15.6098 188.302 15.592 188.708C15.5875 188.797 15.5786 188.886 15.5741 188.98C15.5697 189.06 15.5563 189.176 15.5741 189.029C15.5429 189.251 15.4939 189.474 15.4404 189.692C16.3009 189.928 17.1614 190.164 18.0218 190.405C18.2225 188.926 18.0352 187.559 17.411 186.2C17.1658 185.67 16.4302 185.443 15.8996 185.585C15.6856 185.643 15.4671 185.697 15.2442 185.737C15.213 185.741 14.8742 185.79 15.0258 185.772C15.164 185.754 14.7939 185.79 14.8028 185.79C14.357 185.821 13.9067 185.812 13.4608 185.768C13.4608 186.659 13.4608 187.55 13.4608 188.441C15.213 188.276 16.9607 188.106 18.7129 187.942C19.4084 187.875 20.0861 187.376 20.0504 186.605C20.0148 185.826 19.4619 185.34 18.7129 185.269C18.8154 185.278 18.918 185.318 18.7619 185.269C18.7486 185.264 18.4543 185.158 18.6326 185.238C18.7932 185.309 18.5925 185.207 18.5613 185.193C18.4365 185.122 18.4008 185.082 18.5346 185.193C18.4811 185.149 18.4276 185.1 18.3785 185.055C18.3518 185.028 18.1511 184.81 18.276 184.953C18.383 185.077 18.2448 184.904 18.2269 184.872C18.1779 184.797 18.1378 184.721 18.0976 184.645C18.0352 184.529 18.0798 184.547 18.1021 184.65C18.0843 184.565 18.0486 184.485 18.0263 184.4C18.0263 184.405 17.9639 184.048 17.9817 184.191C17.9995 184.325 17.9773 184.066 17.9773 184.044C17.9683 183.843 17.9773 183.647 17.9951 183.451C17.9996 183.407 18.004 183.362 18.0085 183.318C17.9951 183.434 17.9951 183.443 18.0085 183.345C18.0352 183.238 18.0531 183.126 18.0753 183.019C17.2149 182.783 16.3544 182.547 15.4939 182.307C15.2621 183.585 15.1461 184.877 15.1952 186.178C15.2219 186.877 15.7926 187.545 16.5327 187.514C17.2327 187.478 17.897 186.922 17.8658 186.173Z" fill="#1A1A1A"/>
<path d="M534.842 164.368C533.856 164.453 534.975 169.919 531.721 173.277C529.714 175.344 527.191 175.442 527.262 176.395C527.347 177.549 531.021 177.059 533.95 179.514C537.205 182.244 537.32 186.757 537.963 186.641C538.627 186.521 537.008 181.919 539.3 178.177C541.168 175.126 544.463 174.56 544.204 173.277C543.959 172.043 540.963 172.738 538.408 170.605C535.546 168.217 535.671 164.297 534.842 164.368Z" fill="#1A1A1A" stroke="#1A1A1A" stroke-miterlimit="10" stroke-linecap="round" stroke-linejoin="round"/>
<path d="M202.687 33.8501C201.701 33.9347 202.82 39.4004 199.566 42.7592C197.559 44.8261 195.036 44.9241 195.107 45.8774C195.192 47.0311 198.866 46.5411 201.795 48.9955C205.05 51.7262 205.165 56.2386 205.807 56.1228C206.472 56.0025 204.853 51.401 207.145 47.6592C209.013 44.6078 212.308 44.0421 212.049 42.7592C211.804 41.5253 208.808 42.2202 206.253 40.0864C203.391 37.6988 203.516 33.7788 202.687 33.8501Z" fill="#1A1A1A" stroke="#1A1A1A" stroke-miterlimit="10" stroke-linecap="round" stroke-linejoin="round"/>
<path d="M35.9402 401.35C34.9549 401.435 36.074 406.9 32.8193 410.259C30.813 412.326 28.2895 412.424 28.3609 413.377C28.4456 414.531 32.1193 414.041 35.0485 416.496C38.3032 419.226 38.4191 423.739 39.0611 423.623C39.7255 423.503 38.107 418.901 40.3987 415.159C42.2668 412.108 45.5616 411.542 45.303 410.259C45.0578 409.025 42.0617 409.72 39.507 407.586C36.6447 405.199 36.7695 401.279 35.9402 401.35Z" fill="#1A1A1A" stroke="#1A1A1A" stroke-miterlimit="10" stroke-linecap="round" stroke-linejoin="round"/>
<path d="M550.674 152.123C552.274 152.123 553.572 150.827 553.572 149.227C553.572 147.628 552.274 146.332 550.674 146.332C549.073 146.332 547.776 147.628 547.776 149.227C547.776 150.827 549.073 152.123 550.674 152.123Z" fill="#1A1A1A" stroke="#1A1A1A" stroke-miterlimit="10" stroke-linecap="round" stroke-linejoin="round"/>
<path d="M222.665 53.018C222.852 52.0247 223.039 51.0269 223.227 50.0335C222.79 49.9756 222.353 49.9132 221.911 49.8553C221.871 50.4121 221.902 50.9556 221.996 51.5035C222.081 52.0069 222.206 52.5503 222.643 52.8621C223.013 53.125 223.507 53.1962 223.935 53.3076C224.479 53.4501 225.028 53.5927 225.572 53.7308C225.63 53.2942 225.692 52.8577 225.75 52.4167C223.36 52.6483 220.944 52.6216 218.563 52.2875C218.563 52.7151 218.563 53.1472 218.563 53.5749C219.143 53.3566 219.749 53.1962 220.364 53.1339C220.681 53.1027 220.997 53.0938 221.314 53.1027C221.314 53.1027 221.711 53.1294 221.706 53.1383C221.63 53.1116 221.59 53.0626 221.581 52.9869C221.59 53.027 221.59 53.0626 221.577 53.0938C221.136 54.1495 220.543 55.1429 219.834 56.0516C220.186 56.3233 220.534 56.5906 220.886 56.8623C221.189 56.359 221.488 55.8556 221.791 55.3522C221.947 55.0894 222.103 54.8266 222.264 54.5682C222.304 54.5059 222.348 54.3811 222.402 54.3366C222.357 54.3767 222.281 54.301 222.371 54.3722C223.129 54.9558 223.721 55.6596 224.065 56.5639C224.439 56.3456 224.809 56.1318 225.184 55.9135C224.444 55.2008 223.704 54.488 222.964 53.7753C222.344 53.1784 221.394 54.1228 222.018 54.7197C222.758 55.4324 223.499 56.1451 224.239 56.8579C224.689 57.29 225.603 56.8623 225.358 56.2075C225.104 55.5304 224.765 54.9246 224.31 54.3589C223.895 53.8466 223.338 53.2408 222.678 53.0626C221.84 52.8354 221.381 53.4412 221.002 54.0738C220.578 54.7776 220.159 55.4859 219.736 56.1897C219.357 56.8222 220.311 57.6107 220.788 57.0004C221.301 56.3411 221.778 55.6596 222.188 54.929C222.553 54.2831 223.093 53.4501 222.883 52.675C222.638 51.7619 221.622 51.744 220.846 51.7708C219.945 51.7975 219.058 51.9757 218.215 52.2875C217.934 52.39 217.725 52.6171 217.725 52.9334C217.725 53.2007 217.93 53.5392 218.215 53.5793C220.721 53.9312 223.24 54.0025 225.759 53.7575C226.089 53.7263 226.374 53.5303 226.414 53.1784C226.455 52.8577 226.263 52.5325 225.937 52.4434C225.139 52.234 224.306 52.0781 223.521 51.8153C223.369 51.7663 223.454 51.7975 223.427 51.7351C223.351 51.5614 223.325 51.3342 223.298 51.1471C223.227 50.7195 223.231 50.283 223.262 49.8509C223.32 49.107 222.09 48.9332 221.947 49.6727C221.76 50.666 221.572 51.6639 221.385 52.6572C221.318 53.0136 221.483 53.3789 221.853 53.4813C222.165 53.5749 222.593 53.3744 222.665 53.018Z" fill="#1A1A1A"/>
<path d="M31.1831 159.085C31.5844 156.956 31.9857 154.822 32.3914 152.693C31.4551 152.568 30.5144 152.439 29.5781 152.314C29.4845 153.499 29.5558 154.675 29.7564 155.847C29.9259 156.858 30.1666 157.949 30.987 158.644C31.8207 159.344 33.0735 159.495 34.1034 159.762C35.2047 160.047 36.3104 160.332 37.4116 160.622C37.5364 159.686 37.6657 158.747 37.7906 157.811C32.6767 158.314 27.4915 158.252 22.4 157.535C22.4 158.453 22.4 159.375 22.4 160.292C23.6885 159.807 25.0349 159.455 26.4081 159.335C27.0903 159.277 27.7769 159.259 28.459 159.29C28.6061 159.294 29.0163 159.344 29.0208 159.312C29.0208 159.321 28.8647 159.116 28.8781 159.125C28.8737 159.09 28.8692 159.058 28.8647 159.023C28.8514 159.183 28.8558 159.214 28.8737 159.13C28.887 159.014 28.8157 159.393 28.8157 159.393C28.78 159.517 28.7399 159.642 28.6909 159.767C28.6552 159.86 28.6552 159.865 28.6864 159.776C28.6597 159.838 28.6284 159.896 28.6017 159.958C28.5259 160.105 28.4546 160.257 28.3788 160.408C28.0622 161.036 27.7278 161.651 27.3756 162.257C26.6935 163.415 25.9444 164.542 25.1152 165.602C25.8642 166.181 26.6132 166.76 27.3667 167.335C28.0488 166.195 28.731 165.054 29.4131 163.914C29.7475 163.357 30.0774 162.805 30.4118 162.248C30.4921 162.119 30.6303 161.816 30.6927 161.829C30.7061 161.834 30.3494 161.932 30.3449 161.932C30.2692 161.963 30.5233 161.967 30.443 161.936C31.2678 162.243 32.1016 163.259 32.6678 163.99C33.292 164.796 33.8225 165.74 34.1748 166.685C34.9728 166.221 35.7709 165.758 36.569 165.29C34.9862 163.767 33.399 162.239 31.8162 160.716C30.4876 159.437 28.459 161.459 29.7921 162.738C31.3749 164.261 32.9621 165.789 34.5448 167.313C35.004 167.754 35.7263 167.861 36.2792 167.535C36.7919 167.237 37.1575 166.506 36.939 165.918C36.3951 164.471 35.6639 163.17 34.6964 161.963C33.8181 160.867 32.6277 159.589 31.2366 159.197C30.3762 158.952 29.4666 159.121 28.7845 159.704C28.196 160.212 27.8348 160.969 27.4425 161.629C26.5954 163.045 25.7438 164.462 24.8967 165.883C24.5311 166.489 24.705 167.308 25.2668 167.727C25.7795 168.11 26.7024 168.181 27.1482 167.616C28.2539 166.203 29.2749 164.733 30.1532 163.17C30.9245 161.798 32.0481 160.079 31.6557 158.43C31.1564 156.332 28.7622 156.346 27.0279 156.43C25.1865 156.519 23.363 156.88 21.642 157.531C21.0446 157.758 20.5898 158.239 20.5898 158.911C20.5898 159.482 21.0312 160.203 21.642 160.292C27.0011 161.045 32.4048 161.201 37.795 160.671C38.5039 160.6 39.1103 160.181 39.1994 159.428C39.2797 158.738 38.8784 158.038 38.174 157.86C37.2778 157.629 36.3817 157.397 35.4855 157.161C35.0352 157.045 34.5894 156.929 34.1391 156.813C33.7601 156.715 33.2073 156.671 32.864 156.475C32.8952 156.493 32.8551 156.528 32.8907 156.551C32.7882 156.484 32.8194 156.399 32.7793 156.283C32.6366 155.838 32.543 155.343 32.485 154.885C32.3735 154.034 32.378 153.17 32.4449 152.319C32.5697 150.724 29.9303 150.35 29.6316 151.94C29.2303 154.069 28.8291 156.203 28.4234 158.332C28.2807 159.09 28.6329 159.878 29.422 160.092C30.122 160.275 31.0405 159.847 31.1831 159.085Z" fill="#1A1A1A"/>
<path d="M479.361 18.0855C479.361 20.9408 479.361 23.7917 479.361 26.6471C479.361 27.3465 479.976 28.0146 480.698 27.9835C481.425 27.9523 482.036 27.3955 482.036 26.6471C482.036 23.7917 482.036 20.9408 482.036 18.0855C482.036 17.3861 481.42 16.7179 480.698 16.7491C479.971 16.7847 479.361 17.3371 479.361 18.0855Z" fill="#1A1A1A"/>
<path d="M487.742 28.1793C489.691 26.3886 491.117 24.0589 491.862 21.5242C492.058 20.8516 491.626 20.0409 490.926 19.8805C490.208 19.7157 489.49 20.0943 489.281 20.816C489.196 21.101 489.107 21.3861 489.004 21.6623C488.96 21.7871 488.911 21.9073 488.862 22.032C488.746 22.335 488.942 21.8583 488.862 22.032C488.835 22.0944 488.808 22.1523 488.781 22.2147C488.536 22.7581 488.255 23.2838 487.943 23.7871C487.796 24.0277 487.64 24.2593 487.475 24.4865C487.426 24.5533 487.377 24.6201 487.328 24.687C487.31 24.7137 487.176 24.8919 487.283 24.7493C487.39 24.6068 487.256 24.785 487.234 24.8072C487.181 24.8696 487.132 24.9364 487.078 24.9988C486.699 25.4576 486.285 25.8852 485.848 26.2861C485.33 26.7628 485.33 27.7027 485.848 28.1749C486.4 28.6871 487.19 28.6871 487.742 28.1793Z" fill="#1A1A1A"/>
<path d="M490.489 31.222C490.654 31.1997 490.681 31.1953 490.565 31.2086C490.614 31.2042 490.663 31.1953 490.707 31.1908C490.877 31.1685 491.046 31.1507 491.211 31.1284C491.501 31.0973 491.791 31.0661 492.081 31.0394C492.683 30.9859 493.289 30.9458 493.895 30.9235C495.108 30.8745 496.321 30.8924 497.533 30.9592C498.233 30.9993 498.902 30.3177 498.871 29.6228C498.835 28.8655 498.282 28.331 497.533 28.2864C494.934 28.135 492.348 28.2775 489.776 28.6384C489.08 28.7364 488.639 29.6584 488.839 30.2821C489.094 31.0483 489.744 31.3244 490.489 31.222Z" fill="#1A1A1A"/>
<path d="M531.801 329.044C530.2 332.661 528.595 336.278 526.995 339.895C526.701 340.555 526.803 341.33 527.476 341.722C528.047 342.056 529.014 341.904 529.304 341.24C530.905 337.623 532.51 334.006 534.111 330.389C534.405 329.73 534.302 328.955 533.629 328.563C533.063 328.233 532.095 328.385 531.801 329.044Z" fill="#1A1A1A"/>
<path d="M526.237 331.619C527.048 332.167 527.516 332.523 528.261 333.182C528.97 333.81 529.634 334.483 530.254 335.191C531.368 336.474 532.385 338.015 533.205 339.686C533.522 340.332 534.445 340.51 535.033 340.167C535.693 339.779 535.831 338.991 535.515 338.341C533.722 334.688 530.949 331.583 527.583 329.311C527.004 328.919 526.076 329.182 525.755 329.792C525.399 330.469 525.617 331.2 526.237 331.619Z" fill="#1A1A1A"/>
<path d="M526.495 335.949C529.835 334.986 533.272 334.572 536.745 334.697C537.468 334.724 538.083 334.064 538.083 333.36C538.083 332.617 537.472 332.051 536.745 332.024C533.049 331.89 529.335 332.349 525.782 333.369C524.132 333.846 524.837 336.425 526.495 335.949Z" fill="#1A1A1A"/>
<path d="M538.698 325.658C539.3 323.489 538.716 321.173 537.258 319.48C536.799 318.95 535.831 318.977 535.368 319.48C534.846 320.046 534.877 320.803 535.368 321.369C535.399 321.409 535.435 321.444 535.466 321.484C535.582 321.618 535.421 321.431 535.394 321.391C535.448 321.476 535.515 321.556 535.568 321.636C535.68 321.805 535.778 321.979 535.871 322.157C535.912 322.242 535.978 322.34 536.001 322.429C535.992 322.389 535.889 322.148 535.952 322.317C535.97 322.366 535.987 322.411 536.005 322.46C536.077 322.66 536.134 322.865 536.184 323.075C536.206 323.173 536.224 323.271 536.241 323.373C536.25 323.422 536.277 323.609 536.246 323.382C536.215 323.155 536.237 323.342 536.246 323.391C536.264 323.591 536.273 323.792 536.268 323.992C536.268 324.095 536.264 324.193 536.255 324.295C536.25 324.344 536.246 324.393 536.241 324.447C536.233 324.616 536.291 324.148 536.259 324.318C536.224 324.527 536.184 324.736 536.126 324.946C535.938 325.618 536.357 326.429 537.062 326.589C537.757 326.75 538.497 326.38 538.698 325.658Z" fill="#1A1A1A"/>
<path d="M542.358 331.85C542.751 331.565 543.161 331.311 543.598 331.102C543.651 331.075 543.705 331.049 543.763 331.026C543.897 330.968 543.874 330.977 543.692 331.053C543.763 331.009 543.865 330.982 543.946 330.955C544.173 330.87 544.4 330.795 544.637 330.732C544.869 330.67 545.105 330.612 545.346 330.572C545.435 330.554 545.528 330.55 545.613 330.527C545.225 330.621 545.609 330.532 545.707 330.523C546.188 330.478 546.674 330.483 547.156 330.532C547.856 330.599 548.525 329.873 548.493 329.196C548.458 328.416 547.905 327.93 547.156 327.859C545.016 327.659 542.746 328.282 541.008 329.547C540.718 329.761 540.49 329.988 540.392 330.345C540.303 330.666 540.343 331.089 540.526 331.374C540.887 331.931 541.757 332.291 542.358 331.85Z" fill="#1A1A1A"/>
</svg>
