<svg width="145" height="145" viewBox="0 0 145 145" fill="none" xmlns="http://www.w3.org/2000/svg">
<path d="M56.5893 54.9477C55.7131 50.9092 54.8368 46.8581 53.9478 42.8196L46.036 30.6915L60.5516 29.4216L69.8477 22.1956C72.4892 24.219 75.1264 26.2425 77.7595 28.2659H90.967C88.7403 32.3044 86.5221 36.3386 84.3124 40.3686C83.8806 44.8134 83.4362 49.2583 83.0425 53.7158C88.723 55.5489 94.1147 58.1785 99.0566 61.526C102.574 63.9008 107.845 67.4567 111.756 73.1969C116.836 80.6388 119.096 91.7382 115.947 101.06C108.657 122.649 75.4989 123.754 73.6575 123.792C56.9322 124.109 34.0223 116.705 28.1551 99.8405C25.7254 92.7233 25.9829 84.9632 28.879 78.0227C31.3046 72.5238 35.0128 69.133 38.7211 65.8693C43.9735 61.186 50.0261 57.4864 56.5893 54.9477V54.9477Z" fill="#F8D6B1" stroke="#1A1A1A" stroke-width="2" stroke-linecap="round" stroke-linejoin="round"/>
<path d="M50.6455 35.9364L61.2115 38.5652L69.136 33.2949C71.3034 34.6241 73.5047 35.9407 75.7398 37.2445L86.3566 34.8951" stroke="#1A1A1A" stroke-width="2" stroke-linecap="round" stroke-linejoin="round"/>
<path d="M57.1479 54.338C60.7936 57.5557 65.549 59.2274 70.4063 58.9987C76.0956 58.8336 81.239 56.4588 83.817 52.6489" stroke="#1A1A1A" stroke-width="2" stroke-linecap="round" stroke-linejoin="round"/>
<path d="M85.7598 55.2017C90.3264 53.3213 95.3896 53.0174 100.148 54.3381C100.499 54.3968 100.86 54.323 101.159 54.1311C101.459 53.9391 101.677 53.6426 101.77 53.2992C101.863 52.9558 101.826 52.59 101.665 52.2727C101.503 51.9554 101.23 51.7094 100.898 51.5823C95.3937 50.0979 89.55 50.5141 84.312 52.7634C83.9866 52.9565 83.7506 53.2704 83.6555 53.6367C83.5603 54.0029 83.6137 54.392 83.804 54.7191C84.0017 55.0395 84.3155 55.2712 84.6799 55.3659C85.0443 55.4605 85.4311 55.4108 85.7598 55.2271V55.2017Z" fill="#1A1A1A"/>
<path d="M85.4298 54.3379C87.0994 52.2205 89.2644 50.5465 91.7338 49.4635C94.2033 48.3805 96.9012 47.9218 99.5898 48.1279C99.966 48.1246 100.326 47.9736 100.592 47.7076C100.858 47.4416 101.009 47.0817 101.012 46.7055C101.006 46.3291 100.854 45.9697 100.589 45.7023C100.324 45.435 99.9662 45.2802 99.5898 45.2705C96.4049 45.0663 93.219 45.6555 90.3177 46.9854C87.4165 48.3152 84.8905 50.3441 82.9661 52.8902C82.7758 53.2173 82.7224 53.6063 82.8176 53.9726C82.9127 54.3389 83.1487 54.6528 83.4741 54.8459C83.8027 55.0297 84.1896 55.0794 84.554 54.9848C84.9184 54.8901 85.2322 54.6584 85.4298 54.3379V54.3379Z" fill="#1A1A1A"/>
<path d="M85.0105 80.0038C82.4244 77.6992 79.235 76.1794 75.8161 75.6225C72.2549 74.6999 68.5427 74.5141 64.9072 75.0764C62.0244 75.6479 59.0654 77.2734 58.0113 80.1562C57.606 81.4168 57.6361 82.7769 58.0967 84.0183C58.5573 85.2597 59.4218 86.3103 60.5512 87.0013C66.6216 91.4207 74.9271 89.6682 81.3531 93.1479C83.6644 94.4178 85.8487 96.7799 85.4804 99.6119C85.1121 102.444 82.5468 104.095 80.1847 105.009C76.7599 106.44 72.9562 106.69 69.3737 105.719C65.7911 104.749 62.6335 102.614 60.3989 99.65C59.3321 98.1769 56.8557 99.65 57.9351 101.085C59.8108 103.758 62.3493 105.898 65.3016 107.294C68.2539 108.69 71.5184 109.294 74.7747 109.048C79.8545 108.705 86.979 106.508 88.2108 100.679C89.5951 94.0876 83.131 90.1381 77.6321 88.8427C74.5588 88.1188 58.2018 86.9886 60.7544 80.969C62.3419 77.2353 68.0821 77.3877 71.3712 77.756C75.2827 78.1878 80.1085 79.1149 82.9913 82.0231C83.2591 82.2908 83.6223 82.4413 84.0009 82.4413C84.3796 82.4413 84.7428 82.2908 85.0105 82.0231C85.2783 81.7553 85.4287 81.3921 85.4287 81.0135C85.4287 80.6348 85.2783 80.2716 85.0105 80.0038V80.0038Z" fill="#1A1A1A"/>
<path d="M67.955 71.4824C66.1326 84.9103 66.4627 98.5429 68.9328 111.867C69.263 113.683 72.0188 112.908 71.6886 111.118C69.3067 98.2933 68.9766 85.1721 70.7108 72.2443C70.9648 70.441 68.1709 69.7044 67.955 71.4824V71.4824Z" fill="#1A1A1A"/>
<path d="M75.1177 72.473C75.2023 86.087 75.2955 99.6966 75.3971 113.302C75.4306 113.658 75.5957 113.988 75.8599 114.229C76.1241 114.469 76.4685 114.602 76.8258 114.602C77.183 114.602 77.5274 114.469 77.7916 114.229C78.0559 113.988 78.2209 113.658 78.2545 113.302C78.1698 99.6882 78.0767 86.0785 77.9751 72.473C77.9415 72.1174 77.7765 71.787 77.5123 71.5466C77.248 71.3061 76.9036 71.1729 76.5464 71.1729C76.1891 71.1729 75.8447 71.3061 75.5805 71.5466C75.3163 71.787 75.1512 72.1174 75.1177 72.473V72.473Z" fill="#1A1A1A"/>
</svg>
