<svg width="268" height="268" viewBox="0 0 268 268" fill="none" xmlns="http://www.w3.org/2000/svg">
<rect width="268" height="268" rx="40" fill="#F8EAA2"/>
<path d="M172.196 195.045C170.927 195.82 169.484 196.265 167.999 196.342C166.514 196.418 165.033 196.124 163.69 195.484C163.472 195.291 163.278 195.072 163.113 194.832L120.861 134.909C120.569 134.501 120.361 134.038 120.25 133.548C120.14 133.058 120.129 132.55 120.218 132.056C120.307 131.562 120.494 131.09 120.768 130.669C121.043 130.248 121.399 129.887 121.816 129.605L128.575 124.853C128.983 124.56 129.446 124.351 129.936 124.238C130.426 124.126 130.933 124.113 131.428 124.199C131.924 124.286 132.396 124.47 132.819 124.742C133.242 125.013 133.606 125.367 133.89 125.781L176.141 185.704C176.262 186.018 176.358 186.341 176.43 186.67C177.008 189.691 175.048 193.265 172.196 195.045Z" fill="#FFD6B0" stroke="#131313" stroke-width="2" stroke-linecap="round" stroke-linejoin="round"/>
<path d="M128.097 131.875C126.238 133.129 124.039 134.633 121.941 134.383C121.186 134.323 120.476 134.004 119.931 133.48L107.606 116.113C107.302 115.422 107.24 114.65 107.43 113.919C107.92 111.976 109.943 110.509 111.652 109.179C114.667 106.91 117.443 106.032 118.599 106.082C119.155 106.096 119.696 106.256 120.17 106.546C120.338 106.674 120.486 106.826 120.609 106.998L132.871 124.389C133.181 125.083 133.243 125.862 133.047 126.596C132.495 128.853 129.932 130.596 128.097 131.875Z" fill="#FB865B" stroke="#131313" stroke-width="2" stroke-linecap="round" stroke-linejoin="round"/>
<path d="M100.169 144.577L108.762 134.119L100.169 144.577Z" fill="#FB865B"/>
<path d="M100.169 144.577L108.762 134.119" stroke="#131313" stroke-width="2" stroke-linecap="round" stroke-linejoin="round"/>
<path d="M148.451 110.496L135.485 114.333L148.451 110.496Z" fill="#FB865B"/>
<path d="M148.451 110.496L135.485 114.333" stroke="#131313" stroke-width="2" stroke-linecap="round" stroke-linejoin="round"/>
<path d="M90.8721 98.2329L102.179 105.656L90.8721 98.2329Z" fill="#FB865B"/>
<path d="M90.8721 98.2329L102.179 105.656" stroke="#131313" stroke-width="2" stroke-linecap="round" stroke-linejoin="round"/>
<path d="M116.061 84.7537C115.709 89.2426 115.391 93.7273 115.106 98.2079L116.061 84.7537Z" fill="#FB865B"/>
<path d="M116.061 84.7537C115.709 89.2426 115.391 93.7273 115.106 98.2079" stroke="#131313" stroke-width="2" stroke-linecap="round" stroke-linejoin="round"/>
<path d="M88.6484 124.301L101.878 121.468L88.6484 124.301Z" fill="#FB865B"/>
<path d="M88.6484 124.301L101.878 121.468" stroke="#131313" stroke-width="2" stroke-linecap="round" stroke-linejoin="round"/>
<path d="M137.847 95.9634L128.588 105.794L137.847 95.9634Z" fill="#FB865B"/>
<path d="M137.847 95.9634L128.588 105.794" stroke="#131313" stroke-width="2" stroke-linecap="round" stroke-linejoin="round"/>
</svg>
