<svg width="50" height="50" viewBox="0 0 50 50" fill="none" xmlns="http://www.w3.org/2000/svg">
<circle cx="25" cy="25" r="25" fill="#E3875E"/>
<path fill-rule="evenodd" clip-rule="evenodd" d="M17.8607 14.3889H20.6385V15.7778C20.6385 15.962 20.7116 16.1386 20.8419 16.2689C20.9721 16.3991 21.1487 16.4722 21.3329 16.4722C21.5171 16.4722 21.6937 16.3991 21.8239 16.2689C21.9542 16.1386 22.0273 15.962 22.0273 15.7778V14.3889H27.5829V15.7778C27.5829 15.962 27.6561 16.1386 27.7863 16.2689C27.9165 16.3991 28.0932 16.4722 28.2773 16.4722C28.4615 16.4722 28.6382 16.3991 28.7684 16.2689C28.8986 16.1386 28.9718 15.962 28.9718 15.7778V14.3889H29.6662C30.2188 14.3889 30.7487 14.6084 31.1394 14.9991C31.5301 15.3898 31.7496 15.9197 31.7496 16.4722V33.1389C31.7496 33.6915 31.5301 34.2214 31.1394 34.6121C30.7487 35.0028 30.2188 35.2222 29.6662 35.2222H17.8607C17.3081 35.2222 16.7782 35.0028 16.3875 34.6121C15.9968 34.2214 15.7773 33.6915 15.7773 33.1389V16.4722C15.7773 15.9197 15.9968 15.3898 16.3875 14.9991C16.7782 14.6084 17.3081 14.3889 17.8607 14.3889ZM19.2496 21.3334C19.0654 21.3334 18.8888 21.4065 18.7585 21.5368C18.6283 21.667 18.5551 21.8436 18.5551 22.0278C18.5551 22.212 18.6283 22.3886 18.7585 22.5189C18.8888 22.6491 19.0654 22.7222 19.2496 22.7222H28.2773C28.4615 22.7222 28.6382 22.6491 28.7684 22.5189C28.8986 22.3886 28.9718 22.212 28.9718 22.0278C28.9718 21.8436 28.8986 21.667 28.7684 21.5368C28.6382 21.4065 28.4615 21.3334 28.2773 21.3334H19.2496ZM18.5551 25.5C18.5551 25.3158 18.6283 25.1392 18.7585 25.009C18.8888 24.8787 19.0654 24.8056 19.2496 24.8056H24.1107C24.2949 24.8056 24.4715 24.8787 24.6017 25.009C24.732 25.1392 24.8051 25.3158 24.8051 25.5C24.8051 25.6842 24.732 25.8608 24.6017 25.9911C24.4715 26.1213 24.2949 26.1945 24.1107 26.1945H19.2496C19.0654 26.1945 18.8888 26.1213 18.7585 25.9911C18.6283 25.8608 18.5551 25.6842 18.5551 25.5ZM19.2496 28.2778C19.0654 28.2778 18.8888 28.351 18.7585 28.4812C18.6283 28.6114 18.5551 28.7881 18.5551 28.9722C18.5551 29.1564 18.6283 29.3331 18.7585 29.4633C18.8888 29.5935 19.0654 29.6667 19.2496 29.6667H26.8885C27.0726 29.6667 27.2493 29.5935 27.3795 29.4633C27.5097 29.3331 27.5829 29.1564 27.5829 28.9722C27.5829 28.7881 27.5097 28.6114 27.3795 28.4812C27.2493 28.351 27.0726 28.2778 26.8885 28.2778H19.2496Z" fill="white"/>
<path fill-rule="evenodd" clip-rule="evenodd" d="M14.3889 15.7778V33.1389C14.3889 34.0598 14.7547 34.943 15.4059 35.5941C16.057 36.2453 16.9402 36.6111 17.8611 36.6111H29.6667V38H17.8611C16.5719 38 15.3354 37.4878 14.4238 36.5762C13.5122 35.6646 13 34.4281 13 33.1389V15.7778H14.3889ZM35.9167 15.7778C35.3641 15.7778 34.8342 15.9973 34.4435 16.388C34.0528 16.7787 33.8333 17.3086 33.8333 17.8611V19.9444H38V17.8611C38 17.3086 37.7805 16.7787 37.3898 16.388C36.9991 15.9973 36.4692 15.7778 35.9167 15.7778ZM38 21.3333H33.8333V31.75L35.9167 34.5278L38 31.75V21.3333ZM26.8889 13C27.0731 13 27.2497 13.0732 27.3799 13.2034C27.5102 13.3336 27.5833 13.5103 27.5833 13.6944V16.4722C27.5833 16.6564 27.5102 16.833 27.3799 16.9633C27.2497 17.0935 27.0731 17.1667 26.8889 17.1667C26.7047 17.1667 26.5281 17.0935 26.3978 16.9633C26.2676 16.833 26.1944 16.6564 26.1944 16.4722V13.6944C26.1944 13.5103 26.2676 13.3336 26.3978 13.2034C26.5281 13.0732 26.7047 13 26.8889 13ZM19.9444 13C20.1286 13 20.3053 13.0732 20.4355 13.2034C20.5657 13.3336 20.6389 13.5103 20.6389 13.6944V16.4722C20.6389 16.6564 20.5657 16.833 20.4355 16.9633C20.3053 17.0935 20.1286 17.1667 19.9444 17.1667C19.7603 17.1667 19.5836 17.0935 19.4534 16.9633C19.3232 16.833 19.25 16.6564 19.25 16.4722V13.6944C19.25 13.5103 19.3232 13.3336 19.4534 13.2034C19.5836 13.0732 19.7603 13 19.9444 13Z" fill="white"/>
</svg>
