<svg width="145" height="145" viewBox="0 0 145 145" fill="none" xmlns="http://www.w3.org/2000/svg">
<g clip-path="url(#clip0_1531_16883)">
<path d="M75.3074 113.008C62.9347 105.548 52.083 95.8179 43.3234 84.3289C34.3104 72.4048 22.6659 57.0103 28.0686 43.6497C31.9967 33.9629 42.675 30.7594 43.514 30.5179C53.6839 27.6322 65.252 31.7891 72.8413 41.1835C73.2226 40.3953 78.8923 28.8653 91.5283 27.2381C101.787 25.9669 111.054 32.323 114.982 39.3656C122.788 53.6161 110.381 73.0023 103.071 84.3289C95.7853 95.6156 86.3519 105.36 75.3074 113.008V113.008Z" fill="#E2865E" stroke="#1A1A1A" stroke-width="2" stroke-linecap="round" stroke-linejoin="round"/>
<path d="M34.145 53.4255C37.0672 59.1929 40.3404 64.7756 43.9462 70.1422C49.3384 78.171 55.4484 85.6936 62.201 92.6175" stroke="#1A1A1A" stroke-width="2" stroke-linecap="round" stroke-linejoin="round"/>
<path d="M68.4302 98.7446L73.3753 102.685" stroke="#1A1A1A" stroke-width="2" stroke-linecap="round" stroke-linejoin="round"/>
<path d="M56.1141 128.337C48.4478 123.715 41.7239 117.685 36.2962 110.567C30.7116 103.178 23.4965 93.6395 26.8441 85.361C29.2781 79.359 35.8945 77.374 36.4144 77.2244C42.7158 75.4363 49.8836 78.012 54.586 83.833C54.8223 83.3446 58.3354 76.2004 66.1649 75.1922C72.5214 74.4045 78.2635 78.3429 80.6974 82.7066C85.5338 91.5364 77.8461 103.548 73.3169 110.567C68.8026 117.56 62.9575 123.598 56.1141 128.337V128.337Z" fill="#E2865E" stroke="#1A1A1A" stroke-width="2" stroke-linecap="round" stroke-linejoin="round"/>
<path d="M30.6089 91.4182C32.4195 94.9918 34.4477 98.4509 36.6819 101.776C40.023 106.751 43.8088 111.412 47.9929 115.702" stroke="#1A1A1A" stroke-width="2" stroke-linecap="round" stroke-linejoin="round"/>
<path d="M51.8525 119.499L54.9166 121.941" stroke="#1A1A1A" stroke-width="2" stroke-linecap="round" stroke-linejoin="round"/>
</g>
<defs>
<clipPath id="clip0_1531_16883">
<rect width="145" height="145" fill="white"/>
</clipPath>
</defs>
</svg>
