<svg width="145" height="145" viewBox="0 0 145 145" fill="none" xmlns="http://www.w3.org/2000/svg">
<path d="M28.2912 44.4335C24.9482 43.9528 21.5788 43.6791 18.2021 43.6138L15.9194 105.182C18.9763 103.9 22.1254 102.851 25.3401 102.042C37.6866 98.9271 47.9649 100.138 55.7713 101.122C62.2676 101.944 68.6782 103.341 74.9279 105.296C81.1085 103.153 87.4753 101.591 93.9458 100.63C101.174 99.4283 108.522 99.1106 115.826 99.6838C120.294 100.042 124.726 100.755 129.081 101.815L128.198 45.4424C125.028 45.2279 121.847 45.2279 118.677 45.4424C97.5779 46.9432 81.902 58.1168 73.4019 65.6206C64.0569 57.5998 48.772 47.3972 28.2912 44.4335Z" fill="#E4885E" stroke="#1A1A1A" stroke-width="2" stroke-linecap="round" stroke-linejoin="round"/>
<path d="M73.0107 51.0922V105.321C86.8637 97.4521 102.831 94.1139 118.676 95.7742L116.785 41.5454C109.277 39.2973 101.321 38.994 93.6644 40.6639C86.0075 42.3338 78.9005 45.9222 73.0107 51.0922V51.0922Z" fill="#FAD8B3" stroke="#1A1A1A" stroke-width="2" stroke-linecap="round" stroke-linejoin="round"/>
<path d="M73.0109 51.0922V105.321C59.1579 97.4521 43.1903 94.1139 27.3452 95.7741C27.9758 77.6979 28.6106 59.6216 29.2495 41.5454C36.752 39.2934 44.7038 38.9845 52.3584 40.6478C60.013 42.3111 67.1194 45.8919 73.0109 51.0543V51.0922Z" fill="#FAD8B3" stroke="#1A1A1A" stroke-width="2" stroke-linecap="round" stroke-linejoin="round"/>
</svg>
