<svg width="522" height="549" viewBox="0 0 522 549" fill="none" xmlns="http://www.w3.org/2000/svg">
<g clip-path="url(#clip0_1906_16154)">
<path d="M133.176 407.572C129.626 410.082 125.3 412.704 120.163 415.01C108.259 420.352 97.2725 421.641 89.7993 421.827C93.003 424.635 97.9542 428.099 104.671 429.884C124.365 435.109 141.12 421.059 143.091 419.348C139.788 415.419 136.485 411.495 133.176 407.572Z" fill="#1A1A1A" stroke="#1A1A1A" stroke-miterlimit="10" stroke-linecap="round" stroke-linejoin="round"/>
<path opacity="0.28" d="M133.176 403.234C129.626 405.744 125.3 408.366 120.163 410.671C108.259 416.014 97.2725 417.303 89.7993 417.489C93.003 420.296 97.9542 423.761 104.671 425.546C124.365 430.77 141.12 416.72 143.091 415.01C139.788 411.08 136.485 407.157 133.176 403.234Z" fill="#1A1A1A" stroke="#1A1A1A" stroke-miterlimit="10"/>
<path d="M292.432 399.515C296.1 405.738 300.32 414.495 302.966 425.546C304.509 431.997 305.197 437.885 305.445 442.899C305.971 442.366 309.782 438.629 315.359 439.181C321.984 439.837 324.958 445.942 325.274 446.618C328.131 452.747 324.964 458.474 324.654 459.013C310.402 458.598 296.15 458.189 281.897 457.774C281.618 453.423 280.918 448.372 279.419 442.899C275.713 429.351 268.878 419.614 263.927 413.77" fill="#F7D5B0"/>
<path d="M292.432 399.515C296.1 405.738 300.32 414.495 302.966 425.546C304.509 431.997 305.197 437.885 305.445 442.899C305.971 442.366 309.782 438.629 315.359 439.181C321.984 439.837 324.958 445.942 325.274 446.618C328.131 452.747 324.964 458.474 324.654 459.013C310.402 458.598 296.15 458.189 281.897 457.774C281.618 453.423 280.918 448.372 279.419 442.899C275.713 429.351 268.878 419.614 263.927 413.77" stroke="#1A1A1A" stroke-width="2.5" stroke-miterlimit="10" stroke-linecap="round" stroke-linejoin="round"/>
<path d="M201.34 126.196C205.145 120.339 211.106 117.953 223.028 113.181C234.362 108.644 259.874 98.833 291.192 105.743C301.77 108.08 312.218 110.386 322.176 119.378C333.844 129.921 337.606 143.116 338.907 149.127C343.561 149.313 351.176 149.493 360.595 149.127C377.041 148.495 383.505 146.797 395.297 148.508C405.255 149.952 412.604 151.024 416.366 156.565C421.323 163.872 418.287 176.366 409.549 188.173C410.603 191.489 411.799 196.683 411.408 203.048C410.844 212.226 407.281 218.951 405.212 222.261C396.784 225.118 389.565 227.107 384.143 228.458C373.218 231.185 364.877 233.212 353.779 233.416C348.332 233.516 343.827 233.144 340.766 232.797C339.551 236.286 337.748 241.659 335.809 248.291C329.934 268.39 329.426 277.519 322.176 319.565C316.853 350.435 316.995 348.942 315.973 356.082C313.339 374.433 313.711 378.121 309.163 392.078C300.636 418.263 292.413 428.254 288.714 432.363C277.553 444.777 264.862 451.279 256.491 454.675C226.895 459.955 202.846 459.664 186.468 458.394C168.336 456.993 159.072 454.353 150.527 448.477C147.336 446.283 133.046 435.933 128.839 417.489C127.55 411.836 126.763 403.476 133.796 381.542C138.381 367.244 144.237 353.565 161.681 321.424C175.748 295.505 177.737 293.708 185.229 278.04C194.641 258.356 199.351 248.514 202.579 234.656C205.436 222.403 208.553 203.141 205.058 178.257" fill="#F7D5B0"/>
<path d="M201.34 126.196C205.145 120.339 211.106 117.953 223.028 113.181C234.362 108.644 259.874 98.833 291.192 105.743C301.77 108.08 312.218 110.386 322.176 119.378C333.844 129.921 337.606 143.116 338.907 149.127C343.561 149.313 351.176 149.493 360.595 149.127C377.041 148.495 383.505 146.797 395.297 148.508C405.255 149.952 412.604 151.024 416.366 156.565C421.323 163.872 418.287 176.366 409.549 188.173C410.603 191.489 411.799 196.683 411.408 203.048C410.844 212.226 407.281 218.951 405.212 222.261C396.784 225.118 389.565 227.107 384.143 228.458C373.218 231.185 364.877 233.212 353.779 233.416C348.332 233.516 343.827 233.144 340.766 232.797C339.551 236.286 337.748 241.659 335.809 248.291C329.934 268.39 329.426 277.519 322.176 319.565C316.853 350.435 316.995 348.942 315.973 356.082C313.339 374.433 313.711 378.121 309.163 392.078C300.636 418.263 292.413 428.254 288.714 432.363C277.553 444.777 264.862 451.279 256.491 454.675C226.895 459.955 202.846 459.664 186.468 458.394C168.336 456.993 159.072 454.353 150.527 448.477C147.336 446.283 133.046 435.933 128.839 417.489C127.55 411.836 126.763 403.476 133.796 381.542C138.381 367.244 144.237 353.565 161.681 321.424C175.748 295.505 177.737 293.708 185.229 278.04C194.641 258.356 199.351 248.514 202.579 234.656C205.436 222.403 208.553 203.141 205.058 178.257" stroke="#1A1A1A" stroke-width="2.5" stroke-miterlimit="10" stroke-linecap="round" stroke-linejoin="round"/>
<path d="M199.791 128.985C196.754 136.862 193.699 145 190.496 153.776C189.387 156.819 187.633 161.789 189.876 164.312C191.593 166.246 194.022 164.913 196.073 166.791C197.43 168.037 198.043 170.169 196.692 181.665C195.658 190.466 194.864 192.921 196.692 195.3C197.393 195.964 198.551 196.999 200.101 198.089C204.723 201.349 206.657 200.792 208.466 202.738C210.598 205.031 209.309 207.169 210.015 215.443C210.486 220.965 210.92 226.01 213.424 226.909C216.051 227.851 220.655 224.101 222.719 220.091C224.224 217.166 224.094 214.662 225.197 214.513C226.325 214.358 226.951 216.912 229.535 220.091C230.886 221.758 234.331 225.985 237.591 225.669C238.192 225.613 240.683 225.217 243.787 218.232C248.478 207.677 245.052 197.947 247.505 197.16C249.402 196.552 251.143 201.529 254.322 201.498C259.31 201.455 263.66 189.016 265.166 180.116C266.275 173.584 267.174 161.132 260.519 145.099" fill="#F7D5B0"/>
<path d="M199.791 128.985C196.754 136.862 193.699 145 190.496 153.776C189.387 156.819 187.633 161.789 189.876 164.312C191.593 166.246 194.022 164.913 196.073 166.791C197.43 168.037 198.043 170.169 196.692 181.665C195.658 190.466 194.864 192.921 196.692 195.3C197.393 195.964 198.551 196.999 200.101 198.089C204.723 201.349 206.657 200.792 208.466 202.738C210.598 205.031 209.309 207.169 210.015 215.443C210.486 220.965 210.92 226.01 213.424 226.909C216.051 227.851 220.655 224.101 222.719 220.091C224.224 217.166 224.094 214.662 225.197 214.513C226.325 214.358 226.951 216.912 229.535 220.091C230.886 221.758 234.331 225.985 237.591 225.669C238.192 225.613 240.683 225.217 243.787 218.232C248.478 207.677 245.052 197.947 247.505 197.16C249.402 196.552 251.143 201.529 254.322 201.498C259.31 201.455 263.66 189.016 265.166 180.116C266.275 173.584 267.174 161.132 260.519 145.099" stroke="#1A1A1A" stroke-width="2.5" stroke-miterlimit="10" stroke-linecap="round" stroke-linejoin="round"/>
<path opacity="0.32" d="M201.34 126.196C193.111 131.854 189.647 141.132 186.778 148.818C185.03 153.503 184.336 157.302 186.158 159.354C187.875 161.287 190.304 159.955 192.355 161.833C193.712 163.078 194.325 165.21 192.974 176.707C191.94 185.508 191.146 187.962 192.974 190.342C193.675 191.005 194.833 192.04 196.383 193.131C201.005 196.391 202.939 195.833 204.748 197.779C206.88 200.073 205.591 202.211 206.297 210.485C206.768 216.007 207.202 221.052 209.706 221.951C212.333 222.893 216.937 219.143 219.001 215.133C220.506 212.208 220.376 209.704 221.479 209.555C222.607 209.4 223.233 211.954 225.817 215.133C227.168 216.8 230.613 221.027 233.873 220.711C234.474 220.655 236.965 220.259 240.069 213.274C244.76 202.719 241.334 192.989 243.787 192.202C245.684 191.594 247.425 196.571 250.604 196.54C255.536 196.497 259.893 184.337 261.448 175.158C262.768 167.361 265.216 152.927 256.801 140.141C245.157 122.446 217.445 115.114 201.34 126.196Z" fill="#F0EEE3" stroke="#F0EEE3" stroke-width="3" stroke-miterlimit="10" stroke-linecap="round" stroke-linejoin="round"/>
<path d="M294.39 183.327C296.174 186.177 298.43 188.725 301.07 190.813C301.46 191.123 301.999 191.198 302.384 190.813C302.706 190.491 302.78 189.809 302.384 189.499C299.868 187.51 297.699 185.111 295.995 182.391C295.363 181.374 293.751 182.304 294.39 183.327Z" fill="#1A1A1A"/>
<path d="M301.262 189.252C298.659 190.925 296.212 192.834 293.956 194.953C293.59 195.3 293.609 195.92 293.956 196.267C294.322 196.633 294.904 196.614 295.27 196.267C297.414 194.253 299.725 192.443 302.198 190.857C302.619 190.584 302.792 190.032 302.532 189.586C302.291 189.165 301.683 188.979 301.262 189.252Z" fill="#1A1A1A"/>
<path d="M307.923 192.511C308.568 199.961 312.187 205.936 317.218 207.386C319.672 208.093 321.872 207.603 322.795 207.386C330.442 205.57 333.553 197.333 333.95 196.23C333.832 197.346 333.596 200.86 335.809 204.287C338.021 207.727 341.919 209.884 345.723 209.865C351.536 209.834 357.138 204.727 358.117 197.47C358.222 198.003 359.561 204.25 365.553 206.766C366.278 207.07 372.4 209.524 377.326 205.527C380.543 202.911 381.98 198.579 381.044 194.371" fill="#F0EEE3"/>
<path d="M307.923 192.511C308.568 199.961 312.187 205.936 317.218 207.386C319.672 208.093 321.872 207.603 322.795 207.386C330.442 205.57 333.553 197.333 333.95 196.23C333.832 197.346 333.596 200.86 335.809 204.287C338.021 207.727 341.919 209.884 345.723 209.865C351.536 209.834 357.138 204.727 358.117 197.47C358.222 198.003 359.561 204.25 365.553 206.766C366.278 207.07 372.4 209.524 377.326 205.527C380.543 202.911 381.98 198.579 381.044 194.371" stroke="#1A1A1A" stroke-width="2.5" stroke-miterlimit="10" stroke-linecap="round" stroke-linejoin="round"/>
<path d="M302.092 191.123C315.967 192.505 329.853 193.869 343.784 194.513C357.677 195.158 371.638 195.096 385.475 193.578C393.215 192.728 400.899 191.427 408.459 189.568C409.617 189.283 409.128 187.491 407.963 187.776C394.547 191.074 380.778 192.58 366.984 192.952C353.11 193.323 339.235 192.58 325.41 191.446C317.627 190.807 309.857 190.039 302.086 189.264C300.902 189.146 300.909 191.006 302.092 191.123Z" fill="#1A1A1A"/>
<path d="M389.1 193.131C390.34 194.47 392.168 196.738 393.438 199.949C394.336 202.229 394.776 204.541 395.297 214.823C395.644 221.709 395.588 223.475 397.156 225.359C398.829 227.367 401.506 228.483 403.972 228.458C410.628 228.384 414.166 220.005 414.507 219.162C414.971 218.021 416.044 214.984 415.126 207.386C414.612 203.147 413.398 196.819 410.169 189.413" fill="#E1855E"/>
<path d="M389.1 193.131C390.34 194.47 392.168 196.738 393.438 199.949C394.336 202.229 394.776 204.541 395.297 214.823C395.644 221.709 395.588 223.475 397.156 225.359C398.829 227.367 401.506 228.483 403.972 228.458C410.628 228.384 414.166 220.005 414.507 219.162C414.971 218.021 416.044 214.984 415.126 207.386C414.612 203.147 413.398 196.819 410.169 189.413" stroke="#1A1A1A" stroke-width="3" stroke-miterlimit="10" stroke-linecap="round" stroke-linejoin="round"/>
<path d="M399.628 194.117C403.377 201.04 405.205 208.874 404.939 216.738C404.896 217.935 406.755 217.935 406.798 216.738C407.077 208.551 405.131 200.376 401.233 193.175C400.663 192.127 399.058 193.063 399.628 194.117Z" fill="#1A1A1A"/>
<path d="M400.254 162.762C397.974 158.04 401.283 152.555 403.353 149.127C405.534 145.514 411.631 135.406 420.084 136.732C425.295 137.55 429.342 142.39 430.618 147.268C432.613 154.873 427.414 160.841 426.28 162.143C422.141 166.896 415.349 169.722 408.93 168.34C407.356 167.999 402.25 166.902 400.254 162.762Z" fill="#1A1A1A" stroke="#1A1A1A" stroke-width="3" stroke-miterlimit="10" stroke-linecap="round" stroke-linejoin="round"/>
<path d="M420.951 141.194C421.273 141.176 421.596 141.182 421.918 141.213C422.197 141.238 421.744 141.176 422.017 141.225C422.104 141.244 422.191 141.256 422.277 141.275C422.42 141.306 422.562 141.343 422.705 141.387C422.872 141.436 423.04 141.498 423.207 141.56C423.362 141.622 423.176 141.541 423.269 141.585C423.337 141.616 423.405 141.647 423.467 141.678C423.771 141.827 424.062 142 424.341 142.198C424.403 142.242 424.459 142.285 424.521 142.329C424.384 142.223 424.601 142.403 424.607 142.403C424.731 142.508 424.849 142.62 424.967 142.731C425.084 142.843 425.19 142.967 425.295 143.085C425.351 143.153 425.407 143.221 425.462 143.289C425.382 143.19 425.469 143.302 425.5 143.345C425.686 143.605 425.853 143.884 425.995 144.176C426.026 144.244 426.057 144.306 426.088 144.374C426.014 144.206 426.125 144.467 426.125 144.479C426.187 144.647 426.237 144.814 426.28 144.987C426.411 145.471 426.943 145.768 427.427 145.638C427.916 145.502 428.208 144.981 428.077 144.492C427.26 141.405 424.143 139.118 420.945 139.329C420.443 139.36 420.016 139.732 420.016 140.259C420.022 140.742 420.443 141.225 420.951 141.194Z" fill="#F0EEE3"/>
<path d="M427.105 147.813C427.173 148.408 427.198 149.003 427.173 149.605C427.16 149.896 427.136 150.187 427.098 150.478C427.074 150.72 427.129 150.274 427.092 150.509C427.08 150.578 427.074 150.646 427.061 150.72C427.036 150.881 427.005 151.042 426.968 151.204C426.869 151.681 427.105 152.232 427.619 152.35C428.084 152.456 428.654 152.208 428.765 151.699C429.032 150.423 429.118 149.115 428.97 147.82C428.939 147.566 428.883 147.349 428.697 147.163C428.536 147.002 428.27 146.878 428.04 146.89C427.576 146.902 427.043 147.299 427.105 147.813Z" fill="#F0EEE3"/>
<path d="M420.976 141.988C421.236 142.05 421.49 142.13 421.744 142.217C421.819 142.242 421.893 142.273 421.968 142.298C421.986 142.304 422.191 142.391 422.079 142.341C421.968 142.291 422.191 142.391 422.191 142.391C422.253 142.415 422.315 142.446 422.37 142.477C422.866 142.719 423.331 143.004 423.765 143.333C423.659 143.252 423.74 143.314 423.796 143.357C423.845 143.401 423.901 143.444 423.95 143.488C424.05 143.574 424.155 143.661 424.248 143.754C424.44 143.934 424.632 144.126 424.806 144.33C424.892 144.43 424.979 144.535 425.066 144.634C425.233 144.839 424.961 144.485 425.115 144.702C425.153 144.758 425.196 144.808 425.233 144.863C425.394 145.093 425.543 145.334 425.679 145.576C425.915 146.004 426.534 146.177 426.95 145.911C427.377 145.632 427.538 145.093 427.284 144.64C426.057 142.446 423.907 140.804 421.472 140.197C421.001 140.079 420.443 140.345 420.325 140.847C420.22 141.325 420.474 141.864 420.976 141.988Z" fill="#F0EEE3"/>
<path d="M170.388 381.548C179.658 380.098 190.514 379.577 198.502 385.385C202.741 388.471 205.349 393.212 207.146 398.034C209.21 403.569 210.61 409.388 211.496 415.22C212.519 421.994 212.748 428.886 212.234 435.716C212.147 436.912 214.006 436.906 214.093 435.716C215.035 423.24 213.479 410.442 209.334 398.623C207.537 393.497 205.027 388.409 200.807 384.845C196.984 381.616 192.206 379.875 187.292 379.187C181.504 378.381 175.649 378.852 169.904 379.751C168.714 379.937 169.216 381.728 170.388 381.548Z" fill="#1A1A1A"/>
<path d="M213.926 437.873C217.761 436.206 222.365 436.478 226.04 438.431C229.783 440.414 232.249 444.071 233.005 448.205C233.427 450.516 233.241 452.902 232.491 455.127C232.107 456.262 233.904 456.751 234.282 455.623C235.788 451.167 235.118 446.073 232.621 442.094C230.049 437.997 225.675 435.493 220.903 435.003C218.189 434.725 215.481 435.183 212.984 436.268C211.893 436.739 212.841 438.344 213.926 437.873Z" fill="#1A1A1A"/>
<path d="M289.333 152.846C296.178 152.846 301.727 147.296 301.727 140.451C301.727 133.605 296.178 128.055 289.333 128.055C282.489 128.055 276.94 133.605 276.94 140.451C276.94 147.296 282.489 152.846 289.333 152.846Z" fill="#F0EEE3" stroke="#1A1A1A" stroke-width="2.5" stroke-miterlimit="10" stroke-linecap="round" stroke-linejoin="round"/>
<path d="M286.855 141.07C290.277 141.07 293.051 138.296 293.051 134.873C293.051 131.45 290.277 128.675 286.855 128.675C283.432 128.675 280.658 131.45 280.658 134.873C280.658 138.296 283.432 141.07 286.855 141.07Z" fill="#1A1A1A" stroke="#1A1A1A" stroke-miterlimit="10" stroke-linecap="round" stroke-linejoin="round"/>
<path d="M318.923 149.127C324.826 149.127 329.612 144.341 329.612 138.436C329.612 132.532 324.826 127.745 318.923 127.745C313.019 127.745 308.233 132.532 308.233 138.436C308.233 144.341 313.019 149.127 318.923 149.127Z" fill="#F0EEE3" stroke="#1A1A1A" stroke-width="2.5" stroke-miterlimit="10" stroke-linecap="round" stroke-linejoin="round"/>
<path d="M316.555 139.44C319.505 139.44 321.897 137.049 321.897 134.098C321.897 131.148 319.505 128.756 316.555 128.756C313.605 128.756 311.214 131.148 311.214 134.098C311.214 137.049 313.605 139.44 316.555 139.44Z" fill="#1A1A1A" stroke="#1A1A1A" stroke-miterlimit="10" stroke-linecap="round" stroke-linejoin="round"/>
<path opacity="0.58" d="M324.667 299.094C321.215 296.1 317.262 293.98 312.881 292.939C290.901 287.727 266.43 311.576 258.213 346.215C249.997 380.854 261.157 413.156 283.137 418.369C287.858 419.49 292.698 419.261 297.47 417.879C300.896 410.15 303.474 403.531 305.296 398.555C308.865 388.812 310.681 383.798 311.957 376.887C313.054 370.95 312.249 371.954 313.816 360.773C314.554 355.524 315.353 351.006 316.915 342.18C318.074 335.654 318.954 330.906 319.393 328.545C320.651 321.752 322.455 311.836 324.667 299.094Z" fill="#F0EEE3"/>
<path d="M281.959 308.477C281.166 311.576 282.833 315.009 285.826 316.205C288.788 317.389 292.401 315.951 293.888 313.175C293.324 313.1 292.754 313.026 292.19 312.952C293.913 317.47 296.379 322.199 301.169 324.008C303.301 324.814 305.761 324.919 307.874 324.021C309.913 323.153 311.325 321.411 312.224 319.428C313.259 317.147 313.748 314.668 314.82 312.406C314.399 312.518 313.971 312.629 313.55 312.741C316.041 314.08 319.474 313.038 320.62 310.386C321.091 309.301 319.486 308.353 319.015 309.45C318.284 311.148 316.171 312.041 314.492 311.136C314.077 310.913 313.445 310.999 313.222 311.47C312.379 313.249 311.858 315.139 311.208 316.992C310.6 318.715 309.813 320.519 308.314 321.653C304.782 324.318 299.998 322.062 297.525 319.081C295.92 317.147 294.873 314.786 293.987 312.456C293.721 311.762 292.698 311.47 292.289 312.233C291.223 314.228 288.683 315.313 286.52 314.489C284.388 313.677 283.199 311.142 283.756 308.973C284.047 307.814 282.257 307.318 281.959 308.477Z" fill="#1A1A1A"/>
<path d="M202.579 234.656C210.245 236.875 220.568 239.478 232.943 241.473C247.902 243.884 261.795 246.122 279.418 244.572C308.202 242.037 322.176 237.755 322.176 237.755C328.658 235.765 336.49 232.883 338.907 235.896C340.586 237.984 338.572 241.566 335.189 252.629C333.491 258.182 332.283 262.887 331.471 266.264C325.429 267.795 316.456 269.803 305.445 271.222C273.525 275.338 247.989 271.501 230.465 268.743C221.058 267.262 208.274 264.833 193.284 260.686C196.383 252.01 199.481 243.333 202.579 234.656Z" fill="#E1855E" stroke="#1A1A1A" stroke-width="2.5" stroke-miterlimit="10" stroke-linecap="round" stroke-linejoin="round"/>
<path d="M198.793 260.153C203.98 260.352 208.578 263.388 213.795 263.5C214.991 263.525 214.991 261.666 213.795 261.641C208.603 261.523 203.992 258.492 198.793 258.294C197.597 258.251 197.597 260.11 198.793 260.153Z" fill="#1A1A1A"/>
<path d="M270.743 407.572C274.412 413.795 278.632 422.552 281.278 433.603C282.82 440.054 283.508 445.942 283.756 450.956C284.283 450.423 288.094 446.686 293.671 447.238C300.295 447.895 303.27 453.999 303.586 454.675C306.442 460.804 303.276 466.531 302.966 467.07C288.714 466.655 274.461 466.246 260.209 465.831C259.93 461.48 259.23 456.429 257.73 450.956C254.024 437.408 247.189 427.671 242.238 421.827" fill="#F7D5B0"/>
<path d="M270.743 407.572C274.412 413.795 278.632 422.552 281.278 433.603C282.821 440.054 283.508 445.942 283.756 450.956C284.283 450.423 288.094 446.686 293.671 447.238C300.295 447.895 303.27 453.999 303.586 454.675C306.442 460.804 303.276 466.531 302.966 467.07C288.714 466.655 274.461 466.246 260.209 465.831C259.93 461.48 259.23 456.429 257.73 450.956C254.024 437.408 247.189 427.671 242.238 421.827" stroke="#1A1A1A" stroke-width="2.5" stroke-miterlimit="10" stroke-linecap="round" stroke-linejoin="round"/>
<path d="M218.195 264.306C218.976 264.306 219.763 264.306 220.544 264.306C221.027 264.306 221.498 263.878 221.473 263.376C221.448 262.874 221.064 262.447 220.544 262.447C219.763 262.447 218.976 262.447 218.195 262.447C217.712 262.447 217.241 262.874 217.266 263.376C217.284 263.884 217.675 264.306 218.195 264.306Z" fill="#1A1A1A"/>
<path d="M333.813 240.823C332.94 245.105 331.527 249.258 329.587 253.181C329.06 254.247 330.659 255.195 331.192 254.117C333.2 250.051 334.693 245.756 335.604 241.312C335.846 240.147 334.055 239.645 333.813 240.823Z" fill="#1A1A1A"/>
<path d="M328.075 259.558C328.075 259.664 328.063 259.769 328.05 259.874C328.063 259.794 328.075 259.707 328.081 259.626C328.044 259.874 327.982 260.122 327.883 260.352C327.914 260.277 327.945 260.203 327.976 260.128C327.883 260.352 327.759 260.562 327.61 260.754C327.66 260.692 327.709 260.63 327.753 260.569C327.734 260.593 327.716 260.612 327.697 260.637C327.604 260.723 327.542 260.823 327.505 260.934C327.449 261.046 327.418 261.164 327.424 261.294C327.424 261.523 327.524 261.796 327.697 261.951C327.877 262.112 328.106 262.236 328.354 262.223C328.583 262.211 328.856 262.137 329.011 261.951C329.159 261.771 329.302 261.585 329.42 261.38C329.537 261.176 329.63 260.959 329.711 260.736C329.847 260.364 329.915 259.949 329.922 259.552C329.928 259.317 329.816 259.062 329.649 258.895C329.488 258.734 329.221 258.61 328.992 258.622C328.751 258.635 328.503 258.709 328.335 258.895C328.18 259.081 328.081 259.304 328.075 259.558Z" fill="#1A1A1A"/>
<path d="M223.103 446.283C225.675 448.143 227.118 451.322 226.97 454.47C226.914 455.667 228.773 455.667 228.829 454.47C229.008 450.634 227.137 446.922 224.039 444.678C223.63 444.387 223.004 444.61 222.768 445.013C222.496 445.484 222.694 445.992 223.103 446.283Z" fill="#1A1A1A"/>
<path d="M217.52 449.574C217.916 449.983 218.133 450.25 218.424 450.69C218.567 450.913 218.703 451.136 218.827 451.372C218.889 451.489 218.951 451.607 219.007 451.725C219.038 451.787 219.063 451.843 219.087 451.905C219.1 451.936 219.112 451.967 219.125 451.998C219.1 451.942 219.1 451.942 219.125 452.004C219.323 452.493 219.472 452.995 219.577 453.516C219.602 453.646 219.627 453.776 219.645 453.906C219.67 454.068 219.633 453.789 219.651 453.95C219.658 454.018 219.664 454.08 219.67 454.148C219.695 454.427 219.707 454.706 219.707 454.985C219.707 455.468 220.135 455.939 220.637 455.915C221.139 455.89 221.566 455.505 221.566 454.985C221.56 452.487 220.562 450.058 218.821 448.267C218.468 447.907 217.86 447.913 217.507 448.267C217.16 448.62 217.173 449.215 217.52 449.574Z" fill="#1A1A1A"/>
<path d="M295.635 454.892C297.872 457.83 298.356 461.926 296.689 465.255C296.156 466.321 297.755 467.263 298.294 466.19C300.239 462.311 299.886 457.427 297.24 453.956C296.937 453.559 296.441 453.349 295.97 453.621C295.573 453.851 295.325 454.489 295.635 454.892Z" fill="#1A1A1A"/>
<path d="M291.118 459.77C291.508 461.703 291.26 463.829 290.405 465.632C290.188 466.085 290.281 466.636 290.74 466.903C291.143 467.139 291.793 467.027 292.01 466.568C293.095 464.281 293.411 461.753 292.909 459.274C292.81 458.784 292.227 458.499 291.762 458.623C291.254 458.765 291.019 459.274 291.118 459.77Z" fill="#1A1A1A"/>
<path d="M315.632 450.039C317.931 451.96 318.861 455.171 317.9 458.016C317.516 459.15 319.313 459.639 319.691 458.511C320.843 455.096 319.716 451.037 316.946 448.725C316.562 448.403 316.01 448.347 315.632 448.725C315.297 449.054 315.242 449.717 315.632 450.039Z" fill="#1A1A1A"/>
<path d="M389.906 153.8C391.102 153.8 391.102 151.941 389.906 151.941C388.71 151.941 388.71 153.8 389.906 153.8Z" fill="#1A1A1A"/>
<path d="M392.378 161.219C393.574 161.219 393.574 159.36 392.378 159.36C391.182 159.36 391.182 161.219 392.378 161.219Z" fill="#1A1A1A"/>
<path d="M384.967 158.746C386.163 158.746 386.163 156.887 384.967 156.887C383.771 156.887 383.765 158.746 384.967 158.746Z" fill="#1A1A1A"/>
<path d="M377.965 155.449C379.161 155.449 379.161 153.59 377.965 153.59C376.769 153.59 376.763 155.449 377.965 155.449Z" fill="#1A1A1A"/>
<path d="M244.798 105.793C245.126 101.473 245.169 96.7877 242.796 92.9761C240.937 89.9888 236.959 87.0139 233.265 88.4952C231.58 89.1707 230.564 90.7202 229.901 92.3378C229.355 93.6765 228.432 96.0068 229.963 97.0666C231.617 98.2132 233.668 96.3911 234.492 95.0214C235.552 93.255 235.577 91.0734 235.013 89.1398C233.867 85.2166 230.217 81.7521 225.935 82.0186C224.745 82.093 224.739 83.9523 225.935 83.8779C228.729 83.7044 231.159 85.5079 232.485 87.8754C233.222 89.1955 233.687 90.8007 233.495 92.3254C233.408 93.0195 233.16 93.6951 232.77 94.2777C232.516 94.6495 231.685 95.6598 231.14 95.542C230.551 95.418 231.778 92.6353 231.983 92.2448C232.627 91.0177 233.588 90.0446 235.044 90.0012C237.919 89.9145 240.33 92.2386 241.588 94.6123C243.391 98.0087 243.217 102.074 242.939 105.793C242.846 106.983 244.705 106.977 244.798 105.793Z" fill="#1A1A1A"/>
<path d="M256.094 103.165C255.264 99.0684 258.04 94.9532 262.198 94.3086C262.935 94.197 263.914 94.1908 264.515 94.699C265.104 95.2011 264.962 96.0625 264.435 96.5584C263.834 97.1286 262.886 96.9612 262.266 96.5026C261.46 95.9076 261.237 94.7982 261.411 93.8562C261.882 91.3337 264.615 90.0941 266.74 89.2389C267.837 88.7988 267.36 86.9953 266.244 87.4477C263.462 88.5695 260.184 90.1995 259.595 93.4843C259.335 94.916 259.632 96.4654 260.655 97.55C261.578 98.523 263.022 99.0003 264.336 98.6718C267.069 97.99 267.632 94.1289 265.061 92.8521C262.582 91.6188 259.366 92.9203 257.389 94.5441C254.712 96.7381 253.622 100.314 254.303 103.661C254.539 104.832 256.336 104.336 256.094 103.165Z" fill="#1A1A1A"/>
<path d="M228.556 109.437C228.494 106.909 227.149 104.541 225.005 103.196C222.849 101.839 220.085 101.851 217.836 102.973C215.921 103.921 213.43 106.562 214.83 108.849C215.469 109.89 216.776 110.212 217.891 109.809C219.081 109.375 219.775 108.235 219.769 106.989C219.757 103.525 215.617 102.248 212.829 102.019C211.639 101.92 211.645 103.779 212.829 103.878C214.087 103.983 215.407 104.293 216.503 104.95C217.321 105.44 218.158 106.357 217.867 107.398C217.668 108.092 216.448 108.545 216.324 107.578C216.2 106.642 217.123 105.706 217.786 105.192C219.379 103.965 221.684 103.612 223.512 104.498C225.396 105.403 226.647 107.361 226.697 109.45C226.728 110.634 228.587 110.64 228.556 109.437Z" fill="#1A1A1A"/>
<path d="M172.457 299.713C166.738 300.804 160.306 296.627 159.488 290.739C159.277 289.208 159.469 287.448 160.498 286.221C161.303 285.26 162.691 284.721 163.931 284.969C165.25 285.229 165.982 286.45 165.759 287.752C165.492 289.332 164.042 289.847 162.611 289.958C160.665 290.107 158.707 289.989 157.257 288.545C156.024 287.318 155.305 285.645 154.623 284.07C154.146 282.973 152.547 283.922 153.018 285.006C153.793 286.791 154.654 288.657 156.104 290.008C157.771 291.563 159.903 291.948 162.121 291.842C164.073 291.756 166.211 291.272 167.159 289.363C167.934 287.801 167.81 285.806 166.639 284.467C165.449 283.104 163.46 282.781 161.78 283.283C159.897 283.841 158.546 285.298 157.932 287.151C156.68 290.95 158.539 295.239 161.278 297.891C164.346 300.866 168.739 302.31 172.959 301.505C174.124 301.282 173.628 299.49 172.457 299.713Z" fill="#1A1A1A"/>
<path d="M136.634 371.532C133.833 369.438 130.363 368.155 126.843 368.787C123.671 369.351 120.771 371.632 120.12 374.892C119.55 377.724 120.901 382.137 124.451 382.062C126.075 382.031 127.475 380.848 128.008 379.36C128.554 377.842 128.256 376.137 127.525 374.737C125.926 371.681 122.338 370.262 119.19 369.431C118.032 369.128 117.536 370.919 118.695 371.223C120.845 371.793 123.119 372.574 124.755 374.148C126.174 375.511 127.606 379.007 125.04 380.067C123.788 380.581 122.716 379.459 122.227 378.412C121.743 377.371 121.706 376.144 121.985 375.047C122.617 372.592 124.811 371.049 127.215 370.597C130.264 370.02 133.288 371.34 135.686 373.138C136.653 373.857 137.582 372.245 136.634 371.532Z" fill="#1A1A1A"/>
<path d="M289.154 134.21C291.546 134.21 291.552 130.491 289.154 130.491C286.762 130.491 286.755 134.21 289.154 134.21Z" fill="white"/>
<path d="M318.483 133.633C320.874 133.633 320.881 129.915 318.483 129.915C316.091 129.915 316.091 133.633 318.483 133.633Z" fill="white"/>
</g>
<defs>
<clipPath id="clip0_1906_16154">
<rect width="343" height="386" fill="white" transform="translate(89 82)"/>
</clipPath>
</defs>
</svg>
