<svg width="437" height="153" viewBox="0 0 437 153" fill="none" xmlns="http://www.w3.org/2000/svg">
<path d="M47.2051 99.416C57.8326 96.5139 66.6704 94.1922 73.6373 92.0852C73.9453 95.4817 74.438 98.859 75.1131 102.202C75.7562 105.398 76.62 109.254 77.7046 113.77C64.8827 115.403 52.1383 117.262 39.4713 119.348C36.1303 108.865 32.888 99.0329 29.7329 89.8854C26.5778 80.7378 23.0333 71.0215 19.0996 60.7595C23.7248 58.1127 28.3868 55.5646 33.0856 53.1152L47.2051 99.416Z" fill="#E4885E" stroke="#E3875E" stroke-width="3.46" stroke-miterlimit="10"/>
<path d="M115.258 89.9025C115.487 91.8052 115.935 93.675 116.594 95.4746C116.788 95.959 117.08 96.3985 117.45 96.7659C117.821 97.1333 118.264 97.4208 118.75 97.6106L120.232 108.726C119.29 109.158 118.319 109.525 117.326 109.823C116.209 110.101 115.07 110.281 113.921 110.363C110.768 110.653 108.421 109.393 106.879 106.584C105.328 103.786 104.136 100.147 103.323 95.6314L102.818 92.8047C102.841 99.1546 102.111 103.93 100.627 107.13C99.1452 110.339 96.8501 112.063 93.7124 112.406C92.0355 112.641 90.3267 112.469 88.7305 111.904C87.1344 111.339 85.6981 110.398 84.5434 109.161C82.0739 106.619 80.2029 102.678 78.9595 97.2333C77.9368 92.7582 77.9368 89.0783 78.9595 86.1355C79.9821 83.1928 82.132 80.7956 85.351 78.9963C82.0127 76.053 78.3703 73.473 74.4854 71.2998C75.601 65.3736 77.3906 60.4864 79.7962 56.7252C82.131 53.0091 85.7555 50.2833 89.9762 49.0694C96.0773 47.2701 101.086 48.5644 104.874 52.9989C108.663 57.4334 111.382 65.1415 113.073 75.9374C113.797 80.5925 114.526 85.2475 115.258 89.9025ZM90.0634 71.5088C88.6527 73.4523 87.6632 75.6683 87.1581 78.0154C89.8681 76.8102 92.7036 75.9089 95.6124 75.328C97.0302 75.0203 97.9367 74.4747 98.4189 73.6737C98.8792 72.8241 99.0214 71.8384 98.8199 70.8935C98.7562 70.4726 98.6094 70.0685 98.388 69.7048C98.1665 69.341 97.8748 69.025 97.5299 68.7749C97.151 68.5187 96.7194 68.3508 96.2668 68.2835C95.8143 68.2162 95.3524 68.2512 94.9152 68.386C92.9817 68.8271 91.2646 69.9323 90.0634 71.5088ZM98.8605 90.837C100.303 88.7937 101.112 86.3712 101.185 83.8719C101.01 82.891 100.836 81.91 100.656 80.9349C99.9436 81.9724 99.0477 82.8713 98.0122 83.5875C96.8216 84.3816 95.5814 85.0989 94.2993 85.7351L92.3876 86.7914C90.4295 88.0045 89.6566 89.5775 90.0634 91.5277C90.4876 93.6231 91.6729 94.4995 93.6194 94.1745C94.6672 93.9938 95.6681 93.6054 96.5633 93.0322C97.4584 92.459 98.2296 91.7126 98.8315 90.837H98.8605Z" fill="#E4885E" stroke="#E3875E" stroke-width="3.46" stroke-miterlimit="10"/>
<path d="M145.409 107.287C144.278 95.0279 143.143 83.725 142.004 73.3779C141.617 69.7096 140.873 66.85 139.773 64.7992C138.692 62.7561 137.495 61.8332 136.199 62.0305C134.904 62.2279 133.945 63.6151 133.341 66.169C132.736 68.7229 132.626 72.1009 132.998 76.2974C133.695 82.5312 134.208 86.958 134.538 89.5776C135.235 95.142 136.072 101.237 137.048 107.861C132.639 108.178 128.235 108.523 123.835 108.894C122.444 97.4366 121.009 86.6155 119.529 76.4309C118.049 66.2464 116.292 55.3982 114.259 43.8863C116.943 43.509 118.989 43.184 120.395 42.8764C121.801 42.5688 123.881 41.9999 126.443 41.228C127.795 47.1019 129.136 52.9991 130.464 58.9194C130.546 52.2213 131.384 47.098 132.98 43.5497C134.578 40.0149 136.711 37.9776 139.372 37.5132C141.812 37.0837 144.02 37.8441 146.048 39.8001C148.076 41.7562 149.686 44.5944 150.941 48.2976C152.283 52.4184 153.133 56.6831 153.474 61.0032C154.032 67.1286 154.592 73.2541 155.153 79.3795C156.188 90.6979 157.108 99.7545 157.913 106.549C153.741 106.77 149.573 107.016 145.409 107.287Z" fill="#E4885E" stroke="#E3875E" stroke-width="3.46" stroke-miterlimit="10"/>
<path d="M185.402 33.1541C189.342 32.8755 193.283 32.6452 197.227 32.4634C197.428 47.0128 197.916 67.676 198.691 94.4531C198.993 105.011 198.354 113.671 196.849 120.421C195.344 127.172 193.282 132.071 190.644 135.124C188.006 138.177 185.019 139.692 181.637 139.697C178.227 139.672 174.941 138.409 172.393 136.145C169.413 133.576 167.073 130.349 165.559 126.719C165.831 120.141 166.127 113.534 166.448 106.897C168.657 109.48 170.667 111.338 172.509 112.446C174.186 113.515 176.139 114.07 178.128 114.043C184.333 113.88 187.157 107.49 186.594 94.8014C186.506 92.9498 186.466 91.6322 186.466 90.837C186.466 90.3089 186.414 89.6065 186.396 88.7243C186.379 87.842 186.309 86.6986 186.21 85.2939C184.827 97.8834 181.149 104.216 175.031 104.448C172.544 104.547 170.22 103.078 168.029 100.072C165.838 97.065 163.962 92.9556 162.439 87.755C160.817 82.1113 159.772 76.3181 159.319 70.464C158.759 64.4304 158.837 58.3546 159.551 52.3372C160.268 46.7535 161.562 42.2359 163.433 38.7842C165.31 35.3481 167.599 33.4559 170.26 33.1773C177.198 32.4402 182.003 37.3216 184.531 47.688C184.81 42.8395 185.1 37.9949 185.402 33.1541ZM182.346 81.7011C183.256 80.7337 184.012 79.1995 184.612 77.0983C185.25 74.56 185.479 71.9366 185.292 69.3264C185.044 63.8703 184.308 60.0008 183.084 57.7178C181.86 55.4348 180.15 54.3861 177.953 54.5719C176.036 54.717 174.607 56.2377 173.671 59.1166C172.736 61.9956 172.422 65.6523 172.706 70.0867C172.968 74.0917 173.764 77.2899 175.095 79.7044C176.425 82.119 177.936 83.2857 179.662 83.187C180.545 83.1754 181.434 82.6704 182.346 81.7011Z" fill="#E4885E" stroke="#E3875E" stroke-width="3.46" stroke-miterlimit="10"/>
<path d="M227.546 72.5536C219.179 72.4375 210.813 72.482 202.45 72.6871C202.253 64.0271 202.059 55.3652 201.869 46.7013C210.538 46.4227 219.21 46.3628 227.883 46.5214L227.546 72.5536Z" fill="#E4885E" stroke="#E3875E" stroke-width="3.46" stroke-miterlimit="10"/>
<path d="M258.958 57.3695C255.332 56.5956 252.012 55.9861 248.999 55.5412C248.778 60.2117 248.561 64.8841 248.348 69.5585C248.15 74.3257 248.447 78.0714 249.237 80.7956C250.021 83.5236 251.561 84.9282 253.845 85.0327C254.714 85.0763 255.583 84.9379 256.395 84.6264C256.07 87.8652 255.816 91.1543 255.634 94.4937C255.549 96.0725 255.392 99.6673 255.164 105.278C253.819 105.833 252.415 106.232 250.98 106.468C249.537 106.627 248.084 106.677 246.634 106.619C242.299 106.52 239.324 103.966 237.645 98.9166C235.966 93.8668 235.204 86.8611 235.419 77.8934C235.617 70.3943 235.811 62.8932 236 55.3902C234.122 55.5063 232.166 55.7211 230.132 56.0345C230.256 48.1639 230.382 40.2914 230.51 32.4169C232.642 32.4749 234.478 31.0703 236.035 28.1972C237.701 24.9607 238.703 21.4244 238.981 17.7959C244.676 18.0706 250.366 18.4576 256.053 18.9568C253.616 24.9197 251.056 29.6734 248.371 33.2179C252.334 33.4733 256.291 33.779 260.242 34.135C259.82 41.8817 259.392 49.6266 258.958 57.3695Z" fill="#E4885E" stroke="#E3875E" stroke-width="3.46" stroke-miterlimit="10"/>
<path d="M264.118 96.8969C261.555 89.9318 260.538 80.8248 261.212 69.6458C261.869 58.7337 263.984 49.9751 267.697 43.5265C271.41 37.078 276.82 34.3093 283.798 35.3135C286.02 35.5987 288.162 36.3274 290.097 37.4561C292.031 38.5848 293.719 40.0906 295.059 41.8839C297.86 45.5406 299.678 50.1318 300.532 55.6168C301.389 61.5818 301.422 67.6361 300.631 73.6101C299.359 84.2436 296.703 92.5785 292.787 98.8239C288.871 105.069 283.775 108.07 277.389 107.751C271.003 107.432 266.703 103.897 264.118 96.8969ZM285.46 82.5487C286.942 80.0413 287.912 76.6109 288.365 72.2229C288.783 68.0941 288.495 64.6232 287.499 61.81C286.5 58.9891 284.699 57.4046 282.125 57.0969C279.551 56.7893 277.546 57.9153 276.151 60.4576C274.757 62.9999 273.891 66.436 273.554 70.737C273.205 75.2179 273.508 78.863 274.443 81.5968C275.379 84.3306 277.075 85.8107 279.556 86.0081C282.037 86.2054 283.978 85.0504 285.46 82.5487Z" fill="#E4885E" stroke="#E3875E" stroke-width="3.46" stroke-miterlimit="10"/>
<path d="M331.956 92.8223C336.186 78.2033 340.509 63.8164 344.925 49.6617C348.864 50.7954 352.788 51.9795 356.697 53.2139C350.456 72.1165 344.369 91.4873 338.434 111.326C333.546 110.804 328.651 110.311 323.751 109.846C324.228 99.9132 324.659 89.8815 325.047 79.7511C322.095 89.452 319.2 99.2593 316.36 109.173C311.638 108.759 306.904 108.372 302.159 108.012C302.973 85.6076 303.592 62.9187 304.019 39.9453C308.039 40.7192 312.053 41.5318 316.058 42.3831C315.609 58.5074 315.059 74.4614 314.408 90.2452C317.758 74.8097 321.177 59.5077 324.663 44.3392C328.615 45.2756 332.548 46.2642 336.465 47.3051C335.024 62.6246 333.521 77.797 331.956 92.8223Z" fill="#E4885E" stroke="#E3875E" stroke-width="3.46" stroke-miterlimit="10"/>
<path d="M368.01 114.925C370.703 105.456 373.097 96.7303 375.192 88.7475C375.936 85.9092 376.122 83.5237 375.744 81.6199C375.367 79.7161 374.582 78.5262 373.304 78.1373C372.026 77.7484 370.747 78.4275 369.399 80.1572C368.051 81.8869 366.883 84.464 365.913 87.8653C364.607 92.9614 363.695 96.5891 363.176 98.7483C362.076 103.33 360.945 108.36 359.783 113.839C355.429 113.29 351.073 112.76 346.715 112.249C349.155 102.037 351.356 92.3946 353.316 83.3205C355.251 74.2252 357.168 64.4624 359.051 53.9683C361.596 55.0208 363.546 55.7792 364.902 56.2435C366.343 56.7311 368.336 57.2999 370.875 57.9848C370.259 63.1816 369.635 68.3377 369.004 73.4532C371.169 68.3223 373.517 64.8184 376.046 62.9417C378.568 61.0727 381.102 60.6722 383.6 61.6589C385.907 62.5766 387.794 64.3128 388.899 66.5345C390.164 69.036 390.821 71.8 390.817 74.6025C390.842 77.8685 390.37 81.1194 389.416 84.2434C388.138 88.5966 386.864 92.9518 385.593 97.3088C383.242 105.354 381.448 111.808 380.213 116.672C376.157 116.061 372.089 115.478 368.01 114.925Z" fill="#E4885E" stroke="#E3875E" stroke-width="3.46" stroke-miterlimit="10"/>
<path d="M419.352 56.4176C418.102 60.0221 415.598 66.8654 411.862 77.0229C411.226 78.6094 410.779 79.7799 410.52 80.5344C407.138 87.813 404.389 94.3661 402.251 100.031C398.866 99.0211 395.47 98.044 392.065 97.0999C393.774 90.9183 395.552 83.5991 397.295 74.9972C397.672 73.697 398.05 72.391 398.422 71.0909C400.967 61.924 403.161 54.2952 405.005 48.2046C409.836 50.8359 414.618 53.5735 419.352 56.4176ZM396.423 120.892C392.263 120.257 388.093 119.646 383.913 119.057C385.517 113.822 387.117 108.587 388.713 103.351C392.974 104.353 397.206 105.396 401.409 106.48L396.423 120.892Z" fill="#E4885E" stroke="#E3875E" stroke-width="3.46" stroke-miterlimit="10"/>
<path d="M52.5916 92.7757C63.2191 89.8736 72.0511 87.5518 79.0237 85.4391C79.3336 88.8357 79.8283 92.213 80.5054 95.556C81.1562 98.7522 82.0239 102.608 83.1085 107.124C70.2827 108.749 57.5383 110.605 44.8752 112.69C41.5283 102.213 38.2744 92.3752 35.1077 83.2625C31.9409 74.1498 28.3907 64.4276 24.4512 54.1656C29.0686 51.515 33.7287 48.963 38.4313 46.5098C43.1533 61.9375 47.8734 77.3595 52.5916 92.7757Z" fill="#FAD8B3" stroke="#E3875E" stroke-width="3" stroke-linecap="round" stroke-linejoin="round"/>
<path d="M120.645 83.2509C120.87 85.1561 121.318 87.0282 121.981 88.8288C122.175 89.3147 122.467 89.7555 122.839 90.1239C123.211 90.4924 123.655 90.7805 124.142 90.9706L125.624 102.086C124.684 102.522 123.713 102.889 122.719 103.183C121.603 103.46 120.466 103.643 119.32 103.728C116.165 104.013 113.823 102.742 112.272 99.9441C110.72 97.1464 109.529 93.5071 108.71 88.9856L108.204 86.1589C108.227 92.5088 107.501 97.2857 106.025 100.49C104.544 103.699 102.248 105.423 99.1107 105.766C97.4334 106 95.7243 105.826 94.1283 105.261C92.5322 104.695 91.0962 103.753 89.9417 102.515C87.4664 99.9731 85.5954 96.032 84.3461 90.5876C83.3235 86.1124 83.3177 82.4616 84.3461 79.4898C85.3746 76.518 87.5129 74.1498 90.7377 72.3447C87.3973 69.4031 83.7529 66.825 79.8662 64.654C80.976 58.7278 82.7715 53.8348 85.1654 50.0736C87.4992 46.3553 91.1238 43.6274 95.3455 42.412C101.452 40.6069 106.461 41.9012 110.255 46.3357C114.05 50.7702 116.763 58.4841 118.46 69.2858C119.18 73.9409 119.909 78.5959 120.645 83.2509ZM95.4036 64.8572C93.9941 66.8035 93.0048 69.0212 92.4983 71.3696C95.207 70.1596 98.0428 69.2563 100.953 68.6764C102.37 68.3687 103.277 67.8231 103.759 67.0222C104.221 66.1729 104.361 65.186 104.154 64.2419C104.089 63.8169 103.94 63.4091 103.716 63.0424C103.491 62.6756 103.196 62.3573 102.847 62.1059C102.469 61.851 102.038 61.6838 101.586 61.6165C101.135 61.5492 100.674 61.5835 100.238 61.717C98.3085 62.1668 96.5979 63.2779 95.4036 64.8572ZM104.212 84.1912C105.653 82.1469 106.461 79.725 106.537 77.2261C106.362 76.2452 106.182 75.27 106.008 74.2891C105.297 75.328 104.401 76.2272 103.364 76.9417C102.176 77.7401 100.936 78.4576 99.6511 79.0893L97.7394 80.1456C95.7813 81.3587 95.0143 82.9317 95.4152 84.8819C95.8452 86.9773 97.0305 87.8537 98.9712 87.5287C100.024 87.3516 101.031 86.965 101.931 86.3916C102.831 85.8183 103.607 85.07 104.212 84.1912Z" fill="#FAD8B3" stroke="#E3875E" stroke-width="3" stroke-linecap="round" stroke-linejoin="round"/>
<path d="M150.8 100.652C149.638 88.3819 148.498 77.0713 147.378 66.7203C146.991 63.052 146.247 60.1905 145.147 58.1358C144.06 56.0868 142.863 55.1698 141.567 55.3613C140.272 55.5528 139.319 56.9517 138.715 59.5114C138.11 62.0711 138.006 65.4433 138.372 69.6456C139.073 75.8872 139.59 80.3159 139.923 82.9317C140.62 88.5038 141.459 94.6021 142.439 101.227C138.031 101.54 133.626 101.883 129.226 102.254C127.831 90.7965 126.39 79.9715 124.903 69.7791C123.415 59.5868 121.655 48.7309 119.621 37.2113C122.306 36.834 124.351 36.509 125.757 36.2014C127.163 35.8937 129.243 35.3191 131.806 34.5471C133.165 40.4288 134.508 46.3298 135.832 52.2502C135.914 45.5521 136.752 40.4269 138.348 36.8747C139.941 33.334 142.073 31.2967 144.74 30.8324C147.18 30.4029 149.408 31.1652 151.422 33.1193C153.436 35.0734 155.063 37.9059 156.303 41.6168C157.647 45.7415 158.499 50.01 158.842 54.3339C159.4 60.4633 159.962 66.5945 160.527 72.7277C161.562 84.0538 162.483 93.1162 163.293 99.915C159.121 100.136 154.957 100.381 150.8 100.652Z" fill="#FAD8B3" stroke="#E3875E" stroke-width="3" stroke-linecap="round" stroke-linejoin="round"/>
<path d="M190.772 26.4617C194.711 26.1792 198.655 25.947 202.602 25.7651C202.803 40.3184 203.294 61.0029 204.072 87.8187C204.374 98.3767 203.735 107.048 202.23 113.804C200.725 120.561 198.668 125.465 196.03 128.518C193.392 131.571 190.412 133.092 187.03 133.098C183.624 133.066 180.346 131.802 177.803 129.54C174.824 126.967 172.485 123.738 170.97 120.108C171.237 113.53 171.531 106.917 171.853 100.269C174.061 102.852 176.071 104.709 177.913 105.824C179.59 106.892 181.543 107.447 183.532 107.42C189.738 107.257 192.561 100.861 191.992 88.1612C191.905 86.3096 191.864 84.992 191.864 84.1968C191.864 83.6687 191.812 82.9605 191.794 82.0783C191.777 81.196 191.707 80.0526 191.603 78.6422C190.226 91.2432 186.553 97.5873 180.435 97.7963C177.948 97.895 175.624 96.4207 173.433 93.4082C171.243 90.3958 169.366 86.2922 167.838 81.0858C166.215 75.4363 165.17 69.6373 164.717 63.7774C164.154 57.7403 164.228 51.6607 164.938 45.639C165.655 40.0514 166.949 35.5299 168.82 32.0744C170.696 28.6325 172.98 26.7403 175.647 26.4617C182.585 25.7245 187.396 30.6059 189.918 40.9724C190.193 36.1432 190.477 31.3063 190.772 26.4617ZM187.727 75.0493C188.637 74.0781 189.391 72.5438 189.987 70.4465C190.625 67.9121 190.856 65.2929 190.673 62.6862C190.417 57.2302 189.685 53.3587 188.459 51.0776C187.233 48.7965 185.519 47.7692 183.323 47.9317C181.411 48.0768 179.976 49.6033 179.046 52.4822C178.116 55.3612 177.797 59.0179 178.082 63.464C178.341 67.4689 179.139 70.6767 180.476 73.0875C181.8 75.502 183.317 76.6687 185.043 76.57C185.922 76.5275 186.817 76.0205 187.727 75.0493Z" fill="#FAD8B3" stroke="#E3875E" stroke-width="3" stroke-linecap="round" stroke-linejoin="round"/>
<path d="M232.927 65.861C224.56 65.7527 216.192 65.7972 207.825 65.9945C207.628 57.3268 207.434 48.659 207.244 39.9913C215.913 39.7127 224.587 39.6508 233.264 39.8056L232.927 65.861Z" fill="#FAD8B3" stroke="#E3875E" stroke-width="3" stroke-linecap="round" stroke-linejoin="round"/>
<path d="M264.339 50.6947C260.713 49.9208 257.391 49.3095 254.374 48.8606L253.729 62.8953C253.525 67.6665 253.827 71.416 254.612 74.144C255.396 76.8721 256.936 78.2825 259.22 78.387C260.089 78.4277 260.957 78.2894 261.77 77.9807C261.445 81.2195 261.191 84.5086 261.009 87.848C260.924 89.4267 260.765 93.0234 260.533 98.6381C259.19 99.1989 257.786 99.6002 256.349 99.8338C254.906 99.9925 253.453 100.043 252.003 99.9847C247.674 99.886 244.699 97.3322 243.02 92.2766C241.341 87.2211 240.579 80.2095 240.794 71.2361C240.996 63.7254 241.19 56.2146 241.375 48.7039C239.493 48.8258 237.54 49.0405 235.501 49.354C235.629 41.4717 235.755 33.5915 235.879 25.7131C238.017 25.7712 239.853 24.3607 241.41 21.4876C243.075 18.2466 244.076 14.7067 244.356 11.0747C250.054 11.3533 255.745 11.7403 261.428 12.2356C258.991 18.2024 256.431 22.9599 253.746 26.5083C257.709 26.7637 261.666 27.0713 265.617 27.4312C265.179 35.1818 264.753 42.9363 264.339 50.6947Z" fill="#FAD8B3" stroke="#E3875E" stroke-width="3" stroke-linecap="round" stroke-linejoin="round"/>
<path d="M269.487 90.2566C266.93 83.2915 265.914 74.1671 266.582 62.9765C267.232 52.0528 269.353 43.2883 273.066 36.8572C276.779 30.4261 282.195 27.6284 289.173 28.6383C291.396 28.9233 293.538 29.6525 295.473 30.7823C297.408 31.9121 299.095 33.4195 300.434 35.2146C303.235 38.879 305.059 43.4605 305.907 48.9591C306.758 54.9247 306.79 60.9784 306 66.9524C304.722 77.5975 302.067 85.9382 298.145 92.1836C294.222 98.429 289.132 101.441 282.747 101.128C276.361 100.815 272.061 97.2391 269.487 90.2566ZM290.835 75.891C292.319 73.3835 293.287 69.9416 293.74 65.5652C294.153 61.4325 293.874 57.9616 292.874 55.1175C291.875 52.2734 290.074 50.712 287.5 50.4044C284.926 50.0968 282.921 51.2228 281.521 53.7651C280.12 56.3073 279.254 59.7841 278.906 64.0735C278.551 68.5602 278.854 72.1995 279.789 74.9391C280.725 77.6787 282.421 79.1588 284.897 79.3619C287.372 79.5651 289.365 78.3984 290.835 75.891Z" fill="#FAD8B3" stroke="#E3875E" stroke-width="3" stroke-linecap="round" stroke-linejoin="round"/>
<path d="M337.325 86.1702C341.562 71.5434 345.893 57.1507 350.317 42.9921C354.256 44.1259 358.18 45.3119 362.089 46.5501C355.829 65.4605 349.73 84.8371 343.792 104.68C338.907 104.158 334.013 103.666 329.109 103.206C329.597 93.2688 330.034 83.2313 330.422 73.0931C327.47 82.7979 324.565 92.611 321.706 102.532C316.98 102.126 312.248 101.739 307.511 101.372C308.332 78.9554 308.958 56.251 309.388 33.2583C313.408 34.0322 317.422 34.8467 321.427 35.7019C320.981 51.8378 320.426 67.8015 319.759 83.593C323.126 68.1614 326.552 52.8574 330.038 37.6812C333.985 38.6176 337.919 39.6082 341.839 40.653C340.406 55.9647 338.901 71.1371 337.325 86.1702Z" fill="#FAD8B3" stroke="#E3875E" stroke-width="3" stroke-linecap="round" stroke-linejoin="round"/>
<path d="M373.361 108.273C376.073 98.8046 378.475 90.0788 380.566 82.096C381.31 79.2635 381.496 76.8721 381.147 74.9683C380.799 73.0645 379.985 71.8805 378.713 71.4858C377.44 71.0911 376.15 71.7818 374.802 73.5057C373.454 75.2295 372.281 77.8124 371.316 81.2137C370.011 86.3099 369.098 89.9376 368.579 92.0968C367.475 96.6783 366.338 101.709 365.169 107.188C360.822 106.631 356.468 106.101 352.106 105.598C354.57 95.382 356.776 85.7353 358.725 76.6574C360.665 67.5621 362.589 57.7993 364.483 47.2993C367.024 48.3557 368.976 49.1161 370.34 49.5804C371.787 50.068 373.78 50.6368 376.313 51.3217C375.697 56.5107 375.07 61.6669 374.431 66.7901C376.6 61.6591 378.939 58.163 381.45 56.3018C383.977 54.4328 386.505 54.0323 389.003 55.019C391.311 55.9391 393.198 57.6772 394.302 59.9004C395.568 62.4014 396.223 65.166 396.214 67.9684C396.238 71.2351 395.762 74.4863 394.802 77.6093C393.528 81.9548 392.251 86.306 390.973 90.6631C388.614 98.7079 386.817 105.16 385.581 110.02C381.517 109.421 377.444 108.838 373.361 108.273Z" fill="#FAD8B3" stroke="#E3875E" stroke-width="3" stroke-linecap="round" stroke-linejoin="round"/>
<path d="M424.75 49.8126C423.49 53.417 420.985 60.2603 417.237 70.4004C416.598 71.9791 416.151 73.1516 415.889 73.8829C412.502 81.1557 409.748 87.6971 407.604 93.3563C404.222 92.3541 400.827 91.3867 397.418 90.4542C399.161 84.2784 400.904 76.965 402.688 68.3689C403.075 67.0648 403.451 65.7627 403.815 64.4626C406.366 55.3034 408.562 47.6592 410.416 41.5879C415.25 44.2192 420.028 46.9607 424.75 49.8126ZM401.752 114.24C397.596 113.609 393.428 113 389.248 112.412C390.852 107.176 392.457 101.943 394.065 96.7112C398.326 97.7172 402.556 98.7601 406.755 99.8397L401.752 114.24Z" fill="#FAD8B3" stroke="#E3875E" stroke-width="3" stroke-linecap="round" stroke-linejoin="round"/>
<path d="M28.2744 56.0693C29.0338 58.8214 29.9317 61.5335 30.9647 64.1953C31.0418 64.4484 31.2131 64.6623 31.4433 64.7929C31.6736 64.9236 31.9453 64.9611 32.2023 64.8976C32.4582 64.8244 32.6751 64.654 32.8065 64.4228C32.938 64.1917 32.9735 63.9183 32.9054 63.6613C31.8699 61.0005 30.9719 58.2882 30.2151 55.5353C30.1443 55.2782 29.974 55.0598 29.7419 54.9281C29.5098 54.7964 29.2349 54.7622 28.9775 54.833C28.7201 54.9038 28.5015 55.0738 28.3696 55.3057C28.2378 55.5375 28.2035 55.8122 28.2744 56.0693Z" fill="#F3F1E6"/>
<path d="M60.3021 108.331L62.9285 107.751C63.1851 107.679 63.403 107.508 63.5347 107.277C63.6664 107.045 63.7012 106.771 63.6315 106.514C63.5545 106.261 63.3832 106.047 63.1529 105.917C62.9226 105.786 62.651 105.748 62.3939 105.812L59.7675 106.421C59.6401 106.456 59.5208 106.516 59.4165 106.597C59.3122 106.678 59.225 106.779 59.1597 106.894C59.0944 107.009 59.0524 107.135 59.036 107.266C59.0197 107.397 59.0294 107.53 59.0645 107.658C59.0996 107.785 59.1594 107.904 59.2406 108.008C59.3218 108.112 59.4227 108.2 59.5377 108.265C59.6526 108.33 59.7793 108.372 59.9104 108.388C60.0416 108.405 60.1747 108.395 60.3021 108.36V108.331Z" fill="#F3F1E6"/>
<path d="M85.1703 62.9882L86.3324 60.9335C86.4651 60.6991 86.5025 60.4228 86.437 60.1615C86.3605 59.9166 86.1946 59.7094 85.9722 59.5811C85.8568 59.5132 85.7291 59.4689 85.5964 59.451C85.4636 59.433 85.3287 59.4418 85.1994 59.4766C84.9548 59.5541 84.7477 59.7196 84.6183 59.941L83.4562 61.9899C83.3238 62.2265 83.2864 62.5045 83.3516 62.7677C83.4276 63.0129 83.5937 63.2202 83.8165 63.3481C83.9303 63.4157 84.0565 63.4601 84.1876 63.4786C84.3188 63.4971 84.4523 63.4894 84.5804 63.4559C84.7085 63.4225 84.8287 63.3639 84.934 63.2836C85.0393 63.2033 85.1275 63.1029 85.1936 62.9882H85.1703Z" fill="#F3F1E6"/>
<path d="M67.6232 106.282C71.05 106.383 74.4752 106.03 77.8091 105.232C79.0699 104.93 78.5354 102.991 77.2745 103.293C74.115 104.045 70.8696 104.375 67.6232 104.274C66.3274 104.233 66.3274 106.242 67.6232 106.282Z" fill="#F3F1E6"/>
<path d="M87.6166 55.756C90.1209 49.9517 96.8263 46.3704 103.061 47.7054C104.322 47.9782 104.862 46.0396 103.596 45.7668C96.5532 44.2577 88.7496 48.0885 85.8792 54.746C85.7544 54.9784 85.7221 55.2493 85.7889 55.5045C85.8558 55.7596 86.0167 55.9801 86.2395 56.1216C86.4712 56.2531 86.7453 56.2884 87.0029 56.22C87.2604 56.1517 87.4808 55.985 87.6166 55.756Z" fill="#F3F1E6"/>
<path d="M96.3388 102.109C97.1843 102.339 98.0765 102.332 98.9185 102.091C99.7606 101.849 100.52 101.382 101.115 100.739C101.214 100.647 101.293 100.536 101.348 100.413C101.402 100.29 101.432 100.157 101.434 100.022C101.436 99.8867 101.411 99.7528 101.36 99.6278C101.309 99.5028 101.234 99.3893 101.138 99.2941C101.042 99.1989 100.929 99.124 100.803 99.0737C100.678 99.0235 100.544 98.999 100.409 99.0017C100.274 99.0044 100.141 99.0342 100.017 99.0895C99.8941 99.1447 99.7833 99.2241 99.6915 99.3231C99.5865 99.4406 99.4739 99.5511 99.3545 99.6539C99.3151 99.6817 99.2782 99.7128 99.2441 99.7468C99.2441 99.7468 99.4242 99.6133 99.3138 99.6888L99.1046 99.8281C98.9683 99.9126 98.8266 99.9882 98.6805 100.054C98.5584 100.118 98.7386 100.054 98.7676 100.02L98.634 100.072L98.3958 100.153C98.2389 100.2 98.082 100.223 97.9251 100.258C97.7682 100.292 98.1575 100.258 98.0297 100.258H97.8844H97.6636C97.4959 100.281 97.3258 100.281 97.1581 100.258C97.1581 100.258 97.3963 100.298 97.2569 100.258H97.1465L96.8734 100.188C96.616 100.117 96.3411 100.151 96.109 100.283C95.8769 100.415 95.7066 100.633 95.6358 100.89C95.5649 101.147 95.5991 101.422 95.731 101.654C95.8628 101.886 96.0815 102.056 96.3388 102.127V102.109Z" fill="#F3F1E6"/>
<path d="M123.107 41.5295L123.543 47.0668C123.549 47.3318 123.657 47.5845 123.844 47.7724C124.031 47.9604 124.283 48.0694 124.548 48.0768C124.815 48.0737 125.07 47.9662 125.258 47.7772C125.446 47.5883 125.552 47.3332 125.554 47.0668L125.118 41.5295C125.113 41.2646 125.006 41.0118 124.818 40.8245C124.631 40.6371 124.378 40.5299 124.113 40.5254C123.847 40.5269 123.592 40.6332 123.404 40.8212C123.215 41.0092 123.109 41.2637 123.107 41.5295Z" fill="#F3F1E6"/>
<path d="M143.974 38.1053C144.115 37.7272 144.348 37.3903 144.653 37.1248C144.957 36.8593 145.323 36.6736 145.717 36.5846C146.176 36.477 146.652 36.4691 147.114 36.5612C147.576 36.6533 148.013 36.8434 148.395 37.1185C150.418 38.4477 150.975 41.0539 151.301 43.2827C151.373 43.5391 151.543 43.7568 151.775 43.8883C152.007 44.0198 152.281 44.0546 152.538 43.985C152.793 43.9093 153.008 43.7384 153.139 43.508C153.27 43.2776 153.306 43.0056 153.241 42.7487C152.817 39.8059 151.789 36.5729 148.942 35.1103C148.326 34.7715 147.647 34.5636 146.947 34.4997C146.247 34.4357 145.541 34.5171 144.874 34.7388C144.212 34.9551 143.61 35.3244 143.118 35.8165C142.625 36.3086 142.255 36.9098 142.039 37.5713C141.661 38.8134 143.602 39.3126 143.979 38.1053H143.974Z" fill="#F3F1E6"/>
<path d="M153.194 48.7965L153.485 49.9574C153.515 50.0848 153.577 50.2025 153.665 50.2998C153.741 50.406 153.839 50.4947 153.952 50.5597C154.066 50.6248 154.192 50.6649 154.322 50.6771C154.453 50.7118 154.591 50.7118 154.723 50.6771C154.968 50.6007 155.175 50.4349 155.304 50.2128C155.433 49.9772 155.47 49.7022 155.408 49.4408L155.118 48.2799C155.087 48.1525 155.025 48.0348 154.938 47.9375C154.866 47.8293 154.768 47.7414 154.653 47.6821C154.542 47.6082 154.414 47.5661 154.281 47.5602C154.15 47.5255 154.011 47.5255 153.88 47.5602C153.753 47.5951 153.633 47.6548 153.529 47.7359C153.424 47.8169 153.337 47.9178 153.272 48.0326C153.207 48.1475 153.165 48.2741 153.148 48.4051C153.132 48.5362 153.142 48.6692 153.177 48.7965H153.194Z" fill="#F3F1E6"/>
<path d="M179.104 30.629H176.78C176.513 30.634 176.257 30.7397 176.065 30.9251C175.879 31.1139 175.775 31.3682 175.774 31.6332C175.779 31.8987 175.886 32.1521 176.073 32.3404C176.261 32.5287 176.514 32.6372 176.78 32.6431H179.104C179.369 32.6379 179.623 32.532 179.813 32.3471C179.963 32.2085 180.067 32.0274 180.112 31.8281C180.156 31.6287 180.139 31.4205 180.062 31.2313C179.985 31.0421 179.852 30.8809 179.681 30.7691C179.509 30.6574 179.308 30.6004 179.104 30.6058V30.629Z" fill="#F3F1E6"/>
<path d="M172.416 33.4386C169.332 37.0154 167.496 41.4974 167.186 46.2081C167.099 47.5024 169.11 47.4966 169.197 46.2081C169.487 42.0287 171.117 38.0539 173.845 34.8723C174.688 33.8972 173.264 32.4693 172.422 33.4502L172.416 33.4386Z" fill="#F3F1E6"/>
<path d="M209.76 43.8862C209.556 44.943 209.628 46.0346 209.969 47.0553C210.052 47.297 210.216 47.5022 210.434 47.6358C210.67 47.7663 210.946 47.8016 211.207 47.7344C211.452 47.657 211.659 47.4915 211.788 47.2701C211.857 47.1551 211.901 47.0272 211.918 46.8944C211.935 46.7616 211.924 46.6267 211.887 46.4981C211.772 46.1603 211.688 45.8125 211.637 45.4592L211.672 45.7262C211.617 45.2751 211.617 44.819 211.672 44.368L211.631 44.635C211.631 44.5595 211.66 44.4782 211.672 44.397C211.733 44.1362 211.698 43.862 211.573 43.625C211.444 43.4032 211.237 43.2376 210.992 43.1607C210.863 43.1255 210.728 43.1166 210.595 43.1345C210.462 43.1525 210.335 43.1969 210.219 43.2652C209.994 43.3902 209.827 43.5987 209.754 43.8456L209.76 43.8862Z" fill="#F3F1E6"/>
<path d="M210.993 45.1513H217.14C217.407 45.1513 217.662 45.0456 217.851 44.8572C218.039 44.6689 218.145 44.4135 218.145 44.1472C218.145 43.8809 218.039 43.6255 217.851 43.4372C217.662 43.2489 217.407 43.1431 217.14 43.1431H210.993C210.726 43.1431 210.47 43.2489 210.282 43.4372C210.093 43.6255 209.987 43.8809 209.987 44.1472C209.987 44.4135 210.093 44.6689 210.282 44.8572C210.47 45.0456 210.726 45.1513 210.993 45.1513Z" fill="#F3F1E6"/>
<path d="M220.649 45.1518H221.23C221.365 45.1584 221.5 45.1283 221.619 45.0647C221.743 45.0289 221.854 44.9584 221.939 44.8615C222.035 44.7723 222.106 44.6606 222.148 44.5365C222.212 44.4171 222.242 44.2827 222.235 44.1476L222.2 43.8806C222.155 43.7125 222.065 43.5599 221.939 43.4395L221.735 43.2828C221.583 43.1912 221.408 43.143 221.23 43.1435H220.649C220.514 43.1368 220.379 43.1669 220.26 43.2305C220.136 43.2707 220.026 43.3428 219.94 43.4395C219.843 43.5277 219.771 43.6398 219.731 43.7645C219.667 43.8817 219.637 44.0143 219.644 44.1476L219.678 44.4146C219.723 44.5845 219.814 44.739 219.94 44.8615L220.143 45.0183C220.297 45.1055 220.472 45.1515 220.649 45.1518Z" fill="#F3F1E6"/>
<path d="M175.525 121.814C177.59 125.32 180.798 128.01 184.612 129.435C184.87 129.503 185.143 129.468 185.375 129.337C185.606 129.205 185.777 128.989 185.85 128.733C185.913 128.476 185.876 128.205 185.745 127.975C185.614 127.745 185.4 127.574 185.147 127.497C181.835 126.232 179.054 123.877 177.262 120.822C177.196 120.707 177.107 120.607 177.002 120.527C176.897 120.447 176.777 120.388 176.649 120.354C176.521 120.32 176.388 120.312 176.257 120.329C176.126 120.347 175.999 120.39 175.885 120.456C175.77 120.522 175.67 120.611 175.59 120.716C175.509 120.821 175.451 120.94 175.417 121.068C175.383 121.196 175.374 121.329 175.392 121.46C175.409 121.591 175.452 121.717 175.519 121.832L175.525 121.814Z" fill="#F3F1E6"/>
<path d="M246.838 15.0911C246.688 16.1668 246.411 17.2209 246.013 18.2312L245.931 18.4228C245.966 18.3415 245.931 18.3589 245.931 18.475L245.757 18.8523C245.646 19.0729 245.536 19.2934 245.42 19.5082C245.146 19.9967 244.846 20.4695 244.519 20.9244C244.452 21.0383 244.408 21.1643 244.39 21.2952C244.372 21.426 244.38 21.5591 244.414 21.6869C244.447 21.8147 244.505 21.9346 244.585 22.0398C244.665 22.1451 244.765 22.2335 244.879 22.3C245.112 22.4262 245.383 22.4591 245.639 22.3923C245.895 22.3254 246.116 22.1638 246.257 21.9402C247.601 20.07 248.474 17.9038 248.802 15.6251C248.865 15.3683 248.828 15.0969 248.697 14.8669C248.566 14.6369 248.352 14.4658 248.099 14.3888C247.97 14.3509 247.834 14.339 247.701 14.3539C247.567 14.3688 247.438 14.4101 247.32 14.4755C247.203 14.5409 247.1 14.629 247.017 14.7347C246.934 14.8405 246.873 14.9616 246.838 15.0911Z" fill="#F3F1E6"/>
<path d="M239.789 35.9867C240.043 35.9675 240.281 35.853 240.454 35.6663C240.627 35.4795 240.723 35.2343 240.723 34.9797C240.723 34.7251 240.627 34.4799 240.454 34.2931C240.281 34.1064 240.043 33.9919 239.789 33.9727C239.535 33.9919 239.297 34.1064 239.124 34.2931C238.951 34.4799 238.854 34.7251 238.854 34.9797C238.854 35.2343 238.951 35.4795 239.124 35.6663C239.297 35.853 239.535 35.9675 239.789 35.9867Z" fill="#F3F1E6"/>
<path d="M238.812 39.7361V45.5694C238.813 45.8357 238.918 46.0911 239.107 46.2794C239.295 46.4677 239.551 46.5735 239.818 46.5735C240.084 46.5735 240.34 46.4677 240.529 46.2794C240.717 46.0911 240.823 45.8357 240.823 45.5694V39.7361C240.823 39.4698 240.717 39.2143 240.529 39.026C240.34 38.8377 240.084 38.7319 239.818 38.7319C239.551 38.7319 239.295 38.8377 239.107 39.026C238.918 39.2143 238.813 39.4698 238.812 39.7361Z" fill="#F3F1E6"/>
<path d="M244.432 88.5329C244.432 90.9127 244.472 93.4956 245.954 95.4981C246.631 96.4403 247.589 97.1451 248.691 97.5122C249.867 97.8483 251.107 97.8942 252.305 97.6457C252.562 97.5738 252.779 97.4036 252.911 97.172C253.043 96.9405 253.078 96.6664 253.008 96.4093C252.932 96.1554 252.761 95.9406 252.53 95.8098C252.3 95.6789 252.027 95.6421 251.77 95.707C250.924 95.8693 250.05 95.8235 249.225 95.5735C248.5 95.3129 247.885 94.8134 247.482 94.1573C246.413 92.5089 246.436 90.4483 246.454 88.5213C246.434 88.2674 246.32 88.0302 246.133 87.8571C245.946 87.6841 245.7 87.5879 245.446 87.5879C245.191 87.5879 244.945 87.6841 244.758 87.8571C244.571 88.0302 244.457 88.2674 244.437 88.5213L244.432 88.5329Z" fill="#F3F1E6"/>
<path d="M255.78 97.9936H256.314C256.448 98.0006 256.58 97.9705 256.698 97.9065C256.823 97.8665 256.935 97.7944 257.023 97.6975C257.12 97.6115 257.192 97.5013 257.232 97.3783C257.296 97.2589 257.326 97.1245 257.319 96.9894L257.284 96.7224C257.237 96.5553 257.147 96.4033 257.023 96.2813L256.82 96.1188C256.665 96.0315 256.491 95.9855 256.314 95.9853H255.78C255.644 95.9786 255.51 96.0087 255.39 96.0723C255.27 96.1193 255.162 96.1905 255.071 96.2814C254.98 96.3723 254.909 96.4809 254.861 96.6005C254.798 96.7199 254.768 96.8543 254.774 96.9894L254.809 97.2564C254.854 97.4246 254.945 97.5772 255.071 97.6975L255.274 97.8543C255.427 97.9459 255.601 97.9941 255.78 97.9936Z" fill="#F3F1E6"/>
<path d="M280.8 35.5629C280.934 35.4874 281.073 35.412 281.213 35.3481L281.451 35.232L281.573 35.1798L281.457 35.2262C281.533 35.1824 281.615 35.1511 281.701 35.1334L281.893 35.0637C282.05 35.0057 282.206 34.9592 282.363 34.9128C282.661 34.8267 282.964 34.7569 283.27 34.7039C283.349 34.7049 283.427 34.6932 283.502 34.669C283.345 34.669 283.322 34.669 283.432 34.669H283.531L284.031 34.6284C284.298 34.6284 284.553 34.5226 284.742 34.3343C284.93 34.146 285.036 33.8906 285.036 33.6243C285.036 33.3579 284.93 33.1025 284.742 32.9142C284.553 32.7259 284.298 32.6201 284.031 32.6201C282.541 32.6921 281.088 33.1052 279.783 33.8274C279.555 33.964 279.39 34.1846 279.322 34.4417C279.255 34.6989 279.291 34.9722 279.423 35.203C279.562 35.4288 279.783 35.5923 280.039 35.6594C280.296 35.7264 280.569 35.6919 280.8 35.5629Z" fill="#F3F1E6"/>
<path d="M289.085 34.8898C292.158 35.662 294.902 37.3998 296.911 39.8472C298.921 42.2945 300.09 45.322 300.247 48.4834C300.282 49.772 302.298 49.7778 302.258 48.4834C302.093 44.8842 300.776 41.4329 298.501 38.637C296.226 35.8411 293.113 33.8481 289.62 32.9511C288.365 32.6551 287.824 34.5879 289.085 34.8898Z" fill="#F3F1E6"/>
<path d="M275.815 95.6141C276.575 96.3745 277.482 96.9725 278.481 97.3716C279.48 97.7708 280.549 97.9627 281.625 97.9358C281.879 97.9165 282.117 97.8021 282.29 97.6153C282.463 97.4286 282.559 97.1834 282.559 96.9288C282.559 96.6742 282.463 96.4289 282.29 96.2422C282.117 96.0555 281.879 95.941 281.625 95.9217C281.406 95.9334 281.187 95.9334 280.968 95.9217L280.602 95.8869C280.451 95.8869 280.771 95.8869 280.602 95.8869L280.44 95.8579C279.995 95.775 279.559 95.6506 279.138 95.4864C279.039 95.4516 279.074 95.4864 279.138 95.4864L278.987 95.4168L278.691 95.2717C278.499 95.173 278.313 95.0627 278.11 94.9466L277.842 94.7609C277.842 94.7609 277.639 94.6042 277.744 94.6912L277.685 94.6448C277.511 94.4939 277.337 94.3372 277.174 94.1746C277.082 94.0757 276.972 93.9962 276.848 93.941C276.725 93.8858 276.592 93.8559 276.457 93.8532C276.322 93.8505 276.188 93.875 276.062 93.9253C275.937 93.9755 275.823 94.0505 275.728 94.1457C275.632 94.2409 275.556 94.3544 275.505 94.4794C275.455 94.6043 275.43 94.7383 275.432 94.8732C275.434 95.0081 275.463 95.1411 275.518 95.2645C275.573 95.3878 275.652 95.4988 275.751 95.5909L275.815 95.6141Z" fill="#F3F1E6"/>
<path d="M311.537 37.6174V43.7119C311.537 43.9782 311.643 44.2336 311.832 44.422C312.02 44.6103 312.276 44.7161 312.542 44.7161C312.809 44.7161 313.065 44.6103 313.253 44.422C313.442 44.2336 313.548 43.9782 313.548 43.7119V37.6174C313.548 37.3511 313.442 37.0957 313.253 36.9074C313.065 36.7191 312.809 36.6133 312.542 36.6133C312.276 36.6133 312.02 36.7191 311.832 36.9074C311.643 37.0957 311.537 37.3511 311.537 37.6174Z" fill="#F3F1E6"/>
<path d="M312.793 49.3363C313.047 49.3171 313.285 49.2026 313.458 49.0159C313.631 48.8291 313.727 48.5839 313.727 48.3293C313.727 48.0747 313.631 47.8295 313.458 47.6428C313.285 47.456 313.047 47.3416 312.793 47.3223C312.539 47.3416 312.301 47.456 312.128 47.6428C311.955 47.8295 311.858 48.0747 311.858 48.3293C311.858 48.5839 311.955 48.8291 312.128 49.0159C312.301 49.2026 312.539 49.3171 312.793 49.3363Z" fill="#F3F1E6"/>
<path d="M312.711 99.375C314.727 99.2821 316.747 99.3112 318.76 99.462C319.026 99.4605 319.281 99.3542 319.469 99.1662C319.657 98.9783 319.764 98.7237 319.765 98.4579C319.759 98.1929 319.652 97.9403 319.465 97.7523C319.278 97.5643 319.025 97.4553 318.76 97.448C316.747 97.3019 314.727 97.2748 312.711 97.3667C312.445 97.3667 312.189 97.4725 312 97.6608C311.812 97.8491 311.706 98.1045 311.706 98.3708C311.706 98.6371 311.812 98.8925 312 99.0809C312.189 99.2692 312.445 99.375 312.711 99.375Z" fill="#F3F1E6"/>
<path d="M331.99 90.4073V91.4811C331.984 91.6163 332.014 91.7506 332.077 91.87C332.119 91.9941 332.191 92.1059 332.287 92.1951C332.377 92.2885 332.488 92.3582 332.612 92.3982C332.731 92.4624 332.866 92.4925 333.001 92.4853L333.268 92.4505C333.435 92.4037 333.587 92.3159 333.71 92.1951C333.896 92.003 334.001 91.748 334.006 91.4811V90.4073C333.994 90.1439 333.889 89.8933 333.71 89.6992C333.622 89.6023 333.51 89.5303 333.385 89.4903C333.267 89.4268 333.135 89.3967 333.001 89.4032L332.728 89.438C332.56 89.4844 332.408 89.5746 332.287 89.6992C332.101 89.8892 331.995 90.1423 331.99 90.4073Z" fill="#F3F1E6"/>
<path d="M332.055 94.4939L331.578 100.501C331.58 100.767 331.686 101.022 331.874 101.21C332.062 101.398 332.317 101.504 332.583 101.505C332.848 101.5 333.1 101.392 333.288 101.205C333.475 101.018 333.583 100.766 333.589 100.501L334.071 94.4939C334.069 94.228 333.963 93.9735 333.775 93.7855C333.587 93.5975 333.332 93.4913 333.066 93.4897C332.8 93.4956 332.547 93.6031 332.359 93.79C332.171 93.9769 332.062 94.2289 332.055 94.4939Z" fill="#F3F1E6"/>
<path d="M357.267 48.7038C356.813 50.6733 356.269 52.6081 355.634 54.508C355.564 54.7651 355.599 55.0392 355.731 55.2707C355.862 55.5023 356.08 55.6725 356.337 55.7444C356.594 55.8093 356.866 55.7725 357.097 55.6416C357.328 55.5107 357.499 55.2959 357.574 55.042C358.21 53.1305 358.754 51.1957 359.207 49.2377C359.278 48.9807 359.244 48.706 359.112 48.4741C358.98 48.2423 358.762 48.0722 358.504 48.0014C358.247 47.9306 357.972 47.9648 357.74 48.0965C357.508 48.2283 357.337 48.4467 357.267 48.7038Z" fill="#F3F1E6"/>
<path d="M386.098 59.6449H386.179L385.912 59.6043C386.207 59.6488 386.496 59.7287 386.772 59.8423L386.528 59.7436C386.804 59.8593 387.063 60.0095 387.301 60.1905L387.097 60.0338C387.331 60.2174 387.541 60.4278 387.725 60.6607L387.568 60.4575C387.661 60.5822 387.746 60.712 387.824 60.8464C387.959 61.0773 388.18 61.2453 388.439 61.3133C388.697 61.3813 388.973 61.3439 389.204 61.2092C389.435 61.0745 389.603 60.8536 389.671 60.5951C389.739 60.3365 389.702 60.0616 389.567 59.8307C389.208 59.2173 388.711 58.6965 388.114 58.3099C387.509 57.9242 386.819 57.6893 386.104 57.625C385.972 57.6238 385.842 57.6489 385.72 57.6987C385.598 57.7485 385.488 57.8222 385.395 57.9153C385.207 58.106 385.101 58.3619 385.099 58.6292C385.1 58.8951 385.206 59.1498 385.395 59.3373L385.598 59.494C385.751 59.5856 385.926 59.6338 386.104 59.6333L386.098 59.6449Z" fill="#F3F1E6"/>
<path d="M390.236 63.4178C391.932 67.3311 392.003 71.7572 390.433 75.7229C390.365 75.9799 390.401 76.2533 390.532 76.4844C390.663 76.7156 390.88 76.886 391.136 76.9592C391.393 77.0227 391.665 76.9852 391.895 76.8545C392.125 76.7239 392.297 76.51 392.374 76.2569C393.224 74.0349 393.626 71.6671 393.557 69.2895C393.488 66.9119 392.95 64.5712 391.973 62.402C391.836 62.174 391.615 62.0086 391.358 61.9413C391.1 61.874 390.827 61.9102 390.596 62.0422C390.372 62.1828 390.21 62.4033 390.143 62.6588C390.076 62.9143 390.109 63.1857 390.236 63.4178Z" fill="#F3F1E6"/>
<path d="M359.893 83.7093C358.492 87.348 357.292 91.0606 356.296 94.8303C355.971 96.084 357.912 96.618 358.237 95.3643C359.232 91.5946 360.433 87.882 361.834 84.2432C361.903 83.9862 361.869 83.7121 361.737 83.4806C361.605 83.249 361.387 83.0788 361.131 83.0069C360.874 82.942 360.601 82.9788 360.371 83.1097C360.14 83.2405 359.969 83.4554 359.893 83.7093Z" fill="#F3F1E6"/>
<path d="M355.738 98.5683C355.749 98.7989 355.739 99.03 355.709 99.259L355.744 98.9862C355.7 99.3074 355.614 99.6216 355.488 99.9206L355.593 99.6769C355.546 99.7871 355.494 99.8916 355.442 99.9903C355.308 100.221 355.271 100.495 355.339 100.752C355.406 101.01 355.573 101.23 355.802 101.366C356.033 101.498 356.307 101.534 356.564 101.467C356.822 101.4 357.042 101.234 357.179 101.006C357.585 100.259 357.786 99.4179 357.76 98.5683C357.753 98.302 357.647 98.0479 357.464 97.8543C357.274 97.6682 357.018 97.564 356.752 97.564C356.486 97.564 356.23 97.6682 356.04 97.8543C355.853 98.045 355.747 98.3009 355.744 98.5683H355.738Z" fill="#F3F1E6"/>
<path d="M415.395 49.789C416.013 50.0572 416.614 50.3615 417.196 50.7003C417.492 50.8744 417.777 51.0544 418.068 51.2459L418.416 51.4897C418.236 51.3562 418.457 51.5303 418.474 51.5477L418.631 51.687C418.734 51.7819 418.831 51.8827 418.922 51.9889C418.986 52.0585 419.021 52.1282 418.922 51.9889C418.968 52.0585 419.015 52.1224 419.055 52.1978C419.096 52.2733 419.119 52.3197 419.154 52.3836C419.189 52.4474 419.096 52.192 419.154 52.3836C419.154 52.4532 419.195 52.5171 419.212 52.5867C419.23 52.6564 419.212 52.8015 419.212 52.6622C419.212 52.5229 419.212 52.697 419.212 52.7376C419.207 52.8071 419.207 52.877 419.212 52.9466C419.212 52.9117 419.259 52.7376 419.212 52.8885C419.212 52.9524 419.177 53.022 419.166 53.0859C419.125 53.26 419.241 52.9756 419.166 53.0859C419.135 53.1322 419.108 53.1807 419.084 53.231C418.991 53.4051 419.224 53.1091 419.084 53.231C419.038 53.2774 418.869 53.3993 419.084 53.231C418.853 53.3657 418.685 53.5866 418.617 53.8451C418.549 54.1036 418.586 54.3786 418.721 54.6095C418.856 54.8404 419.077 55.0084 419.336 55.0764C419.595 55.1444 419.87 55.107 420.101 54.9723C420.446 54.741 420.731 54.4317 420.933 54.0696C421.134 53.7075 421.248 53.3028 421.263 52.8885C421.271 52.0557 420.966 51.2502 420.409 50.6307C419.889 50.0541 419.276 49.5677 418.596 49.1912C417.897 48.7493 417.164 48.3612 416.406 48.0303C416.174 47.9028 415.902 47.869 415.645 47.936C415.389 48.0029 415.168 48.1655 415.029 48.3902C414.897 48.621 414.86 48.8943 414.928 49.1515C414.995 49.4087 415.161 49.6292 415.389 49.7658L415.395 49.789Z" fill="#F3F1E6"/>
<path d="M418.481 58.3506C418.747 58.3506 419.003 58.2448 419.192 58.0565C419.38 57.8681 419.486 57.6127 419.486 57.3464C419.486 57.0801 419.38 56.8247 419.192 56.6364C419.003 56.4481 418.747 56.3423 418.481 56.3423C418.214 56.3423 417.959 56.4481 417.77 56.6364C417.581 56.8247 417.476 57.0801 417.476 57.3464C417.476 57.6127 417.581 57.8681 417.77 58.0565C417.959 58.2448 418.214 58.3506 418.481 58.3506Z" fill="#F3F1E6"/>
<path d="M401.38 101.964C401.235 102.652 401.055 103.332 400.84 104.001C400.729 104.332 400.607 104.669 400.48 104.994C400.48 105.063 400.427 105.133 400.398 105.203C400.369 105.272 400.259 105.568 400.358 105.313C400.294 105.475 400.212 105.638 400.143 105.795C400.013 106.032 399.976 106.309 400.038 106.572C400.116 106.817 400.281 107.023 400.503 107.153C400.734 107.285 401.007 107.321 401.265 107.254C401.522 107.186 401.743 107.021 401.88 106.793C402.518 105.413 403.002 103.967 403.321 102.48C403.356 102.353 403.366 102.22 403.349 102.089C403.333 101.958 403.291 101.832 403.226 101.717C403.16 101.602 403.073 101.501 402.969 101.42C402.865 101.339 402.745 101.279 402.618 101.244C402.49 101.209 402.357 101.199 402.226 101.216C402.095 101.232 401.968 101.274 401.853 101.339C401.738 101.404 401.638 101.492 401.556 101.596C401.475 101.7 401.415 101.819 401.38 101.946V101.964Z" fill="#F3F1E6"/>
</svg>
