<svg width="157" height="112" viewBox="0 0 157 112" fill="none" xmlns="http://www.w3.org/2000/svg">
<g clip-path="url(#clip0_1905_16163)">
<path d="M63.4565 52.0933C60.4935 44.0874 53.7469 38.4204 46.0051 37.6168C40.5516 37.0075 32.2832 38.6432 28.429 45.4321C28.1108 45.9833 24.1784 53.1761 28.1887 59.9904C29.7756 62.5324 32.0926 64.5365 34.8367 65.7407C37.5808 66.9448 40.6245 67.2929 43.5696 66.7395C40.2514 69.2117 37.9073 72.7713 36.9468 76.7962C36.4221 79.0655 36.3663 81.4181 36.7828 83.7098C37.1992 86.0014 38.0792 88.1839 39.3687 90.1235C40.7992 92.0961 42.6291 93.7452 44.7393 94.9636C46.8495 96.1819 49.1926 96.9421 51.6162 97.1946C52.7803 97.3278 61.1921 98.159 66.789 91.5761C68.2846 89.7121 69.381 87.5603 70.0099 85.2547C70.6387 82.949 70.7867 80.5386 70.4446 78.1733L104.252 69.1146C106.185 72.6826 109.173 75.5666 112.807 77.3724C116.441 79.1783 120.544 79.8178 124.555 79.2036C125.247 79.0804 135.293 77.1649 138.928 67.5877C139.156 66.9677 142.406 57.887 136.437 50.1379C134.425 47.5546 131.751 45.5639 128.699 44.3768C125.647 43.1897 122.33 42.8504 119.101 43.395C120.202 42.2957 121.186 41.0849 122.036 39.7822C123.259 37.8741 124.177 35.7874 124.758 33.597C124.996 32.5912 126.782 25.1143 121.865 19.3607C116.661 13.27 108.429 14.306 107.214 14.4866C103.013 15.1474 99.1821 17.2743 96.3995 20.4902C91.6936 26.1096 91.2312 34.816 95.0733 42.5863L63.4565 52.0933Z" fill="#1A1A1A" stroke="#131313" stroke-width="1.5" stroke-linecap="round" stroke-linejoin="round"/>
<path d="M57.7202 50.0064C54.7572 42.0005 48.0106 36.3335 40.2688 35.5299C34.8153 34.9206 26.5469 36.5563 22.6926 43.3452C22.3744 43.8963 18.4421 51.0892 22.4524 57.9034C24.0393 60.4455 26.3562 62.4496 29.1004 63.6537C31.8445 64.8579 34.8881 65.206 37.8333 64.6525C34.5151 67.1248 32.171 70.6844 31.2105 74.7093C30.6858 76.9786 30.63 79.3312 31.0464 81.6228C31.4629 83.9145 32.3428 86.097 33.6324 88.0366C35.0628 90.0092 36.8928 91.6583 39.003 92.8766C41.1132 94.095 43.4563 94.8551 45.8798 95.1077C47.044 95.2409 55.4557 96.0721 61.0527 89.4892C62.5483 87.6251 63.6446 85.4734 64.2735 83.1677C64.9024 80.8621 65.0504 78.4517 64.7083 76.0864L98.5157 67.0277C100.449 70.5957 103.436 73.4797 107.07 75.2855C110.704 77.0913 114.808 77.7309 118.819 77.1167C119.51 76.9934 129.557 75.0779 133.192 65.5008C133.419 64.8808 136.67 55.8001 130.701 48.051C128.688 45.4677 126.014 43.477 122.962 42.2899C119.91 41.1028 116.594 40.7635 113.365 41.3081C114.466 40.2088 115.449 38.998 116.3 37.6953C117.522 35.7872 118.441 33.7005 119.022 31.5101C119.26 30.5043 121.045 23.0274 116.129 17.2738C110.925 11.1831 102.693 12.2191 101.478 12.3996C97.277 13.0605 93.4457 15.1874 90.6632 18.4032C85.9573 24.0227 85.4949 32.729 89.3369 40.4994L57.7202 50.0064Z" fill="#F1EEE3" stroke="#131313" stroke-width="1.5" stroke-linecap="round" stroke-linejoin="round"/>
<path d="M76.2612 68.9328C83.7339 67.1997 91.1937 65.4183 98.6405 63.5885C98.8376 63.5453 99.0095 63.4256 99.1183 63.2557C99.2271 63.0858 99.264 62.8796 99.2208 62.6825C99.1776 62.4854 99.0579 62.3135 98.8879 62.2047C98.718 62.0959 98.5118 62.059 98.3147 62.1022C90.8614 63.9337 83.4017 65.7151 75.9354 67.4465C74.9695 67.7053 75.3499 69.1252 76.3236 68.8954L76.2612 68.9328Z" fill="#131313"/>
<path d="M101.062 64.6272C102.152 66.8045 103.699 68.7208 105.598 70.2454C107.496 71.7699 109.701 72.8667 112.063 73.4609C112.993 73.6878 113.393 72.245 112.451 72.011C110.279 71.4646 108.252 70.4532 106.51 69.0469C104.767 67.6406 103.351 65.8727 102.359 63.8655C101.916 62.9488 100.642 63.7561 101.062 64.6272Z" fill="#131313"/>
<path d="M108.139 18.1726C109.406 18.4815 110.569 19.1233 111.506 20.0316C112.442 20.9399 113.12 22.0818 113.468 23.3394C113.519 23.5315 113.645 23.6954 113.817 23.7948C113.989 23.8943 114.194 23.9212 114.386 23.8697C114.578 23.8183 114.742 23.6926 114.842 23.5203C114.941 23.348 114.968 23.1433 114.917 22.9512C114.499 21.4401 113.687 20.0671 112.564 18.9727C111.441 17.8783 110.048 17.1019 108.527 16.7228C107.587 16.4984 107.199 17.9482 108.139 18.1726V18.1726Z" fill="#131313"/>
<path d="M23.6394 46.415C22.8047 47.8154 22.465 49.4557 22.6748 51.0724C22.8845 52.6891 23.6316 54.1884 24.796 55.3294C25.4912 55.992 26.5528 54.9311 25.8453 54.2614C24.9213 53.3477 24.3327 52.1488 24.175 50.8589C24.0173 49.569 24.2996 48.2636 24.9762 47.1542C25.4886 46.3232 24.1833 45.586 23.678 46.4046L23.6394 46.415Z" fill="#131313"/>
</g>
<defs>
<clipPath id="clip0_1905_16163">
<rect width="157" height="112" fill="white"/>
</clipPath>
</defs>
</svg>
