<svg width="306" height="306" viewBox="0 0 306 306" fill="none" xmlns="http://www.w3.org/2000/svg">
<path d="M108.06 160.114C118.855 151.262 117.236 146.728 127.491 137.833C132.846 133.148 140.726 126.26 152.018 125.85C157.956 125.523 163.85 127.03 168.902 130.168C180.884 137.984 176.48 149.967 187.88 166.872C190.945 171.406 198.416 177.948 213.356 191.053C221.993 198.303 229.073 207.226 234.169 217.285C234.523 217.988 234.84 218.709 235.119 219.444C236.738 223.654 242.417 238.617 235.119 252.866C227.822 267.116 212.6 270.786 209.729 271.434C196.062 274.413 184.188 268.843 168.707 261.524C153.594 254.421 154.069 251.355 144.526 249.153C134.983 246.95 132.436 249.304 109.463 251.614C91.1979 253.449 81.9141 254.313 74.3791 251.614C63.9931 247.84 55.3767 240.347 50.1979 230.585C48.2979 226.915 41.0436 211.564 47.7797 195.911C51.0586 188.635 56.562 182.587 63.4975 178.639C72.8461 173.284 76.8835 176.717 90.0968 171.211C96.5974 168.415 102.65 164.676 108.06 160.114Z" fill="#1A1A1A" stroke="#131313" stroke-width="1.48" stroke-linecap="round" stroke-linejoin="round"/>
<path d="M93.1396 114.901C98.587 101.993 94.8364 88.082 84.7624 83.8307C74.6883 79.5794 62.1057 86.5974 56.6583 99.5057C51.2109 112.414 54.9615 126.325 65.0356 130.576C75.1096 134.827 87.6922 127.809 93.1396 114.901Z" fill="#1A1A1A" stroke="#131313" stroke-width="1.5" stroke-linecap="round" stroke-linejoin="round"/>
<path d="M220.624 81.4734C226.071 68.565 222.321 54.6544 212.247 50.4031C202.173 46.1518 189.59 53.1697 184.143 66.0781C178.695 78.9865 182.446 92.8972 192.52 97.1484C202.594 101.4 215.177 94.3818 220.624 81.4734Z" fill="#1A1A1A" stroke="#131313" stroke-width="1.5" stroke-linecap="round" stroke-linejoin="round"/>
<path d="M265.186 138.422C270.634 125.513 266.883 111.602 256.809 107.351C246.735 103.1 234.153 110.118 228.705 123.026C223.258 135.935 227.008 149.845 237.082 154.097C247.156 158.348 259.739 151.33 265.186 138.422Z" fill="#1A1A1A" stroke="#131313" stroke-width="1.5" stroke-linecap="round" stroke-linejoin="round"/>
<path d="M154.405 72.4807C159.853 59.5723 156.102 45.6616 146.028 41.4104C135.954 37.1591 123.371 44.177 117.924 57.0854C112.477 69.9938 116.227 83.9044 126.301 88.1557C136.375 92.407 148.958 85.3891 154.405 72.4807Z" fill="#1A1A1A" stroke="#131313" stroke-width="1.5" stroke-linecap="round" stroke-linejoin="round"/>
<path d="M173.932 134.314C177.136 141.282 178.864 148.839 179.005 156.508L173.932 134.314Z" fill="#1A1A1A"/>
<path d="M172.55 135.134C175.582 141.862 177.226 149.131 177.386 156.508C177.386 156.938 177.557 157.35 177.861 157.653C178.164 157.957 178.576 158.128 179.006 158.128C179.435 158.128 179.847 157.957 180.151 157.653C180.454 157.35 180.625 156.938 180.625 156.508C180.448 148.563 178.647 140.739 175.335 133.515C175.123 133.154 174.778 132.892 174.375 132.783C173.971 132.674 173.541 132.727 173.176 132.932C172.824 133.151 172.568 133.496 172.46 133.897C172.352 134.297 172.4 134.724 172.593 135.091L172.55 135.134Z" fill="#131313"/>
<path d="M184.145 170.823C187.364 179.017 192.485 186.328 199.085 192.154C203.792 196.235 209.189 199.495 213.723 203.791C218.487 208.376 222.135 213.994 224.385 220.212C226.635 226.43 227.426 233.081 226.699 239.653" fill="#1A1A1A"/>
<path d="M182.59 171.255C185.066 177.496 188.585 183.271 192.996 188.333C197.897 193.903 204.094 197.768 209.772 202.453C215.196 206.899 219.421 212.633 222.06 219.131C224.7 225.628 225.671 232.684 224.885 239.653C224.67 241.812 227.908 241.812 228.124 239.653C228.847 233.013 228.079 226.295 225.875 219.99C223.672 213.685 220.088 207.952 215.386 203.208C210.118 197.984 203.554 194.335 198.113 189.196C192.708 183.859 188.473 177.455 185.677 170.391C184.922 168.47 181.791 169.312 182.568 171.255H182.59Z" fill="#131313"/>
<path d="M53.5874 207.267C49.8522 218.473 57.1066 231.146 67.5131 236.76C77.9197 242.373 90.4205 242.352 102.058 240.603" fill="#1A1A1A"/>
<path d="M52.033 206.792C48.5138 217.976 54.5807 229.764 63.735 236.263C74.854 244.187 89.6434 244.014 102.598 242.114C104.649 241.812 103.785 238.703 101.734 238.984C90.0536 240.711 76.9051 240.862 66.5849 234.255C57.9488 228.728 52.0114 217.868 55.2068 207.656C55.8329 205.67 52.7239 204.806 52.0978 206.792H52.033Z" fill="#131313"/>
<path d="M250.707 114.882C254.529 113.63 258.674 116.674 260.12 120.453C261.225 124.336 261.329 128.436 260.423 132.37" fill="#1A1A1A"/>
<path d="M251.139 116.437C254.14 115.53 256.99 117.775 258.307 120.345C260.099 123.821 259.408 128.247 258.868 131.939C258.771 132.353 258.832 132.789 259.04 133.16C259.248 133.532 259.587 133.812 259.991 133.947C260.409 134.059 260.854 134.002 261.23 133.788C261.606 133.574 261.882 133.219 261.999 132.802C262.668 128.031 263.423 122.655 260.854 118.25C259.879 116.379 258.314 114.88 256.402 113.987C254.49 113.093 252.337 112.854 250.275 113.306C248.289 113.911 249.131 117.041 251.139 116.437Z" fill="#131313"/>
<path d="M208.498 54.8395C210.364 55.0053 212.135 55.7341 213.577 56.9294C215.019 58.1247 216.064 59.73 216.573 61.5325C217.513 65.1631 217.689 68.9492 217.091 72.6515" fill="#1A1A1A"/>
<path d="M208.498 56.4588C209.908 56.6041 211.249 57.1455 212.364 58.0204C213.48 58.8953 214.325 60.068 214.803 61.403C216.292 64.9006 215.817 68.9812 215.472 72.6515C215.472 73.081 215.642 73.4928 215.946 73.7965C216.25 74.1002 216.662 74.2708 217.091 74.2708C217.519 74.2652 217.927 74.0928 218.23 73.7903C218.532 73.4879 218.705 73.0792 218.71 72.6515C219.121 68.1823 219.444 63.454 217.372 59.3087C216.584 57.5844 215.342 56.1069 213.779 55.0343C212.216 53.9618 210.39 53.3347 208.498 53.2202C208.069 53.2202 207.657 53.3908 207.353 53.6945C207.05 53.9982 206.879 54.41 206.879 54.8395C206.879 55.2689 207.05 55.6808 207.353 55.9845C207.657 56.2882 208.069 56.4588 208.498 56.4588Z" fill="#131313"/>
<path d="M135.199 36.8331C137.752 36.9169 140.18 37.9584 142 39.7506C143.82 41.5427 144.899 43.9542 145.023 46.5056" fill="#1A1A1A"/>
<path d="M135.199 38.4524C135.515 38.4309 135.833 38.4309 136.149 38.4524C136.602 38.4524 135.825 38.4524 136.149 38.4524H136.559C136.867 38.5187 137.17 38.6052 137.466 38.7115L137.854 38.841C137.962 38.841 138.243 39.0137 137.984 38.841C138.516 39.09 139.028 39.3787 139.517 39.7046L139.97 40.0285H140.078C140.311 40.2112 140.535 40.4058 140.748 40.6114C140.942 40.8273 141.158 41.0432 141.352 41.2807L141.611 41.583C141.374 41.3023 141.611 41.6909 141.611 41.7557C141.959 42.2383 142.263 42.7514 142.518 43.2886C142.691 43.6557 142.518 43.1591 142.518 43.4614L142.648 43.85C142.753 44.1242 142.84 44.4056 142.907 44.692C142.919 44.8501 142.919 45.0089 142.907 45.167C142.907 45.167 142.907 45.6636 142.907 45.2749C142.907 45.5772 142.907 45.9011 142.907 46.2249C142.907 46.6544 143.077 47.0662 143.381 47.3699C143.685 47.6736 144.096 47.8442 144.526 47.8442C144.955 47.8442 145.367 47.6736 145.671 47.3699C145.975 47.0662 146.145 46.6544 146.145 46.2249C146.011 43.2475 144.758 40.4305 142.636 38.3371C140.515 36.2437 137.681 35.028 134.702 34.9332C134.273 34.9332 133.861 35.1038 133.557 35.4074C133.254 35.7111 133.083 36.123 133.083 36.5524C133.083 36.9819 133.254 37.3938 133.557 37.6974C133.861 38.0011 134.273 38.1717 134.702 38.1717L135.199 38.4524Z" fill="#131313"/>
<path d="M84.418 90.6794C86.2682 92.4286 87.6225 94.6365 88.343 97.0787C89.0635 99.5208 89.1246 102.11 88.5201 104.584" fill="#1A1A1A"/>
<path d="M83.2736 91.8885C84.9028 93.4352 86.1017 95.3789 86.7528 97.5289C87.4038 99.6789 87.4846 101.961 86.9872 104.152C86.4906 106.181 89.6212 107.045 90.1178 105.015C90.7683 102.272 90.6901 99.4057 89.891 96.7016C89.0919 93.9975 87.5996 91.5493 85.5622 89.6C84.0293 88.175 81.7407 90.4636 83.2736 91.8885Z" fill="#131313"/>
<path d="M103.073 151.478C113.177 143.425 113.544 139.063 122.871 129.197C133.126 118.401 142.432 108.448 155.062 108.146C166.052 107.887 176.653 114.969 182.288 123C190.924 135.307 183.583 143.252 192.198 160.136C193.623 162.942 194.098 163.266 210.765 182.417C229.463 204.007 231.233 206.166 233.047 210.895C234.687 215.105 240.495 230.067 233.047 244.316C225.598 258.566 209.988 262.236 207.138 262.884C193.148 265.864 180.992 260.293 165.037 252.974C149.6 245.871 150.053 242.805 140.294 240.603C130.536 238.401 127.902 240.754 104.39 243.064C85.714 244.899 76.2142 245.763 68.4849 243.064C57.9313 239.337 49.1221 231.85 43.7424 222.035C41.7992 218.365 34.3721 203.014 41.2595 187.361C44.6606 180.048 50.2917 174.001 57.3443 170.089C66.9304 164.734 71.0541 168.167 84.5913 162.662C91.2661 159.859 97.493 156.091 103.073 151.478Z" fill="#FB865B" stroke="#131313" stroke-width="4" stroke-linecap="round" stroke-linejoin="round"/>
<path d="M90.9746 108.413C96.422 95.5046 92.6713 81.594 82.5973 77.3427C72.5233 73.0914 59.9407 80.1093 54.4933 93.0177C49.0459 105.926 52.7965 119.837 62.8705 124.088C72.9446 128.339 85.5272 121.321 90.9746 108.413Z" fill="#FB865B" stroke="#131313" stroke-width="4" stroke-linecap="round" stroke-linejoin="round"/>
<path d="M218.48 75.0069C223.928 62.0985 220.177 48.1879 210.103 43.9366C200.029 39.6853 187.447 46.7033 181.999 59.6116C176.552 72.52 180.302 86.4307 190.376 90.682C200.45 94.9333 213.033 87.9153 218.48 75.0069Z" fill="#FB865B" stroke="#131313" stroke-width="4" stroke-linecap="round" stroke-linejoin="round"/>
<path d="M263.021 131.933C268.469 119.025 264.718 105.114 254.644 100.863C244.57 96.6118 231.988 103.63 226.54 116.538C221.093 129.447 224.843 143.357 234.917 147.608C244.991 151.86 257.574 144.842 263.021 131.933Z" fill="#FB865B" stroke="#131313" stroke-width="4" stroke-linecap="round" stroke-linejoin="round"/>
<path d="M152.24 65.9926C157.688 53.0842 153.937 39.1736 143.863 34.9223C133.789 30.671 121.206 37.6889 115.759 50.5973C110.312 63.5057 114.062 77.4163 124.136 81.6676C134.21 85.9189 146.793 78.901 152.24 65.9926Z" fill="#FB865B" stroke="#131313" stroke-width="4" stroke-linecap="round" stroke-linejoin="round"/>
<path d="M170.391 128.657C173.422 135.385 175.067 142.654 175.227 150.031C175.227 150.461 175.398 150.873 175.702 151.176C176.005 151.48 176.417 151.651 176.847 151.651C177.276 151.651 177.688 151.48 177.992 151.176C178.295 150.873 178.466 150.461 178.466 150.031C178.288 142.086 176.488 134.262 173.176 127.038C172.964 126.677 172.619 126.414 172.216 126.305C171.812 126.196 171.382 126.25 171.017 126.455C170.665 126.674 170.409 127.019 170.301 127.42C170.193 127.82 170.24 128.247 170.434 128.614L170.391 128.657Z" fill="#131313"/>
<path d="M180.431 164.778C182.907 171.019 186.426 176.793 190.837 181.856C195.738 187.426 201.935 191.291 207.613 195.976C213.037 200.422 217.261 206.156 219.901 212.653C222.541 219.151 223.512 226.206 222.726 233.176C222.51 235.335 225.749 235.335 225.965 233.176C226.688 226.536 225.92 219.818 223.716 213.513C221.512 207.208 217.929 201.475 213.226 196.731C207.958 191.506 201.395 187.858 195.954 182.719C190.549 177.382 186.314 170.977 183.518 163.914C182.762 161.992 179.632 162.834 180.409 164.778H180.431Z" fill="#131313"/>
<path d="M49.8738 200.315C46.3546 211.499 52.4215 223.287 61.5758 229.786C72.6948 237.71 87.4842 237.537 100.438 235.637C102.489 235.335 101.626 232.226 99.5748 232.506C87.8944 234.234 74.7459 234.385 64.4257 227.778C55.7896 222.251 49.8522 211.391 53.0476 201.179C53.6737 199.193 50.5647 198.329 49.9386 200.315H49.8738Z" fill="#131313"/>
<path d="M248.979 109.96C251.98 109.053 254.83 111.298 256.147 113.868C257.939 117.344 257.249 121.77 256.709 125.462C256.612 125.876 256.673 126.312 256.881 126.683C257.088 127.055 257.428 127.335 257.831 127.469C258.249 127.582 258.695 127.525 259.071 127.311C259.447 127.096 259.723 126.742 259.839 126.325C260.509 121.554 261.264 116.178 258.695 111.773C257.72 109.901 256.155 108.403 254.243 107.509C252.331 106.616 250.177 106.377 248.116 106.829C246.129 107.434 246.972 110.564 248.979 109.96Z" fill="#131313"/>
<path d="M206.339 49.9817C207.749 50.127 209.09 50.6684 210.205 51.5433C211.321 52.4182 212.166 53.5909 212.643 54.9258C214.133 58.4235 213.658 62.5041 213.313 66.1744C213.313 66.6039 213.483 67.0157 213.787 67.3194C214.091 67.6231 214.503 67.7937 214.932 67.7937C215.36 67.7881 215.768 67.6157 216.071 67.3132C216.373 67.0108 216.546 66.6021 216.551 66.1744C216.961 61.7052 217.285 56.9769 215.213 52.8316C214.425 51.1073 213.183 49.6298 211.62 48.5572C210.057 47.4847 208.231 46.8576 206.339 46.7431C205.91 46.7431 205.498 46.9137 205.194 47.2174C204.89 47.521 204.72 47.9329 204.72 48.3624C204.72 48.7918 204.89 49.2037 205.194 49.5074C205.498 49.8111 205.91 49.9817 206.339 49.9817Z" fill="#131313"/>
<path d="M137.358 42.7705C137.674 42.749 137.992 42.749 138.308 42.7705C138.761 42.7705 137.984 42.7705 138.308 42.7705H138.718C139.026 42.8368 139.329 42.9234 139.625 43.0296L140.014 43.1591C140.014 43.1591 140.402 43.3319 140.143 43.1591C140.675 43.4081 141.188 43.6968 141.676 44.0227L142.13 44.3466H142.237C142.47 44.5293 142.694 44.7239 142.907 44.9295C143.101 45.1454 143.317 45.3614 143.511 45.5988L143.77 45.9011C143.533 45.6204 143.77 46.0091 143.77 46.0738C144.118 46.5564 144.422 47.0695 144.677 47.6067C144.85 47.9738 144.677 47.4772 144.677 47.7795L144.807 48.1681C144.913 48.4424 144.999 48.7237 145.066 49.0101C145.078 49.1682 145.078 49.327 145.066 49.4851C145.066 49.4851 145.066 49.9817 145.066 49.5931C145.066 49.8953 145.066 50.2192 145.066 50.543C145.066 50.9725 145.236 51.3844 145.54 51.688C145.844 51.9917 146.256 52.1623 146.685 52.1623C147.115 52.1623 147.526 51.9917 147.83 51.688C148.134 51.3844 148.304 50.9725 148.304 50.543C148.17 47.5656 146.917 44.7487 144.795 42.6552C142.674 40.5618 139.84 39.3461 136.861 39.2513C136.432 39.2513 136.02 39.4219 135.716 39.7256C135.413 40.0292 135.242 40.4411 135.242 40.8706C135.242 41.3 135.413 41.7119 135.716 42.0156C136.02 42.3192 136.432 42.4898 136.861 42.4898L137.358 42.7705Z" fill="#131313"/>
<path d="M81.1154 85.4114C82.7446 86.9581 83.9435 88.9018 84.5946 91.0518C85.2456 93.2018 85.3264 95.4841 84.829 97.6748C84.3324 99.7042 87.463 100.568 87.9596 98.5384C88.6101 95.7947 88.5319 92.9286 87.7328 90.2245C86.9337 87.5203 85.4414 85.0722 83.404 83.1228C81.8711 81.6979 79.5825 83.9865 81.1154 85.4114Z" fill="#131313"/>
</svg>
