<svg width="50" height="50" viewBox="0 0 50 50" fill="none" xmlns="http://www.w3.org/2000/svg">
<circle cx="25" cy="25" r="25" fill="#E3875E"/>
<path d="M20.5 24.7209C22.918 24.7209 24.875 22.7704 24.875 20.3605C24.875 17.9505 22.918 16 20.5 16C18.082 16 16.125 17.9505 16.125 20.3605C16.125 22.7704 18.082 24.7209 20.5 24.7209ZM23.5 25.9668H23.1758C22.3633 26.3561 21.4609 26.5897 20.5 26.5897C19.5391 26.5897 18.6406 26.3561 17.8242 25.9668H17.5C15.0156 25.9668 13 27.9757 13 30.4518V31.5731C13 32.6048 13.8398 33.4419 14.875 33.4419H26.125C27.1602 33.4419 28 32.6048 28 31.5731V30.4518C28 27.9757 25.9844 25.9668 23.5 25.9668ZM31.75 24.7209C33.8203 24.7209 35.5 23.0468 35.5 20.9834C35.5 18.92 33.8203 17.2458 31.75 17.2458C29.6797 17.2458 28 18.92 28 20.9834C28 23.0468 29.6797 24.7209 31.75 24.7209ZM33.625 25.9668H33.4766C32.9336 26.1537 32.3594 26.2782 31.75 26.2782C31.1406 26.2782 30.5664 26.1537 30.0234 25.9668H29.875C29.0781 25.9668 28.3438 26.1965 27.6992 26.5663C28.6523 27.5903 29.25 28.949 29.25 30.4518V31.9468C29.25 32.0325 29.2305 32.1143 29.2266 32.196H36.125C37.1602 32.196 38 31.359 38 30.3272C38 27.9173 36.043 25.9668 33.625 25.9668Z" fill="white"/>
</svg>
