<svg width="268" height="268" viewBox="0 0 268 268" fill="none" xmlns="http://www.w3.org/2000/svg">
<rect width="268" height="268" rx="40" fill="#F8EAA2"/>
<path d="M171.16 106.95C171.16 132.83 171.16 158.7 171.16 184.58C171.11 185.7 170.86 187.78 169.54 189.88C167 193.92 162.58 194.75 161.79 194.88C142.49 194.88 123.2 194.88 103.9 194.88C98.7303 194.88 94.5303 190.27 94.5303 184.58V94.18C94.5303 91.34 95.5803 88.76 97.2703 86.9C99.4203 84.53 102.57 84.08 103.89 83.88C108.72 83.15 125.96 83 149.21 83.88C151.91 86.86 154.68 89.86 157.52 92.88C162.11 97.74 166.65 102.43 171.16 106.95Z" fill="#FFD6B0" stroke="#131313" stroke-width="3" stroke-miterlimit="10" stroke-linecap="round" stroke-linejoin="round"/>
<path d="M104.54 135.88H161.54" stroke="#1A1A1A" stroke-width="3" stroke-miterlimit="10" stroke-linecap="round" stroke-linejoin="round"/>
<path d="M104.54 155.88H161.54" stroke="#1A1A1A" stroke-width="3" stroke-miterlimit="10" stroke-linecap="round" stroke-linejoin="round"/>
<path d="M104.54 176.88H161.54" stroke="#1A1A1A" stroke-width="3" stroke-miterlimit="10" stroke-linecap="round" stroke-linejoin="round"/>
<path d="M149.54 84.8799C149.54 92.2099 149.54 99.5499 149.54 106.88C156.54 106.88 163.54 106.88 170.54 106.88" stroke="#131313" stroke-width="3" stroke-miterlimit="10" stroke-linecap="round" stroke-linejoin="round"/>
<path d="M154.75 166.43C152.42 164.91 151.92 161.66 151.93 161.66C151.97 161.48 152.04 161.3 152.13 161.13L173.98 118.63C174.6 117.42 176.11 116.93 177.32 117.56L182.1 120.02C183.31 120.64 183.8 122.15 183.17 123.36L161.32 165.86C161.21 165.98 161.06 166.15 160.85 166.32C159.32 167.56 156.6 167.62 154.75 166.43Z" fill="#FFD6B0" stroke="#131313" stroke-width="3" stroke-miterlimit="10" stroke-linecap="round" stroke-linejoin="round"/>
<path d="M177.9 121.85C176.61 121.16 175.08 120.35 174.57 119.07C174.32 118.45 174.4 117.94 174.49 117.64L180.83 105.3C181.03 105.04 181.4 104.69 182.04 104.53C183.31 104.22 184.75 104.9 186.06 105.52C188.28 106.57 189.62 107.9 189.94 108.59C190.22 109.18 190.15 109.64 190.15 109.64C190.13 109.77 190.09 109.9 190.03 110.03L183.69 122.37C183.48 122.64 183.1 122.98 182.48 123.14C180.99 123.5 179.21 122.55 177.9 121.85Z" fill="#FB865B" stroke="#131313" stroke-width="3" stroke-miterlimit="10" stroke-linecap="round" stroke-linejoin="round"/>
<path d="M151.77 161.94C151.66 165.76 151.54 169.59 151.43 173.41C154.61 171.1 157.79 168.78 160.96 166.47C157.9 164.96 154.83 163.45 151.77 161.94Z" fill="#FFD6B0" stroke="#131313" stroke-width="3" stroke-miterlimit="10" stroke-linecap="round" stroke-linejoin="round"/>
</svg>
