<svg width="268" height="268" viewBox="0 0 268 268" fill="none" xmlns="http://www.w3.org/2000/svg">
<rect width="268" height="268" rx="40" fill="#F8EAA2"/>
<path d="M117.929 169.17C118.049 166.63 117.939 162.62 116.309 158.22C114.199 152.55 111.429 151.23 108.199 144.84C106.979 142.43 104.689 137.81 104.139 131.86C103.909 129.35 103.289 121.37 108.199 113.61C112.959 106.08 121.64 100.85 131.32 100.63C141.93 100.39 151.479 106.21 156.259 114.42C161.989 124.26 160.05 136.15 156.46 143.22C154.08 147.91 151.329 150.31 149.16 157.01C148.279 159.72 147.439 163.76 147.939 169.18C137.929 169.17 127.929 169.17 117.929 169.17Z" fill="#FFD6B0" stroke="#131313" stroke-width="2.9692" stroke-miterlimit="10" stroke-linecap="round" stroke-linejoin="round"/>
<path d="M126.24 107.52C124.34 107.93 120.07 109.13 116.1 112.79C112.1 116.48 110.58 120.66 110.02 122.52" fill="#FFD6B0"/>
<path d="M126.24 107.52C124.34 107.93 120.07 109.13 116.1 112.79C112.1 116.48 110.58 120.66 110.02 122.52" stroke="#131313" stroke-width="2.9692" stroke-miterlimit="10" stroke-linecap="round" stroke-linejoin="round"/>
<path d="M81.2197 175.25C86.7597 171.06 92.3097 166.87 97.8497 162.68L81.2197 175.25Z" fill="#FFD6B0"/>
<path d="M81.2197 175.25C86.7597 171.06 92.3097 166.87 97.8497 162.68" stroke="#131313" stroke-width="2.9692" stroke-miterlimit="10" stroke-linecap="round" stroke-linejoin="round"/>
<path d="M69.46 121.31C76.22 122.8 82.98 124.28 89.74 125.77L69.46 121.31Z" fill="#FFD6B0"/>
<path d="M69.46 121.31C76.22 122.8 82.98 124.28 89.74 125.77" stroke="#131313" stroke-width="2.9692" stroke-miterlimit="10" stroke-linecap="round" stroke-linejoin="round"/>
<path d="M103.53 77.5098C106.91 84.2698 110.29 91.0298 113.67 97.7898L103.53 77.5098Z" fill="#FFD6B0"/>
<path d="M103.53 77.5098C106.91 84.2698 110.29 91.0298 113.67 97.7898" stroke="#131313" stroke-width="2.9692" stroke-miterlimit="10" stroke-linecap="round" stroke-linejoin="round"/>
<path d="M183.02 174.85C177.48 170.66 171.93 166.47 166.39 162.28L183.02 174.85Z" fill="#FFD6B0"/>
<path d="M183.02 174.85C177.48 170.66 171.93 166.47 166.39 162.28" stroke="#131313" stroke-width="2.9692" stroke-miterlimit="10" stroke-linecap="round" stroke-linejoin="round"/>
<path d="M194.78 120.91C188.02 122.4 181.26 123.88 174.5 125.37L194.78 120.91Z" fill="#FFD6B0"/>
<path d="M194.78 120.91C188.02 122.4 181.26 123.88 174.5 125.37" stroke="#131313" stroke-width="2.9692" stroke-miterlimit="10" stroke-linecap="round" stroke-linejoin="round"/>
<path d="M160.71 77.1099C157.33 83.8699 153.95 90.6299 150.57 97.3899L160.71 77.1099Z" fill="#FFD6B0"/>
<path d="M160.71 77.1099C157.33 83.8699 153.95 90.6299 150.57 97.3899" stroke="#131313" stroke-width="2.9692" stroke-miterlimit="10" stroke-linecap="round" stroke-linejoin="round"/>
<path d="M118.65 174.71H146.83" stroke="#131313" stroke-width="3.5615" stroke-miterlimit="10" stroke-linecap="round" stroke-linejoin="round"/>
<path d="M119.36 180.79H146.12" stroke="#131313" stroke-width="3.6501" stroke-miterlimit="10" stroke-linecap="round" stroke-linejoin="round"/>
<path d="M121.18 186.67C128.89 186.67 136.59 186.67 144.3 186.67C142.58 187.72 138.61 189.82 133.14 189.91C127.21 190.02 122.9 187.71 121.18 186.67Z" fill="black" stroke="#131313" stroke-width="2.839" stroke-miterlimit="10" stroke-linecap="round" stroke-linejoin="round"/>
</svg>
