<svg width="50" height="50" viewBox="0 0 50 50" fill="none" xmlns="http://www.w3.org/2000/svg">
<circle cx="25" cy="25" r="25" fill="#E3875E"/>
<path d="M25.7786 24.0515L25.4999 24.3265L25.2199 24.0515C24.6996 23.5379 23.9979 23.2499 23.2668 23.2499C22.5357 23.2499 21.834 23.5379 21.3137 24.0515C21.0555 24.3 20.85 24.5979 20.7097 24.9276C20.5694 25.2573 20.4971 25.612 20.4971 25.9703C20.4971 26.3286 20.5694 26.6832 20.7097 27.0129C20.85 27.3426 21.0555 27.6406 21.3137 27.889L25.4999 32.0002L29.6861 27.889C29.9443 27.6406 30.1497 27.3426 30.2901 27.0129C30.4304 26.6832 30.5027 26.3286 30.5027 25.9703C30.5027 25.612 30.4304 25.2573 30.2901 24.9276C30.1497 24.5979 29.9443 24.3 29.6861 24.0515C29.1656 23.5378 28.4637 23.2498 27.7324 23.2498C27.001 23.2498 26.2991 23.5378 25.7786 24.0515Z" fill="white"/>
<path d="M37.6332 23.6164L26.3833 12.3665C26.2674 12.2503 26.1296 12.1581 25.978 12.0953C25.8263 12.0324 25.6638 12 25.4996 12C25.3354 12 25.1729 12.0324 25.0212 12.0953C24.8696 12.1581 24.7319 12.2503 24.6159 12.3665L13.366 23.6164C13.1912 23.7912 13.0722 24.0139 13.024 24.2563C12.9758 24.4988 13.0005 24.7501 13.0951 24.9784C13.1897 25.2068 13.3499 25.402 13.5554 25.5394C13.7609 25.6767 14.0025 25.7501 14.2497 25.7501H15.4997V34.5C15.4997 35.8788 16.6209 37 17.9997 37H32.9995C34.3783 37 35.4995 35.8788 35.4995 34.5V25.7501H36.7495C36.9967 25.7501 37.2383 25.6767 37.4438 25.5394C37.6493 25.402 37.8095 25.2068 37.9041 24.9784C37.9987 24.7501 38.0234 24.4988 37.9752 24.2563C37.927 24.0139 37.808 23.7912 37.6332 23.6164ZM33.0008 34.5H17.9997V22.5189L25.4996 15.019L32.9995 22.5189V28.2501L33.0008 34.5Z" fill="white"/>
</svg>
