<svg width="341" height="368" viewBox="0 0 341 368" fill="none" xmlns="http://www.w3.org/2000/svg">
<path d="M44.8369 307.619C40.7994 310.476 36.4945 312.934 31.9826 314.961C22.5387 319.169 12.3522 321.459 2.01562 321.695C6.23462 325.442 11.2628 328.163 16.7074 329.645C36.1623 334.81 52.6993 320.97 54.6472 319.243L44.8369 307.619Z" fill="#1A1A1A" stroke="#1A1A1A" stroke-width="0.78" stroke-linecap="round" stroke-linejoin="round"/>
<path opacity="0.28" d="M44.8371 303.337C32.2894 312.211 17.3658 317.112 2 317.405C6.22079 321.16 11.2554 323.884 16.7075 325.362C36.1624 330.528 52.6995 316.648 54.6473 314.961L44.8371 303.337Z" fill="#1A1A1A" stroke="#1A1A1A" stroke-width="0.78" stroke-miterlimit="10"/>
<path d="M202.101 299.662C209.805 312.683 214.214 327.387 214.948 342.499C215.468 341.971 219.23 338.28 224.742 338.824C231.28 339.471 234.206 345.496 234.529 346.166C237.352 352.222 234.229 357.869 233.914 358.405L191.692 357.183C191.383 352.217 190.563 347.297 189.247 342.499C186.309 331.91 181.087 322.093 173.948 313.739" fill="#F9D7B2"/>
<path d="M202.101 299.662C209.805 312.683 214.214 327.387 214.948 342.499C215.468 341.971 219.23 338.28 224.742 338.824C231.28 339.471 234.206 345.496 234.529 346.166C237.352 352.222 234.229 357.869 233.914 358.405L191.692 357.183C191.383 352.217 190.563 347.297 189.247 342.499C186.309 331.91 181.087 322.093 173.948 313.739" stroke="#1A1A1A" stroke-width="2.33" stroke-linecap="round" stroke-linejoin="round"/>
<path d="M112.129 29.8087C115.883 24.0283 121.774 21.6703 133.548 16.9624C144.738 12.4831 169.934 2.76745 200.855 9.61255C211.304 11.9232 221.627 14.1943 231.453 23.0819C242.975 33.4836 246.689 46.5114 247.974 52.4496C252.572 52.631 260.087 52.8124 269.393 52.4496C285.63 51.8266 292.01 50.1469 303.658 51.8424C313.5 53.2619 320.755 54.3265 324.461 59.7915C329.358 67.0073 326.362 79.349 317.734 91.0046C319.522 96.5857 320.066 102.491 319.326 108.304C318.586 114.118 316.581 119.699 313.452 124.654C305.132 127.478 298.003 129.441 292.649 130.774C281.853 133.471 273.62 135.506 262.682 135.671C258.391 135.748 254.099 135.543 249.835 135.056C248.637 138.502 246.854 143.81 244.938 150.355C239.142 170.204 238.629 179.218 231.477 220.73C226.225 251.21 226.359 249.727 225.349 256.777C222.755 274.915 223.117 278.543 218.63 292.32C210.208 318.178 202.07 328.036 198.434 332.097C189.635 341.758 178.754 349.29 166.614 354.123C143.815 358.279 120.58 359.514 97.4689 357.798C79.5675 356.41 70.4118 353.807 61.9816 348.003C58.8272 345.835 44.719 335.614 40.571 317.405C39.2934 311.83 38.5206 303.573 45.4603 281.918C49.9948 267.802 55.7753 254.317 72.9984 222.56C86.8858 196.97 88.8494 195.203 96.2544 179.731C105.552 160.291 110.197 150.552 113.383 136.894C117.689 118.651 118.521 99.7606 115.836 81.2101" fill="#F9D7B2"/>
<path d="M112.129 29.8087C115.883 24.0283 121.774 21.6703 133.548 16.9624C144.738 12.4831 169.934 2.76745 200.855 9.61255C211.304 11.9232 221.627 14.1943 231.453 23.0819C242.975 33.4836 246.689 46.5114 247.974 52.4496C252.572 52.631 260.087 52.8124 269.393 52.4496C285.63 51.8266 292.01 50.1469 303.658 51.8424C313.5 53.2619 320.755 54.3265 324.461 59.7915C329.358 67.0073 326.362 79.349 317.734 91.0046C319.522 96.5857 320.066 102.491 319.326 108.304C318.586 114.118 316.581 119.699 313.452 124.654C305.132 127.478 298.003 129.441 292.649 130.774C281.853 133.471 273.62 135.506 262.682 135.671C258.391 135.748 254.099 135.543 249.835 135.056C248.637 138.502 246.854 143.81 244.938 150.355C239.142 170.204 238.629 179.218 231.477 220.73C226.225 251.21 226.359 249.727 225.349 256.777C222.755 274.915 223.117 278.543 218.63 292.32C210.208 318.178 202.07 328.036 198.434 332.097C189.635 341.758 178.754 349.29 166.614 354.123C143.815 358.279 120.58 359.514 97.4689 357.798C79.5675 356.41 70.4118 353.807 61.9816 348.003C58.8272 345.835 44.719 335.614 40.571 317.405C39.2934 311.83 38.5206 303.573 45.4603 281.918C49.9948 267.802 55.7753 254.317 72.9984 222.56C86.8858 196.97 88.8494 195.203 96.2544 179.731C105.552 160.291 110.197 150.552 113.383 136.894C117.689 118.651 118.521 99.7606 115.836 81.2101" stroke="#1A1A1A" stroke-width="2.33" stroke-linecap="round" stroke-linejoin="round"/>
<path d="M110.614 32.561C107.618 40.3367 104.605 48.3726 101.435 57.0078C100.339 60.0124 98.6118 64.8939 100.828 67.4095C102.523 69.318 104.921 68.001 106.947 69.8621C108.288 71.0844 108.895 73.19 107.555 84.5459C106.537 93.2206 105.749 95.6574 107.555 98.0074C108.611 99.0028 109.736 99.9225 110.922 100.76C115.488 103.977 117.396 103.433 119.187 105.349C121.284 107.613 120.015 109.726 120.709 117.896C121.182 123.345 121.608 128.329 124.076 129.213C126.678 130.143 131.221 126.445 133.255 122.486C134.746 119.592 134.612 117.123 135.708 116.966C136.804 116.808 137.435 119.331 139.99 122.486C141.323 124.126 144.722 128.306 147.939 128.006C148.531 127.951 150.999 127.556 154.059 120.664C158.696 110.239 155.313 100.633 157.734 99.8607C159.603 99.2613 161.322 104.166 164.468 104.143C169.389 104.095 173.687 91.8169 175.17 83.0318C176.266 76.581 177.157 64.2867 170.58 48.4593" fill="#F9D7B2"/>
<path d="M110.614 32.561C107.618 40.3367 104.605 48.3726 101.435 57.0078C100.339 60.0124 98.6118 64.8939 100.828 67.4095C102.523 69.318 104.921 68.001 106.947 69.8621C108.288 71.0844 108.895 73.19 107.555 84.5459C106.537 93.2206 105.749 95.6574 107.555 98.0074C108.611 99.0028 109.736 99.9225 110.922 100.76C115.488 103.977 117.396 103.433 119.187 105.349C121.284 107.613 120.015 109.726 120.709 117.896C121.182 123.345 121.608 128.329 124.076 129.213C126.678 130.143 131.221 126.445 133.255 122.486C134.746 119.592 134.612 117.123 135.708 116.966C136.804 116.808 137.435 119.331 139.99 122.486C141.323 124.126 144.722 128.306 147.939 128.006C148.531 127.951 150.999 127.556 154.059 120.664C158.696 110.239 155.313 100.633 157.734 99.8607C159.603 99.2613 161.322 104.166 164.468 104.143C169.389 104.095 173.687 91.8169 175.17 83.0318C176.266 76.581 177.157 64.2867 170.58 48.4593" stroke="#1A1A1A" stroke-width="2.33" stroke-linecap="round" stroke-linejoin="round"/>
<path opacity="0.32" d="M112.128 29.8088C104.005 35.4 100.583 44.5557 97.7515 52.1421C96.0245 56.7713 95.3384 60.525 97.1364 62.5438C98.9344 64.5627 101.229 63.1432 103.256 64.9964C104.597 66.2266 105.204 68.3243 103.871 79.6803C102.846 88.3549 102.057 90.7917 103.871 93.1418C104.923 94.1394 106.045 95.0593 107.231 95.894C111.797 99.1194 113.713 98.5674 115.495 100.484C117.601 102.747 116.323 104.86 117.025 113.03C117.49 118.48 117.916 123.464 120.392 124.347C122.987 125.277 127.529 121.579 129.572 117.62C131.054 114.734 130.928 112.258 132.016 112.1C133.105 111.942 133.744 114.466 136.299 117.62C137.639 119.26 141.03 123.44 144.256 123.14C144.847 123.085 147.308 122.691 150.375 115.798C155.004 105.381 151.621 95.7757 154.042 94.995C155.911 94.3956 157.638 99.3087 160.777 99.2771C165.643 99.2298 169.948 87.2272 171.486 78.1661C172.787 70.4693 175.208 56.2192 166.897 43.5936C155.407 26.1102 128.05 18.8708 112.128 29.8088Z" fill="#F2F0E5" stroke="#F2F0E5" stroke-width="2.33" stroke-linecap="round" stroke-linejoin="round"/>
<path d="M204.033 86.257C205.794 89.0778 208.023 91.5768 210.626 93.6463C210.802 93.8109 211.035 93.9025 211.276 93.9025C211.518 93.9025 211.75 93.8109 211.927 93.6463C212.095 93.4714 212.189 93.2383 212.189 92.9957C212.189 92.7531 212.095 92.5199 211.927 92.3451C209.437 90.3851 207.303 88.0109 205.618 85.3265C204.995 84.3328 203.402 85.2476 204.041 86.257H204.033Z" fill="#1A1A1A"/>
<path d="M210.815 92.0692C208.245 93.7253 205.83 95.6098 203.599 97.6999C203.447 97.8763 203.368 98.1036 203.377 98.3362C203.385 98.5688 203.482 98.7895 203.646 98.9541C203.811 99.1187 204.032 99.215 204.264 99.2237C204.497 99.2324 204.724 99.1529 204.9 99.0011C207.013 97.0125 209.305 95.2227 211.746 93.6543C211.95 93.5269 212.098 93.3255 212.158 93.0921C212.218 92.8586 212.186 92.611 212.069 92.4004C211.946 92.1914 211.745 92.0394 211.51 91.9774C211.275 91.9154 211.026 91.9484 210.815 92.0692Z" fill="#1A1A1A"/>
<path d="M217.393 95.2866C218.031 102.636 221.612 108.543 226.572 109.97C228.381 110.445 230.283 110.445 232.092 109.97C239.639 108.18 242.715 100.042 243.133 98.93C242.833 101.713 243.481 104.517 244.97 106.887C246.023 108.541 247.468 109.91 249.176 110.873C250.885 111.836 252.804 112.363 254.765 112.407C260.498 112.407 266.034 107.337 267.004 100.168C267.106 100.696 268.431 106.863 274.346 109.347C275.063 109.655 281.104 112.076 285.97 108.125C287.549 106.809 288.73 105.079 289.38 103.128C290.029 101.178 290.121 99.0846 289.645 97.0846" fill="#F2F0E5"/>
<path d="M217.393 95.2866C218.031 102.636 221.612 108.543 226.572 109.97C228.381 110.445 230.283 110.445 232.092 109.97C239.639 108.18 242.715 100.042 243.133 98.93C242.833 101.713 243.481 104.517 244.97 106.887C246.023 108.541 247.468 109.91 249.176 110.873C250.885 111.836 252.804 112.363 254.765 112.407C260.498 112.407 266.034 107.337 267.004 100.168C267.106 100.696 268.431 106.863 274.346 109.347C275.063 109.655 281.104 112.076 285.97 108.125C287.549 106.809 288.73 105.079 289.38 103.128C290.029 101.178 290.121 99.0846 289.645 97.0846" stroke="#1A1A1A" stroke-width="2.33" stroke-linecap="round" stroke-linejoin="round"/>
<path d="M211.636 93.9146C225.358 95.2868 239.08 96.6274 252.857 97.274C266.553 98.029 280.287 97.7179 293.935 96.3435C301.592 95.528 309.186 94.2108 316.671 92.4005C317.822 92.1166 317.333 90.3501 316.182 90.6261C302.886 93.7708 289.292 95.4787 275.631 95.7205C261.988 95.9665 248.341 95.4742 234.75 94.2458C227.038 93.607 219.341 92.85 211.636 92.085C210.461 91.9667 210.469 93.8042 211.636 93.9146Z" fill="#1A1A1A"/>
<path d="M297.554 95.8941C299.387 97.8535 300.839 100.137 301.836 102.629C302.727 104.884 303.161 107.163 303.673 117.313C304.02 124.11 303.965 125.861 305.511 127.714C306.346 128.68 307.38 129.454 308.543 129.982C309.706 130.51 310.969 130.78 312.245 130.774C318.815 130.703 322.308 122.431 322.647 121.595C323.105 120.467 324.161 117.47 323.254 109.971C322.5 103.848 320.85 97.8699 318.357 92.2271" fill="#E3875E"/>
<path d="M297.554 95.8941C299.387 97.8535 300.839 100.137 301.836 102.629C302.727 104.884 303.161 107.163 303.673 117.313C304.02 124.11 303.965 125.861 305.511 127.714C306.346 128.68 307.38 129.454 308.543 129.982C309.706 130.51 310.969 130.78 312.245 130.774C318.815 130.703 322.308 122.431 322.647 121.595C323.105 120.467 324.161 117.47 323.254 109.971C322.5 103.848 320.85 97.8699 318.357 92.2271" stroke="#1A1A1A" stroke-width="2.33" stroke-linecap="round" stroke-linejoin="round"/>
<path d="M307.954 96.8718C311.659 103.718 313.477 111.425 313.222 119.205C313.183 120.388 315.02 120.388 315.06 119.205C315.31 111.099 313.406 103.071 309.54 95.9412C308.98 94.9003 307.387 95.8308 307.962 96.8718H307.954Z" fill="#1A1A1A"/>
<path d="M308.571 65.911C306.324 61.2504 309.589 55.8327 311.631 52.4495C313.784 48.8772 319.809 38.9013 328.152 40.2104C333.302 40.999 337.292 45.8016 338.554 50.6121C340.526 58.1275 335.4 64.0184 334.272 65.3038C330.187 69.9881 323.476 72.7798 317.136 71.4234C315.59 71.0843 310.543 70.0039 308.571 65.911Z" fill="#1A1A1A" stroke="#1A1A1A" stroke-width="2.33" stroke-linecap="round" stroke-linejoin="round"/>
<path d="M328.995 44.6189C329.316 44.5913 329.637 44.5913 329.958 44.6189C330.234 44.6189 329.784 44.5795 330.052 44.6189L330.312 44.6662L330.73 44.7767L331.227 44.9423C331.377 45.0054 331.227 44.9423 331.29 44.9423L331.487 45.029C331.785 45.1799 332.073 45.3512 332.347 45.5416L332.521 45.6757L332.607 45.7466C332.731 45.8509 332.85 45.9615 332.962 46.0779C333.08 46.1883 333.183 46.3066 333.293 46.4248L333.459 46.6299L333.498 46.6851C333.68 46.9362 333.843 47.1997 333.987 47.4737C334.02 47.5379 334.049 47.6037 334.074 47.6708C334.003 47.5052 334.074 47.7655 334.074 47.7734C334.137 47.939 334.185 48.1046 334.232 48.2781C334.264 48.3941 334.319 48.5026 334.393 48.5975C334.467 48.6923 334.559 48.7717 334.663 48.831C334.768 48.8903 334.883 48.9284 335.003 48.9432C335.122 48.9579 335.244 48.9489 335.36 48.9168C335.476 48.8847 335.584 48.8301 335.679 48.756C335.774 48.682 335.853 48.59 335.912 48.4853C335.972 48.3806 336.01 48.2652 336.025 48.1457C336.039 48.0263 336.03 47.9051 335.998 47.7891C335.566 46.2723 334.637 44.9447 333.36 44.0194C332.083 43.0941 330.532 42.6248 328.956 42.6869C328.715 42.6948 328.485 42.7948 328.315 42.9664C328.145 43.1379 328.047 43.368 328.041 43.6095C328.029 43.7405 328.044 43.8726 328.087 43.997C328.13 44.1214 328.199 44.2352 328.289 44.3308C328.38 44.4264 328.489 44.5015 328.611 44.5512C328.733 44.6009 328.864 44.624 328.995 44.6189Z" fill="#F9D7B2"/>
<path d="M335.084 51.1564C335.148 51.7428 335.169 52.3333 335.147 52.9228C335.147 53.2146 335.147 53.4985 335.076 53.7824C335.005 54.0663 335.076 53.5853 335.076 53.7824C335.08 53.8507 335.08 53.9192 335.076 53.9875C335.076 54.1531 335.021 54.3108 334.989 54.4685C334.957 54.5845 334.948 54.7057 334.963 54.8251C334.978 54.9446 335.016 55.0599 335.075 55.1646C335.134 55.2694 335.214 55.3614 335.309 55.4354C335.404 55.5095 335.512 55.5641 335.628 55.5962C335.744 55.6283 335.865 55.6373 335.985 55.6225C336.104 55.6078 336.219 55.5697 336.324 55.5104C336.429 55.4511 336.521 55.3717 336.595 55.2768C336.669 55.182 336.724 55.0734 336.756 54.9574C337.029 53.6991 337.098 52.4051 336.961 51.1248C336.951 50.8843 336.856 50.6552 336.693 50.4782C336.607 50.3919 336.505 50.3237 336.393 50.2777C336.28 50.2316 336.16 50.2086 336.038 50.21C335.589 50.21 335.06 50.6122 335.123 51.1248L335.084 51.1564Z" fill="#F9D7B2"/>
<path d="M329.035 45.3995C329.288 45.4704 329.54 45.5414 329.824 45.6282L330.045 45.7149H330.155L330.266 45.7622L330.439 45.849C330.925 46.0857 331.387 46.3683 331.819 46.6928C331.717 46.6139 331.819 46.6928 331.819 46.6928L331.977 46.819L332.269 47.0792C332.458 47.2606 332.647 47.4498 332.821 47.647C332.994 47.8441 332.994 47.8441 333.073 47.9467C333.152 48.0492 332.97 47.8047 333.12 48.0176L333.239 48.1754C333.396 48.4041 333.546 48.6406 333.68 48.8772C333.737 48.9872 333.816 49.0845 333.912 49.1631C334.008 49.2416 334.119 49.2999 334.238 49.3343C334.357 49.3687 334.482 49.3785 334.605 49.3632C334.728 49.3478 334.847 49.3076 334.954 49.245C335.061 49.1824 335.154 49.0987 335.228 48.999C335.301 48.8992 335.354 48.7856 335.382 48.6649C335.411 48.5442 335.414 48.419 335.393 48.2969C335.371 48.1748 335.325 48.0583 335.257 47.9545C334.646 46.8731 333.822 45.9264 332.836 45.1716C331.849 44.4167 330.72 43.8692 329.516 43.562C329.4 43.5299 329.279 43.521 329.16 43.5357C329.04 43.5504 328.925 43.5885 328.82 43.6478C328.716 43.7072 328.624 43.7865 328.549 43.8814C328.475 43.9763 328.421 44.0848 328.389 44.2008C328.357 44.3168 328.348 44.438 328.362 44.5574C328.377 44.6768 328.415 44.7922 328.475 44.8969C328.534 45.0016 328.613 45.0937 328.708 45.1677C328.803 45.2418 328.911 45.2964 329.027 45.3285L329.035 45.3995Z" fill="#F9D7B2"/>
<path d="M81.5783 281.926C90.6945 280.499 101.356 279.978 109.235 285.641C113.501 288.708 116.111 293.448 117.909 298.258C119.904 303.74 121.333 309.41 122.176 315.182C123.171 321.868 123.412 328.646 122.893 335.386C122.807 336.561 124.644 336.553 124.731 335.386C125.707 322.906 124.079 310.36 119.952 298.542C118.17 293.519 115.67 288.535 111.498 285.065C107.683 282.026 103.094 280.114 98.2494 279.545C92.5399 278.756 86.7594 279.213 81.0893 280.097C79.9301 280.278 80.419 282.052 81.5783 281.871V281.926Z" fill="#1A1A1A"/>
<path d="M124.573 337.539C127.007 336.484 129.697 336.161 132.312 336.611C134.927 337.06 137.354 338.262 139.297 340.069C141.239 341.877 142.613 344.211 143.251 346.787C143.888 349.362 143.76 352.068 142.884 354.572C142.513 355.7 144.28 356.15 144.658 355.061C145.639 352.203 145.761 349.119 145.009 346.192C144.257 343.265 142.664 340.622 140.427 338.59C138.19 336.558 135.407 335.225 132.421 334.756C129.436 334.288 126.378 334.704 123.626 335.953C122.546 336.419 123.476 337.996 124.549 337.531L124.573 337.539Z" fill="#1A1A1A"/>
<path d="M152.915 8.57954C148.898 5.83182 144.385 3.89011 139.627 2.86215C138.476 2.6098 137.987 4.38416 139.138 4.62863C143.741 5.61611 148.107 7.49114 151.993 10.1489C152.97 10.8192 153.885 9.2262 152.915 8.57166V8.57954Z" fill="#1A1A1A"/>
<path d="M153.799 10.0384C153.846 8.00295 153.318 5.99541 152.276 4.24621C151.234 2.49702 149.72 1.07706 147.908 0.149309C147.804 0.0814204 147.688 0.0353347 147.566 0.0138456C147.443 -0.00764359 147.318 -0.00408856 147.198 0.0243024C147.077 0.0526933 146.963 0.105328 146.863 0.179001C146.764 0.252673 146.68 0.345849 146.617 0.45287C146.555 0.559891 146.515 0.67852 146.499 0.801555C146.484 0.92459 146.494 1.04946 146.528 1.16858C146.563 1.28771 146.621 1.39859 146.699 1.4945C146.778 1.59042 146.875 1.66935 146.985 1.72652C148.518 2.49592 149.8 3.68506 150.682 5.1553C151.565 6.62554 152.011 8.31632 151.969 10.0305C151.969 11.2134 153.759 11.2134 153.799 10.0305V10.0384Z" fill="#1A1A1A"/>
<path d="M199.041 56.1246C205.8 56.1246 211.28 50.6449 211.28 43.8854C211.28 37.1259 205.8 31.6462 199.041 31.6462C192.281 31.6462 186.802 37.1259 186.802 43.8854C186.802 50.6449 192.281 56.1246 199.041 56.1246Z" fill="#F2F0E5" stroke="#1A1A1A" stroke-width="2.33" stroke-linecap="round" stroke-linejoin="round"/>
<path d="M202.707 50.005C206.087 50.005 208.827 47.2652 208.827 43.8855C208.827 40.5057 206.087 37.7659 202.707 37.7659C199.328 37.7659 196.588 40.5057 196.588 43.8855C196.588 47.2652 199.328 50.005 202.707 50.005Z" fill="#1A1A1A" stroke="#1A1A1A" stroke-width="0.78" stroke-linecap="round" stroke-linejoin="round"/>
<path d="M228.259 52.4577C234.09 52.4577 238.818 47.7301 238.818 41.8983C238.818 36.0665 234.09 31.3389 228.259 31.3389C222.427 31.3389 217.699 36.0665 217.699 41.8983C217.699 47.7301 222.427 52.4577 228.259 52.4577Z" fill="#F2F0E5" stroke="#1A1A1A" stroke-width="2.33" stroke-linecap="round" stroke-linejoin="round"/>
<path d="M231.422 47.1739C234.336 47.1739 236.698 44.8118 236.698 41.8981C236.698 38.9844 234.336 36.6223 231.422 36.6223C228.509 36.6223 226.146 38.9844 226.146 41.8981C226.146 44.8118 228.509 47.1739 231.422 47.1739Z" fill="#1A1A1A" stroke="#1A1A1A" stroke-width="0.78" stroke-linecap="round" stroke-linejoin="round"/>
<path opacity="0.58" d="M233.93 200.518C230.601 197.577 226.606 195.493 222.29 194.446C200.587 189.296 176.416 212.844 168.31 247.046C160.203 281.248 171.212 313.139 192.914 318.289C197.594 319.362 202.473 319.196 207.07 317.808C210.453 310.174 212.992 303.613 214.798 298.723C218.323 289.102 220.113 284.158 221.375 277.328C222.455 271.469 221.659 272.463 223.212 261.422C223.938 256.233 224.726 251.77 226.272 243.063C227.408 236.621 228.283 231.936 228.717 229.602C229.963 222.891 231.745 213.096 233.93 200.518Z" fill="#F2F0E5"/>
<path d="M191.778 209.784C191.359 211.3 191.516 212.918 192.219 214.325C192.922 215.732 194.121 216.829 195.585 217.404C197.049 217.979 198.674 217.992 200.146 217.44C201.619 216.887 202.835 215.809 203.56 214.414L201.88 214.193C203.97 219.674 207.637 225.833 214.309 225.754C215.675 225.74 217.014 225.369 218.193 224.677C219.372 223.985 220.349 222.997 221.027 221.811C222.549 219.287 222.983 216.29 224.229 213.657L222.975 213.98C223.584 214.296 224.25 214.487 224.933 214.541C225.617 214.596 226.304 214.512 226.955 214.296C227.606 214.08 228.207 213.735 228.722 213.283C229.237 212.83 229.656 212.279 229.954 211.661C230.428 210.589 228.843 209.65 228.377 210.731C228.206 211.149 227.951 211.527 227.628 211.843C227.304 212.158 226.919 212.403 226.497 212.563C226.074 212.723 225.623 212.794 225.172 212.772C224.721 212.749 224.279 212.635 223.874 212.434C223.663 212.315 223.414 212.284 223.18 212.345C222.946 212.407 222.745 212.558 222.62 212.765C220.736 216.772 220.255 223.672 214.569 223.94C208.662 224.216 205.452 218.506 203.631 213.735C203.578 213.565 203.477 213.414 203.34 213.299C203.203 213.184 203.036 213.111 202.859 213.089C202.682 213.067 202.503 213.095 202.342 213.172C202.181 213.249 202.045 213.371 201.951 213.522C201.456 214.541 200.597 215.336 199.543 215.752C198.49 216.168 197.319 216.174 196.262 215.769C195.205 215.364 194.337 214.577 193.831 213.564C193.325 212.551 193.217 211.386 193.529 210.297C193.57 210.07 193.524 209.836 193.4 209.64C193.277 209.445 193.085 209.304 192.862 209.243C192.639 209.183 192.402 209.208 192.197 209.314C191.992 209.42 191.834 209.599 191.754 209.816L191.778 209.784Z" fill="#1A1A1A"/>
<path d="M113.367 136.894C123.21 139.745 133.217 141.994 143.334 143.628C158.104 145.994 171.826 148.218 189.231 146.688C217.621 144.18 231.453 139.953 231.453 139.953C237.856 137.99 245.585 135.143 247.974 138.116C249.63 140.182 247.651 143.715 244.307 154.637C242.627 160.157 241.429 164.771 240.632 168.099C232.176 170.246 223.599 171.884 214.947 173.004C183.403 177.073 158.215 173.28 140.905 170.559C128.526 168.601 116.267 165.945 104.188 162.602L113.367 136.894Z" fill="#E3875E" stroke="#1A1A1A" stroke-width="2.33" stroke-linecap="round" stroke-linejoin="round"/>
<path d="M109.629 162.074C114.747 162.271 119.29 165.268 124.447 165.378C124.676 165.357 124.889 165.251 125.044 165.081C125.199 164.911 125.285 164.689 125.285 164.459C125.285 164.229 125.199 164.008 125.044 163.838C124.889 163.668 124.676 163.562 124.447 163.541C119.313 163.43 114.763 160.433 109.629 160.236C108.446 160.189 108.446 162.026 109.629 162.074Z" fill="#1A1A1A"/>
<path d="M180.683 307.619C188.383 320.636 192.793 335.334 193.529 350.44C194.049 349.912 197.819 346.221 203.323 346.765C209.861 347.412 212.787 353.437 213.11 354.107C215.933 360.164 212.81 365.81 212.503 366.346L170.281 365.124C169.965 360.159 169.143 355.239 167.828 350.44C164.89 339.851 159.668 330.035 152.529 321.68" fill="#F9D7B2"/>
<path d="M180.683 307.619C188.383 320.636 192.793 335.334 193.529 350.44C194.049 349.912 197.819 346.221 203.323 346.765C209.861 347.412 212.787 353.437 213.11 354.107C215.933 360.164 212.81 365.81 212.503 366.346L170.281 365.124C169.965 360.159 169.143 355.239 167.828 350.44C164.89 339.851 159.668 330.035 152.529 321.68" stroke="#1A1A1A" stroke-width="2.33" stroke-linecap="round" stroke-linejoin="round"/>
<path d="M128.784 166.174H131.11C131.339 166.153 131.552 166.047 131.707 165.877C131.862 165.707 131.948 165.486 131.948 165.256C131.948 165.026 131.862 164.804 131.707 164.634C131.552 164.464 131.339 164.358 131.11 164.337H128.784C128.542 164.339 128.31 164.436 128.139 164.607C127.968 164.778 127.871 165.01 127.869 165.252C127.873 165.494 127.971 165.725 128.141 165.897C128.312 166.069 128.542 166.168 128.784 166.174Z" fill="#1A1A1A"/>
<path d="M242.959 142.982C242.1 147.211 240.698 151.312 238.787 155.181C238.267 156.238 239.852 157.169 240.364 156.112C242.354 152.111 243.819 147.87 244.725 143.494C244.954 142.343 243.188 141.846 242.951 143.005L242.959 142.982Z" fill="#1A1A1A"/>
<path d="M237.296 161.482C237.304 161.587 237.304 161.693 237.296 161.798V161.553C237.264 161.8 237.201 162.041 237.107 162.271L237.193 162.05C237.098 162.27 236.979 162.479 236.838 162.673L236.98 162.484L236.925 162.555C236.839 162.635 236.774 162.735 236.736 162.847C236.678 162.956 236.651 163.078 236.657 163.202C236.658 163.444 236.754 163.676 236.925 163.848C237.098 164.02 237.332 164.117 237.576 164.117C237.82 164.117 238.054 164.02 238.226 163.848C238.374 163.672 238.508 163.484 238.629 163.288C238.742 163.085 238.837 162.871 238.912 162.65C239.05 162.276 239.122 161.881 239.125 161.482C239.12 161.241 239.025 161.01 238.857 160.836C238.684 160.664 238.451 160.567 238.207 160.567C237.963 160.567 237.729 160.664 237.556 160.836C237.39 161.011 237.294 161.241 237.288 161.482H237.296Z" fill="#1A1A1A"/>
<path d="M133.634 345.843C134.883 346.775 135.885 347.999 136.552 349.408C137.218 350.818 137.53 352.369 137.459 353.926C137.403 355.101 139.233 355.101 139.288 353.926C139.357 352.049 138.961 350.185 138.136 348.498C137.31 346.811 136.081 345.354 134.556 344.257C134.345 344.136 134.094 344.103 133.858 344.165C133.622 344.227 133.42 344.379 133.295 344.589C133.178 344.8 133.147 345.049 133.209 345.282C133.271 345.516 133.42 345.716 133.626 345.843H133.634Z" fill="#1A1A1A"/>
<path d="M128.122 349.091C128.461 349.422 128.763 349.79 129.021 350.188C129.163 350.408 129.297 350.629 129.415 350.858C129.534 351.087 129.534 351.095 129.589 351.213C129.644 351.331 129.644 351.331 129.675 351.386L129.715 351.473C129.715 351.418 129.715 351.426 129.715 351.473C129.904 351.957 130.054 352.456 130.164 352.964C130.164 353.09 130.212 353.224 130.227 353.35C130.243 353.476 130.227 353.232 130.227 353.397V353.587C130.227 353.863 130.267 354.139 130.267 354.375C130.269 354.617 130.366 354.849 130.537 355.02C130.708 355.191 130.94 355.288 131.182 355.29C131.424 355.288 131.657 355.191 131.829 355.02C132.001 354.849 132.1 354.618 132.104 354.375C132.09 351.897 131.118 349.521 129.392 347.743C129.309 347.647 129.207 347.569 129.093 347.513C128.978 347.458 128.854 347.428 128.727 347.423C128.6 347.418 128.473 347.44 128.355 347.486C128.237 347.532 128.13 347.603 128.04 347.692C127.95 347.782 127.88 347.89 127.833 348.008C127.787 348.126 127.765 348.252 127.77 348.379C127.775 348.506 127.806 348.631 127.861 348.745C127.916 348.86 127.994 348.961 128.09 349.044L128.122 349.091Z" fill="#1A1A1A"/>
<path d="M205.254 354.336C206.359 355.781 207.042 357.505 207.225 359.314C207.409 361.124 207.087 362.95 206.295 364.588C205.767 365.637 207.352 366.567 207.873 365.51C208.83 363.596 209.239 361.455 209.055 359.323C208.871 357.191 208.102 355.151 206.832 353.429C206.704 353.224 206.503 353.076 206.27 353.015C206.037 352.953 205.79 352.983 205.578 353.098C205.37 353.223 205.22 353.423 205.158 353.657C205.096 353.892 205.128 354.141 205.247 354.352L205.254 354.336Z" fill="#1A1A1A"/>
<path d="M200.8 359.154C201.186 361.109 200.94 363.136 200.098 364.943C199.979 365.158 199.949 365.413 200.015 365.65C200.082 365.888 200.239 366.09 200.453 366.212C200.664 366.334 200.914 366.369 201.15 366.308C201.386 366.248 201.589 366.097 201.715 365.889C202.782 363.645 203.092 361.116 202.598 358.681C202.566 358.565 202.512 358.456 202.438 358.361C202.364 358.266 202.272 358.187 202.167 358.128C202.062 358.068 201.947 358.03 201.827 358.016C201.708 358.001 201.586 358.01 201.47 358.042C201.238 358.11 201.042 358.266 200.922 358.477C200.803 358.687 200.771 358.936 200.832 359.17L200.8 359.154Z" fill="#1A1A1A"/>
<path d="M225.002 349.549C226.124 350.487 226.937 351.741 227.336 353.147C227.736 354.554 227.703 356.048 227.242 357.435C226.863 358.563 228.638 359.012 229.016 357.924C229.561 356.225 229.594 354.404 229.112 352.686C228.629 350.969 227.653 349.431 226.304 348.263C226.127 348.099 225.894 348.007 225.653 348.007C225.411 348.007 225.179 348.099 225.002 348.263C224.834 348.438 224.74 348.671 224.74 348.914C224.74 349.157 224.834 349.39 225.002 349.565V349.549Z" fill="#1A1A1A"/>
<path d="M298.35 57.0787C298.579 57.0574 298.792 56.9515 298.947 56.7815C299.102 56.6116 299.188 56.3899 299.188 56.1599C299.188 55.93 299.102 55.7083 298.947 55.5384C298.792 55.3684 298.579 55.2624 298.35 55.2412C298.121 55.2624 297.908 55.3684 297.753 55.5384C297.599 55.7083 297.513 55.93 297.513 56.1599C297.513 56.3899 297.599 56.6116 297.753 56.7815C297.908 56.9515 298.121 57.0574 298.35 57.0787Z" fill="#1A1A1A"/>
<path d="M300.794 64.3892C301.023 64.368 301.236 64.262 301.391 64.0921C301.546 63.9221 301.632 63.7004 301.632 63.4705C301.632 63.2405 301.546 63.0189 301.391 62.8489C301.236 62.679 301.023 62.573 300.794 62.5518C300.566 62.573 300.353 62.679 300.198 62.8489C300.043 63.0189 299.957 63.2405 299.957 63.4705C299.957 63.7004 300.043 63.9221 300.198 64.0921C300.353 64.262 300.566 64.368 300.794 64.3892Z" fill="#1A1A1A"/>
<path d="M293.507 61.9522C293.736 61.931 293.949 61.825 294.104 61.655C294.259 61.4851 294.345 61.2634 294.345 61.0335C294.345 60.8035 294.259 60.5818 294.104 60.4119C293.949 60.2419 293.736 60.136 293.507 60.1147C293.278 60.136 293.066 60.2419 292.911 60.4119C292.756 60.5818 292.67 60.8035 292.67 61.0335C292.67 61.2634 292.756 61.4851 292.911 61.655C293.066 61.825 293.278 61.931 293.507 61.9522Z" fill="#1A1A1A"/>
<path d="M286.56 58.6954C286.789 58.6741 287.002 58.5682 287.157 58.3982C287.312 58.2283 287.398 58.0066 287.398 57.7766C287.398 57.5467 287.312 57.325 287.157 57.1551C287.002 56.9851 286.789 56.8791 286.56 56.8579C286.331 56.8791 286.118 56.9851 285.963 57.1551C285.809 57.325 285.723 57.5467 285.723 57.7766C285.723 58.0066 285.809 58.2283 285.963 58.3982C286.118 58.5682 286.331 58.6741 286.56 58.6954Z" fill="#1A1A1A"/>
<path d="M204.979 43.231C207.345 43.231 207.345 39.564 204.979 39.564C202.614 39.564 202.614 43.231 204.979 43.231Z" fill="white"/>
<path d="M233.329 41.4408C235.695 41.4408 235.695 37.7659 233.329 37.7659C230.963 37.7659 230.963 41.4408 233.329 41.4408Z" fill="white"/>
</svg>
