<svg width="1493" height="485" viewBox="0 0 1493 485" fill="none" xmlns="http://www.w3.org/2000/svg">
<g clip-path="url(#clip0_1448_16715)">
<g opacity="0.75">
<path opacity="0.75" d="M-7.31641 489.249C22.9465 458.264 47.7989 437.866 65.3581 424.712C73.2855 418.765 81.9957 412.59 102.359 397.335C124.16 381.04 135.644 372.406 145.96 364.1C176.49 339.508 181.742 329.567 206.743 307.384C233.033 284.061 238.671 284.893 284.709 252.63C301.089 241.151 331.967 219.414 366.629 190.055C410.775 152.677 436.698 130.731 469.685 94.2353C491.387 70.2383 502.009 55.5784 522.541 49.2644C530.776 46.7171 548.305 43.1388 584.643 59.0377C611.229 70.6843 633.337 86.4048 662.609 111.839C747.392 185.495 745.846 213.358 785.483 223.3C798.544 226.581 817.778 228.335 840.975 246.771C857.474 259.865 866.571 273.93 874.013 283.922C902.75 322.44 919.595 317.623 1018.04 379.741C1059.21 405.701 1070.22 415.345 1076.18 420.807C1106.13 448.224 1127.36 478.753 1140.93 500.975L-7.31641 489.249Z" fill="#B8D247"/>
<path opacity="0.75" d="M654.691 401.22C613.647 437.013 579.381 459.285 560.87 471.596C551.496 477.85 540.19 485.552 527.317 494.661L1140.5 500.926C1140.5 500.678 1140.5 500.44 1140.5 500.192C1126.92 478.029 1105.82 447.876 1076.21 420.757C1070.27 415.296 1059.24 405.651 1018.07 379.692C919.595 317.583 902.739 322.39 874.042 283.872C866.6 273.881 857.504 259.816 841.005 246.722C817.807 228.285 798.573 226.531 785.513 223.25C745.876 213.338 747.412 185.446 662.638 111.789C633.366 86.3551 611.259 70.6346 584.672 58.988C563.248 49.6013 548.355 47.0143 538.099 46.9746C535.017 49.4724 533.461 52.1884 533.144 55.0827C532.371 63.2105 542.251 67.1952 611.1 148.94C637.37 180.133 663.302 212.049 685.102 264.316C703.593 308.672 702.632 328.169 700.957 338.656C697.677 358.956 687.322 372.832 654.691 401.22Z" fill="#B8D247"/>
</g>
<path d="M353.599 482.688C383.871 449.165 408.714 427.081 426.273 412.858C434.201 406.445 442.911 399.734 463.274 383.231C485.075 365.587 496.559 356.25 506.875 347.25C537.405 320.646 542.667 309.892 567.658 285.885C593.948 260.649 599.596 261.541 645.624 226.63C662.004 214.211 692.882 190.68 727.544 158.921C771.7 118.461 797.613 94.7113 830.6 55.2218C852.312 29.2523 862.924 13.403 883.456 6.55376C891.701 3.80813 909.22 -0.0773715 945.558 17.1299C972.144 29.738 994.252 46.757 1023.52 74.2727C1108.31 153.985 1106.76 184.128 1146.4 194.892C1159.46 198.441 1178.7 200.344 1201.89 220.287C1218.38 234.461 1227.49 249.686 1234.92 260.49C1263.65 302.18 1280.5 296.976 1378.95 364.18C1420.12 392.28 1431.13 402.718 1437.09 408.625C1467.03 438.292 1488.27 471.329 1501.83 495.385L353.599 482.688Z" fill="#F2F0E5"/>
<path d="M1015.61 387.463C974.562 426.189 940.296 450.295 921.785 463.646C912.411 470.416 901.114 478.742 888.232 488.595L1501.42 495.385C1501.42 495.117 1501.42 494.85 1501.42 494.582C1487.83 470.605 1466.73 437.974 1437.13 408.625C1431.18 402.678 1420.16 392.28 1378.99 364.179C1280.52 296.976 1263.65 302.18 1234.96 260.49C1227.53 249.685 1218.42 234.461 1201.93 220.286C1178.73 200.343 1159.49 198.48 1146.44 194.892C1106.8 184.127 1108.34 153.985 1023.56 74.2723C994.291 46.7565 972.184 29.7375 945.597 17.1294C924.173 6.9795 909.28 4.1645 899.024 4.13477C895.952 6.83084 894.396 9.77471 894.119 12.897C893.346 21.6989 903.225 26.0106 972.075 114.475C998.344 148.226 1024.28 182.769 1046.08 239.367C1064.58 287.371 1063.62 308.464 1061.93 319.783C1058.59 341.689 1048.19 356.706 1015.61 387.463Z" fill="#F3F1E6"/>
<g opacity="0.95">
<path opacity="0.95" d="M1479.33 464.856C1480.15 466.055 1480.95 467.245 1481.74 468.434C1480.95 467.245 1480.15 466.055 1479.33 464.856Z" fill="#B8D247"/>
<path opacity="0.95" d="M1471.32 453.596C1472.11 454.667 1472.87 455.727 1473.63 456.798C1472.87 455.737 1472.14 454.667 1471.32 453.596Z" fill="#B8D247"/>
<path opacity="0.95" d="M1475.43 459.266C1476.23 460.396 1477 461.516 1477.77 462.636C1477 461.516 1476.23 460.396 1475.43 459.266Z" fill="#B8D247"/>
<path opacity="0.95" d="M1467.03 447.877C1467.81 448.868 1468.56 449.859 1469.31 450.92C1468.56 449.909 1467.81 448.898 1467.03 447.877Z" fill="#B8D247"/>
<path opacity="0.95" d="M1452.97 430.6C1453.7 431.443 1454.4 432.285 1455.11 433.128C1454.4 432.285 1453.7 431.443 1452.97 430.6Z" fill="#B8D247"/>
<path opacity="0.95" d="M1462.53 442.128C1463.31 443.119 1464.05 444.11 1464.8 445.022C1464.05 444.061 1463.31 443.089 1462.53 442.128Z" fill="#B8D247"/>
<path opacity="0.95" d="M1457.86 436.359C1458.61 437.271 1459.34 438.183 1460.08 439.095C1459.34 438.183 1458.61 437.271 1457.86 436.359Z" fill="#B8D247"/>
<path opacity="0.95" d="M1449.91 427.141C1449.23 426.377 1448.57 425.614 1447.93 424.861C1448.57 425.614 1449.23 426.377 1449.91 427.141Z" fill="#B8D247"/>
<path opacity="0.95" d="M1442.61 419.162C1443.2 419.786 1443.77 420.421 1444.35 421.045C1443.77 420.421 1443.2 419.786 1442.61 419.162Z" fill="#B8D247"/>
<path opacity="0.95" d="M1483.04 470.367C1483.88 471.626 1484.69 472.875 1485.5 474.124C1484.69 472.875 1483.88 471.596 1483.04 470.367Z" fill="#B8D247"/>
<path opacity="0.95" d="M1486.56 475.759C1487.42 477.087 1488.24 478.396 1489.05 479.724C1488.24 478.386 1487.42 477.087 1486.56 475.759Z" fill="#B8D247"/>
<path opacity="0.95" d="M1489.9 481.042C1490.78 482.43 1491.62 483.808 1492.45 485.176C1491.62 483.808 1490.78 482.44 1489.9 481.042Z" fill="#B8D247"/>
<path opacity="0.55" d="M888.233 494.463C901.115 484.492 912.411 476.057 921.785 469.207C940.276 455.697 974.562 431.304 1015.61 392.102C1048.19 360.978 1058.59 345.773 1061.85 323.57C1063.54 312.112 1064.5 290.761 1046 242.182C1024.2 184.93 998.265 150 971.996 115.814C903.146 26.2785 893.267 21.9172 894.039 13.0063C894.317 9.8444 895.873 6.87081 898.945 4.13509C899.549 4.13509 900.173 4.13509 900.807 4.13509C894.927 3.83971 889.044 4.65687 883.466 6.5437C862.934 13.4821 852.321 29.5198 830.61 55.8065C797.612 95.7718 771.7 119.808 727.554 160.755C692.872 192.9 662.014 216.708 645.634 229.287C599.606 264.613 593.957 263.711 567.668 289.255C542.677 313.549 537.415 324.432 506.885 351.373C496.569 360.473 485.084 369.929 463.284 387.78C442.92 404.482 434.2 411.272 426.283 417.764C408.724 432.166 383.881 454.508 353.608 488.447L1113.23 496.941L888.233 494.463Z" fill="#B8D247"/>
<path opacity="0.95" d="M918.525 6.98975C919.14 7.14834 919.764 7.32677 920.388 7.50519C919.764 7.32677 919.14 7.14834 918.525 6.98975Z" fill="#B8D247"/>
<path opacity="0.95" d="M913.055 5.73096L914.938 6.13737L913.055 5.73096Z" fill="#B8D247"/>
<path opacity="0.95" d="M915.79 6.30566L917.574 6.74179L915.79 6.30566Z" fill="#B8D247"/>
<path opacity="0.95" d="M907.654 4.73975C909.17 4.9479 910.766 5.21553 912.431 5.54263C910.766 5.24526 909.17 4.97764 907.654 4.73975Z" fill="#B8D247"/>
<path opacity="0.95" d="M901.193 4.18457L902.789 4.27378L901.193 4.18457Z" fill="#B8D247"/>
<path opacity="0.95" d="M903.344 4.31348L904.949 4.45222L903.344 4.31348Z" fill="#B8D247"/>
<path opacity="0.95" d="M905.445 4.50195L907.308 4.73982L905.445 4.50195Z" fill="#B8D247"/>
<path opacity="0.95" d="M924.213 8.64502C925.204 8.9622 926.195 9.2992 927.186 9.63621C926.195 9.2992 925.194 8.9622 924.213 8.64502Z" fill="#B8D247"/>
<path opacity="0.95" d="M934.875 12.5503L937.035 13.4424L934.875 12.5503Z" fill="#B8D247"/>
<path opacity="0.95" d="M921.319 7.7627C922.072 7.99067 922.836 8.21867 923.609 8.46648C922.836 8.21867 922.072 7.99067 921.319 7.7627Z" fill="#B8D247"/>
<path opacity="0.95" d="M938.334 13.9976C939.127 14.3346 939.93 14.6914 940.742 15.0582C939.93 14.6518 939.127 14.3346 938.334 13.9976Z" fill="#B8D247"/>
<path opacity="0.95" d="M931.477 11.2124C932.18 11.48 932.894 11.7476 933.607 12.0351L931.477 11.2124Z" fill="#B8D247"/>
<path opacity="0.95" d="M927.969 9.91357L930.347 10.7759L927.969 9.91357Z" fill="#B8D247"/>
<path opacity="0.95" d="M941.901 15.5737C943.1 16.1288 944.319 16.6938 945.568 17.2885C944.319 16.6938 943.1 16.1288 941.901 15.5737Z" fill="#B8D247"/>
</g>
<path d="M186.835 484.987C217.108 458.473 241.95 441.018 259.519 429.767C267.447 424.702 276.147 419.389 296.511 406.345C318.311 392.399 329.796 385.015 340.111 377.898C370.632 356.854 375.894 348.35 400.895 329.329C427.184 309.366 432.822 310.08 478.851 282.475C495.231 272.652 526.108 254.057 560.781 228.95C604.936 197.033 630.839 178.2 663.857 146.997C685.558 126.459 696.171 113.931 716.703 108.519C724.947 106.338 742.467 103.275 778.814 116.884C805.391 126.846 827.498 140.296 856.77 162.053C941.564 225.084 940.008 248.912 979.645 257.427C992.715 260.232 1011.95 261.739 1035.14 277.509C1051.63 288.719 1060.73 300.752 1068.17 309.297C1096.91 342.254 1113.76 338.141 1212.2 391.289C1253.37 413.502 1264.38 421.749 1270.34 426.417C1300.28 449.879 1321.51 475.977 1335.09 495.018L186.835 484.987Z" fill="#F3F1E6"/>
<path opacity="0.75" d="M848.843 409.686C807.799 440.314 773.533 459.375 755.022 469.921C745.648 475.273 734.352 481.865 721.47 489.656L1334.66 495.018V494.394C1321.08 475.432 1299.98 449.631 1270.38 426.417C1264.44 421.748 1253.41 413.531 1212.24 391.289C1113.77 338.141 1096.9 342.254 1068.21 309.297C1060.77 300.752 1051.67 288.719 1035.18 277.509C1011.98 261.739 992.746 260.232 979.685 257.427C940.048 248.912 941.594 225.084 856.81 162.053C827.538 140.296 805.431 126.846 778.854 116.884C757.42 108.846 742.527 106.625 732.231 106.605C729.149 108.737 727.594 111.066 727.277 113.544C726.504 120.482 736.383 123.912 805.243 193.831C831.502 220.514 857.435 247.822 879.235 292.545C897.736 330.498 896.774 347.18 895.09 356.131C891.83 373.467 881.425 385.361 848.843 409.686Z" fill="#B8D247"/>
<path d="M1215.04 401.009C1214.61 400.079 1211.47 393.048 1215.04 385.804C1216.56 382.842 1218.88 380.366 1221.73 378.66C1224.59 376.953 1227.87 376.085 1231.2 376.154C1231.56 375.231 1236.23 363.948 1247.6 361.714C1255.37 360.191 1261.54 363.782 1263.51 365.009C1268.89 368.38 1272.84 373.61 1274.61 379.704C1277.76 379 1281 378.828 1284.21 379.194C1287.75 379.608 1296.24 380.573 1301.37 387.81C1306.94 395.647 1304.13 405.117 1303.39 407.571C1301.9 412.458 1299.08 416.836 1295.25 420.219C1297.47 422.31 1299.36 424.719 1300.87 427.367C1302.68 430.558 1308.17 440.118 1303.89 448.651C1302.03 452.256 1299.07 455.179 1295.44 456.999C1291.81 458.819 1287.7 459.444 1283.7 458.783C1283.17 465.676 1279.11 471.748 1273.1 474.492C1265.78 477.835 1256.74 475.732 1251.14 469.171C1243.45 475.574 1232.89 477.076 1224.13 472.975C1214.06 468.233 1208.35 457.005 1209.99 446.611C1211.25 438.664 1216.56 433.646 1218.58 431.916C1207.44 430.275 1200.81 420.584 1202.42 412.658C1203.54 407.164 1208.61 402.622 1215.04 401.009Z" fill="#F1EFE4"/>
<path opacity="0.55" d="M1230.04 396.598C1229.64 395.736 1226.72 389.209 1230.04 382.489C1231.44 379.736 1233.6 377.436 1236.25 375.851C1238.9 374.266 1241.95 373.461 1245.04 373.528C1245.37 372.667 1249.71 362.19 1260.28 360.115C1267.48 358.737 1273.21 362.066 1275.04 363.175C1280.04 366.3 1283.72 371.155 1285.38 376.816C1288.3 376.168 1291.31 376.01 1294.28 376.347C1297.58 376.733 1305.46 377.65 1310.22 384.35C1315.39 391.621 1312.77 400.416 1312.1 402.698C1310.7 407.23 1308.08 411.287 1304.51 414.415C1306.57 416.345 1308.33 418.573 1309.73 421.025C1311.42 423.982 1316.51 432.86 1312.54 440.787C1310.81 444.133 1308.07 446.846 1304.7 448.536C1301.33 450.226 1297.51 450.807 1293.8 450.195C1293.6 453.282 1292.59 456.26 1290.85 458.824C1289.12 461.388 1286.74 463.444 1283.95 464.78C1277.16 467.881 1268.79 465.931 1263.56 459.838C1259.98 462.96 1255.53 464.909 1250.81 465.421C1246.09 465.933 1241.32 464.984 1237.16 462.702C1232.99 460.419 1229.63 456.914 1227.52 452.658C1225.41 448.403 1224.65 443.602 1225.36 438.905C1226.52 431.523 1231.46 426.863 1233.33 425.257C1222.99 423.734 1216.83 414.739 1218.33 407.378C1219.36 402.319 1224.07 398.1 1230.04 396.598Z" fill="#B8D247"/>
<path d="M1245.86 486.988C1245.99 479.806 1246.12 472.621 1246.26 465.435C1244.28 464.662 1242.37 463.714 1240.55 462.602C1237.52 460.748 1234.78 459.066 1232.39 455.792C1231.16 454.11 1228.58 450.043 1227.49 442.744L1233.61 450.684C1233.94 443.868 1234.22 442.179 1234.43 442.179C1234.64 442.179 1234.5 445.329 1235.65 448.982C1236.09 450.36 1237.56 454.496 1240.96 456.929C1242.61 458.14 1244.63 458.739 1246.67 458.625C1246.81 452.008 1246.94 445.391 1247.08 438.774C1245.37 437.952 1243.84 436.794 1242.59 435.369C1239.34 431.75 1237.77 426.698 1238.1 426.298C1238.44 425.899 1239.63 428.545 1242.59 430.834C1243.82 431.797 1245.2 432.562 1246.67 433.101V418.923C1244.18 416.501 1242.59 413.296 1242.18 409.846C1241.99 408.34 1241.99 406.816 1242.18 405.31L1247.08 413.816C1246.62 394.02 1246.97 388.92 1247.49 388.858C1248.01 388.795 1248.83 393.6 1249.12 396.798C1249.32 399.063 1249.32 401.342 1249.12 403.608C1253.39 396.681 1254.58 395.412 1254.83 395.667C1255.2 396.026 1253.76 399.741 1252.76 401.905C1252.06 403.476 1251.24 404.992 1250.32 406.441C1250.18 412.309 1250.04 418.17 1249.91 424.024C1251.69 423.055 1253.22 421.698 1254.4 420.054C1255.89 418.027 1256.66 415.918 1256.85 416.083C1257.04 416.249 1256.78 417.4 1255.22 422.321C1260.9 421.894 1262.11 422.073 1262.15 422.321C1262.19 422.714 1259.27 423.1 1255.62 425.161C1253.7 426.262 1251.92 427.595 1250.32 429.131C1250.45 435.564 1250.59 441.997 1250.72 448.431C1252.42 448.053 1254.06 447.481 1255.62 446.728C1262.29 443.53 1266.65 437.63 1269.09 433.68C1269.27 435.393 1269.13 437.125 1268.69 438.788C1268.36 440.112 1267.76 441.352 1266.91 442.422C1266.06 443.493 1265 444.369 1263.78 444.991L1274.03 443.909C1272.82 445.213 1271.44 446.358 1269.94 447.314C1265.06 450.367 1262.04 448.961 1257.7 451.284C1256 452.187 1253.64 453.91 1251.16 457.522L1252.8 486.471L1245.86 486.988Z" fill="#8A8B92"/>
<path d="M1280.05 392.214C1279.93 393.696 1281.61 394.282 1282.75 393.682C1283.09 393.503 1283.39 393.27 1283.66 392.993C1283.86 392.786 1283.76 392.773 1283.97 392.945C1284.19 393.117 1284.28 393.228 1284.43 393.365C1284.89 393.793 1285.39 394.475 1286.1 394.193C1286.7 393.872 1287.21 393.396 1287.58 392.814C1287.75 392.58 1287.58 392.649 1287.81 392.752C1287.96 392.849 1288.09 392.96 1288.21 393.083C1288.43 393.286 1288.66 393.471 1288.9 393.634C1290.34 394.461 1291.51 392.855 1292.22 391.794C1292.56 391.291 1291.75 390.815 1291.42 391.318C1291.08 391.93 1290.61 392.456 1290.04 392.855C1289.48 393.124 1289.01 392.531 1288.62 392.207C1288.23 391.883 1287.83 391.56 1287.34 391.753C1286.86 391.946 1286.66 392.511 1286.32 392.855C1286.14 393.035 1285.9 393.331 1285.68 393.255C1285.46 393.179 1285.12 392.738 1284.92 392.566C1284.6 392.269 1284.24 391.794 1283.76 391.835C1283.28 391.877 1282.86 392.524 1282.42 392.786C1281.86 393.124 1280.91 393.083 1280.98 392.221C1281.02 391.622 1280.09 391.622 1280.04 392.221L1280.05 392.214Z" fill="#8A8B92"/>
<path d="M1264.29 403.856C1264.23 405.124 1265.84 405.51 1266.8 405.159C1267.09 405.049 1267.36 404.898 1267.61 404.711C1267.68 404.662 1267.8 404.518 1267.89 404.497C1268.07 404.456 1268.28 404.697 1268.42 404.8C1268.88 405.152 1269.46 405.82 1270.11 405.675C1270.67 405.483 1271.16 405.134 1271.53 404.669C1271.66 404.524 1271.64 404.497 1271.82 404.545C1271.95 404.596 1272.06 404.669 1272.16 404.759C1272.43 404.931 1272.68 405.138 1272.96 405.283C1274.23 405.972 1275.3 404.979 1276.09 404.021C1276.42 403.621 1275.84 403.036 1275.5 403.442C1275.16 403.903 1274.74 404.294 1274.25 404.593C1273.72 404.869 1273.27 404.531 1272.87 404.228C1272.47 403.925 1272.11 403.628 1271.68 403.656C1271.24 403.684 1270.95 404.159 1270.62 404.442C1270.44 404.593 1270.1 404.904 1269.84 404.828C1269.59 404.68 1269.36 404.5 1269.15 404.29C1268.78 404.007 1268.36 403.532 1267.84 403.649C1267.32 403.766 1267.09 404.173 1266.67 404.338C1266.25 404.504 1265.14 404.566 1265.17 403.849C1265.17 403.318 1264.37 403.325 1264.35 403.849L1264.29 403.856Z" fill="#8A8B92"/>
<path d="M1219.49 416.938C1219.42 418.317 1221.13 418.744 1222.17 418.317C1222.48 418.201 1222.76 418.041 1223.02 417.841C1223.09 417.793 1223.25 417.607 1223.34 417.593C1223.55 417.552 1223.75 417.807 1223.9 417.917C1224.39 418.296 1225.02 419.027 1225.71 418.868C1226.31 418.653 1226.84 418.27 1227.23 417.765C1227.49 417.469 1227.61 417.648 1227.92 417.848C1228.2 418.057 1228.48 418.251 1228.78 418.427C1230.16 419.116 1231.3 418.069 1232.13 417.048C1232.49 416.6 1231.86 415.966 1231.5 416.414C1231.13 416.919 1230.68 417.351 1230.16 417.689C1229.59 417.993 1229.12 417.621 1228.66 417.297C1228.21 416.973 1227.85 416.642 1227.38 416.669C1226.9 416.697 1226.59 417.221 1226.24 417.531C1226.05 417.696 1225.69 418.048 1225.41 417.965C1225.14 417.882 1224.84 417.531 1224.65 417.379C1224.25 417.069 1223.79 416.552 1223.27 416.69C1222.75 416.828 1222.46 417.269 1222.02 417.462C1221.57 417.655 1220.39 417.71 1220.42 416.924C1220.42 416.352 1219.56 416.352 1219.53 416.924L1219.49 416.938Z" fill="#8A8B92"/>
<path d="M1234.35 468.612C1234.26 470.032 1235.99 470.563 1237.11 470.17C1237.45 470.042 1237.77 469.866 1238.06 469.646C1238.14 469.584 1238.33 469.336 1238.43 469.329C1238.66 469.329 1238.94 469.625 1239.12 469.763C1239.65 470.184 1240.25 470.908 1241.01 470.68C1241.32 470.564 1241.6 470.391 1241.85 470.17C1242 470.046 1242.15 469.915 1242.29 469.777C1242.43 469.639 1242.52 469.419 1242.67 469.343C1243 469.157 1243.96 470.122 1244.35 470.294C1245.78 470.935 1246.97 469.605 1247.79 468.543C1248.17 468.047 1247.33 467.571 1246.97 468.054C1246.59 468.575 1246.13 469.022 1245.59 469.37C1244.97 469.729 1244.44 469.267 1243.96 468.902C1243.58 468.626 1243.11 468.212 1242.62 468.288C1242.12 468.364 1241.78 468.978 1241.39 469.302C1241.13 469.536 1240.84 469.825 1240.5 469.639C1240.18 469.436 1239.89 469.206 1239.61 468.95C1239.22 468.64 1238.79 468.185 1238.23 468.371C1237.68 468.557 1237.35 469.109 1236.77 469.302C1236.2 469.495 1235.29 469.364 1235.33 468.612C1235.33 467.992 1234.41 467.992 1234.37 468.612H1234.35Z" fill="#8A8B92"/>
<path d="M1229.78 388.279C1229.74 388.557 1229.79 388.841 1229.91 389.096C1230.02 389.351 1230.21 389.567 1230.45 389.717C1230.69 389.866 1230.97 389.945 1231.25 389.941C1231.53 389.938 1231.8 389.854 1232.04 389.699C1232.32 389.52 1232.57 389.299 1232.78 389.044C1232.85 388.968 1232.91 388.892 1232.97 388.809C1233.04 388.727 1233.11 388.658 1232.97 388.727C1233.11 388.851 1233.23 388.99 1233.33 389.14C1233.72 389.581 1234.19 390.402 1234.88 390.085C1235.17 389.922 1235.42 389.698 1235.61 389.43C1235.86 389.181 1236.07 388.892 1236.22 388.575C1236.28 388.368 1236.22 388.465 1236.32 388.541C1236.45 388.652 1236.56 388.774 1236.67 388.906C1236.85 389.116 1237.07 389.3 1237.3 389.45C1238.58 390.209 1239.62 388.348 1240.13 387.445C1240.18 387.345 1240.19 387.23 1240.16 387.122C1240.13 387.014 1240.06 386.923 1239.96 386.867C1239.87 386.811 1239.75 386.794 1239.64 386.821C1239.53 386.848 1239.44 386.916 1239.38 387.01C1239.08 387.578 1238.71 388.1 1238.26 388.561C1237.8 388.996 1237.49 388.492 1237.15 388.148C1236.81 387.803 1236.46 387.41 1235.96 387.617C1235.46 387.824 1235.31 388.451 1235 388.809C1234.92 388.906 1234.84 389.002 1234.75 389.092L1234.59 389.244C1234.66 389.326 1234.66 389.333 1234.59 389.244C1234.36 389.14 1234.11 388.699 1233.94 388.506C1233.64 388.168 1233.29 387.631 1232.77 387.817C1232.24 388.003 1232.08 388.623 1231.6 388.892C1231.04 389.237 1230.6 388.851 1230.66 388.203C1230.72 387.555 1229.85 387.652 1229.79 388.203L1229.78 388.279Z" fill="#8A8B92"/>
<path d="M1271.22 427.884C1271.17 429.152 1272.78 429.531 1273.74 429.179C1274.03 429.074 1274.3 428.925 1274.55 428.738C1274.62 428.683 1274.74 428.538 1274.82 428.525C1275.01 428.476 1275.22 428.724 1275.36 428.828C1275.81 429.172 1276.41 429.841 1277.05 429.696C1277.6 429.506 1278.09 429.159 1278.46 428.697C1278.6 428.545 1278.58 428.525 1278.76 428.566C1278.88 428.621 1279 428.693 1279.1 428.78C1279.36 428.971 1279.62 429.148 1279.9 429.31C1281.17 430 1282.24 429 1283.02 428.049C1283.36 427.642 1282.78 427.056 1282.44 427.47C1282.1 427.928 1281.67 428.318 1281.19 428.621C1280.66 428.897 1280.21 428.552 1279.81 428.256C1279.48 427.945 1279.07 427.743 1278.62 427.677C1278.14 427.677 1277.89 428.18 1277.56 428.463C1277.38 428.614 1277.04 428.931 1276.78 428.855C1276.52 428.707 1276.29 428.523 1276.09 428.311C1275.72 428.028 1275.29 427.56 1274.77 427.67C1274.25 427.78 1274.01 428.201 1273.6 428.359C1273.19 428.518 1272.07 428.587 1272.1 427.87C1272.1 427.339 1271.3 427.339 1271.28 427.87L1271.22 427.884Z" fill="#8A8B92"/>
<path d="M189.83 307.81C187.83 303.9 183.27 293.46 186.17 281.33C190.46 263.47 208.49 252.33 225.44 251.19C234.213 250.705 242.938 252.777 250.557 257.154C258.176 261.532 264.36 268.026 268.36 275.85C276.07 291.08 272.19 305.91 271.1 309.63C274.25 310.563 277.307 311.788 280.23 313.29C283.86 315.15 303.3 325.16 305.8 342.51C307.86 356.79 297.96 372.72 281.14 380.86C282.824 382.87 284.352 385.006 285.71 387.25C289.663 393.926 292.191 401.349 293.134 409.051C294.078 416.753 293.415 424.567 291.19 432C285.46 450.33 271.12 459.79 267.45 462.13C234 483.52 175.08 469.18 156 432.91C154.19 429.47 140.74 402.91 154.17 381.77C160.39 372.01 169.82 367.4 175.17 365.34C172.398 364.009 169.914 362.147 167.86 359.86C160.04 351.05 160.75 337.63 164.21 328.81C170.71 312.38 188.2 308.17 189.83 307.81Z" fill="#F1EFE4"/>
<path d="M214.31 451.24C203.396 445.641 194.379 436.944 188.39 426.24C184.296 418.777 181.81 410.541 181.09 402.06C183.762 408.048 187.488 413.508 192.09 418.18C198.349 424.56 206.244 429.092 214.91 431.28C215.25 421.947 215.61 412.553 215.99 403.1C216.23 397.033 216.48 390.977 216.74 384.93C214.469 384.031 212.409 382.672 210.688 380.939C208.968 379.206 207.623 377.137 206.74 374.86C205.401 371.322 205.083 367.48 205.82 363.77C207.095 367.32 209.723 370.221 213.13 371.84C215.069 372.683 217.18 373.053 219.29 372.92C220.001 363.589 221.364 354.32 223.37 345.18C223.78 343.29 227.37 326.99 229.08 327.18C230.32 327.36 230.08 336.18 229.89 345.95C229.73 353.18 229.37 359.11 229.08 363.08L242.35 350.63C242.952 354.342 242.639 358.145 241.44 361.71C239.504 367.117 235.698 371.654 230.71 374.5C230.33 389.04 229.947 403.583 229.56 418.13C234.112 415.524 238.333 412.378 242.13 408.76C246.21 404.881 249.775 400.495 252.74 395.71C252.795 400.709 251.966 405.679 250.29 410.39C245.15 424.76 233.58 431.99 229.56 434.26L228.65 454.41C232.596 452.103 236.283 449.381 239.65 446.29C246.45 440.06 248.91 435.09 250.26 435.69C251.9 436.41 250.91 444.93 247 452C241.86 461.28 233.05 465.62 228.23 467.5C228.497 476.2 228.77 484.903 229.05 493.61H211.05C212.137 479.503 213.223 465.38 214.31 451.24Z" fill="#8A8B92"/>
<g opacity="0.55">
<path opacity="0.55" d="M211.05 307.81C209.05 303.9 204.49 293.46 207.4 281.33C211.68 263.47 229.72 252.33 246.66 251.19C255.433 250.704 264.159 252.775 271.778 257.153C279.397 261.53 285.581 268.026 289.58 275.85C297.29 291.08 293.41 305.91 292.32 309.63C295.471 310.563 298.527 311.789 301.45 313.29C305.08 315.15 324.52 325.16 327.02 342.51C329.08 356.79 319.18 372.72 302.37 380.86C304.054 382.868 305.578 385.005 306.93 387.25C310.886 393.926 313.415 401.349 314.359 409.051C315.302 416.753 314.638 424.567 312.41 432C306.69 450.33 292.35 459.79 288.67 462.13C255.18 483.52 196.3 469.18 177.26 432.91C175.46 429.47 162 402.91 175.44 381.77C181.65 372.01 191.09 367.4 196.44 365.34C193.67 364.007 191.186 362.146 189.13 359.86C181.31 351.05 182.02 337.63 185.48 328.81C191.93 312.38 209.42 308.17 211.05 307.81Z" fill="#B8D247"/>
</g>
<path d="M477.511 191.67C479.907 155.038 483.505 149.265 485.785 149.128H485.99C494.373 158.075 502.761 167.016 511.153 175.953L477.511 191.67Z" fill="#1A1A1A"/>
<path d="M600.645 190.535C598.249 153.903 594.651 148.13 592.371 148H592.166L566.996 174.804L600.645 190.535Z" fill="#1A1A1A"/>
<path opacity="0.3" d="M573.604 453.516C573.092 451.395 583.394 449.904 594.542 440.521C605.813 431.048 609.916 420.276 617.616 401.85C629.495 373.445 635.434 359.246 638.609 353.918C646.576 340.567 662.967 313.107 692.649 306.527C708.549 302.998 722.557 306.732 730.743 309.755C725.708 311.294 721.122 314.039 717.383 317.751C703.955 331.43 712.269 350.328 706.371 381.215C703.64 395.407 700.603 411.432 688.465 424.448C677.542 436.123 663.008 439.796 634.335 446.662C605.663 453.529 574.485 457.189 573.604 453.516Z" fill="#1A1A1A" stroke="#1A1A1A" stroke-width="0.55" stroke-miterlimit="10"/>
<path d="M585.627 470.779C584.978 468.727 595.184 466.504 605.629 456.416C616.218 446.156 619.563 435.151 625.973 416.24C635.858 387.076 640.801 372.467 643.607 366.961C650.631 353.091 665.084 324.556 694.241 315.931C709.861 311.315 724.087 314.064 732.471 316.513C727.547 318.392 723.154 321.443 719.671 325.404C707.219 339.972 716.824 358.234 713.076 389.484C711.349 403.847 709.403 420.029 698.194 433.852C688.131 446.259 673.863 450.951 645.73 459.767C617.597 468.583 586.781 474.376 585.627 470.779Z" fill="#E3875E" stroke="#1A1A1A" stroke-width="1.65" stroke-miterlimit="10"/>
<path d="M433.328 487.241C432.646 459.466 432.987 430.049 434.735 399.168C434.735 399.168 436.564 346.162 457.208 232.516C459.782 218.358 463.352 200.329 478.979 186.691C498.449 169.702 525.237 169.449 537.266 169.339C548.339 169.23 580.575 168.929 601.868 188.982C617.269 203.482 619.829 221.922 622.239 241.367C637.51 364.998 636.281 413.573 636.281 413.573C636.377 432.415 636.404 457.523 636.124 487.241" fill="#FCDAB5"/>
<path d="M433.328 487.241C432.646 459.466 432.987 430.049 434.735 399.168C434.735 399.168 436.564 346.162 457.208 232.516C459.782 218.358 463.352 200.329 478.979 186.691C498.449 169.702 525.237 169.449 537.266 169.339C548.339 169.23 580.575 168.929 601.868 188.982C617.269 203.482 619.829 221.922 622.239 241.367C637.51 364.998 636.281 413.573 636.281 413.573C636.377 432.415 636.404 457.523 636.124 487.241" stroke="#1A1A1A" stroke-width="1.65" stroke-linecap="round" stroke-linejoin="round"/>
<path d="M450.982 279.716C454.28 290.447 458.983 298.539 465.387 312.231C469.927 321.937 478.303 340.007 484.502 361.216C485.949 366.175 487.137 370.839 488.134 375.278C490.673 386.674 492.454 398.226 493.465 409.859C496.442 441.28 494.64 481.968 494.401 487.077H565.918C565.338 475.895 564.041 442.49 570.014 412.102C571.702 403.703 573.826 395.398 576.376 387.22C579.549 377.348 583.427 367.718 587.982 358.405C595.293 343.611 599.164 340.308 605.868 324.638C608.257 319.05 609.691 314.837 611.009 311.233C620.716 284.805 622.969 272.767 621.87 259.587C620.983 248.979 619.89 235.847 609.514 229.931C598.632 223.734 581.783 227.879 576.192 229.247C563.071 232.475 559.548 237.181 554.101 235.245C546.148 232.414 545.226 219.268 544.543 209.084C543.699 195.898 545.351 182.67 549.411 170.099C546.646 169.921 544.243 169.825 542.297 169.77C537.73 169.654 534.242 169.77 532.938 169.77C530.268 169.846 527.982 169.976 526.2 170.099C530.714 182.465 532.872 195.571 532.562 208.735C532.282 218.837 531.88 228.782 524.889 232.222C520.11 234.596 514.342 232.523 503.917 229.89C479.819 223.81 477.416 221.758 471.347 222.893C467.084 223.745 463.107 225.668 459.789 228.481C459.53 229.849 459.281 231.18 459.045 232.475C455.964 249.602 453.276 265.348 450.982 279.716Z" fill="#F2F0E5"/>
<path d="M509.569 218.844C518.049 218.844 524.923 211.957 524.923 203.462C524.923 194.966 518.049 188.08 509.569 188.08C501.09 188.08 494.216 194.966 494.216 203.462C494.216 211.957 501.09 218.844 509.569 218.844Z" fill="#F2F0E5" stroke="#1A1A1A" stroke-width="1.65" stroke-miterlimit="10"/>
<path d="M516.124 212.086C520.984 212.086 524.924 208.139 524.924 203.27C524.924 198.401 520.984 194.454 516.124 194.454C511.264 194.454 507.324 198.401 507.324 203.27C507.324 208.139 511.264 212.086 516.124 212.086Z" fill="#1A1A1A" stroke="#1A1A1A" stroke-width="1.65" stroke-miterlimit="10"/>
<path d="M571.727 218.844C580.207 218.844 587.081 211.957 587.081 203.462C587.081 194.966 580.207 188.08 571.727 188.08C563.248 188.08 556.374 194.966 556.374 203.462C556.374 211.957 563.248 218.844 571.727 218.844Z" fill="#F2F0E5" stroke="#1A1A1A" stroke-width="1.65" stroke-miterlimit="10"/>
<path d="M578.274 212.086C583.134 212.086 587.074 208.139 587.074 203.27C587.074 198.401 583.134 194.454 578.274 194.454C573.414 194.454 569.475 198.401 569.475 203.27C569.475 208.139 573.414 212.086 578.274 212.086Z" fill="#1A1A1A" stroke="#1A1A1A" stroke-width="1.65" stroke-miterlimit="10"/>
<path d="M525.224 218.235C526.07 216.183 529.784 216.04 535.607 215.766C542.113 215.465 549.943 215.082 551.193 218.235C552.558 221.758 545.916 230.355 538.072 230.28C530.228 230.204 523.81 221.593 525.224 218.235Z" fill="#1A1A1A" stroke="#1A1A1A" stroke-width="1.65" stroke-miterlimit="10"/>
<path d="M537.156 229.076V242.714C537.156 244.889 540.529 244.889 540.529 242.714V229.076C540.529 226.901 537.156 226.901 537.156 229.076Z" fill="#1A1A1A"/>
<path d="M530.247 231.654C530.396 231.654 530.538 231.595 530.643 231.49C530.748 231.385 530.807 231.242 530.807 231.094C530.807 230.945 530.748 230.802 530.643 230.697C530.538 230.592 530.396 230.533 530.247 230.533C530.099 230.533 529.956 230.592 529.851 230.697C529.746 230.802 529.688 230.945 529.688 231.094C529.688 231.242 529.746 231.385 529.851 231.49C529.956 231.595 530.099 231.654 530.247 231.654Z" fill="#1A1A1A"/>
<path d="M532.377 234.582C532.526 234.582 532.668 234.523 532.773 234.417C532.878 234.312 532.937 234.17 532.937 234.021C532.937 233.872 532.878 233.729 532.773 233.624C532.668 233.519 532.526 233.46 532.377 233.46C532.229 233.46 532.086 233.519 531.981 233.624C531.876 233.729 531.817 233.872 531.817 234.021C531.817 234.17 531.876 234.312 531.981 234.417C532.086 234.523 532.229 234.582 532.377 234.582V234.582Z" fill="#1A1A1A"/>
<path d="M525.933 233.679C526.072 233.664 526.2 233.597 526.293 233.493C526.386 233.389 526.438 233.254 526.438 233.115C526.438 232.975 526.386 232.84 526.293 232.736C526.2 232.632 526.072 232.566 525.933 232.55C525.795 232.566 525.666 232.632 525.573 232.736C525.48 232.84 525.429 232.975 525.429 233.115C525.429 233.254 525.48 233.389 525.573 233.493C525.666 233.597 525.795 233.664 525.933 233.679V233.679Z" fill="#1A1A1A"/>
<path d="M546.079 233.535C546.217 233.52 546.346 233.454 546.439 233.35C546.532 233.246 546.583 233.111 546.583 232.971C546.583 232.831 546.532 232.696 546.439 232.592C546.346 232.488 546.217 232.422 546.079 232.407C545.94 232.422 545.812 232.488 545.719 232.592C545.626 232.696 545.574 232.831 545.574 232.971C545.574 233.111 545.626 233.246 545.719 233.35C545.812 233.454 545.94 233.52 546.079 233.535V233.535Z" fill="#1A1A1A"/>
<path d="M543.506 235.758C543.655 235.758 543.797 235.699 543.902 235.594C544.007 235.489 544.066 235.346 544.066 235.198C544.066 235.049 544.007 234.906 543.902 234.801C543.797 234.696 543.655 234.637 543.506 234.637C543.358 234.637 543.215 234.696 543.11 234.801C543.005 234.906 542.946 235.049 542.946 235.198C542.946 235.346 543.005 235.489 543.11 235.594C543.215 235.699 543.358 235.758 543.506 235.758Z" fill="#1A1A1A"/>
<path d="M550.161 234.561C550.31 234.561 550.452 234.502 550.557 234.397C550.662 234.292 550.721 234.149 550.721 234C550.721 233.852 550.662 233.709 550.557 233.604C550.452 233.499 550.31 233.439 550.161 233.439C550.013 233.439 549.871 233.499 549.766 233.604C549.661 233.709 549.602 233.852 549.602 234C549.602 234.149 549.661 234.292 549.766 234.397C549.871 234.502 550.013 234.561 550.161 234.561Z" fill="#1A1A1A"/>
<path d="M541.984 228.994C554.349 229.267 566.712 229.103 579.073 228.501C579.79 228.501 579.797 227.339 579.073 227.373C566.717 227.975 554.354 228.141 541.984 227.872C541.835 227.872 541.693 227.931 541.588 228.036C541.483 228.142 541.424 228.284 541.424 228.433C541.424 228.582 541.483 228.724 541.588 228.83C541.693 228.935 541.835 228.994 541.984 228.994V228.994Z" fill="#1A1A1A"/>
<path d="M544.141 229.37C553.421 230.733 562.56 232.928 571.448 235.929C572.131 236.162 572.431 235.074 571.748 234.842C562.849 231.839 553.698 229.644 544.407 228.283C543.724 228.18 543.397 229.268 544.107 229.37H544.141Z" fill="#1A1A1A"/>
<path d="M536.276 226.183H496.326C496.187 226.198 496.059 226.264 495.966 226.368C495.873 226.472 495.821 226.607 495.821 226.747C495.821 226.887 495.873 227.022 495.966 227.126C496.059 227.23 496.187 227.296 496.326 227.311H536.276C536.415 227.296 536.543 227.23 536.636 227.126C536.729 227.022 536.781 226.887 536.781 226.747C536.781 226.607 536.729 226.472 536.636 226.368C536.543 226.264 536.415 226.198 536.276 226.183V226.183Z" fill="#1A1A1A"/>
<path d="M533.744 227.01C524.036 229.067 514.383 231.367 504.785 233.912C504.655 233.963 504.549 234.061 504.488 234.187C504.426 234.312 504.412 234.455 504.449 234.59C504.486 234.724 504.572 234.841 504.689 234.916C504.806 234.992 504.947 235.021 505.085 234.999C514.679 232.464 524.332 230.161 534.044 228.091C534.727 227.941 534.447 226.86 533.744 227.01Z" fill="#1A1A1A"/>
<path d="M558.06 196.144C558.678 194.836 559.499 193.633 560.49 192.58C564.92 187.895 571.303 187.895 572.662 187.895C574.438 187.834 576.21 188.087 577.898 188.641C580.629 189.591 581.748 190.966 585.018 192.019C586.114 192.376 587.241 192.628 588.384 192.772L583.892 194.639C581.44 192.895 578.621 191.739 575.652 191.26C573.666 190.98 571.651 190.98 569.665 191.26C565.447 191.881 561.455 193.561 558.06 196.144V196.144Z" fill="#1A1A1A"/>
<path d="M523.237 195.774C522.618 194.464 521.795 193.262 520.799 192.211C516.376 187.519 509.986 187.519 508.634 187.519C506.856 187.457 505.081 187.712 503.391 188.271C500.66 189.215 499.541 190.59 496.278 191.643C495.18 192 494.051 192.252 492.905 192.395L497.404 194.269C499.855 192.53 502.672 191.376 505.637 190.897C507.625 190.61 509.643 190.61 511.631 190.897C515.849 191.513 519.842 193.191 523.237 195.774V195.774Z" fill="#1A1A1A"/>
<path d="M573.604 184.715C576.639 184.893 579.539 186.033 581.885 187.97C582.1 188.173 582.385 188.286 582.68 188.286C582.976 188.286 583.26 188.173 583.476 187.97C583.683 187.757 583.799 187.471 583.799 187.173C583.799 186.876 583.683 186.59 583.476 186.377C580.688 184.047 577.228 182.675 573.604 182.464C573.322 182.486 573.058 182.615 572.865 182.823C572.672 183.032 572.565 183.305 572.565 183.589C572.565 183.874 572.672 184.147 572.865 184.356C573.058 184.564 573.322 184.692 573.604 184.715V184.715Z" fill="#1A1A1A"/>
<path d="M497.821 187.259C498.309 186.919 498.815 186.607 499.337 186.322C499.562 186.199 499.794 186.083 500.02 185.966L500.422 185.782L500.668 185.672C501.73 185.235 502.835 184.912 503.965 184.708C504.248 184.626 504.487 184.438 504.634 184.183C504.78 183.928 504.822 183.625 504.75 183.34C504.663 183.061 504.474 182.825 504.221 182.679C503.968 182.533 503.67 182.489 503.385 182.553C500.985 183.002 498.706 183.951 496.695 185.337C496.438 185.488 496.251 185.734 496.175 186.023C496.1 186.312 496.142 186.618 496.292 186.876C496.442 187.134 496.689 187.321 496.977 187.397C497.265 187.472 497.571 187.43 497.828 187.28L497.821 187.259Z" fill="#1A1A1A"/>
<path d="M528.719 220.745C529.271 220.53 529.837 220.352 530.412 220.212C530.658 220.15 530.91 220.096 531.156 220.054C531.382 220.007 531.61 219.973 531.839 219.952C532.92 219.843 534.01 219.878 535.082 220.054C535.366 220.121 535.666 220.077 535.919 219.931C536.173 219.785 536.361 219.548 536.447 219.268C536.517 218.983 536.474 218.681 536.328 218.426C536.182 218.172 535.943 217.983 535.662 217.9C533.119 217.426 530.495 217.662 528.077 218.584C527.797 218.668 527.559 218.857 527.413 219.112C527.267 219.366 527.224 219.667 527.292 219.952C527.372 220.236 527.56 220.477 527.815 220.624C528.07 220.771 528.373 220.812 528.658 220.738L528.719 220.745Z" fill="#F2F0E5"/>
<path d="M529.278 221.149C531.443 221.151 533.598 220.84 535.675 220.226C535.817 220.186 535.95 220.119 536.066 220.028C536.182 219.937 536.279 219.824 536.352 219.695C536.424 219.567 536.471 219.425 536.489 219.278C536.507 219.132 536.496 218.983 536.456 218.841C536.417 218.698 536.35 218.565 536.259 218.449C536.168 218.332 536.055 218.235 535.927 218.162C535.799 218.09 535.657 218.043 535.511 218.025C535.365 218.007 535.216 218.018 535.074 218.058C534.106 218.354 533.118 218.583 532.118 218.742C531.742 218.796 532.33 218.742 531.954 218.742C531.839 218.762 531.723 218.776 531.606 218.783C531.34 218.817 531.067 218.837 530.794 218.858C530.288 218.858 529.783 218.906 529.278 218.906C528.995 218.928 528.731 219.056 528.539 219.264C528.346 219.473 528.239 219.747 528.239 220.031C528.239 220.315 528.346 220.589 528.539 220.797C528.731 221.006 528.995 221.134 529.278 221.156V221.149Z" fill="#F2F0E5"/>
<path d="M539.28 219.494C539.563 219.472 539.827 219.344 540.019 219.135C540.212 218.927 540.319 218.653 540.319 218.369C540.319 218.085 540.212 217.811 540.019 217.602C539.827 217.394 539.563 217.266 539.28 217.244C538.997 217.266 538.733 217.394 538.541 217.602C538.348 217.811 538.241 218.085 538.241 218.369C538.241 218.653 538.348 218.927 538.541 219.135C538.733 219.344 538.997 219.472 539.28 219.494V219.494Z" fill="#F2F0E5"/>
<path d="M485.43 153.109C483.391 158.34 482.356 163.909 482.378 169.524C482.378 169.823 482.497 170.11 482.708 170.322C482.919 170.533 483.206 170.652 483.505 170.652C483.803 170.652 484.09 170.533 484.301 170.322C484.512 170.11 484.631 169.823 484.631 169.524C484.612 164.11 485.618 158.742 487.594 153.704C488.12 152.336 485.949 151.768 485.43 153.102V153.109Z" fill="#F2F0E5"/>
<path d="M481.573 174.9C481.49 176.04 481.522 177.186 481.669 178.32C481.681 178.615 481.797 178.896 481.997 179.113C482.21 179.323 482.496 179.441 482.795 179.441C482.943 179.443 483.089 179.415 483.225 179.358C483.361 179.302 483.484 179.219 483.587 179.113C483.694 179.011 483.778 178.888 483.835 178.751C483.891 178.615 483.919 178.468 483.915 178.32C483.768 177.186 483.736 176.04 483.819 174.9C483.818 174.603 483.699 174.319 483.489 174.109C483.28 173.899 482.996 173.78 482.7 173.778C482.404 173.784 482.121 173.903 481.911 174.112C481.702 174.321 481.58 174.604 481.573 174.9V174.9Z" fill="#F2F0E5"/>
<path d="M593.313 153.766C593.596 153.744 593.86 153.616 594.052 153.407C594.245 153.198 594.352 152.925 594.352 152.641C594.352 152.357 594.245 152.083 594.052 151.874C593.86 151.666 593.596 151.538 593.313 151.516C593.031 151.538 592.766 151.666 592.574 151.874C592.381 152.083 592.274 152.357 592.274 152.641C592.274 152.925 592.381 153.198 592.574 153.407C592.766 153.616 593.031 153.744 593.313 153.766Z" fill="#F2F0E5"/>
<path d="M593.457 156.659C594.127 159.253 594.583 161.897 594.822 164.565C594.831 164.86 594.952 165.141 595.16 165.349C595.368 165.558 595.648 165.679 595.942 165.687C596.092 165.689 596.242 165.661 596.381 165.604C596.521 165.547 596.648 165.463 596.755 165.357C596.861 165.251 596.946 165.124 597.003 164.985C597.061 164.845 597.09 164.696 597.089 164.545C596.833 161.673 596.342 158.828 595.621 156.037C595.541 155.749 595.351 155.505 595.092 155.358C594.832 155.211 594.526 155.174 594.239 155.253C593.952 155.333 593.708 155.524 593.561 155.784C593.415 156.043 593.377 156.351 593.457 156.638V156.659Z" fill="#F2F0E5"/>
<path d="M539.041 168.012C538.993 167.21 538.759 166.431 538.358 165.735C537.937 165.055 537.367 164.48 536.692 164.052C536.434 163.904 536.127 163.863 535.839 163.939C535.55 164.014 535.303 164.2 535.149 164.456C535.007 164.715 534.97 165.019 535.045 165.306C535.12 165.592 535.301 165.839 535.552 165.995L535.853 166.2L535.627 166.029C535.902 166.242 536.148 166.49 536.358 166.768L536.187 166.535C536.387 166.801 536.554 167.091 536.685 167.397L536.569 167.13C536.706 167.449 536.8 167.785 536.849 168.129L536.808 167.835C536.815 167.894 536.815 167.953 536.808 168.012C536.82 168.309 536.939 168.591 537.143 168.806C537.247 168.91 537.37 168.993 537.506 169.049C537.642 169.106 537.788 169.135 537.935 169.134C538.232 169.134 538.516 169.016 538.726 168.806C538.936 168.595 539.054 168.31 539.054 168.012H539.041Z" fill="#1A1A1A"/>
<path d="M539.641 168.648C539.716 168.457 539.573 168.799 539.641 168.648L539.702 168.505L539.846 168.19C539.948 167.985 540.051 167.78 540.16 167.581C540.38 167.177 540.624 166.787 540.89 166.412C540.945 166.323 541.006 166.241 541.068 166.159L541.184 166.008C541.273 165.885 541.047 166.172 541.143 166.056L541.587 165.523C541.898 165.18 542.226 164.854 542.57 164.545C542.779 164.332 542.896 164.046 542.896 163.748C542.896 163.45 542.779 163.163 542.57 162.951C542.356 162.745 542.071 162.63 541.774 162.63C541.478 162.63 541.193 162.745 540.979 162.951C539.442 164.364 538.243 166.106 537.47 168.046C537.412 168.262 537.418 168.491 537.49 168.703C537.561 168.915 537.694 169.101 537.871 169.237C538.048 169.374 538.261 169.454 538.484 169.469C538.707 169.483 538.929 169.431 539.122 169.319C539.364 169.152 539.546 168.913 539.641 168.635V168.648Z" fill="#1A1A1A"/>
<path d="M526.234 240.956L532.747 244.52L536.003 246.305C537.027 246.866 538.051 247.543 539.287 247.488C540.522 247.433 541.608 246.702 542.659 246.161L545.97 244.465L552.592 241.045C554.524 240.053 552.824 237.14 550.892 238.132L544.871 241.216L541.86 242.755L540.359 243.528C539.98 243.791 539.556 243.983 539.109 244.096C539.3 244.096 538.986 244.096 538.932 244.034C538.713 243.931 538.508 243.802 538.297 243.685L536.815 242.878L534.003 241.339L527.934 238.015C526.029 236.969 524.322 239.882 526.234 240.929V240.956Z" fill="#1A1A1A"/>
<path d="M515.829 334.049C516.709 335.383 517.9 336.483 519.299 337.252C520.698 338.02 522.264 338.436 523.859 338.462C525.455 338.489 527.033 338.125 528.456 337.402C529.88 336.68 531.106 335.621 532.029 334.316C532.252 333.929 532.314 333.47 532.201 333.037C532.089 332.605 531.811 332.234 531.429 332.004C531.04 331.789 530.583 331.732 530.153 331.845C529.723 331.959 529.354 332.234 529.121 332.613C528.498 333.408 527.697 334.045 526.784 334.475C525.872 334.905 524.871 335.115 523.863 335.089C522.854 335.063 521.866 334.802 520.976 334.326C520.086 333.85 519.32 333.172 518.738 332.346C518.504 331.968 518.134 331.694 517.705 331.581C517.276 331.468 516.819 331.524 516.43 331.738C516.047 331.967 515.77 332.338 515.657 332.77C515.545 333.203 515.607 333.662 515.829 334.049V334.049Z" fill="#E3875E"/>
<path d="M529.107 335.677C530.255 337.061 531.712 338.154 533.361 338.867C535.01 339.581 536.804 339.893 538.596 339.781C540.378 339.639 542.103 339.087 543.636 338.167C545.169 337.248 546.47 335.986 547.437 334.48C548.625 332.654 545.71 330.958 544.529 332.777C543.852 333.816 542.946 334.684 541.88 335.317C540.815 335.949 539.619 336.327 538.385 336.423C537.074 336.486 535.767 336.236 534.572 335.693C533.377 335.151 532.327 334.332 531.51 333.304C531.192 332.991 530.765 332.816 530.319 332.816C529.873 332.816 529.446 332.991 529.128 333.304C528.82 333.625 528.648 334.052 528.648 334.497C528.648 334.942 528.82 335.37 529.128 335.691L529.107 335.677Z" fill="#E3875E"/>
<path d="M545.062 333.865C545.873 335.081 546.979 336.072 548.276 336.745C549.573 337.417 551.019 337.75 552.479 337.712C553.939 337.673 555.365 337.265 556.625 336.526C557.885 335.786 558.938 334.739 559.685 333.482C559.809 333.29 559.894 333.075 559.933 332.85C559.972 332.625 559.965 332.394 559.912 332.171C559.86 331.949 559.762 331.739 559.627 331.555C559.491 331.372 559.319 331.217 559.122 331.102C558.925 330.987 558.707 330.912 558.48 330.884C558.254 330.856 558.024 330.874 557.805 330.937C557.585 331 557.381 331.108 557.204 331.252C557.028 331.397 556.882 331.576 556.777 331.779C556.335 332.507 555.727 333.119 555.002 333.564C554.776 333.701 554.544 333.817 554.319 333.933C554.251 333.967 554.073 334.029 554.237 333.967L553.827 334.111C553.576 334.189 553.321 334.252 553.063 334.303C552.981 334.303 552.81 334.35 552.995 334.303C552.851 334.303 552.708 334.303 552.564 334.337C552.149 334.373 551.73 334.347 551.322 334.262C551.063 334.207 550.803 334.138 550.544 334.056L550.209 333.933C550.1 333.892 550.1 333.892 550.209 333.933L550.045 333.858C549.811 333.738 549.583 333.606 549.363 333.461L549.062 333.263C548.823 333.099 549.206 333.386 548.98 333.201C548.775 333.03 548.579 332.847 548.393 332.654C548.284 332.545 548.188 332.435 548.093 332.319C547.888 332.073 548.305 332.627 547.977 332.162C547.743 331.784 547.374 331.51 546.944 331.397C546.515 331.283 546.059 331.339 545.669 331.553C545.287 331.782 545.009 332.153 544.897 332.586C544.784 333.018 544.846 333.478 545.069 333.865H545.062Z" fill="#E3875E"/>
<path d="M523.114 346.559C524.263 347.943 525.722 349.036 527.372 349.749C529.022 350.462 530.817 350.775 532.61 350.663C534.391 350.515 536.114 349.959 537.647 349.039C539.179 348.119 540.481 346.859 541.451 345.355C542.632 343.529 539.717 341.84 538.536 343.652C537.859 344.692 536.953 345.561 535.888 346.195C534.823 346.828 533.626 347.208 532.392 347.304C531.081 347.367 529.775 347.117 528.579 346.574C527.384 346.032 526.335 345.214 525.517 344.186C525.2 343.871 524.772 343.695 524.326 343.695C523.88 343.695 523.451 343.871 523.134 344.186C522.827 344.507 522.655 344.934 522.655 345.379C522.655 345.824 522.827 346.252 523.134 346.573L523.114 346.559Z" fill="#E3875E"/>
<path d="M539.068 344.746C539.881 345.967 540.99 346.96 542.291 347.634C543.592 348.309 545.042 348.641 546.506 348.602C547.97 348.562 549.4 348.151 550.662 347.408C551.925 346.664 552.979 345.612 553.725 344.35C553.951 343.963 554.015 343.501 553.902 343.067C553.788 342.633 553.507 342.261 553.121 342.035C552.734 341.808 552.274 341.744 551.84 341.858C551.407 341.971 551.036 342.253 550.81 342.64C550.373 343.369 549.766 343.982 549.042 344.425C548.817 344.562 548.584 344.685 548.359 344.801C548.298 344.801 548.113 344.897 548.284 344.835L547.868 344.979C547.622 345.054 547.362 345.109 547.11 345.171C547.021 345.171 546.857 345.212 547.042 345.171C546.898 345.171 546.748 345.171 546.605 345.205C546.191 345.237 545.775 345.212 545.369 345.129C545.106 345.073 544.846 345.003 544.591 344.917C544.475 344.883 544.361 344.841 544.249 344.794C544.147 344.753 544.14 344.753 544.249 344.794L544.086 344.719C543.847 344.589 543.615 344.466 543.403 344.322L543.109 344.124C542.87 343.953 543.246 344.247 543.021 344.063C542.814 343.89 542.617 343.705 542.434 343.509C542.331 343.406 542.229 343.29 542.133 343.18C541.928 342.927 542.345 343.481 542.017 343.023C541.785 342.645 541.416 342.372 540.988 342.258C540.56 342.145 540.105 342.201 539.717 342.414C539.332 342.642 539.054 343.013 538.94 343.445C538.826 343.878 538.887 344.338 539.109 344.726L539.068 344.746Z" fill="#E3875E"/>
<path d="M707.321 346.196C702.146 365.176 709.662 385.1 704.248 404.059C702.953 408.82 700.621 413.234 697.422 416.986C696.951 417.526 697.743 418.354 698.22 417.779C711.034 403.122 706.768 382.097 706.501 364.431C706.406 358.405 706.788 352.359 708.379 346.518C708.418 346.374 708.398 346.22 708.324 346.09C708.249 345.961 708.127 345.866 707.983 345.827C707.839 345.788 707.685 345.808 707.556 345.882C707.427 345.957 707.332 346.08 707.293 346.224L707.321 346.196Z" fill="#1A1A1A"/>
<path d="M693.831 421.541C692.644 424.118 690.694 426.267 688.247 427.696C688.118 427.772 688.025 427.895 687.987 428.039C687.949 428.184 687.97 428.337 688.045 428.466C688.121 428.595 688.244 428.688 688.388 428.726C688.532 428.764 688.685 428.743 688.813 428.668C691.436 427.138 693.525 424.839 694.801 422.081C694.87 421.951 694.887 421.8 694.849 421.658C694.811 421.516 694.72 421.393 694.596 421.315C694.468 421.242 694.316 421.222 694.173 421.259C694.03 421.296 693.908 421.387 693.831 421.513V421.541Z" fill="#1A1A1A"/>
<path d="M672.012 334.774C681.419 326.697 692.363 319.83 704.835 318.038C708.436 317.515 712.091 317.473 715.703 317.915C716.386 318.004 716.386 316.875 715.703 316.793C702.78 315.199 690.123 320.144 679.644 327.415C676.726 329.458 673.914 331.649 671.22 333.981C670.674 334.453 671.466 335.246 672.012 334.774V334.774Z" fill="#1A1A1A"/>
<path d="M444.312 351.524C440.837 369.307 440.216 387.439 440.305 405.495C440.305 410.591 440.393 415.679 440.462 420.775C440.477 420.914 440.543 421.042 440.647 421.135C440.751 421.229 440.885 421.28 441.025 421.28C441.164 421.28 441.299 421.229 441.403 421.135C441.507 421.042 441.573 420.914 441.588 420.775C441.336 402.869 441.09 384.888 443.076 367.057C443.65 361.948 444.442 356.866 445.398 351.825C445.534 351.141 444.455 350.813 444.312 351.524V351.524Z" fill="#1A1A1A"/>
<path d="M439.602 428.661V437.504C439.617 437.643 439.683 437.772 439.787 437.865C439.891 437.958 440.025 438.01 440.165 438.01C440.304 438.01 440.439 437.958 440.543 437.865C440.647 437.772 440.713 437.643 440.728 437.504V428.661C440.713 428.522 440.647 428.393 440.543 428.3C440.439 428.207 440.304 428.155 440.165 428.155C440.025 428.155 439.891 428.207 439.787 428.3C439.683 428.393 439.617 428.522 439.602 428.661V428.661Z" fill="#1A1A1A"/>
<path d="M618.777 276.2C619.419 279.988 619.795 283.816 619.904 287.656C619.904 288.375 621.051 288.381 621.03 287.656C620.913 283.715 620.52 279.786 619.856 275.899C619.74 275.215 618.654 275.489 618.777 276.2V276.2Z" fill="#1A1A1A"/>
<path d="M620.443 295.563C621.103 311.039 622.15 326.494 623.583 341.929C623.993 346.32 624.434 350.706 624.908 355.088C624.983 355.806 626.109 355.813 626.027 355.088C624.375 339.685 623.108 324.248 622.225 308.777C621.97 304.373 621.742 299.968 621.542 295.563C621.542 294.838 620.388 294.838 620.423 295.563H620.443Z" fill="#1A1A1A"/>
<path d="M581.647 199.953C583.811 199.953 583.818 196.574 581.647 196.574C579.476 196.574 579.476 199.953 581.647 199.953Z" fill="white"/>
<path d="M518.82 200.856C520.984 200.856 520.991 197.484 518.82 197.484C516.649 197.484 516.642 200.856 518.82 200.856Z" fill="white"/>
<path d="M847.525 506.979C846.87 476.471 847.194 444.165 848.869 410.244C848.869 410.244 850.621 352.026 870.411 227.208C872.881 211.697 876.273 191.863 891.284 176.859C909.947 158.203 935.62 157.928 947.155 157.822C957.774 157.71 988.676 157.378 1009.08 179.398C1023.86 195.325 1026.3 215.582 1028.61 236.938C1043.27 372.734 1042.07 426.087 1042.07 426.087C1042.16 446.78 1042.19 474.356 1041.92 507" fill="#FCDAB5"/>
<path d="M847.525 506.979C846.87 476.471 847.194 444.165 848.869 410.244C848.869 410.244 850.621 352.026 870.411 227.208C872.881 211.697 876.273 191.863 891.284 176.859C909.947 158.203 935.62 157.928 947.155 157.822C957.774 157.71 988.676 157.378 1009.08 179.398C1023.86 195.325 1026.3 215.582 1028.61 236.938C1043.27 372.734 1042.07 426.087 1042.07 426.087C1042.16 446.78 1042.19 474.356 1041.92 507" stroke="#1A1A1A" stroke-width="1.53" stroke-linecap="round" stroke-linejoin="round"/>
<path d="M939.11 506.796H972.848C972.285 494.513 971.046 457.829 976.796 424.451C979.301 409.919 982.897 397.115 982.897 397.115C985.914 386.336 989.631 375.766 994.024 365.472C1001.06 349.22 1004.74 345.596 1011.17 328.385C1013.46 322.251 1014.83 317.626 1016.09 313.664C1025.39 284.636 1027.55 271.416 1026.5 256.941C1025.65 245.293 1024.6 230.853 1014.66 224.374C1004.23 217.57 988.07 222.125 982.707 223.669C970.138 227.194 966.753 232.383 961.531 230.254C953.91 227.152 953.044 212.712 952.383 201.522C951.568 187.099 953.144 172.639 957.049 158.732C954.395 158.535 952.087 158.429 950.229 158.372C945.852 158.238 942.488 158.33 941.256 158.372C938.695 158.457 936.506 158.598 934.796 158.732C939.142 172.444 941.203 186.78 940.897 201.163C940.623 212.254 940.194 223.182 933.536 226.961C928.934 229.563 923.423 227.293 913.437 224.402C890.333 217.725 888.025 215.469 882.212 216.717C869.798 219.382 863.26 233.293 862.113 235.754C859.403 241.521 857.186 250.017 860.318 268.321C863.429 286.377 868.608 295.557 876.469 314.799C880.818 325.459 888.848 345.3 894.767 368.595C896.174 374.046 897.293 379.171 898.243 384.043C900.694 396.593 902.409 409.275 903.381 422.025C906.238 456.531 904.507 501.226 904.274 506.831L939.11 506.796Z" fill="#F2F0E5"/>
<path d="M845.244 352.33L843.837 370.309C852.028 374.008 860.418 377.25 868.968 380.018C875.379 382.09 905.176 391.433 945.775 391.884C988.704 392.356 1024.45 382.676 1048.43 373.905L1048.79 355.573C1015.73 366.148 981.166 371.244 946.465 370.661C911.957 370.08 877.772 363.889 845.244 352.33V352.33Z" fill="#E3875E" stroke="#1A1A1A" stroke-width="1.53" stroke-miterlimit="10"/>
<path d="M970.568 223.647C977.537 223.647 983.187 217.561 983.187 210.054C983.187 202.546 977.537 196.46 970.568 196.46C963.6 196.46 957.95 202.546 957.95 210.054C957.95 217.561 963.6 223.647 970.568 223.647Z" fill="#F2F0E5" stroke="#1A1A1A" stroke-width="1.53" stroke-miterlimit="10"/>
<path d="M974.854 219.629C979.191 219.629 982.708 215.137 982.708 209.596C982.708 204.054 979.191 199.562 974.854 199.562C970.516 199.562 967 204.054 967 209.596C967 215.137 970.516 219.629 974.854 219.629Z" fill="#1A1A1A" stroke="#1A1A1A" stroke-width="1.53" stroke-miterlimit="10"/>
<path d="M920.32 223.605C927.289 223.605 932.939 217.519 932.939 210.012C932.939 202.504 927.289 196.418 920.32 196.418C913.352 196.418 907.702 202.504 907.702 210.012C907.702 217.519 913.352 223.605 920.32 223.605Z" fill="#F2F0E5" stroke="#1A1A1A" stroke-width="1.53" stroke-miterlimit="10"/>
<path d="M924.606 219.586C928.943 219.586 932.46 215.094 932.46 209.553C932.46 204.012 928.943 199.52 924.606 199.52C920.268 199.52 916.752 204.012 916.752 209.553C916.752 215.094 920.268 219.586 924.606 219.586Z" fill="#1A1A1A" stroke="#1A1A1A" stroke-width="1.53" stroke-miterlimit="10"/>
<path d="M946.824 252.739L946.465 275.752" stroke="#1A1A1A" stroke-width="1.53" stroke-miterlimit="10"/>
<path d="M892.986 258.132C907.526 268.998 924.946 275.317 943.058 276.295C973.791 277.825 995.481 263.089 1001.74 258.492" stroke="#1A1A1A" stroke-width="1.53" stroke-miterlimit="10"/>
<path d="M931.376 265.564C931.661 265.564 931.935 265.45 932.137 265.248C932.339 265.045 932.452 264.771 932.452 264.485C932.452 264.199 932.339 263.925 932.137 263.722C931.935 263.52 931.661 263.406 931.376 263.406C931.09 263.406 930.816 263.52 930.614 263.722C930.412 263.925 930.299 264.199 930.299 264.485C930.299 264.771 930.412 265.045 930.614 265.248C930.816 265.45 931.09 265.564 931.376 265.564V265.564Z" fill="#1A1A1A"/>
<path d="M924.529 266.459C924.8 266.437 925.053 266.313 925.238 266.113C925.423 265.912 925.525 265.65 925.525 265.377C925.525 265.104 925.423 264.841 925.238 264.64C925.053 264.44 924.8 264.316 924.529 264.294C924.257 264.316 924.004 264.44 923.819 264.64C923.635 264.841 923.532 265.104 923.532 265.377C923.532 265.65 923.635 265.912 923.819 266.113C924.004 266.313 924.257 266.437 924.529 266.459V266.459Z" fill="#1A1A1A"/>
<path d="M935.24 271.522C935.525 271.522 935.799 271.408 936.001 271.206C936.203 271.004 936.317 270.729 936.317 270.443C936.317 270.157 936.203 269.883 936.001 269.68C935.799 269.478 935.525 269.364 935.24 269.364C934.954 269.364 934.68 269.478 934.478 269.68C934.277 269.883 934.163 270.157 934.163 270.443C934.163 270.729 934.277 271.004 934.478 271.206C934.68 271.408 934.954 271.522 935.24 271.522V271.522Z" fill="#1A1A1A"/>
<path d="M957.844 267.052C958.13 267.052 958.404 266.938 958.606 266.736C958.808 266.533 958.921 266.259 958.921 265.973C958.921 265.687 958.808 265.412 958.606 265.21C958.404 265.008 958.13 264.894 957.844 264.894C957.559 264.894 957.285 265.008 957.083 265.21C956.881 265.412 956.768 265.687 956.768 265.973C956.768 266.259 956.881 266.533 957.083 266.736C957.285 266.938 957.559 267.052 957.844 267.052V267.052Z" fill="#1A1A1A"/>
<path d="M960.525 271.522C960.811 271.522 961.084 271.408 961.286 271.206C961.488 271.004 961.602 270.729 961.602 270.443C961.602 270.157 961.488 269.883 961.286 269.68C961.084 269.478 960.811 269.364 960.525 269.364C960.239 269.364 959.966 269.478 959.764 269.68C959.562 269.883 959.448 270.157 959.448 270.443C959.448 270.729 959.562 271.004 959.764 271.206C959.966 271.408 960.239 271.522 960.525 271.522Z" fill="#1A1A1A"/>
<path d="M968.253 265.86C968.538 265.86 968.812 265.746 969.014 265.544C969.216 265.341 969.329 265.067 969.329 264.781C969.329 264.495 969.216 264.22 969.014 264.018C968.812 263.816 968.538 263.702 968.253 263.702C967.967 263.702 967.693 263.816 967.491 264.018C967.289 264.22 967.176 264.495 967.176 264.781C967.176 265.067 967.289 265.341 967.491 265.544C967.693 265.746 967.967 265.86 968.253 265.86V265.86Z" fill="#1A1A1A"/>
<path d="M921.96 228.71C925.225 223.732 932.347 223.648 946.591 223.464C957.781 223.33 966.606 223.33 969.674 228.71C971.131 231.276 970.624 233.906 969.674 238.884C968.724 243.862 966.916 253.232 958.59 259.232C956.789 260.537 950.589 265.007 942.587 263.858C932.896 262.447 927.808 253.888 925.662 250.292C924.064 247.613 917.196 235.993 921.96 228.71Z" fill="#1A1A1A"/>
<path d="M964.938 238.531L965.304 240.139C965.38 240.408 965.556 240.638 965.796 240.781C965.916 240.858 966.055 240.902 966.197 240.908C966.337 240.95 966.487 240.95 966.627 240.908C966.896 240.833 967.126 240.656 967.267 240.414L967.38 240.16C967.429 239.971 967.429 239.772 967.38 239.582L967.133 238.369C967.108 238.231 967.042 238.103 966.943 238.003C966.868 237.885 966.764 237.788 966.641 237.721C966.521 237.643 966.382 237.599 966.24 237.594C966.1 237.552 965.95 237.552 965.81 237.594C965.541 237.669 965.311 237.846 965.17 238.087L965.057 238.348C965.008 238.535 965.008 238.732 965.057 238.919L965.304 240.139L967.38 239.561L967.014 237.953C966.939 237.683 966.763 237.453 966.521 237.312C966.401 237.234 966.263 237.19 966.12 237.185C965.979 237.146 965.831 237.146 965.691 237.185C965.419 237.26 965.189 237.44 965.05 237.685C964.911 237.939 964.871 238.236 964.938 238.517V238.531Z" fill="#F2F0E5"/>
<path d="M959.329 229.034C959.47 229.076 959.611 229.112 959.744 229.161L959.991 229.253C959.857 229.203 959.913 229.21 959.991 229.253C960.267 229.38 960.533 229.528 960.786 229.697L960.927 229.796C960.927 229.796 961.18 230 960.983 229.838C961.096 229.929 961.208 230.021 961.314 230.12C961.539 230.324 961.736 230.557 961.94 230.783C962.046 230.902 961.799 230.578 961.94 230.783L962.067 230.959C962.151 231.079 962.228 231.204 962.299 231.333C962.383 231.467 962.454 231.608 962.524 231.749L962.616 231.946C962.686 232.094 962.531 231.706 962.616 231.946C962.717 232.218 962.802 232.496 962.869 232.778C962.869 232.863 962.904 232.947 962.918 233.032C962.961 233.243 962.918 232.912 962.918 233.032C962.918 233.152 962.918 233.349 962.918 233.511L964.755 232.75C962.948 230.506 960.826 228.535 958.457 226.898L958.203 228.872C958.048 228.872 958.034 228.872 958.154 228.872C958.006 228.872 957.978 228.872 958.055 228.872H958.168H958.084C958.084 228.872 958.365 229.112 958.161 228.914C958.225 228.969 958.286 229.028 958.344 229.09C958.379 229.09 958.513 229.337 958.393 229.14C958.435 229.217 958.492 229.288 958.541 229.365C958.59 229.443 958.738 229.718 958.829 229.901C958.975 230.146 959.21 230.324 959.486 230.397C959.761 230.47 960.053 230.431 960.3 230.289C960.541 230.139 960.716 229.901 960.788 229.626C960.86 229.351 960.824 229.058 960.687 228.808C960.447 228.279 960.108 227.8 959.688 227.398C959.417 227.144 959.089 226.957 958.732 226.854C958.374 226.752 957.998 226.735 957.633 226.806C957.43 226.861 957.247 226.975 957.109 227.135C956.971 227.295 956.884 227.492 956.859 227.701C956.831 227.911 956.865 228.124 956.956 228.314C957.048 228.504 957.192 228.664 957.373 228.773C957.654 228.971 957.929 229.168 958.196 229.372L958.414 229.528L958.499 229.598C958.435 229.549 958.428 229.549 958.499 229.598L958.872 229.901C959.414 230.338 959.941 230.797 960.448 231.269C961.455 232.211 962.395 233.222 963.263 234.294C963.414 234.444 963.605 234.546 963.814 234.588C964.022 234.629 964.238 234.608 964.435 234.527C964.631 234.445 964.799 234.307 964.918 234.13C965.036 233.953 965.099 233.745 965.1 233.532C965.031 232.016 964.486 230.56 963.544 229.372C962.601 228.183 961.309 227.322 959.85 226.912C959.714 226.874 959.571 226.863 959.431 226.88C959.29 226.898 959.155 226.942 959.031 227.012C958.908 227.082 958.8 227.175 958.713 227.287C958.626 227.398 958.561 227.526 958.523 227.663C958.485 227.799 958.475 227.942 958.492 228.083C958.509 228.223 958.554 228.359 958.623 228.483C958.693 228.606 958.786 228.715 958.898 228.802C959.009 228.889 959.137 228.954 959.273 228.992L959.329 229.034Z" fill="#F2F0E5"/>
<path opacity="0.58" d="M967.816 246.287C966.409 243.072 959.667 242.057 955.198 244.433C951.342 246.506 950.004 250.687 949.047 253.683C948.205 256.373 947.889 259.2 948.118 262.01C948.185 262.734 948.289 263.454 948.428 264.167C952.293 264.145 956.067 262.997 959.291 260.862C962.515 258.728 965.049 255.699 966.585 252.146C967.753 249.558 968.52 247.866 967.816 246.287Z" fill="#F2F0E5"/>
<path opacity="0.58" d="M924.937 246.569C926.38 243.319 933.206 242.226 937.555 244.722C940.448 246.386 941.672 249.319 943.227 253.049C944.126 255.095 944.646 257.288 944.762 259.521C944.828 261.291 944.621 263.06 944.149 264.767C940.313 264.554 936.608 263.291 933.438 261.116C930.267 258.94 927.753 255.935 926.169 252.428C924.972 249.869 924.233 248.177 924.937 246.569Z" fill="#F2F0E5"/>
<path d="M964.847 187.625C971.431 186.363 978.206 186.483 984.742 187.978C985.016 188.06 985.305 188.087 985.59 188.056C985.876 188.025 986.152 187.938 986.403 187.798C986.654 187.659 986.875 187.471 987.052 187.245C987.23 187.019 987.36 186.76 987.436 186.482C987.512 186.205 987.532 185.915 987.495 185.63C987.457 185.345 987.364 185.071 987.219 184.822C987.074 184.574 986.881 184.357 986.651 184.185C986.422 184.012 986.16 183.888 985.882 183.818C978.592 182.161 971.038 182.041 963.699 183.465C963.427 183.541 963.172 183.669 962.949 183.844C962.726 184.018 962.539 184.235 962.399 184.481C962.26 184.728 962.17 184.999 962.135 185.28C962.101 185.562 962.122 185.847 962.197 186.12C962.272 186.393 962.401 186.649 962.574 186.872C962.748 187.096 962.964 187.283 963.211 187.422C963.457 187.562 963.728 187.652 964.008 187.687C964.289 187.722 964.574 187.701 964.847 187.625V187.625Z" fill="#1A1A1A"/>
<path d="M908.546 186.787C914.038 185.662 919.648 185.226 925.246 185.489C925.818 185.489 926.365 185.262 926.769 184.857C927.173 184.453 927.4 183.904 927.4 183.332C927.4 182.76 927.173 182.211 926.769 181.806C926.365 181.402 925.818 181.174 925.246 181.174C919.26 180.917 913.265 181.404 907.399 182.627C906.852 182.783 906.388 183.148 906.106 183.644C905.824 184.14 905.748 184.726 905.893 185.278C906.056 185.824 906.422 186.286 906.917 186.567C907.411 186.848 907.995 186.927 908.546 186.787V186.787Z" fill="#1A1A1A"/>
<path d="M941.066 154.466C941.411 154.678 941.77 154.896 942.08 155.136L942.319 155.312L942.453 155.411C942.453 155.411 942.6 155.524 942.453 155.411C942.305 155.298 942.453 155.411 942.495 155.411L942.6 155.496L942.854 155.7C943.491 156.239 944.088 156.823 944.641 157.449C944.844 157.651 945.118 157.764 945.404 157.763C945.69 157.763 945.963 157.648 946.165 157.445C946.367 157.242 946.479 156.968 946.479 156.681C946.478 156.395 946.364 156.121 946.161 155.919C944.998 154.625 943.654 153.507 942.171 152.598C942.049 152.527 941.913 152.48 941.773 152.461C941.633 152.442 941.49 152.451 941.353 152.488C941.216 152.524 941.088 152.587 940.975 152.673C940.863 152.759 940.768 152.867 940.697 152.989C940.626 153.112 940.579 153.247 940.56 153.388C940.542 153.529 940.55 153.672 940.587 153.809C940.623 153.946 940.686 154.075 940.772 154.188C940.858 154.3 940.965 154.395 941.087 154.466H941.066Z" fill="#1A1A1A"/>
<path d="M945.247 151.956V156.68C945.247 156.966 945.361 157.241 945.562 157.443C945.764 157.645 946.038 157.759 946.324 157.759C946.609 157.759 946.883 157.645 947.085 157.443C947.287 157.241 947.401 156.966 947.401 156.68V151.956C947.401 151.67 947.287 151.396 947.085 151.193C946.883 150.991 946.609 150.877 946.324 150.877C946.038 150.877 945.764 150.991 945.562 151.193C945.361 151.396 945.247 151.67 945.247 151.956Z" fill="#1A1A1A"/>
<path d="M948.351 157.413C948.506 157.209 948.252 157.533 948.351 157.413L948.477 157.258C948.555 157.152 948.639 157.054 948.724 156.955C948.808 156.856 949.048 156.574 949.216 156.398C949.549 156.022 949.902 155.665 950.272 155.326C950.455 155.157 950.645 154.995 950.835 154.84L951.138 154.593L951.264 154.501C951.687 154.191 952.123 153.895 952.566 153.627C952.689 153.556 952.796 153.461 952.882 153.348C952.968 153.235 953.031 153.107 953.067 152.97C953.103 152.832 953.112 152.689 953.093 152.549C953.074 152.408 953.028 152.273 952.957 152.15C952.886 152.027 952.791 151.92 952.678 151.834C952.566 151.748 952.437 151.685 952.301 151.648C952.164 151.612 952.021 151.603 951.881 151.622C951.74 151.641 951.605 151.687 951.482 151.759C949.549 152.955 947.854 154.502 946.486 156.32C946.342 156.567 946.303 156.861 946.375 157.137C946.448 157.414 946.627 157.65 946.873 157.794C946.997 157.867 947.134 157.915 947.277 157.935C947.419 157.954 947.564 157.945 947.703 157.907C947.969 157.817 948.197 157.641 948.351 157.406V157.413Z" fill="#1A1A1A"/>
<g opacity="0.31">
<path opacity="0.31" d="M1021.94 194.817C1026.62 198.618 1030.94 202.835 1034.86 207.417C1042.19 216.012 1052.14 230.684 1062.42 283.677C1065.14 297.68 1067.08 317.111 1070.96 355.968C1073.51 381.435 1074.48 395.607 1065.54 402.707C1059.99 407.127 1050.97 408.523 1044.36 405.21C1033.15 399.569 1032.93 382.464 1031.13 345.857C1029.34 309.391 1026.33 272.995 1024.42 236.571C1023.46 218.761 1022.57 204.265 1021.94 194.817Z" fill="#1A1A1A" stroke="#1A1A1A" stroke-width="1.53" stroke-linecap="round" stroke-linejoin="round"/>
</g>
<path d="M1016.56 190.502C1021.23 194.301 1025.56 198.518 1029.47 203.102C1036.8 211.697 1046.76 226.369 1057.04 279.362C1059.75 293.365 1061.7 312.789 1065.58 351.653C1068.13 377.12 1069.1 391.292 1060.15 398.392C1054.6 402.812 1045.59 404.208 1038.98 400.895C1027.76 395.254 1027.55 378.149 1025.75 341.542C1023.96 305.076 1020.94 268.68 1019.03 232.257C1018.11 214.447 1017.18 199.915 1016.56 190.502Z" fill="#1A1A1A" stroke="#1A1A1A" stroke-width="1.53" stroke-linecap="round" stroke-linejoin="round"/>
<path d="M1051.96 284.445C1054.29 296.48 1055.84 308.654 1056.61 320.89C1056.83 324.345 1056.98 327.805 1057.07 331.269C1057.11 332.679 1059.26 332.679 1059.22 331.269C1058.88 318.877 1057.75 306.521 1055.83 294.274C1055.29 290.796 1054.69 287.327 1054.01 283.867C1053.75 282.506 1051.68 283.084 1051.94 284.445H1051.96Z" fill="#F2F0E5"/>
<path d="M1058.83 342.021V349.883C1058.83 350.169 1058.95 350.443 1059.15 350.645C1059.35 350.848 1059.62 350.961 1059.91 350.961C1060.2 350.961 1060.47 350.848 1060.67 350.645C1060.87 350.443 1060.99 350.169 1060.99 349.883V342.021C1060.99 341.735 1060.87 341.461 1060.67 341.258C1060.47 341.056 1060.2 340.942 1059.91 340.942C1059.62 340.942 1059.35 341.056 1059.15 341.258C1058.95 341.461 1058.83 341.735 1058.83 342.021Z" fill="#F2F0E5"/>
<path d="M879.707 194.846C875.023 198.635 870.698 202.847 866.786 207.431C859.439 216.019 849.481 230.698 839.143 283.663C836.419 297.659 834.456 317.09 830.529 355.947C827.96 381.414 827.01 395.578 835.912 402.693C841.465 407.113 850.473 408.516 857.095 405.21C868.313 399.569 868.538 382.478 870.375 345.878C872.198 309.412 875.245 273.017 877.195 236.593C878.138 218.783 879.074 204.265 879.707 194.846Z" fill="#1A1A1A" stroke="#1A1A1A" stroke-width="1.53" stroke-linecap="round" stroke-linejoin="round"/>
<path d="M836.088 393.611C835.118 390.866 834.983 387.894 835.701 385.073C836.046 383.726 833.97 383.148 833.625 384.495C832.801 387.692 832.936 391.061 834.012 394.182C834.094 394.454 834.277 394.684 834.523 394.824C834.77 394.965 835.06 395.005 835.335 394.937C835.61 394.859 835.842 394.677 835.983 394.429C836.124 394.181 836.162 393.887 836.088 393.611V393.611Z" fill="#F2F0E5"/>
<path d="M839.206 401.169C839.491 401.169 839.765 401.056 839.967 400.853C840.169 400.651 840.282 400.377 840.282 400.09C840.282 399.804 840.169 399.53 839.967 399.328C839.765 399.125 839.491 399.012 839.206 399.012C838.92 399.012 838.646 399.125 838.444 399.328C838.242 399.53 838.129 399.804 838.129 400.09C838.129 400.377 838.242 400.651 838.444 400.853C838.646 401.056 838.92 401.169 839.206 401.169V401.169Z" fill="#F2F0E5"/>
<path d="M841.134 299.245C836.067 314.305 834.801 330.268 834.413 346.075C834.301 350.567 834.266 355.065 834.23 359.563C834.23 359.849 834.344 360.124 834.546 360.326C834.748 360.528 835.022 360.642 835.307 360.642C835.593 360.642 835.867 360.528 836.069 360.326C836.271 360.124 836.384 359.849 836.384 359.563C836.511 343.876 836.63 328.026 839.79 312.592C840.671 308.267 841.816 304 843.217 299.816C843.661 298.497 841.578 297.933 841.106 299.245H841.134Z" fill="#F2F0E5"/>
<path d="M943.417 412.761C950.456 412.761 956.162 407.044 956.162 399.992C956.162 392.94 950.456 387.223 943.417 387.223C936.378 387.223 930.672 392.94 930.672 399.992C930.672 407.044 936.378 412.761 943.417 412.761Z" fill="#E3875E" stroke="#1A1A1A" stroke-width="1.53" stroke-miterlimit="10"/>
<path d="M927.668 205.837C929.779 205.837 929.779 202.601 927.668 202.601C925.557 202.601 925.592 205.837 927.668 205.837Z" fill="white"/>
<path d="M978.105 205.02C980.217 205.02 980.217 201.776 978.105 201.776C975.994 201.776 976.029 205.02 978.105 205.02Z" fill="white"/>
</g>
<defs>
<clipPath id="clip0_1448_16715">
<rect width="1493" height="485" fill="white"/>
</clipPath>
</defs>
</svg>
