<svg width="30" height="30" viewBox="0 0 30 30" fill="none" xmlns="http://www.w3.org/2000/svg">
<path fill-rule="evenodd" clip-rule="evenodd" d="M7.86068 3.38867H10.6385V4.77756C10.6385 4.96174 10.7116 5.13837 10.8419 5.26861C10.9721 5.39884 11.1487 5.47201 11.3329 5.47201C11.5171 5.47201 11.6937 5.39884 11.8239 5.26861C11.9542 5.13837 12.0273 4.96174 12.0273 4.77756V3.38867H17.5829V4.77756C17.5829 4.96174 17.6561 5.13837 17.7863 5.26861C17.9165 5.39884 18.0932 5.47201 18.2773 5.47201C18.4615 5.47201 18.6382 5.39884 18.7684 5.26861C18.8986 5.13837 18.9718 4.96174 18.9718 4.77756V3.38867H19.6662C20.2188 3.38867 20.7487 3.60817 21.1394 3.99887C21.5301 4.38957 21.7496 4.91947 21.7496 5.47201V22.1387C21.7496 22.6912 21.5301 23.2211 21.1394 23.6118C20.7487 24.0025 20.2188 24.222 19.6662 24.222H7.86068C7.30814 24.222 6.77824 24.0025 6.38754 23.6118C5.99684 23.2211 5.77734 22.6912 5.77734 22.1387V5.47201C5.77734 4.91947 5.99684 4.38957 6.38754 3.99887C6.77824 3.60817 7.30814 3.38867 7.86068 3.38867V3.38867ZM9.24957 10.3331C9.06539 10.3331 8.88875 10.4063 8.75852 10.5365C8.62829 10.6667 8.55512 10.8434 8.55512 11.0276C8.55512 11.2117 8.62829 11.3884 8.75852 11.5186C8.88875 11.6488 9.06539 11.722 9.24957 11.722H18.2773C18.4615 11.722 18.6382 11.6488 18.7684 11.5186C18.8986 11.3884 18.9718 11.2117 18.9718 11.0276C18.9718 10.8434 18.8986 10.6667 18.7684 10.5365C18.6382 10.4063 18.4615 10.3331 18.2773 10.3331H9.24957ZM8.55512 14.4998C8.55512 14.3156 8.62829 14.139 8.75852 14.0087C8.88875 13.8785 9.06539 13.8053 9.24957 13.8053H14.1107C14.2949 13.8053 14.4715 13.8785 14.6017 14.0087C14.732 14.139 14.8051 14.3156 14.8051 14.4998C14.8051 14.684 14.732 14.8606 14.6017 14.9908C14.4715 15.1211 14.2949 15.1942 14.1107 15.1942H9.24957C9.06539 15.1942 8.88875 15.1211 8.75852 14.9908C8.62829 14.8606 8.55512 14.684 8.55512 14.4998ZM9.24957 17.2776C9.06539 17.2776 8.88875 17.3507 8.75852 17.481C8.62829 17.6112 8.55512 17.7878 8.55512 17.972C8.55512 18.1562 8.62829 18.3328 8.75852 18.4631C8.88875 18.5933 9.06539 18.6665 9.24957 18.6665H16.8885C17.0726 18.6665 17.2493 18.5933 17.3795 18.4631C17.5097 18.3328 17.5829 18.1562 17.5829 17.972C17.5829 17.7878 17.5097 17.6112 17.3795 17.481C17.2493 17.3507 17.0726 17.2776 16.8885 17.2776H9.24957Z" fill="#1A1A1A"/>
<path fill-rule="evenodd" clip-rule="evenodd" d="M4.38889 4.77778V22.1389C4.38889 23.0598 4.75471 23.943 5.40588 24.5941C6.05705 25.2453 6.94022 25.6111 7.86111 25.6111H19.6667V27H7.86111C6.57186 27 5.33542 26.4878 4.42379 25.5762C3.51215 24.6646 3 23.4281 3 22.1389V4.77778H4.38889ZM25.9167 4.77778C25.3641 4.77778 24.8342 4.99727 24.4435 5.38797C24.0528 5.77867 23.8333 6.30858 23.8333 6.86111V8.94444H28V6.86111C28 6.30858 27.7805 5.77867 27.3898 5.38797C26.9991 4.99727 26.4692 4.77778 25.9167 4.77778ZM28 10.3333H23.8333V20.75L25.9167 23.5278L28 20.75V10.3333ZM16.8889 2C17.0731 2 17.2497 2.07316 17.3799 2.2034C17.5102 2.33363 17.5833 2.51027 17.5833 2.69444V5.47222C17.5833 5.6564 17.5102 5.83303 17.3799 5.96327C17.2497 6.0935 17.0731 6.16667 16.8889 6.16667C16.7047 6.16667 16.5281 6.0935 16.3978 5.96327C16.2676 5.83303 16.1944 5.6564 16.1944 5.47222V2.69444C16.1944 2.51027 16.2676 2.33363 16.3978 2.2034C16.5281 2.07316 16.7047 2 16.8889 2V2ZM9.94444 2C10.1286 2 10.3053 2.07316 10.4355 2.2034C10.5657 2.33363 10.6389 2.51027 10.6389 2.69444V5.47222C10.6389 5.6564 10.5657 5.83303 10.4355 5.96327C10.3053 6.0935 10.1286 6.16667 9.94444 6.16667C9.76027 6.16667 9.58363 6.0935 9.4534 5.96327C9.32316 5.83303 9.25 5.6564 9.25 5.47222V2.69444C9.25 2.51027 9.32316 2.33363 9.4534 2.2034C9.58363 2.07316 9.76027 2 9.94444 2V2Z" fill="#1A1A1A"/>
</svg>
