<svg width="30" height="30" viewBox="0 0 30 30" fill="none" xmlns="http://www.w3.org/2000/svg">
<path d="M10.5 14.7209C12.918 14.7209 14.875 12.7704 14.875 10.3605C14.875 7.95053 12.918 6 10.5 6C8.08203 6 6.125 7.95053 6.125 10.3605C6.125 12.7704 8.08203 14.7209 10.5 14.7209ZM13.5 15.9668H13.1758C12.3633 16.3561 11.4609 16.5897 10.5 16.5897C9.53906 16.5897 8.64062 16.3561 7.82422 15.9668H7.5C5.01562 15.9668 3 17.9757 3 20.4518V21.5731C3 22.6048 3.83984 23.4419 4.875 23.4419H16.125C17.1602 23.4419 18 22.6048 18 21.5731V20.4518C18 17.9757 15.9844 15.9668 13.5 15.9668ZM21.75 14.7209C23.8203 14.7209 25.5 13.0468 25.5 10.9834C25.5 8.91995 23.8203 7.24585 21.75 7.24585C19.6797 7.24585 18 8.91995 18 10.9834C18 13.0468 19.6797 14.7209 21.75 14.7209ZM23.625 15.9668H23.4766C22.9336 16.1537 22.3594 16.2782 21.75 16.2782C21.1406 16.2782 20.5664 16.1537 20.0234 15.9668H19.875C19.0781 15.9668 18.3437 16.1965 17.6992 16.5663C18.6523 17.5903 19.25 18.949 19.25 20.4518V21.9468C19.25 22.0325 19.2305 22.1143 19.2266 22.196H26.125C27.1602 22.196 28 21.359 28 20.3272C28 17.9173 26.043 15.9668 23.625 15.9668V15.9668Z" fill="#1A1A1A"/>
</svg>
