<svg width="30" height="30" viewBox="0 0 30 30" fill="none" xmlns="http://www.w3.org/2000/svg">
<path d="M15.7786 14.0518L15.4999 14.3268L15.2199 14.0518C14.6996 13.5381 13.9979 13.2501 13.2668 13.2501C12.5357 13.2501 11.834 13.5381 11.3137 14.0518C11.0555 14.3002 10.85 14.5982 10.7097 14.9279C10.5694 15.2576 10.4971 15.6122 10.4971 15.9705C10.4971 16.3288 10.5694 16.6835 10.7097 17.0132C10.85 17.3429 11.0555 17.6408 11.3137 17.8893L15.4999 22.0005L19.6861 17.8893C19.9443 17.6408 20.1497 17.3429 20.2901 17.0132C20.4304 16.6835 20.5027 16.3288 20.5027 15.9705C20.5027 15.6122 20.4304 15.2576 20.2901 14.9279C20.1497 14.5982 19.9443 14.3002 19.6861 14.0518C19.1656 13.5381 18.4637 13.25 17.7324 13.25C17.001 13.25 16.2991 13.5381 15.7786 14.0518Z" fill="#1A1A1A"/>
<path d="M27.6332 13.6164L16.3833 2.3665C16.2674 2.25032 16.1296 2.15815 15.978 2.09526C15.8263 2.03237 15.6638 2 15.4996 2C15.3354 2 15.1729 2.03237 15.0212 2.09526C14.8696 2.15815 14.7319 2.25032 14.6159 2.3665L3.36598 13.6164C3.19122 13.7912 3.07221 14.0139 3.024 14.2563C2.9758 14.4988 3.00055 14.7501 3.09514 14.9784C3.18972 15.2068 3.34989 15.402 3.5554 15.5394C3.76092 15.6767 4.00254 15.7501 4.24972 15.7501H5.49971V24.5C5.49971 25.8788 6.62095 27 7.99968 27H22.9995C24.3783 27 25.4995 25.8788 25.4995 24.5V15.7501H26.7495C26.9967 15.7501 27.2383 15.6767 27.4438 15.5394C27.6493 15.402 27.8095 15.2068 27.9041 14.9784C27.9987 14.7501 28.0234 14.4988 27.9752 14.2563C27.927 14.0139 27.808 13.7912 27.6332 13.6164ZM23.0008 24.5H7.99968V12.5189L15.4996 5.01897L22.9995 12.5189V18.2501L23.0008 24.5Z" fill="#1A1A1A"/>
</svg>
