<?xml version="1.0" encoding="utf-8"?>
<!-- Generator: Adobe Illustrator 24.1.3, SVG Export Plug-In . SVG Version: 6.00 Build 0)  -->
<svg version="1.1" id="圖層_1" xmlns="http://www.w3.org/2000/svg" xmlns:xlink="http://www.w3.org/1999/xlink" x="0px" y="0px"
	 viewBox="0 0 602.89 595.28" style="enable-background:new 0 0 602.89 595.28;" xml:space="preserve">
<style type="text/css">
	.st0{fill:#E4885E;stroke:#F3F1E6;stroke-linecap:round;stroke-linejoin:round;stroke-miterlimit:10;}
	.st1{fill:#F3F1E6;stroke:#F3F1E6;stroke-width:0.4928;stroke-linecap:round;stroke-linejoin:round;stroke-miterlimit:10;}
	.st2{fill:#E4885E;stroke:#F3F1E6;stroke-miterlimit:10;}
	.st3{fill:#F3F1E6;stroke:#F3F1E6;stroke-width:0.8986;stroke-miterlimit:10;}
	.st4{fill:#F3F1E6;stroke:#F3F1E6;stroke-width:1.2319;stroke-miterlimit:10;}
	.st5{fill:#1A1A1A;}
	.st6{fill:#F3F1E6;stroke:#F3F1E6;stroke-width:2.1587;stroke-miterlimit:10;}
	.st7{fill:#F3F1E6;stroke:#F3F1E6;stroke-width:1.3992;stroke-miterlimit:10;}
	.st8{fill:#E4885E;stroke:#E4885E;stroke-width:1.8124;stroke-miterlimit:10;}
	.st9{fill:#FAD8B3;stroke:#E4885E;stroke-width:1.8124;stroke-miterlimit:10;}
	.st10{fill:#F3F1E6;}
	.st11{fill:#E4885E;}
	.st12{fill:none;stroke:#F3F1E6;stroke-linecap:round;stroke-linejoin:round;stroke-miterlimit:10;}
	.st13{fill:#F9D7B2;stroke:#1A1A1A;stroke-miterlimit:10;}
	.st14{fill:#F2F0E5;stroke:#1A1A1A;stroke-miterlimit:10;}
	.st15{fill:#E3875E;stroke:#1A1A1A;stroke-miterlimit:10;}
	.st16{stroke:#1A1A1A;stroke-width:0.5392;stroke-miterlimit:10;}
	.st17{stroke:#1A1A1A;stroke-miterlimit:10;}
	.st18{fill:none;stroke:#F3F1E6;stroke-width:0.5877;stroke-linecap:round;stroke-linejoin:round;stroke-miterlimit:10;}
	.st19{fill:#FAD8B3;stroke:#1A1A1A;stroke-width:2;stroke-linecap:round;stroke-linejoin:round;stroke-miterlimit:10;}
	.st20{fill:none;stroke:#1A1A1A;stroke-width:2;stroke-linecap:round;stroke-linejoin:round;stroke-miterlimit:10;}
	.st21{fill:#E4885E;stroke:#1A1A1A;stroke-width:2;stroke-linecap:round;stroke-linejoin:round;stroke-miterlimit:10;}
	.st22{fill:#E2865E;stroke:#1A1A1A;stroke-width:2;stroke-linecap:round;stroke-linejoin:round;stroke-miterlimit:10;}
	.st23{fill:#F8D6B1;stroke:#1A1A1A;stroke-width:2;stroke-linecap:round;stroke-linejoin:round;stroke-miterlimit:10;}
	.st24{fill:#FFD6B0;stroke:#131313;stroke-width:2;stroke-linecap:round;stroke-linejoin:round;stroke-miterlimit:10;}
	.st25{fill:#FFD6B0;stroke:#131313;stroke-width:2.399;stroke-linecap:round;stroke-linejoin:round;stroke-miterlimit:10;}
	.st26{fill:#FFD6B0;stroke:#131313;stroke-width:2.4587;stroke-linecap:round;stroke-linejoin:round;stroke-miterlimit:10;}
	.st27{stroke:#131313;stroke-width:1.9123;stroke-linecap:round;stroke-linejoin:round;stroke-miterlimit:10;}
	.st28{fill:#FB865B;stroke:#131313;stroke-width:1.8986;stroke-linecap:round;stroke-linejoin:round;stroke-miterlimit:10;}
	.st29{fill:#FB865B;stroke:#131313;stroke-width:2;stroke-linecap:round;stroke-linejoin:round;stroke-miterlimit:10;}
	.st30{stroke:#131313;stroke-width:0.9515;stroke-linecap:round;stroke-linejoin:round;stroke-miterlimit:10;}
	.st31{fill:#131313;}
	.st32{fill:#F1EEE3;stroke:#131313;stroke-width:0.9515;stroke-linecap:round;stroke-linejoin:round;stroke-miterlimit:10;}
	.st33{fill:#131313;stroke:#131313;stroke-width:1.8552;stroke-linecap:round;stroke-linejoin:round;stroke-miterlimit:10;}
	.st34{fill:#F1EEE3;stroke:#F1EEE3;stroke-width:0.6184;stroke-linecap:round;stroke-linejoin:round;stroke-miterlimit:10;}
	.st35{fill:#131313;stroke:#131313;stroke-width:0.6184;stroke-linecap:round;stroke-linejoin:round;stroke-miterlimit:10;}
	.st36{fill:#F1EEE3;stroke:#131313;stroke-width:1.5;stroke-linecap:round;stroke-linejoin:round;stroke-miterlimit:10;}
	.st37{fill:#1A1A1A;stroke:#131313;stroke-width:1.5;stroke-linecap:round;stroke-linejoin:round;stroke-miterlimit:10;}
	.st38{fill:#FB865B;stroke:#131313;stroke-width:1.5;stroke-linecap:round;stroke-linejoin:round;stroke-miterlimit:10;}
	.st39{fill:#1A1A1A;stroke:#1A1A1A;stroke-width:0.737;stroke-miterlimit:10;}
	.st40{opacity:0.3;fill:#1A1A1A;stroke:#1A1A1A;stroke-width:0.737;stroke-miterlimit:10;}
	.st41{fill:#F9D7B2;stroke:#1A1A1A;stroke-width:2.211;stroke-linecap:round;stroke-linejoin:round;stroke-miterlimit:10;}
	.st42{fill:#F2F0E5;stroke:#F2F0E5;stroke-width:2.211;stroke-miterlimit:10;}
	.st43{fill:#F2F0E5;stroke:#1A1A1A;stroke-width:2.211;stroke-miterlimit:10;}
	.st44{fill:#1A1A1A;stroke:#1A1A1A;stroke-width:2.211;stroke-miterlimit:10;}
	.st45{fill:#F2F0E5;}
	.st46{fill:#E3875E;}
	.st47{fill:#FFFFFF;}
	.st48{opacity:0.3;fill:#1A1A1A;stroke:#1A1A1A;stroke-width:0.5485;stroke-miterlimit:10;}
	.st49{fill:#E3875E;stroke:#1A1A1A;stroke-width:1.6454;stroke-miterlimit:10;}
	.st50{fill:#FCDAB5;stroke:#1A1A1A;stroke-width:1.6454;stroke-linecap:round;stroke-linejoin:round;stroke-miterlimit:10;}
	.st51{fill:#F2F0E5;stroke:#1A1A1A;stroke-width:1.6454;stroke-miterlimit:10;}
	.st52{fill:#1A1A1A;stroke:#1A1A1A;stroke-width:1.6454;stroke-miterlimit:10;}
	.st53{fill:#FCDAB5;stroke:#1A1A1A;stroke-width:1.5301;stroke-linecap:round;stroke-linejoin:round;stroke-miterlimit:10;}
	.st54{fill:#E3875E;stroke:#1A1A1A;stroke-width:1.5301;stroke-miterlimit:10;}
	.st55{fill:#F2F0E5;stroke:#1A1A1A;stroke-width:1.5301;stroke-miterlimit:10;}
	.st56{fill:#1A1A1A;stroke:#1A1A1A;stroke-width:1.5301;stroke-miterlimit:10;}
	.st57{fill:none;stroke:#1A1A1A;stroke-width:1.5301;stroke-miterlimit:10;}
	.st58{opacity:0.58;fill:#F2F0E5;}
	.st59{opacity:0.31;}
	.st60{fill:#1A1A1A;stroke:#1A1A1A;stroke-width:1.5301;stroke-linecap:round;stroke-linejoin:round;stroke-miterlimit:10;}
	.st61{fill:#E3875E;stroke:#1A1A1A;stroke-width:2.4168;stroke-miterlimit:10;}
	.st62{fill:#F9D7B2;stroke:#1A1A1A;stroke-width:2.4168;stroke-miterlimit:10;}
	.st63{fill:#1A1A1A;stroke:#1A1A1A;stroke-width:2.4168;stroke-miterlimit:10;}
	.st64{fill:#F2F0E5;stroke:#1A1A1A;stroke-width:2.4168;stroke-miterlimit:10;}
	.st65{opacity:0.3;fill:#1A1A1A;}
	.st66{fill:#E3875E;stroke:#1A1A1A;stroke-width:1.97;stroke-linecap:round;stroke-linejoin:round;stroke-miterlimit:10;}
	.st67{fill:#E3875E;stroke:#1A1A1A;stroke-width:1.4775;stroke-miterlimit:10;}
	.st68{opacity:0.28;fill:#1A1A1A;stroke:#1A1A1A;stroke-width:0.4925;stroke-miterlimit:10;}
	.st69{fill:#1A1A1A;stroke:#1A1A1A;stroke-width:0.4925;stroke-miterlimit:10;}
	.st70{fill:#FCDAB5;stroke:#1A1A1A;stroke-width:1.4775;stroke-linecap:round;stroke-linejoin:round;stroke-miterlimit:10;}
	.st71{fill:#1A1A1A;stroke:#1A1A1A;stroke-width:1.4775;stroke-miterlimit:10;}
	.st72{fill:#F9D7B2;}
	.st73{fill:#FFFFFF;stroke:#FFFFFF;stroke-width:0.4925;stroke-miterlimit:10;}
	.st74{fill:#1A1A1A;stroke:#1A1A1A;stroke-width:0.4925;stroke-linecap:round;stroke-linejoin:round;stroke-miterlimit:10;}
	.st75{fill:#1A1A1A;stroke:#1A1A1A;stroke-width:0.7759;stroke-linecap:round;stroke-linejoin:round;stroke-miterlimit:10;}
	.st76{opacity:0.28;fill:#1A1A1A;stroke:#1A1A1A;stroke-width:0.7759;stroke-miterlimit:10;}
	.st77{fill:#F9D7B2;stroke:#1A1A1A;stroke-width:2.3278;stroke-linecap:round;stroke-linejoin:round;stroke-miterlimit:10;}
	
		.st78{opacity:0.32;fill:#F2F0E5;stroke:#F2F0E5;stroke-width:2.3278;stroke-linecap:round;stroke-linejoin:round;stroke-miterlimit:10;}
	.st79{fill:#F2F0E5;stroke:#1A1A1A;stroke-width:2.3278;stroke-linecap:round;stroke-linejoin:round;stroke-miterlimit:10;}
	.st80{fill:#E3875E;stroke:#1A1A1A;stroke-width:2.3278;stroke-linecap:round;stroke-linejoin:round;stroke-miterlimit:10;}
	.st81{fill:#1A1A1A;stroke:#1A1A1A;stroke-width:2.3278;stroke-linecap:round;stroke-linejoin:round;stroke-miterlimit:10;}
	.st82{fill:#F9D7B2;stroke:#1A1A1A;stroke-width:2;stroke-linecap:round;stroke-linejoin:round;stroke-miterlimit:10;}
	.st83{fill:#1A1A1A;stroke:#1A1A1A;stroke-width:3.144;stroke-linecap:round;stroke-linejoin:round;stroke-miterlimit:10;}
	.st84{fill:#E3875E;stroke:#1A1A1A;stroke-width:1.6424;stroke-linecap:round;stroke-linejoin:round;stroke-miterlimit:10;}
	.st85{stroke:#1A1A1A;stroke-width:0.7357;stroke-miterlimit:10;}
	.st86{stroke:#1A1A1A;stroke-width:1.2541;stroke-miterlimit:10;}
	.st87{stroke:#1A1A1A;stroke-width:2.5082;stroke-linecap:round;stroke-linejoin:round;stroke-miterlimit:10;}
	.st88{fill:#FFFFFF;stroke:#1A1A1A;stroke-width:1.6424;stroke-linecap:round;stroke-linejoin:round;stroke-miterlimit:10;}
	.st89{stroke:#1A1A1A;stroke-width:3.0871;stroke-linecap:round;stroke-linejoin:round;stroke-miterlimit:10;}
	.st90{fill:#1A1A1A;stroke:#1A1A1A;stroke-width:1.2541;stroke-linecap:round;stroke-linejoin:round;stroke-miterlimit:10;}
	.st91{fill:#F9D7B2;stroke:#1A1A1A;stroke-width:2.166;stroke-linecap:round;stroke-linejoin:round;stroke-miterlimit:10;}
	.st92{fill:#1A1A1A;stroke:#1A1A1A;stroke-width:3.6602;stroke-linecap:round;stroke-linejoin:round;stroke-miterlimit:10;}
	.st93{stroke:#1A1A1A;stroke-width:0.8564;stroke-miterlimit:10;}
	.st94{stroke:#1A1A1A;stroke-width:1.46;stroke-miterlimit:10;}
	.st95{stroke:#1A1A1A;stroke-width:2.92;stroke-linecap:round;stroke-linejoin:round;stroke-miterlimit:10;}
	.st96{fill:#FFFFFF;stroke:#1A1A1A;stroke-width:1.912;stroke-linecap:round;stroke-linejoin:round;stroke-miterlimit:10;}
	.st97{stroke:#1A1A1A;stroke-width:3.5939;stroke-linecap:round;stroke-linejoin:round;stroke-miterlimit:10;}
	.st98{fill:#1A1A1A;stroke:#1A1A1A;stroke-width:1.46;stroke-linecap:round;stroke-linejoin:round;stroke-miterlimit:10;}
	.st99{fill:#1A1A1A;stroke:#1A1A1A;stroke-width:0.9334;stroke-miterlimit:10;}
	.st100{opacity:0.3;fill:#1A1A1A;stroke:#1A1A1A;stroke-width:0.9334;stroke-miterlimit:10;}
	.st101{fill:#F2F0E5;stroke:#F2F0E5;stroke-width:2.8003;stroke-miterlimit:10;}
	.st102{fill:#F2F0E5;stroke:#1A1A1A;stroke-width:2.5193;stroke-miterlimit:10;}
	.st103{fill:#1A1A1A;stroke:#1A1A1A;stroke-width:2.5193;stroke-miterlimit:10;}
	.st104{fill:none;stroke:#1A1A1A;stroke-width:2.8003;stroke-miterlimit:10;}
	.st105{fill:none;stroke:#1A1A1A;stroke-width:1.8669;stroke-miterlimit:10;}
	.st106{fill:#6BA6DD;stroke:#6BA6DD;stroke-width:2.4803;stroke-miterlimit:10;}
	.st107{fill:#6BA6DD;stroke:#6BA6DD;stroke-width:1.8405;stroke-miterlimit:10;}
	.st108{fill:#F3F1E6;stroke:#1A1A1A;stroke-width:1.2914;stroke-linecap:round;stroke-linejoin:round;stroke-miterlimit:10;}
	.st109{fill:#F3F1E6;stroke:#1A1A1A;stroke-width:1.4487;stroke-linecap:round;stroke-linejoin:round;stroke-miterlimit:10;}
	.st110{stroke:#1A1A1A;stroke-width:0.7617;stroke-miterlimit:10;}
	.st111{fill:#F9D7B2;stroke:#1A1A1A;stroke-width:0.7617;stroke-miterlimit:10;}
	.st112{fill:#F2F0E5;stroke:#1A1A1A;stroke-width:0.7617;stroke-miterlimit:10;}
	.st113{fill:#E3875E;stroke:#1A1A1A;stroke-width:0.7617;stroke-miterlimit:10;}
	.st114{stroke:#1A1A1A;stroke-width:0.4107;stroke-miterlimit:10;}
	.st115{fill:none;stroke:#F3F1E6;stroke-width:0.4477;stroke-linecap:round;stroke-linejoin:round;stroke-miterlimit:10;}
	.st116{fill:#E4885E;stroke:#F3F1E6;stroke-width:0.7617;stroke-linecap:round;stroke-linejoin:round;stroke-miterlimit:10;}
	.st117{fill:#F1EFE4;}
	.st118{fill:#8A8B92;}
	.st119{opacity:0.45;fill:#F8D6B1;}
	.st120{fill:#8A8B92;stroke:#8A8B92;stroke-width:0.7422;stroke-miterlimit:10;}
	.st121{opacity:0.45;}
	.st122{fill:#F8D6B1;}
	.st123{opacity:0.75;}
	.st124{fill:#B8D247;}
	.st125{opacity:0.95;}
	.st126{opacity:0.55;fill:#B8D247;}
	.st127{opacity:0.75;fill:#B8D247;}
	.st128{fill:#8A8B92;stroke:#8A8B92;stroke-width:1.0487;stroke-miterlimit:10;}
	.st129{opacity:0.55;}
	.st130{fill:#1A1A1A;stroke:#1A1A1A;stroke-width:2.393;stroke-miterlimit:10;}
	.st131{fill:#E1855E;stroke:#1A1A1A;stroke-width:3;stroke-miterlimit:10;}
	.st132{fill:#F7D5B0;stroke:#1A1A1A;stroke-width:3;stroke-miterlimit:10;}
	.st133{opacity:0.9;fill:#F0D5E3;stroke:#F0D5E3;stroke-width:2;stroke-miterlimit:10;}
	.st134{fill:#F0EEE3;stroke:#000000;stroke-width:2.2413;stroke-miterlimit:10;}
	.st135{stroke:#000000;stroke-width:2.4863;stroke-miterlimit:10;}
	.st136{fill:#B6C5D0;stroke:#1A1A1A;stroke-width:3;stroke-linecap:round;stroke-linejoin:round;stroke-miterlimit:10;}
	.st137{fill:#F7D5B0;stroke:#1A1A1A;stroke-width:3.011;stroke-linecap:round;stroke-linejoin:round;stroke-miterlimit:10;}
	.st138{fill:#1A1A1A;stroke:#1A1A1A;stroke-width:2.9652;stroke-linecap:round;stroke-linejoin:round;stroke-miterlimit:10;}
	.st139{stroke:#000000;stroke-width:2.393;stroke-miterlimit:10;}
	.st140{fill:#1A1A1A;stroke:#1A1A1A;stroke-width:0.7865;stroke-miterlimit:10;}
	.st141{fill:#FFFFFF;stroke:#1A1A1A;stroke-width:2;stroke-miterlimit:10;}
	.st142{fill:#1A1A1A;stroke:#1A1A1A;stroke-width:1.573;stroke-miterlimit:10;}
	.st143{fill:#F7D5B0;stroke:#1A1A1A;stroke-width:3;stroke-linecap:round;stroke-linejoin:round;stroke-miterlimit:10;}
	.st144{opacity:0.9;}
	.st145{fill:#1A1A1A;stroke:#1A1A1A;stroke-width:2.1248;stroke-miterlimit:10;}
	.st146{fill:#F0EEE3;stroke:#1A1A1A;stroke-width:2.1248;stroke-miterlimit:10;}
	.st147{fill:#1A1A1A;stroke:#1A1A1A;stroke-width:0.7083;stroke-miterlimit:10;}
	.st148{fill:#F0EEE3;}
	.st149{fill:none;stroke:#1A1A1A;stroke-width:4;stroke-linecap:round;stroke-linejoin:round;stroke-miterlimit:10;}
	.st150{fill:#1A1A1A;stroke:#1A1A1A;stroke-linecap:round;stroke-linejoin:round;stroke-miterlimit:10;}
	.st151{fill:#FFC95F;}
	.st152{fill:#FFFFFF;stroke:#1A1A1A;stroke-width:0.8634;stroke-linecap:round;stroke-linejoin:round;stroke-miterlimit:10;}
	.st153{fill:#1A1A1A;stroke:#1A1A1A;stroke-width:0.8634;stroke-linecap:round;stroke-linejoin:round;stroke-miterlimit:10;}
	.st154{fill:#1A1A1A;stroke:#1A1A1A;stroke-width:1.1934;stroke-linecap:round;stroke-linejoin:round;stroke-miterlimit:10;}
	.st155{fill:none;stroke:#1A1A1A;stroke-width:0.8634;stroke-linecap:round;stroke-linejoin:round;stroke-miterlimit:10;}
	.st156{stroke:#1A1A1A;stroke-width:2.2844;stroke-linecap:round;stroke-linejoin:round;stroke-miterlimit:10;}
	.st157{fill:#93C9E9;stroke:#93C9E9;stroke-miterlimit:10;}
	.st158{fill:#93C9E9;stroke:#93C9E9;stroke-width:0.7383;stroke-miterlimit:10;}
	.st159{fill:#1A1A1A;stroke:#1A1A1A;stroke-width:0.9642;stroke-linecap:round;stroke-linejoin:round;stroke-miterlimit:10;}
	.st160{opacity:0.28;fill:#1A1A1A;stroke:#1A1A1A;stroke-width:0.9642;stroke-miterlimit:10;}
	.st161{fill:#F7D5B0;stroke:#1A1A1A;stroke-width:2.8925;stroke-linecap:round;stroke-linejoin:round;stroke-miterlimit:10;}
	
		.st162{opacity:0.32;fill:#F0EEE3;stroke:#F0EEE3;stroke-width:2.8925;stroke-linecap:round;stroke-linejoin:round;stroke-miterlimit:10;}
	.st163{fill:#F0EEE3;stroke:#1A1A1A;stroke-width:2.8925;stroke-linecap:round;stroke-linejoin:round;stroke-miterlimit:10;}
	.st164{fill:#E1855E;stroke:#1A1A1A;stroke-width:2.8925;stroke-linecap:round;stroke-linejoin:round;stroke-miterlimit:10;}
	.st165{fill:#1A1A1A;stroke:#1A1A1A;stroke-width:2.8925;stroke-linecap:round;stroke-linejoin:round;stroke-miterlimit:10;}
	.st166{opacity:0.58;fill:#F0EEE3;}
	.st167{fill:#E1855E;stroke:#1A1A1A;stroke-width:2.45;stroke-miterlimit:10;}
	.st168{opacity:0.28;fill:#1A1A1A;stroke:#1A1A1A;stroke-width:0.8167;stroke-miterlimit:10;}
	.st169{fill:#1A1A1A;stroke:#1A1A1A;stroke-width:0.8167;stroke-miterlimit:10;}
	.st170{fill:#FAD8B3;stroke:#1A1A1A;stroke-width:2.45;stroke-linecap:round;stroke-linejoin:round;stroke-miterlimit:10;}
	.st171{fill:#1A1A1A;stroke:#1A1A1A;stroke-width:2.45;stroke-miterlimit:10;}
	.st172{fill:#F7D5B0;}
	.st173{fill:#FFFFFF;stroke:#FFFFFF;stroke-width:0.8167;stroke-miterlimit:10;}
	.st174{fill:#CF855E;stroke:#1A1A1A;stroke-width:1.447;stroke-miterlimit:10;}
	.st175{fill:#E1855E;stroke:#1A1A1A;stroke-width:1.6334;stroke-miterlimit:10;}
	.st176{opacity:0.19;fill:#F0EEE3;}
	.st177{fill:#F7D5B0;stroke:#1A1A1A;stroke-width:1.6334;stroke-miterlimit:10;}
	.st178{fill:#FFD6B0;stroke:#1A1A1A;stroke-width:2.3875;stroke-linecap:round;stroke-linejoin:round;stroke-miterlimit:10;}
	.st179{fill:none;stroke:#131313;stroke-width:2;stroke-linecap:round;stroke-linejoin:round;stroke-miterlimit:10;}
	.st180{fill:#E1855E;stroke:#1A1A1A;stroke-width:1.4251;stroke-miterlimit:10;}
	.st181{fill:#E1855E;}
	.st182{fill:none;stroke:#1A1A1A;stroke-width:1.5;stroke-miterlimit:10;}
	.st183{fill:none;stroke:#E1855E;stroke-width:14.1864;stroke-miterlimit:10;}
	.st184{fill:none;stroke:#E1855E;stroke-width:10.6172;stroke-miterlimit:10;}
	.st185{fill:#F0EEE3;stroke:#1A1A1A;stroke-width:1.5;stroke-linecap:round;stroke-linejoin:round;stroke-miterlimit:10;}
	.st186{fill:none;stroke:#1A1A1A;stroke-width:1.4251;stroke-linecap:round;stroke-linejoin:round;stroke-miterlimit:10;}
	.st187{fill:#F7D5B0;stroke:#1A1A1A;stroke-width:1.4251;stroke-linecap:round;stroke-linejoin:round;stroke-miterlimit:10;}
	.st188{fill:#BBD571;stroke:#1A1A1A;stroke-miterlimit:10;}
	.st189{fill:#E1855E;stroke:#1A1A1A;stroke-miterlimit:10;}
	.st190{fill:none;}
	.st191{fill:#F7D5B0;stroke:#1A1A1A;stroke-width:2.5541;stroke-linecap:round;stroke-linejoin:round;stroke-miterlimit:10;}
	.st192{fill:#F0EEE3;stroke:#1A1A1A;stroke-width:2.5541;stroke-linecap:round;stroke-linejoin:round;stroke-miterlimit:10;}
	.st193{fill:#1A1A1A;stroke:#1A1A1A;stroke-width:2.5541;stroke-linecap:round;stroke-linejoin:round;stroke-miterlimit:10;}
	.st194{fill:#A6E4FF;stroke:#1A1A1A;stroke-width:2.5541;stroke-miterlimit:10;}
	.st195{fill:#1A1A1A;stroke:#1A1A1A;stroke-width:0.7451;stroke-miterlimit:10;}
	.st196{fill:#1A1A1A;stroke:#1A1A1A;stroke-width:0.5905;stroke-miterlimit:10;}
	.st197{fill:#F0EEE3;stroke:#F0EEE3;stroke-linecap:round;stroke-linejoin:round;stroke-miterlimit:10;}
	.st198{fill:#A6E4FF;stroke:#1A1A1A;stroke-width:2;stroke-linecap:round;stroke-linejoin:round;stroke-miterlimit:10;}
</style>
<g id="圖層_2">
</g>
<g>
	<g>
		<path class="st190" d="M227.53,131.71c-1.7,5.96-3.41,11.92-5.11,17.88"/>
		
			<rect x="247.96" y="159.81" transform="matrix(0.9719 0.2356 -0.2356 0.9719 49.5104 -56.5314)" class="st5" width="26.82" height="38.31"/>
		
			<rect x="222.76" y="148.95" transform="matrix(0.9719 0.2356 -0.2356 0.9719 44.6349 -58.3089)" class="st191" width="87.22" height="17.43"/>
		<path class="st192" d="M240.06,426.21l-73.96-17.93c-0.83-0.2-1.33-1.03-1.13-1.86l50.71-209.24c0.2-0.83,1.03-1.33,1.86-1.13
			l73.96,17.93c0.83,0.2,1.33,1.03,1.13,1.86l-50.71,209.24C241.72,425.9,240.89,426.41,240.06,426.21z"/>
		
			<rect x="203.13" y="192.4" transform="matrix(0.9719 0.2356 -0.2356 0.9719 54.349 -54.7649)" class="st191" width="106.53" height="15.39"/>
		
			<rect x="249.48" y="250.03" transform="matrix(0.9719 0.2356 -0.2356 0.9719 66.4067 -55.4856)" class="st193" width="31.93" height="0.34"/>
		
			<rect x="246.92" y="269.19" transform="matrix(0.9719 0.2356 -0.2356 0.9719 70.8471 -54.345)" class="st193" width="31.93" height="0.34"/>
		
			<rect x="238.6" y="288.45" transform="matrix(0.9719 0.2356 -0.2356 0.9719 75.1943 -52.0605)" class="st193" width="33.79" height="0.49"/>
		<path class="st194" d="M231.36,337.31c-12.76-3.39-19.29-11.83-34.48-12.77c-3.49-0.22-6.84,0-10.03,0.53
			c-1.36,0.23-2.46,1.24-2.78,2.58l-18.72,77.24c-0.41,1.68,0.62,3.36,2.3,3.77l70.59,17.11c1.84,0.45,3.69-0.68,4.13-2.52
			l20.15-83.13c0.63-2.58-1.8-4.86-4.34-4.07C246.82,339.57,238.04,339.09,231.36,337.31z"/>
		<path class="st195" d="M196.52,460.4c-0.1-0.02-8.36-2.03-8.45-2.05c-0.02-0.01-3.94-0.95-3.96-0.96
			c0.74-3.04,1.47-6.08,2.21-9.12l12.41,3.01L196.52,460.4z"/>
		<path class="st196" d="M188.96,454.28c-1.77,10.59-3.53,21.18-5.3,31.77c3.48-10.45,6.97-20.9,10.45-31.36
			C192.39,454.56,190.68,454.42,188.96,454.28z"/>
		<path class="st191" d="M163.74,412.42c25.4,6.12,50.8,12.23,76.21,18.35c0.3,0.07,0.44,0.43,0.27,0.69
			c-2.45,3.82-6.73,9.39-13.53,13.83c-2.01,1.31-23.62,15-43.75,2.3c-16.51-10.42-19.29-30.44-19.71-34.68
			C163.19,412.59,163.45,412.35,163.74,412.42z"/>
	</g>
	<g>
		<g>
			<path class="st148" d="M233.1,413.15c-0.03-0.05-0.06-0.1-0.08-0.16c0.05,0.12,0.1,0.24,0.15,0.36
				c-0.04-0.11-0.07-0.22-0.09-0.33c0.02,0.13,0.04,0.27,0.05,0.4c-0.02-0.13-0.01-0.25,0-0.38c-0.02,0.13-0.04,0.27-0.05,0.4
				c0.02-0.15,0.06-0.3,0.12-0.44c-0.05,0.12-0.1,0.24-0.15,0.36c0.06-0.14,0.14-0.28,0.24-0.4c-0.08,0.1-0.16,0.2-0.23,0.3
				c0.1-0.12,0.2-0.23,0.33-0.33c-0.1,0.08-0.2,0.16-0.3,0.23c0.11-0.09,0.23-0.16,0.36-0.21c-0.12,0.05-0.24,0.1-0.36,0.15
				c0.11-0.04,0.22-0.07,0.34-0.09c-0.13,0.02-0.27,0.04-0.4,0.05c0.12-0.02,0.24-0.02,0.36,0c-0.13-0.02-0.27-0.04-0.4-0.05
				c0.13,0.02,0.25,0.05,0.37,0.1c-0.12-0.05-0.24-0.1-0.36-0.15c0.12,0.05,0.22,0.12,0.33,0.19c-0.1-0.08-0.2-0.16-0.3-0.23
				c0.12,0.09,0.23,0.2,0.32,0.32c-0.08-0.1-0.16-0.2-0.23-0.3c0.11,0.14,0.2,0.29,0.27,0.46c-0.05-0.12-0.1-0.24-0.15-0.36
				c0.06,0.15,0.11,0.31,0.13,0.48c-0.02-0.13-0.04-0.27-0.05-0.4c0.02,0.15,0.02,0.3,0,0.46c0.02-0.13,0.04-0.27,0.05-0.4
				c-0.02,0.14-0.05,0.27-0.11,0.41c0.05-0.12,0.1-0.24,0.15-0.36c-0.05,0.12-0.12,0.23-0.2,0.34c0.08-0.1,0.16-0.2,0.23-0.3
				c-0.09,0.11-0.19,0.21-0.3,0.3c0.1-0.08,0.2-0.16,0.3-0.23c-0.12,0.09-0.26,0.17-0.4,0.23c0.12-0.05,0.24-0.1,0.36-0.15
				c-0.18,0.07-0.36,0.12-0.55,0.15c0.13-0.02,0.27-0.04,0.4-0.05c-0.18,0.02-0.36,0.02-0.54,0c0.13,0.02,0.27,0.04,0.4,0.05
				c-0.18-0.02-0.35-0.07-0.52-0.14c0.12,0.05,0.24,0.1,0.36,0.15c-0.14-0.06-0.28-0.14-0.4-0.23c0.1,0.08,0.2,0.16,0.3,0.23
				c-0.06-0.05-0.12-0.1-0.18-0.16c0.08,0.1,0.16,0.2,0.23,0.3c-0.03-0.04-0.06-0.08-0.08-0.13c0.05,0.12,0.1,0.24,0.15,0.36
				c-0.03-0.07-0.05-0.14-0.06-0.21c0.02,0.13,0.04,0.27,0.05,0.4c-0.01-0.07-0.01-0.14,0-0.21c-0.02,0.13-0.04,0.27-0.05,0.4
				c0.01-0.06,0.02-0.13,0.05-0.19c-0.05,0.12-0.1,0.24-0.15,0.36c0.01-0.03,0.03-0.06,0.05-0.08c-0.08,0.1-0.16,0.2-0.23,0.3
				c0.01-0.02,0.03-0.03,0.04-0.05c-0.1,0.08-0.2,0.16-0.3,0.23c0.01-0.01,0.02-0.02,0.03-0.02c-0.12,0.05-0.24,0.1-0.36,0.15
				c0.02-0.01,0.04-0.01,0.06-0.02c-0.13,0.02-0.27,0.04-0.4,0.05c0.01,0,0.03,0,0.04,0c-0.13-0.02-0.27-0.04-0.4-0.05
				c0.02,0,0.04,0.01,0.07,0.02c-0.12-0.05-0.24-0.1-0.36-0.15c0.02,0.01,0.03,0.02,0.05,0.03c0.32,0.2,0.79,0.25,1.16,0.15
				c0.35-0.1,0.73-0.36,0.9-0.69c0.39-0.74,0.17-1.6-0.54-2.05c-0.25-0.16-0.62-0.27-0.91-0.25c-0.44,0.02-0.85,0.17-1.17,0.49
				c-0.39,0.38-0.54,0.89-0.57,1.42c-0.05,0.9,0.53,1.69,1.3,2.11c0.58,0.31,1.27,0.49,1.92,0.42c0.34-0.03,0.67-0.08,0.99-0.2
				c0.45-0.18,0.76-0.36,1.13-0.67c0.25-0.21,0.46-0.48,0.62-0.77c0.23-0.43,0.32-0.82,0.37-1.29c0.07-0.65-0.13-1.35-0.45-1.92
				c-0.08-0.14-0.18-0.26-0.27-0.39c-0.1-0.13-0.2-0.27-0.33-0.38c-0.35-0.32-0.67-0.5-1.11-0.67c-0.75-0.29-1.57-0.16-2.28,0.19
				c-0.16,0.08-0.29,0.19-0.44,0.29c-0.14,0.11-0.28,0.21-0.4,0.35c-0.34,0.38-0.54,0.73-0.72,1.21c-0.04,0.11-0.07,0.22-0.1,0.34
				c-0.04,0.23-0.08,0.47-0.07,0.71c0.02,0.49,0.14,0.95,0.39,1.37c0.19,0.33,0.53,0.59,0.9,0.69c0.36,0.1,0.84,0.05,1.16-0.15
				c0.32-0.21,0.6-0.51,0.69-0.9C233.34,413.91,233.31,413.5,233.1,413.15L233.1,413.15z"/>
		</g>
	</g>
	<g>
		<g>
			<path class="st148" d="M229.64,389.44c1.93,0,1.93-3,0-3C227.71,386.44,227.71,389.44,229.64,389.44L229.64,389.44z"/>
		</g>
	</g>
	<path class="st197" d="M188.54,345.45c-1.19-0.1-1.27,9.36-6.31,23.69c-1.71,4.85-3.03,7.67-3.99,11.4
		c-0.27,1.04-0.48,1.92-0.66,2.89c0,0-0.13,0.74-0.22,1.47c-0.27,2.11-1.52,11.91,2.72,14.32c1.95,1.1,5.38,0.85,7-1
		c2.49-2.83-0.77-7.71-0.46-17.82c0.02-0.82,0.04-2.15,0.29-3.91c0.65-4.5,2.21-6.89,2.8-15.95
		C190.18,353.38,189.62,345.54,188.54,345.45z"/>
	<path class="st198" d="M335.58,203.71c13.05-15.17,38.22-39,74.5-44.5c16.87-2.56,52.64-3.64,59.5,12.5c2.46,5.79,1.15,13.66-3,19
		c-10.46,13.45-34.5,5.06-72.5,5.5C380.74,196.37,360.53,197.67,335.58,203.71z"/>
	<path class="st198" d="M335.63,178.89c0.93-12,4.9-46.76,26.79-62.45c4.43-3.17,13.26-9.5,20.97-6.36
		c4.36,1.78,8.52,6.65,8.62,11.85c0.19,10.01-14.84,14.56-32.11,29.24C349.54,159.97,341.68,169.61,335.63,178.89z"/>
	<g>
		<g>
			<path class="st148" d="M376.18,115.59c0.04-0.07,0.09-0.13,0.14-0.19c-0.06,0.08-0.12,0.15-0.18,0.23
				c0.16-0.2,0.33-0.38,0.53-0.53c-0.08,0.06-0.15,0.12-0.23,0.18c0.21-0.16,0.45-0.3,0.69-0.41c-0.09,0.04-0.18,0.08-0.27,0.11
				c0.26-0.11,0.54-0.19,0.82-0.23c-0.1,0.01-0.2,0.03-0.3,0.04c0.27-0.04,0.53-0.04,0.8-0.01c-0.1-0.01-0.2-0.03-0.3-0.04
				c0.11,0.02,0.22,0.04,0.33,0.06c-0.17-0.63-0.33-1.25-0.5-1.88c-0.05,0.04-0.09,0.07-0.14,0.11c0.08-0.06,0.15-0.12,0.23-0.18
				c-0.79,0.61-1.65,1.11-2.57,1.5c0.09-0.04,0.18-0.08,0.27-0.11c-0.13,0.05-0.25,0.1-0.38,0.15c-0.28,0.11-0.52,0.25-0.67,0.52
				c-0.14,0.24-0.2,0.6-0.11,0.87c0.09,0.27,0.26,0.53,0.52,0.67c0.25,0.13,0.59,0.22,0.87,0.11c0.65-0.25,1.28-0.53,1.88-0.87
				c0.6-0.34,1.16-0.75,1.7-1.18c0.3-0.24,0.39-0.74,0.29-1.09c-0.1-0.37-0.41-0.69-0.79-0.79c-1.75-0.43-3.6,0.32-4.58,1.83
				c-0.32,0.49-0.12,1.26,0.4,1.54C375.21,116.29,375.84,116.11,376.18,115.59L376.18,115.59z"/>
		</g>
	</g>
	<g>
		<g>
			<path class="st148" d="M354.88,132.91c3.78-4.81,7.74-9.81,13.38-12.52c-0.45-0.59-0.91-1.18-1.36-1.77
				c-4.42,4.23-8.84,8.47-13.26,12.7c-1.05,1,0.54,2.59,1.59,1.59c4.42-4.23,8.84-8.47,13.26-12.7c0.97-0.93-0.26-2.3-1.36-1.77
				c-5.8,2.8-9.93,7.92-13.83,12.87c-0.38,0.48-0.47,1.13,0,1.59C353.68,133.3,354.5,133.39,354.88,132.91L354.88,132.91z"/>
		</g>
	</g>
	<g>
		<g>
			<path class="st148" d="M461.52,173.27c0.12,0.03,0.23,0.07,0.34,0.11c-0.12-0.05-0.24-0.1-0.36-0.15
				c0.16,0.07,0.31,0.16,0.45,0.27c-0.1-0.08-0.2-0.16-0.3-0.23c0.21,0.16,0.38,0.35,0.54,0.55c-0.08-0.1-0.16-0.2-0.23-0.3
				c0.29,0.38,0.51,0.81,0.7,1.24c-0.05-0.12-0.1-0.24-0.15-0.36c0.13,0.31,0.26,0.63,0.31,0.97c-0.02-0.13-0.04-0.27-0.05-0.4
				c0.02,0.13,0.02,0.26,0.01,0.39c0.02-0.13,0.04-0.27,0.05-0.4c-0.01,0.08-0.03,0.15-0.06,0.23c0.05-0.12,0.1-0.24,0.15-0.36
				c-0.04,0.09-0.09,0.17-0.15,0.25c0.08-0.1,0.16-0.2,0.23-0.3c-0.04,0.04-0.08,0.08-0.12,0.12c0.1-0.08,0.2-0.16,0.3-0.23
				c-0.05,0.03-0.09,0.06-0.14,0.09c0.12-0.05,0.24-0.1,0.36-0.15c-0.05,0.02-0.1,0.04-0.16,0.05c0.13-0.02,0.27-0.04,0.4-0.05
				c-0.06,0.01-0.12,0.01-0.18,0c0.13,0.02,0.27,0.04,0.4,0.05c-0.06-0.01-0.12-0.03-0.18-0.05c0.12,0.05,0.24,0.1,0.36,0.15
				c-0.08-0.04-0.15-0.08-0.21-0.13c0.1,0.08,0.2,0.16,0.3,0.23c-0.1-0.09-0.19-0.18-0.27-0.28c0.08,0.1,0.16,0.2,0.23,0.3
				c-0.28-0.37-0.5-0.78-0.68-1.21c0.05,0.12,0.1,0.24,0.15,0.36c-0.23-0.55-0.39-1.13-0.47-1.72c0.02,0.13,0.04,0.27,0.05,0.4
				c-0.01-0.1-0.02-0.2-0.03-0.3c-0.75,0.43-1.5,0.86-2.26,1.3c0.13,0.07,0.26,0.15,0.38,0.24c-0.1-0.08-0.2-0.16-0.3-0.23
				c0.17,0.14,0.32,0.29,0.45,0.46c-0.08-0.1-0.16-0.2-0.23-0.3c0.13,0.17,0.24,0.36,0.32,0.55c-0.05-0.12-0.1-0.24-0.15-0.36
				c0.05,0.12,0.09,0.24,0.12,0.37c0.2,0.76,1.08,1.29,1.85,1.05c0.78-0.25,1.26-1.03,1.05-1.85c-0.27-1.05-1-2-1.96-2.51
				c-0.48-0.26-1.04-0.28-1.51,0c-0.42,0.25-0.79,0.78-0.74,1.3c0.1,1.06,0.35,2.02,0.8,2.98c0.46,0.99,1.18,2.03,2.34,2.19
				c1.48,0.2,2.67-1.17,2.52-2.61c-0.07-0.64-0.28-1.17-0.53-1.76c-0.14-0.32-0.29-0.62-0.47-0.91c-0.57-0.9-1.39-1.66-2.44-1.92
				c-0.76-0.19-1.66,0.25-1.85,1.05C460.29,172.2,460.7,173.06,461.52,173.27L461.52,173.27z"/>
		</g>
	</g>
	<g>
		<g>
			<path class="st148" d="M408.02,168.5c15.06-3.25,32.19-5.8,45.76,3.42c0.12-0.91,0.24-1.83,0.36-2.74
				c-3.92,0.58-7.77-1.13-11.52-2c-3.82-0.89-7.76-1.21-11.67-1.25c-7.96-0.09-15.91,0.9-23.87,0.34c-1.94-0.14-1.9,2.83,0,3
				c12.7,1.13,26.5-5.12,38.68,0.51c1.74,0.81,3.27-1.78,1.51-2.59c-12.92-5.98-26.76,0.27-40.19-0.92c0,1,0,2,0,3
				c8.12,0.58,16.23-0.47,24.35-0.33c3.98,0.07,7.91,0.47,11.76,1.48c3.9,1.03,7.66,2.25,11.75,1.66c1.39-0.2,1.3-2.1,0.36-2.74
				c-14.25-9.68-32.25-7.14-48.07-3.72C405.33,166.02,406.13,168.91,408.02,168.5L408.02,168.5z"/>
		</g>
	</g>
</g>
</svg>
