<svg id="圖層_1" data-name="圖層 1" xmlns="http://www.w3.org/2000/svg" viewBox="0 0 623.62 623.62"><defs><style>.cls-1,.cls-15{fill:#f9d7b2;}.cls-1,.cls-10,.cls-12,.cls-13,.cls-14,.cls-15,.cls-16,.cls-17,.cls-18,.cls-2,.cls-5,.cls-6,.cls-7,.cls-8{stroke:#1a1a1a;}.cls-1,.cls-10,.cls-12,.cls-13,.cls-2,.cls-21,.cls-24,.cls-6,.cls-7,.cls-8{stroke-linecap:round;stroke-linejoin:round;}.cls-1{stroke-width:2.17px;}.cls-10,.cls-2,.cls-3{fill:#1a1a1a;}.cls-2{stroke-width:3.66px;}.cls-17,.cls-4{fill:#e3875e;}.cls-14,.cls-15,.cls-16,.cls-17,.cls-18,.cls-5{stroke-miterlimit:10;}.cls-5{stroke-width:0.86px;}.cls-6{stroke-width:2.92px;}.cls-7,.cls-9{fill:#fff;}.cls-7{stroke-width:1.91px;}.cls-8{stroke-width:3.59px;}.cls-10{stroke-width:1.46px;}.cls-11,.cls-16,.cls-19,.cls-23{fill:#f2f0e5;}.cls-12,.cls-13,.cls-22{fill:#f3f1e6;}.cls-12{stroke-width:1.29px;}.cls-13{stroke-width:1.45px;}.cls-14,.cls-15,.cls-16,.cls-17,.cls-24{stroke-width:0.76px;}.cls-18{stroke-width:0.41px;}.cls-19{font-size:9.86px;}.cls-19,.cls-23{font-family:DelaGothicOne-Regular, Dela Gothic One;}.cls-20,.cls-24{fill:#e4885e;}.cls-21{fill:none;stroke-width:0.45px;}.cls-21,.cls-24{stroke:#f3f1e6;}.cls-23{font-size:8.13px;}</style></defs><g id="圖層_2" data-name="圖層 2"><path class="cls-1" d="M492.82,526.11c1.51,3,3.24,7.63,1.46,11.68-3,6.84-13.81,8.17-21.9,8.76-27,2-49.19-1.78-60.21-3.57-12.37-2-29.95-4.38-51.63-5.73A52.66,52.66,0,0,1,350,541.07a66,66,0,0,1-29.64-1C169.13,500.17,164.56,421.57,164.56,421.57c-2.14-36.81,22.35-65.29,28.68-72.65,29-33.79,69.71-40.66,94.65-44.94a206.4,206.4,0,0,1,55.44-1.91A91,91,0,0,1,341.42,282c.14-8.29.47-27.56,13.39-44a57.28,57.28,0,0,1,9.56-9.56,54.39,54.39,0,0,1-6.7-25.81c0-17.21,8.86-37.75,19.12-38.24,4.67-.23,8.27,3.77,14.34,10.51a85.26,85.26,0,0,1,16.55,27.53A143.41,143.41,0,0,1,444,200.32c24.83,1.7,43.23,9.57,55.56,15a203.18,203.18,0,0,1,28.27,15.09,81.5,81.5,0,0,1,14.34-12.43c7.67-5.21,17.89-12.15,23.9-8.6,4.55,2.68,4.69,10.17,4.78,15.3.24,12.65-5.34,22.74-9.56,28.68A91.32,91.32,0,0,1,568,286.78c.19,24.94-10.16,42.94-15.29,51.62A114.32,114.32,0,0,1,525,370a202.54,202.54,0,0,1,26.77,27.72c12.84,16.14,27.78,34.91,30.59,62.14.62,5.93,1.38,13.89-1,23.9-4.63,19.86-20,41.33-44,48.76a63.51,63.51,0,0,1-32.9.94"/><path class="cls-2" d="M171.14,383.45c-4.64-1-20.29-3.68-35.73,5.14-12.07,6.88-17.55,17.11-20.08,22-13.22,25.46-4.11,52.7-1.91,59.27,2.31,6.91,8.74,23.34,40.15,51.62,19.53,17.59,49.65,44.16,97.74,60.34,11,3.7,66.9,22.51,81,3.71,3.56-4.74,3.82-11,3.82-11.47.25-13.15-12.59-23.38-22.94-30.59-25.33-17.65-42.43-21.94-64.05-32.5-42-20.54-69.24-49.4-79.35-72.66a63.57,63.57,0,0,1-5.73-29.64A62.07,62.07,0,0,1,171.14,383.45Z"/><path class="cls-3" d="M515.61,517.67c-1.82,6-3.54,13.4,1.42,18.45,1.1,1.12,2.83-.6,1.73-1.72-4.27-4.34-2.34-11-.8-16.09.46-1.5-1.89-2.14-2.35-.64Z"/><path class="cls-3" d="M526.64,522.07a11.66,11.66,0,0,0,3.68,10.49,1.27,1.27,0,0,0,1.73,0,1.25,1.25,0,0,0,0-1.73,9.19,9.19,0,0,1-1.5-1.65,9.88,9.88,0,0,1-1.06-2A10.13,10.13,0,0,1,529,525a9.65,9.65,0,0,1-.06-1.2c0-.19,0-.38,0-.57a4.35,4.35,0,0,1,0-.51,1.25,1.25,0,0,0-.85-1.5,1.23,1.23,0,0,0-1.5.85Z"/><path class="cls-3" d="M469,537.18c.13.26.26.52.38.78l.21.45c.09.22,0-.08.06.17.21.53.41,1.08.58,1.63s.3,1.11.41,1.68c.06.28.1.57.15.85s0-.12,0,.17,0,.33.05.49a1.25,1.25,0,0,0,1.22,1.22,1.23,1.23,0,0,0,1.22-1.22,20.11,20.11,0,0,0-2.2-7.45,1.22,1.22,0,0,0-2.1,1.23Z"/><path class="cls-3" d="M365.67,412.72a210.06,210.06,0,0,1,49.51,94.33c.35,1.53,2.7.89,2.35-.64A212.37,212.37,0,0,0,367.39,411c-1.06-1.16-2.78.57-1.72,1.73Z"/><path class="cls-4" d="M434.42,202A123.9,123.9,0,0,0,430,226.81c-.56,7.87-.08,12.31,2.92,14.6a8.46,8.46,0,0,0,5.84,1.46c1.39-.17,4.18-.9,8.76-7.3a52.58,52.58,0,0,0,7.3-14.6,62.86,62.86,0,0,0,2.92-17.52"/><path class="cls-4" d="M466.54,204.91c-1,4.69-2,8.64-2.92,11.68-1.72,5.89-2.84,8.42-4.38,14.6-1.82,7.29-1.75,9.73-1.46,11.68.38,2.56,1,6.76,4.38,8.76,3.61,2.15,7.94.34,8.76,0,2.8-1.16,4.34-3.23,7.3-7.3a60.86,60.86,0,0,0,7.3-13.14c.5-1.26.42-1.2,2.92-8.76,1.23-3.71,2.24-6.74,2.92-8.76"/><path class="cls-4" d="M498.66,216.59c-1.56,6.21-3.18,11.17-4.38,14.6-.76,2.17-2.45,6.84-4.38,13.14s-2.42,8.75-1.46,11.68a10.53,10.53,0,0,0,4.38,5.84,9.27,9.27,0,0,0,5.84,1.46c3.62-.42,5.84-3.35,8.76-7.3,1.75-2.36,3.13-5,5.84-10.22,1.6-3.08,2.27-4.52,5.84-11.68l2.92-5.84"/><path class="cls-3" d="M466.86,191.41a60.62,60.62,0,0,1,1.52,11A1.66,1.66,0,0,0,470,204a1.64,1.64,0,0,0,1.62-1.63A64.56,64.56,0,0,0,470,190.55a1.62,1.62,0,0,0-3.13.86Z"/><path class="cls-3" d="M481.28,192.75a112.22,112.22,0,0,1-3.92,11.83,1.63,1.63,0,0,0,1.13,2,1.65,1.65,0,0,0,2-1.13,109.79,109.79,0,0,0,3.92-11.82,1.62,1.62,0,0,0-3.13-.87Z"/><path class="cls-3" d="M490.36,209.46a19.72,19.72,0,0,1,1.71-3l.22-.3.19-.26.15-.19.28-.34c.37-.44.76-.87,1.17-1.27s.79-.76,1.21-1.12l.35-.29c.08-.06.26-.21.08-.07.24-.18.48-.36.73-.53a20.09,20.09,0,0,1,3-1.71,1.62,1.62,0,0,0,.58-2.22,1.66,1.66,0,0,0-2.22-.58,21.32,21.32,0,0,0-10.25,10.23,1.66,1.66,0,0,0,.59,2.22,1.64,1.64,0,0,0,2.22-.58Z"/><path class="cls-3" d="M358.41,173.21l3.11,2a1.63,1.63,0,0,0,2.39-1.83,1.77,1.77,0,0,0-.75-1l-3.11-2a1.66,1.66,0,0,0-1.25-.17,1.62,1.62,0,0,0-.39,3Z"/><path class="cls-3" d="M362.06,165.6a8.56,8.56,0,0,1,1.25.8l-.33-.26a8.86,8.86,0,0,1,1.53,1.53l-.25-.33a8.86,8.86,0,0,1,.82,1.3,1.62,1.62,0,0,0,3-.38,1.84,1.84,0,0,0-.16-1.26,9.93,9.93,0,0,0-4.19-4.2,1.76,1.76,0,0,0-1.25-.17,1.64,1.64,0,0,0-1.14,2,1.63,1.63,0,0,0,.75,1Z"/><path class="cls-5" d="M565.84,214.39c-1.31-.33-2.92,3.45-9.71,13.1-3.36,4.78-6.31,8.6-8.3,11.12,1.52.77,3.78,1.95,6.4,3.53,3,1.8,3.62,2.43,4.59,2.42,2.76,0,4-5.18,4.94-9.54C565.77,225.43,568,214.94,565.84,214.39Z"/><path class="cls-6" d="M378.94,185.93a72.83,72.83,0,0,0-4.38,21.9,49.22,49.22,0,0,0,7.3,0,48.44,48.44,0,0,0,8.76-1.46l-5.84-5.84-7.3-7.3"/><ellipse class="cls-7" cx="419.09" cy="268.42" rx="21.9" ry="18.98" transform="translate(18.52 563.76) rotate(-69.04)"/><circle class="cls-8" cx="417.63" cy="262.58" r="11.68"/><path class="cls-9" d="M414.8,256.07c2.81,0,2.82-4.38,0-4.38s-2.83,4.38,0,4.38Z"/><ellipse class="cls-7" cx="493.55" cy="290.32" rx="21.9" ry="18.98" transform="translate(45.89 647.36) rotate(-69.04)"/><circle class="cls-8" cx="492.09" cy="284.48" r="11.68"/><path class="cls-9" d="M489.26,278c2.81,0,2.82-4.38,0-4.38s-2.83,4.38,0,4.38Z"/><path class="cls-10" d="M430,305.65c1.54-1.67,4.95-.62,11.68,1.46,5.5,1.7,8.27,2.59,8.76,4.38.86,3.11-3.6,8.21-8.76,8.76-5.92.64-9.73-5.08-10.22-5.84C430,312.1,428.25,307.6,430,305.65Z"/><path class="cls-3" d="M437.94,319.13a36.29,36.29,0,0,1-3.11,11.51,1.67,1.67,0,0,0,.58,2.22,1.63,1.63,0,0,0,2.22-.58,41,41,0,0,0,3.56-13.15,1.63,1.63,0,0,0-1.62-1.63,1.67,1.67,0,0,0-1.63,1.63Z"/><path class="cls-3" d="M432.57,306.48a286,286,0,0,0-47-16.09q-6.94-1.71-14-3.07c-1.53-.29-2.19,2.05-.65,2.35a284.15,284.15,0,0,1,47.26,13.5q6.63,2.54,13.14,5.41c1.42.63,2.66-1.47,1.23-2.1Z"/><path class="cls-3" d="M437.18,309.53A129.9,129.9,0,0,0,382,305.79c-1.54.22-.88,2.57.65,2.34a127.07,127.07,0,0,1,53.84,3.75,1.22,1.22,0,0,0,.65-2.35Z"/><path class="cls-3" d="M448.79,314.81a282.57,282.57,0,0,1,48.48,8.45q6.83,1.82,13.56,4c1.5.48,2.14-1.88.65-2.35a284.12,284.12,0,0,0-48.71-11q-7-.95-14-1.54c-1.56-.13-1.55,2.3,0,2.44Z"/><path class="cls-3" d="M442.64,315.19A127.56,127.56,0,0,1,491.93,338c1.26.95,2.47-1.17,1.23-2.1a129.35,129.35,0,0,0-49.87-23c-1.53-.34-2.18,2-.65,2.35Z"/><path class="cls-3" d="M427.17,317.11a1.1,1.1,0,0,0,0-2.19,1.1,1.1,0,0,0,0,2.19Z"/><path class="cls-3" d="M420,317.66a1.1,1.1,0,0,0,0-2.19,1.1,1.1,0,0,0,0,2.19Z"/><path class="cls-3" d="M424.14,321.79a1.1,1.1,0,0,0,0-2.19,1.1,1.1,0,0,0,0,2.19Z"/><path class="cls-3" d="M451.4,323.44a1.1,1.1,0,0,0,0-2.19,1.1,1.1,0,0,0,0,2.19Z"/><path class="cls-3" d="M454.15,326.2a1.1,1.1,0,0,0,0-2.19,1.1,1.1,0,0,0,0,2.19Z"/><path class="cls-9" d="M432.18,308.18a1.1,1.1,0,0,0,0-2.19,1.1,1.1,0,0,0,0,2.19Z"/><path class="cls-9" d="M435.73,309.12a11.25,11.25,0,0,1,2.46.05l-.29,0a3.76,3.76,0,0,1,.74.16l-.26-.11.13.07c.09.05.14.14-.06-.06.11.1-.07-.08-.07-.1a.46.46,0,0,0,.08.13l-.12-.26a.6.6,0,0,1,.06.19l0-.29a.66.66,0,0,1,0,.14l0-.29a.32.32,0,0,1,0,.09l.11-.26a.2.2,0,0,1,0,.08c.13-.15.16-.19.1-.14s.27-.16.06-.07l.27-.11-.13,0,.29,0a.82.82,0,0,1-.27,0l.29,0a1.91,1.91,0,0,1-.52-.14l.26.11c-.72-.32-1.44-.68-2.15-1a1.25,1.25,0,0,0-.85-.11,1.11,1.11,0,0,0-.26,2l1.81.85a3,3,0,0,0,2.09.39,1.59,1.59,0,0,0,1.06-1.06,1.67,1.67,0,0,0-.19-1.36,2.18,2.18,0,0,0-1.18-.86A6.19,6.19,0,0,0,438,307a10.58,10.58,0,0,0-2.25,0,1.2,1.2,0,0,0-.78.33,1.09,1.09,0,0,0,.78,1.86Z"/><path class="cls-11" d="M396.39,446.9c-.88-12.45,16.58-23.21,23.9-27.72,8-4.94,32.27-19.88,64.44-13.84,6.33,1.19,34.26,7.19,51.07,31.42,7.5,10.83,16.13,30.12,9.73,39.78-.92,1.38-2.36,2.9-5.74,7.65-3.88,5.46-6.75,10.17-8.6,13.38-1.64.39-4,1-6.69,1.91-3.48,1.18-9.28,3.14-14.34,6.7a37.62,37.62,0,0,0-12.43,15.29c-.37,3.7-1.23,4.6-1.91,4.78-1.54.42-3.05-2.56-6.7-5.73-2-1.78-3.91-2.78-7.64-4.78a168.34,168.34,0,0,0-40.16-15.3,91.89,91.89,0,0,0-13.38-1.91,86.51,86.51,0,0,0-11.47,0,139.79,139.79,0,0,0-3.83-14.34A175.89,175.89,0,0,0,405,465.07C398.17,450.09,396.65,450.51,396.39,446.9Z"/><path class="cls-3" d="M365.17,229.27a75.48,75.48,0,0,1,9.75-6.16,1.22,1.22,0,0,0-1.23-2.11,74.48,74.48,0,0,0-9.75,6.17,1.25,1.25,0,0,0-.43,1.66,1.21,1.21,0,0,0,1.66.44Z"/><path class="cls-3" d="M571.71,217.36h.09l-.43.06a9.54,9.54,0,0,1,2.56,0l-.43-.06a9.5,9.5,0,0,1,2.39.64,1.62,1.62,0,0,0,1.83-2.39,1.87,1.87,0,0,0-1-.75,11.24,11.24,0,0,0-2.91-.7,11.51,11.51,0,0,0-3,.09,1.63,1.63,0,0,0-1,.75,1.61,1.61,0,0,0,.58,2.22,1.86,1.86,0,0,0,1.25.16Z"/><path class="cls-3" d="M570.88,222.93c.12,0,.23.08.35.12l-.39-.16a4.22,4.22,0,0,1,1,.58l-.32-.26a4.77,4.77,0,0,1,.83.85l-.25-.33a4.4,4.4,0,0,1,.57,1l-.16-.39a4.35,4.35,0,0,1,.2.61,1.69,1.69,0,0,0,.75,1,1.62,1.62,0,0,0,2.22-.59,1.7,1.7,0,0,0,.17-1.25,6.21,6.21,0,0,0-4.09-4.28,1.66,1.66,0,0,0-1.25.17,1.63,1.63,0,0,0-.58,2.22,1.82,1.82,0,0,0,1,.75Z"/><path class="cls-3" d="M418.25,503.2c10.19-1.12,20.54.62,30.4,3.17a129.21,129.21,0,0,1,40.72,18.54c1.3.89,2.52-1.23,1.23-2.11a130.93,130.93,0,0,0-54.25-21.43,70.35,70.35,0,0,0-18.1-.61c-1.54.17-1.56,2.61,0,2.44Z"/><path class="cls-3" d="M235.4,407.4c10.7-.81,21.6-1.35,32.21.55a59.19,59.19,0,0,1,25.91,11.41c15.25,11.81,24.38,29.55,29.26,47.88,3.12,11.72,4.7,23.77,5.81,35.83.14,1.55,2.58,1.56,2.44,0-2-21.4-5.41-43.44-16.23-62.37-9.27-16.24-23.87-29.68-42.34-34.21-12.11-3-24.73-2.46-37.06-1.53-1.56.12-1.57,2.56,0,2.44Z"/><path class="cls-3" d="M328.78,505.56l20.39,12.21a100.73,100.73,0,0,1,9.36,5.75c2.17,1.64,4.74,5.1,2.58,7.78-1,1.22.74,3,1.73,1.73,2.15-2.69,1.71-6.35-.32-9-2.29-3-6-4.71-9.15-6.59l-23.36-14a1.22,1.22,0,0,0-1.23,2.1Z"/><path class="cls-3" d="M349.55,527.3l.31.1c.33.11-.18-.1.12.05a4.63,4.63,0,0,1,.54.29l.23.15c.05,0,.28.2.11.07a4.14,4.14,0,0,1,.5.44,5.92,5.92,0,0,1,.41.45c.05.06.15.19.05.06l.19.27c.13.19.24.38.35.57a2,2,0,0,0,.13.25s.14.33.1.21.05.15.06.17.07.21.1.32a4.31,4.31,0,0,1,.16.59l.06.33c0,.14,0-.17,0,.06s0,.45,0,.67,0,.4,0,.61,0,.07,0-.05l0,.16a2.56,2.56,0,0,1-.05.27c-.05.22-.11.43-.18.64,0,0-.15.34-.05.12,0,.1-.09.2-.14.3a1.26,1.26,0,0,0,.43,1.67,1.23,1.23,0,0,0,1.67-.44A7.76,7.76,0,0,0,350.19,525a1.22,1.22,0,0,0-1.49.85,1.24,1.24,0,0,0,.85,1.5Z"/><path class="cls-3" d="M342.7,530.47s.13.07.17.06-.29-.13-.1,0a2,2,0,0,1,.29.15l.24.16c.19.13-.22-.19-.06,0l.12.1c.15.14.28.3.43.45-.28-.29,0,0,0,.07s.12.19.17.29.08.18.13.27c-.19-.36,0-.05,0,.07s.09.4.14.61c-.08-.35,0-.2,0-.09s0,.1,0,.15a1.82,1.82,0,0,1,0,.33.61.61,0,0,1,0,.14,1.1,1.1,0,1,0,0-.11,2,2,0,0,0-.08.35,1.22,1.22,0,0,0,2.35.65,5,5,0,0,0-3.21-5.93,1.23,1.23,0,0,0-1.5.85,1.24,1.24,0,0,0,.85,1.5Z"/><path class="cls-9" d="M138.71,391.91a9.54,9.54,0,0,0-4.94,2.86,9.8,9.8,0,0,0-2.5,5.37,1.24,1.24,0,0,0,.9,1.18,1.27,1.27,0,0,0,1.37-.56c.21-.32.42-.64.65-.94l.09-.12a2.09,2.09,0,0,1,.14-.17l.36-.44a16.06,16.06,0,0,1,1.65-1.65l.43-.37.22-.18c-.13.11,0,0,.07-.05.31-.23.62-.44.94-.65a17.5,17.5,0,0,1,2-1.13,1.22,1.22,0,0,0,.44-1.67,1.26,1.26,0,0,0-1.67-.43,18,18,0,0,0-7.45,6.57l2.27.61c0,.3,0,0,0-.07l.06-.3c0-.19.09-.39.15-.58s.13-.38.2-.57-.08.16,0-.08.08-.18.13-.27a8.25,8.25,0,0,1,.6-1l.18-.24c.16-.23-.11.12,0-.08s.28-.33.43-.49.58-.55.89-.82l0,0,.12-.09.24-.18.51-.32.53-.28.28-.13-.07,0,.14-.06a8.76,8.76,0,0,1,1.21-.35,1.23,1.23,0,0,0,.85-1.5,1.25,1.25,0,0,0-1.5-.85Z"/><path class="cls-9" d="M126.29,407.09c-4.36,7.14-8.8,14.44-10.93,22.61a42.1,42.1,0,0,0,6.23,34.62c.89,1.27,3,.05,2.1-1.23a40.09,40.09,0,0,1-7.18-20.8c-.41-7.8,1.69-15.22,5.14-22.17,2-4.06,4.38-7.93,6.74-11.8a1.22,1.22,0,0,0-2.1-1.23Z"/><path class="cls-9" d="M258.06,575.8,275,582.08c1.48.54,2.11-1.81.65-2.35l-16.93-6.28c-1.48-.54-2.11,1.81-.65,2.35Z"/><path class="cls-4" d="M429.59,408.83c6.77,3.46,15.78,4.26,22.56.36,2.77-1.58,5.17-4.25,5.45-7.54a8,8,0,0,0-3.72-7.44c-2.87-1.61-6.19-.39-8,2.2a8.54,8.54,0,0,0,0,9.31c3.49,5.79,11.34,8.88,17.9,8.2a14.92,14.92,0,0,0,8.68-3.73c2.59-2.41,4.36-6.39,3-9.87-1.13-2.83-4.49-4.86-7.52-3.92-3.31,1-4.46,5.07-3.32,8.08,1.33,3.51,4.83,5.78,8.17,7.12a20.11,20.11,0,0,0,11.3,1.07c3.18-.61,6.44-2.28,8.2-5.09a6.74,6.74,0,0,0-1-8.54c-2.25-2.2-5.81-2.56-7.91,0s-1.75,6.49-.05,9.21a13,13,0,0,0,8,5.55c3.95.94,8.12,0,11.85-1.34,1.95-.73,3.86-1.6,5.76-2.47,1.67-.77.22-3.24-1.45-2.48-5.19,2.4-11.52,5.35-17.23,2.94a9.23,9.23,0,0,1-5.07-4.79c-.66-1.7-.72-5.44,1.82-5.64,1.92-.15,3.64,2.21,3.52,4-.17,2.41-2.45,4.15-4.49,5-5.07,2.2-11.51,1.07-15.89-2.14-1.92-1.41-4-3.86-2.85-6.39,1-2.25,3.71-1.69,5,0,1.69,2.18.3,5.35-1.35,7.11a11.35,11.35,0,0,1-6.2,3.26A17.22,17.22,0,0,1,451,407.13c-1.91-1.59-3.8-3.94-3.58-6.6.17-2,1.74-4.47,4-4.19,2.13.26,3.33,2.78,3.33,4.71,0,2.78-2.39,4.85-4.68,6-5.81,3-13.37,2.19-19-.71-1.64-.84-3.09,1.64-1.45,2.48Z"/><path d="M226.1,335.77a189.05,189.05,0,0,1,61.8-18.93c6.08-.8,12.2-1.32,18.33-1.6,1.56-.08,1.57-2.51,0-2.44a202.8,202.8,0,0,0-64.53,13.28,178.88,178.88,0,0,0-16.83,7.59c-1.39.71-.16,2.82,1.23,2.1Z"/><path class="cls-3" d="M503.05,530.28c-2.89-8.28,2.6-16.66,9.34-21.13,7.62-5.06,16.77-6.8,25.13-10.22a41,41,0,0,0,12.63-7.65c1.15-1.08-.58-2.8-1.73-1.73-13.36,12.47-37.86,9.62-46.56,27.77a17.91,17.91,0,0,0-1.16,13.61c.52,1.47,2.87.84,2.35-.65Z"/><path class="cls-3" d="M548.36,477.08A67.91,67.91,0,0,0,538,494.13a1.23,1.23,0,0,0,.85,1.5,1.26,1.26,0,0,0,1.5-.85,63.59,63.59,0,0,1,9.7-16c1-1.2-.72-2.94-1.73-1.73Z"/><path class="cls-3" d="M342.21,302c.68,7.19,5.18,13,9.58,18.41,1,1.22,2.7-.51,1.72-1.72-3.94-4.86-8.25-10.23-8.86-16.69-.15-1.55-2.59-1.57-2.44,0Z"/><path class="cls-3" d="M480.44,533.22a26,26,0,0,1,2.82,11.28,1.22,1.22,0,0,0,2.44,0A28.82,28.82,0,0,0,482.54,532c-.71-1.4-2.82-.17-2.1,1.23Z"/><path class="cls-3" d="M426.13,331a19.57,19.57,0,0,0,21.14,3.38,1.64,1.64,0,0,0,.58-2.23,1.66,1.66,0,0,0-2.22-.58,16.18,16.18,0,0,1-17.2-2.87c-1.53-1.42-3.84.87-2.3,2.3Z"/><circle class="cls-12" cx="329.81" cy="199.31" r="9"/><circle class="cls-13" cx="288.31" cy="180.81" r="13.5"/><ellipse class="cls-12" cx="175.31" cy="117.31" rx="102.5" ry="91"/><rect class="cls-14" x="127.87" y="46.29" width="102.67" height="142.09" rx="19.96" transform="translate(296.96 -61.59) rotate(90.14)"/><rect class="cls-15" x="123.07" y="41.47" width="102.67" height="142.09" rx="19.96" transform="translate(287.34 -61.62) rotate(90.14)"/><rect class="cls-16" x="129.11" y="49.92" width="90.76" height="125.61" rx="21.06" transform="translate(287.62 -61.5) rotate(90.14)"/><path class="cls-15" d="M166.86,158.12l.66-99c-.18-.54-2-6-6.39-6.91a6,6,0,0,0-2.29,0c-4.32.86-6,6.39-6.11,6.84q-.3,49.52-.61,99Z"/><path class="cls-17" d="M231.17,76.51,225,80.2l6.15,3.71A49.79,49.79,0,0,1,221.69,88c-7.51,2.35-14.57,2.54-39.42-.09-3.72-.4-8.77-1-14.78-1.68l0-13.55a128,128,0,0,1,16.43-2,139.39,139.39,0,0,1,35.72,3C224.47,74.62,228.41,75.7,231.17,76.51Z"/><path class="cls-17" d="M225,80.2l-57.08-1"/><circle class="cls-18" cx="223.36" cy="77.32" r="0.82"/><path class="cls-18" d="M205.7,79.74l-13.16,5.72,1.65-2.87-4.92-2.89"/><path class="cls-18" d="M218,75.25a5.23,5.23,0,0,0-.44,9.86A7.72,7.72,0,0,1,216,79.76,7.58,7.58,0,0,1,218,75.25Z"/><path class="cls-17" d="M231.09,109l-6.17,3.68,6.15,3.71a49.29,49.29,0,0,1-9.45,4.08c-7.52,2.35-14.58,2.54-39.43-.09-3.72-.39-8.77-1-14.78-1.68l0-13.55a126.29,126.29,0,0,1,16.44-2,138.74,138.74,0,0,1,35.72,3C224.39,107.06,228.33,108.14,231.09,109Z"/><path class="cls-17" d="M224.92,112.64l-57.08-1"/><circle class="cls-18" cx="223.28" cy="109.76" r="0.82"/><path class="cls-18" d="M205.62,112.18l-13.15,5.72,1.64-2.87-4.92-2.89"/><path class="cls-18" d="M218,107.69a5.23,5.23,0,0,0-.43,9.86,7.45,7.45,0,0,1,.43-9.86Z"/><path class="cls-17" d="M231,141l-6.16,3.68,6.15,3.71a50,50,0,0,1-9.46,4.09c-7.52,2.34-14.57,2.54-39.42-.1-3.72-.39-8.77-1-14.78-1.68l0-13.55a126,126,0,0,1,16.43-2,138.43,138.43,0,0,1,35.72,3C224.31,139.09,228.25,140.17,231,141Z"/><path class="cls-17" d="M224.85,144.67l-57.09-1"/><circle class="cls-14" cx="223.21" cy="141.79" r="0.82"/><path class="cls-14" d="M205.54,144.21l-13.15,5.72,1.65-2.87-4.92-2.88"/><path class="cls-14" d="M217.88,139.73a5.23,5.23,0,0,0-.44,9.85,7.64,7.64,0,0,1-1.63-5.34A7.52,7.52,0,0,1,217.88,139.73Z"/><path class="cls-15" d="M201.34,96.92c0-1.16,5.53-.67,15-4,5.6-2,8.89-4,12.79-2.53,1.78.66,3.78,2.07,3.65,3.3-.17,1.55-3.63,1.88-3.66,3.28s3.45,1.87,3.64,3.66c.13,1.19-1.25,2.37-2.2,2.92-3.31,1.89-7.24-.77-13.51-3C207.5,97.28,201.36,98.14,201.34,96.92Z"/><path class="cls-15" d="M201.27,129.48c0-1.16,5.53-.67,15-4,5.6-2,8.89-4,12.8-2.52,1.77.65,3.78,2.06,3.64,3.29-.17,1.56-3.63,1.89-3.66,3.28s3.45,1.88,3.65,3.67c.12,1.18-1.25,2.37-2.2,2.91-3.32,1.89-7.24-.77-13.51-3C207.42,129.84,201.29,130.7,201.27,129.48Z"/><rect class="cls-17" x="104.8" y="92.3" width="54.21" height="40.66" transform="translate(244.84 -19.01) rotate(90.14)"/><text class="cls-19" transform="translate(116.09 95.19) rotate(0.14)">FISH</text><path class="cls-20" d="M132.07,128.31c-1.61,0-2-5.84-3.44-6.43s-5.9,3.18-7,2.08,2.71-5.52,2.11-7-6.42-1.86-6.42-3.47,5.85-2,6.44-3.44-3.18-5.9-2.08-7,5.52,2.72,7,2.12,1.86-6.42,3.47-6.42,2,5.85,3.44,6.43,5.9-3.18,7-2.08-2.71,5.53-2.11,7,6.42,1.85,6.42,3.47-5.85,2-6.44,3.44,3.18,5.9,2.08,7-5.52-2.71-7-2.11S133.68,128.32,132.07,128.31Z"/><path class="cls-21" d="M132.07,128.31c-1.61,0-2-5.84-3.44-6.43s-5.9,3.18-7,2.08,2.71-5.52,2.11-7-6.42-1.86-6.42-3.47,5.85-2,6.44-3.44-3.18-5.9-2.08-7,5.52,2.72,7,2.12,1.86-6.42,3.47-6.42,2,5.85,3.44,6.43,5.9-3.18,7-2.08-2.71,5.53-2.11,7,6.42,1.85,6.42,3.47-5.85,2-6.44,3.44,3.18,5.9,2.08,7-5.52-2.71-7-2.11S133.68,128.32,132.07,128.31Z"/><path class="cls-22" d="M120.82,114.08l.48.17.22.09h0l.12.05c.3.14.59.28.88.44a.44.44,0,0,0,.61-.16.45.45,0,0,0-.16-.61,11.09,11.09,0,0,0-1.93-.85.44.44,0,0,0-.55.31.45.45,0,0,0,.31.55Z"/><path class="cls-22" d="M124.27,115.87a1.5,1.5,0,0,1,.88,1.47,4.83,4.83,0,0,1-1,2.4.45.45,0,0,0,.77.45,5.18,5.18,0,0,0,1.06-3,2.37,2.37,0,0,0-1.52-2.16c-.55-.18-.78.68-.24.87Z"/><text class="cls-23" transform="translate(125.7 116.57) rotate(0.14)">50</text><line class="cls-24" x1="149.3" y1="135.05" x2="116.04" y2="134.97"/></g></svg>