<svg id="圖層_1" data-name="圖層 1" xmlns="http://www.w3.org/2000/svg" viewBox="0 0 602.89 595.28"><defs><style>.cls-1,.cls-2,.cls-5,.cls-7{fill:#1a1a1a;}.cls-1,.cls-11,.cls-12,.cls-2,.cls-3,.cls-6,.cls-7{stroke:#1a1a1a;}.cls-1,.cls-11,.cls-12,.cls-2,.cls-4,.cls-6,.cls-7{stroke-miterlimit:10;}.cls-1,.cls-2{stroke-width:0.74px;}.cls-2{opacity:0.3;}.cls-3{fill:#f9d7b2;stroke-linecap:round;stroke-linejoin:round;}.cls-3,.cls-4,.cls-6,.cls-7{stroke-width:2.21px;}.cls-4,.cls-6,.cls-8{fill:#f2f0e5;}.cls-4{stroke:#f2f0e5;}.cls-9{fill:#e3875e;}.cls-10{fill:#fff;}.cls-11{fill:#bbd571;}.cls-12{fill:#e1855e;}</style></defs><path class="cls-1" d="M143.38,432.85c12.6-25.15-1.85-47.49-8-57-2.13-3.29-1.82-2.12-7-9-1.06-1.4-16.3-21.69-25-40-11.35-24-13.68-49.35-14-65.17a147.79,147.79,0,0,0-30.51,51.08c-4.93,14.2-15,44.65-3.78,79.48,3.22,10,11.14,34.54,35.53,50.36A81.67,81.67,0,0,0,124.73,455C130.17,450.6,138.22,443.15,143.38,432.85Z"/><path class="cls-2" d="M147.8,418.84c12.61-25.14-1.84-47.48-8-57-2.13-3.28-1.82-2.11-7-9-1.06-1.41-16.3-21.69-25-40-11.34-24-13.68-49.35-14-65.18a147.85,147.85,0,0,0-30.51,51.09c-4.92,14.2-15,44.65-3.78,79.47,3.22,10,11.14,34.55,35.53,50.37A82,82,0,0,0,129.15,441C134.6,436.59,142.64,429.15,147.8,418.84Z"/><path class="cls-3" d="M205.63,80.74q-8.37,19.88-16.72,39.76c-3.66,15.62-5.93,28.92-7.37,38.88-2.31,16-3.77,26.42-3.45,40.39a172,172,0,0,0,4,33c-1.21,28.37-8.09,48.6-14.2,61.88-2.18,4.73-7.89,16-20.56,37.52-9.38,15.95-13.59,21.33-19.53,34.64-12.67,28.4-29.52,84.93-6.3,107.16,1.82,1.74,15.27,5.23,42.09,12.14,34.76,9,46.8,11.87,60.11,6.24a49.42,49.42,0,0,0,17.65-13,109.48,109.48,0,0,1,16.43-1.26c15.43,0,22,3.27,34,1.3a53.33,53.33,0,0,0,15.35-5.08,74.73,74.73,0,0,0,28.11,4c11.57-.6,24.5-1.26,29.22-10.31,4-7.67,1.86-20.9-7.68-26-6-3.22-13.77-2.53-20.17,1.62q2.54-35.46,4.19-72.55,1.18-27,1.81-53.17a118.94,118.94,0,0,0,11.92-29.14,117.24,117.24,0,0,0,3-43.4,114.36,114.36,0,0,0-11-36.71,137.35,137.35,0,0,0-2.12-79.51Q339.12,104.6,333.9,80l-25.8,34.37-79.43,1.39Z"/><path class="cls-4" d="M248.06,118.12a76.86,76.86,0,0,1,.58,23c-.58,4.58-2.18,16.9-9.64,28.63-9.19,14.45-18.39,14.48-32.52,27.75-6.84,6.43-15.64,16.74-22.71,33.21a105.69,105.69,0,0,0,11.65,23.44c2.24,3.37,4.23,6,5.59,7.65,5.25,6.54,10.08,10.89,16.24,17.58,12.7,13.81,27.39,38,36.54,54.92a394.85,394.85,0,0,1,20.59,44.37c8.42-3.79,31.49-15,46.4-33a171.74,171.74,0,0,0,13.93-20c1.23-2.05,4.86-8.54,9.23-17.56,2.67-5.5,7.46-15.38,10.15-26.37,6.17-25.29-1-47.55-3.83-56a109.71,109.71,0,0,0-7.78-17.85c-11.23-9.92-20.82-17.3-27.35-22.1-17.68-13-22.72-14.37-30.12-23.87a80.61,80.61,0,0,1-14.13-28.14,84,84,0,0,1-2.8-15.85Z"/><path class="cls-5" d="M166.89,410.51c5.28-3.39,11.59-4.18,17.74-4.22s12.6.49,18.43,2.82c11.33,4.54,17.11,16.2,18.84,27.68,1.19,7.84.75,15.83.35,23.72-.08,1.42,2.13,1.42,2.21,0,.69-13.6,1.26-28.1-5.83-40.3a30.38,30.38,0,0,0-12.8-12.28c-5.93-2.86-12.59-3.71-19.1-3.84-7.19-.13-14.76.53-21,4.51-1.19.76-.09,2.68,1.12,1.91Z"/><path class="cls-5" d="M240.93,413.39a424.27,424.27,0,0,0,15.89,49.86q2.64,6.79,5.5,13.49c.56,1.31,2.47.18,1.91-1.11a424.5,424.5,0,0,1-17.32-48.58q-2.06-7.1-3.85-14.25a1.11,1.11,0,0,0-2.13.59Z"/><path class="cls-5" d="M347.42,455.37a21.82,21.82,0,0,1,3.51,21.15c-.49,1.33,1.64,1.91,2.13.58A24,24,0,0,0,349,453.81c-.91-1.1-2.46.47-1.56,1.56Z"/><path class="cls-5" d="M181.12,233.35a230.61,230.61,0,0,0,32.94,48.78q5,5.64,10.28,10.93c1,1,2.58-.56,1.57-1.56a228.28,228.28,0,0,1-35.73-46.12q-3.8-6.45-7.15-13.15c-.64-1.27-2.55-.15-1.91,1.12Z"/><path class="cls-5" d="M243.67,323.45c5.47,7.19,9.65,15.22,13.48,23.37,4.1,8.7,8.09,17.46,12,26.22a140,140,0,0,1,6,15.16c.43,1.35,2.57.78,2.13-.59-2.94-9.23-7.26-18-11.29-26.77-3.91-8.53-7.65-17.18-12.12-25.43a99.67,99.67,0,0,0-8.33-13.07c-.85-1.12-2.77,0-1.91,1.11Z"/><path class="cls-5" d="M275.64,390.78q8,26.19,14.3,52.85,1.8,7.62,3.45,15.26c.3,1.39,2.44.8,2.13-.59q-5.81-26.74-13.31-53.1-2.15-7.53-4.43-15c-.42-1.35-2.55-.77-2.14.59Z"/><path class="cls-5" d="M156.41,327.45c-11.06,18.47-22.18,37.12-29.55,57.43a147.45,147.45,0,0,0-5.19,17.45c-.32,1.38,1.81,2,2.13.59,4.82-21,14.61-40.25,25.3-58.76,3-5.23,6.11-10.41,9.21-15.59a1.1,1.1,0,0,0-1.9-1.12Z"/><path class="cls-5" d="M121.33,409.9l-.59,5.68a1.11,1.11,0,0,0,1.11,1.1,1.12,1.12,0,0,0,1.1-1.1l.59-5.68a1.11,1.11,0,0,0-1.1-1.11,1.15,1.15,0,0,0-1.11,1.11Z"/><path class="cls-5" d="M280.69,345.27a40.32,40.32,0,0,0,21.22-8.89,24.49,24.49,0,0,0,5.23-5.38c1.23-1.9,1.69-4.51-.09-6.24a4.81,4.81,0,0,0-5.67-.61c-4.32,2.57-3.14,8.6,0,11.54,4.77,4.45,11.48,3.33,17.29,2.08,1.39-.3.8-2.43-.59-2.13-4.16.89-9,2-13-.05-3-1.53-6.05-5.68-3.33-8.87,1.06-1.25,3.63-1.53,4.23.37s-1.6,4-2.8,5.17a38,38,0,0,1-22.48,10.8c-1.4.15-1.41,2.36,0,2.21Z"/><path class="cls-1" d="M257.51,169.53c.4-.72,1.52-.38,6.92-.34,7.31.06,8.9-.53,9.47.46,1.09,1.86-2.4,7.79-7.2,8.24C261.14,178.42,256.5,171.38,257.51,169.53Z"/><path class="cls-5" d="M265.5,177.45a69.3,69.3,0,0,1-2.28,20.92,1.11,1.11,0,0,0,2.13.59,71.58,71.58,0,0,0,2.36-21.51c-.06-1.42-2.27-1.42-2.21,0Z"/><path class="cls-5" d="M257.8,183.72a1.11,1.11,0,0,0,0-2.22,1.11,1.11,0,0,0,0,2.22Z"/><path class="cls-5" d="M259,189.06a1.11,1.11,0,0,0,0-2.21,1.11,1.11,0,0,0,0,2.21Z"/><path class="cls-5" d="M251.43,183.63a1.11,1.11,0,0,0,0-2.21,1.11,1.11,0,0,0,0,2.21Z"/><path class="cls-5" d="M273.2,183.57a1.11,1.11,0,0,0,0-2.21,1.11,1.11,0,0,0,0,2.21Z"/><path class="cls-5" d="M272.75,187.88a1.11,1.11,0,0,0,0-2.21,1.11,1.11,0,0,0,0,2.21Z"/><path class="cls-5" d="M279.48,184.51a1.11,1.11,0,0,0,0-2.21,1.11,1.11,0,0,0,0,2.21Z"/><path class="cls-6" d="M202.06,128c2.22-.76,15.93-5.2,30.07,2.48a38.32,38.32,0,0,1,18,22.29,26.79,26.79,0,0,1-13.49,12.49c-9.64,3.84-20,.89-26.71-4.65C201,153.12,197.71,140,202.06,128Z"/><circle class="cls-7" cx="233.64" cy="149.96" r="13.27"/><path class="cls-6" d="M332.87,134.15c-2-1.2-14.53-8.36-29.94-3.74a38.33,38.33,0,0,0-22.19,18.11,26.82,26.82,0,0,0,10.64,15c8.65,5.74,19.44,5,27.09.93C328.79,159,334.66,146.82,332.87,134.15Z"/><circle class="cls-7" cx="297.45" cy="149.17" r="13.27"/><path class="cls-5" d="M260.6,114a22.71,22.71,0,0,0-3.78-7.08,1.1,1.1,0,0,0-1.56,0,1.12,1.12,0,0,0,0,1.56,20.7,20.7,0,0,1,3.21,6.1,1.1,1.1,0,1,0,2.13-.58Z"/><path class="cls-5" d="M263.7,114.54a24.8,24.8,0,0,1,1-6.56,1.11,1.11,0,0,0-2.14-.59,28.88,28.88,0,0,0-1.05,7.15,1.1,1.1,0,0,0,1.1,1.1,1.12,1.12,0,0,0,1.11-1.1Z"/><path class="cls-5" d="M267.2,114.89a8.73,8.73,0,0,1,0-1.77c0,.11,0,.07,0,0l0-.21c0-.15.07-.3.11-.46a6.4,6.4,0,0,1,.26-.85l.07-.19c0-.08.06-.13,0,0l.18-.38c.14-.26.29-.52.45-.77a3.28,3.28,0,0,1,.27-.38c-.07.09,0,0,0,0a1.83,1.83,0,0,1,.13-.16,8.31,8.31,0,0,1,.65-.68,1.1,1.1,0,0,0,0-1.56,1.12,1.12,0,0,0-1.56,0,9.14,9.14,0,0,0-2.85,7.49A1.13,1.13,0,0,0,266.1,116c.54,0,1.17-.49,1.1-1.11Z"/><path class="cls-5" d="M345.88,207.48a59.77,59.77,0,0,1-20.05,8.18c-1.39.3-.8,2.43.59,2.14A62,62,0,0,0,347,209.39c1.2-.76.09-2.68-1.12-1.91Z"/><path class="cls-5" d="M320.9,217.43l-9,1a1.14,1.14,0,0,0-1.1,1.11,1.11,1.11,0,0,0,1.1,1.1l9-1a1.14,1.14,0,0,0,1.1-1.1,1.11,1.11,0,0,0-1.1-1.11Z"/><path class="cls-8" d="M71.8,308.43a92.31,92.31,0,0,0-15.2,44.95A91.57,91.57,0,0,0,80,420.21c1,1.06,2.52-.51,1.56-1.57A89.91,89.91,0,0,1,60.9,379a89.2,89.2,0,0,1,12.81-69.45c.79-1.19-1.12-2.3-1.91-1.12Z"/><path class="cls-9" d="M333.37,82.38q.75,15.11,1.48,30.22H311.26Z"/><path class="cls-9" d="M205.85,82.91q-2.57,15.59-5.14,31.16l25.06-.74Z"/><path class="cls-5" d="M271.24,176a308.84,308.84,0,0,1,34.92-2.47,1.11,1.11,0,0,0,0-2.21,306.53,306.53,0,0,0-34.92,2.47c-1.4.18-1.41,2.39,0,2.21Z"/><path class="cls-5" d="M270.52,176.9a231.86,231.86,0,0,1,33.8,5.91,1.11,1.11,0,0,0,.59-2.14,237.18,237.18,0,0,0-34.39-6c-1.41-.15-1.4,2.07,0,2.21Z"/><path class="cls-5" d="M260.22,172.75a212,212,0,0,0-45.44,2.11c-1.4.21-.8,2.34.59,2.13a209.71,209.71,0,0,1,44.85-2c1.42.08,1.41-2.13,0-2.21Z"/><path class="cls-5" d="M261.43,174.43a168.66,168.66,0,0,0-33.16,8.62c-1.32.49-.75,2.63.59,2.13A169.36,169.36,0,0,1,262,176.56c1.4-.22.8-2.35-.59-2.13Z"/><path class="cls-8" d="M260,171.32l3.12-.15a.56.56,0,0,0,.56-.55.58.58,0,0,0-.56-.56l-3.12.15a.56.56,0,1,0,0,1.11Z"/><path class="cls-8" d="M260.2,171.74a5.19,5.19,0,0,0,3.16-.34.54.54,0,0,0,.2-.75.56.56,0,0,0-.76-.2l-.09,0-.13.05-.33.1-.32.07-.15,0h-.06a4.73,4.73,0,0,1-.65,0l-.34,0c.13,0,0,0,0,0l-.19,0a.58.58,0,0,0-.68.39.56.56,0,0,0,.38.68Z"/><path class="cls-8" d="M264.65,171.25l.47.05a.54.54,0,0,0,.22-.05.38.38,0,0,0,.17-.12.33.33,0,0,0,.12-.17.54.54,0,0,0,.05-.22l0-.14a.58.58,0,0,0-.15-.25l-.11-.08a.54.54,0,0,0-.28-.08l-.47-.05a.42.42,0,0,0-.22.05.39.39,0,0,0-.17.11.36.36,0,0,0-.12.18.54.54,0,0,0-.05.21l0,.15a.64.64,0,0,0,.15.25l.11.08a.54.54,0,0,0,.28.08Z"/><path class="cls-5" d="M250.82,196.62c8.61,6.1,21.28,5,28.75-2.45,1-1-.56-2.57-1.57-1.56a20.76,20.76,0,0,1-26.06,2.1c-1.16-.83-2.27,1.09-1.12,1.91Z"/><path class="cls-10" d="M242.67,149.28c2.84,0,2.85-4.42,0-4.42s-2.85,4.42,0,4.42Z"/><path class="cls-10" d="M290.26,147.6c2.84,0,2.85-4.42,0-4.42s-2.85,4.42,0,4.42Z"/><path class="cls-11" d="M459.54,391.35c-3.11.75-9.93-11.84-13.69-22.68-2.61-7.52-1.62-8.07-5.87-31.75-2.46-13.75-3.74-20.76-5.86-27.21-3-9-6-14.85-4.89-15.42S436,300,440,306.08c4.69,7,6.68,12.58,12.71,32.66s7.1,24.67,7.82,30.84C461,373.48,463,390.51,459.54,391.35Z"/><path class="cls-11" d="M456.6,368.67c-.76-15.48,1-27.4,2.94-39.91,1.32-8.6,3.36-21.86,4.89-21.77.93.05,1,5.09,1.95,38.1.31,10.3.61,20.23-1,33.56-.71,5.94-2,17.22-3.91,17.23C459.32,395.89,457.19,380.44,456.6,368.67Z"/><path class="cls-11" d="M462.81,396.17c-1.47-.14-3.16-19.46,1.73-40.23,8.64-36.71,34.35-63.23,36.71-62,.71.37-3.1,9.31-10.74,27.17-5.69,13.33-8.1,18.19-13,30.41-3.09,7.7-4.79,12-6.84,18.05C464.84,386.89,463.84,396.27,462.81,396.17Z"/><path class="cls-11" d="M460.51,396.79A124.74,124.74,0,0,1,466.38,375a115.86,115.86,0,0,1,26.4-42.63c5-5.12,12-12.12,23.46-18.14,14.37-7.56,29.74-10.41,30.31-9.08.42,1-7.71,3.51-19.55,10.89-6.41,4-21.38,13.5-33.24,29.93A111.91,111.91,0,0,0,482,366.86c-6.54,15.37-7.43,27.57-15.64,29.93A11.53,11.53,0,0,1,460.51,396.79Z"/><path class="cls-11" d="M462.47,396.79c-3.27-2,3.25-20.53,15.64-34.47,15.69-17.65,36.24-22.87,43-24.49,12.12-2.91,24.16-3.08,24.44-1.81s-10.14,2.77-24.44,9.07-24,10.58-31.29,20c-7.12,9.22-6.09,16-16.62,25.4C471.24,392.22,464.64,398.13,462.47,396.79Z"/><path class="cls-11" d="M456.6,390.44c1.37-.86-6.67-20.21-24.44-35.38-21.39-18.26-48.88-23.64-49.86-21.77-.24.47,1.17,1.33,14.67,10,30.62,19.62,33.95,22,38.13,25.4C450,381,455.58,391.08,456.6,390.44Z"/><path class="cls-11" d="M391.83,358c-13.67-.74-28.29.91-28.35,2.72,0,1.23,6.83,1.88,20.53,4.53,20,3.88,29.95,5.81,40.08,10,20,8.25,31.88,21.16,34.22,19.05.61-.55.33-1.91-1-4.53-8.22-16.5-30.23-24.28-36.17-26.31A111.58,111.58,0,0,0,391.83,358Z"/><path class="cls-11" d="M445.85,385.9c-5.77-2.8-13.81-6.62-25.14-8a61.27,61.27,0,0,0-21.28.73C384,382.05,372.21,391.55,373,393.31s12.48-5,32.28-5.13c5.48,0,9.26.45,16.11,1.35,26.17,3.46,41.19,10.12,42,8.17C464.19,396,453.29,389.52,445.85,385.9Z"/><path class="cls-11" d="M463.45,396.79c-1.29-1.16,13.75-24.55,42-38.1a102.56,102.56,0,0,1,44-10c12.09.05,23.53,2.37,23.46,3.63-.07,1.48-15.71-.22-36.17,4.54-14.9,3.46-25.47,8.75-33.24,12.7C477,383.07,464.52,397.76,463.45,396.79Z"/><path class="cls-11" d="M509.48,373.5c4.07.1,7.1.2,11,1.47,14.11,4.59,21.73,18.61,20.54,19.81-.91.92-6.27-6.31-17.61-9.54-3.25-.92-8.85-2.05-19.07-.73-23.75,3.05-39,14.95-40.9,12.28-1-1.41,2.54-5.64,3.91-7.26C480.72,373.73,503.16,373.35,509.48,373.5Z"/><path class="cls-12" d="M490.41,469.27H435.85q-8.66-33.56-17.3-67.12h87.83Z"/><path class="cls-12" d="M490.41,479.89H437.18c-1.39-1.41-3.25-3.39-5.33-5.89-2.5-3-2.83-3.79-2.66-4.41.56-2,6.1-1.63,8-1.47h53.23c2.63-.41,4.77.12,5.33,1.47.13.31.37,1.17-1.33,4.41A31.83,31.83,0,0,1,490.41,479.89Z"/><rect class="cls-12" x="427.86" y="465.17" width="69.21" height="6.15" rx="2"/><rect class="cls-12" x="413.89" y="391.85" width="97.16" height="25.02" rx="6.34"/><path class="cls-5" d="M497.05,421.55l-1,3.82a.78.78,0,0,0,.53.93.77.77,0,0,0,.92-.53l.95-3.82A.75.75,0,0,0,498,421a.76.76,0,0,0-.92.52Z"/><path class="cls-5" d="M495.29,430.51l-5.19,18.12a.75.75,0,0,0,1.45.4l5.19-18.12a.75.75,0,0,0-1.45-.4Z"/><path class="cls-5" d="M473.72,395.65a15.41,15.41,0,0,0,6.52.92,15.22,15.22,0,0,0,3.14-.57c.61-.18,1.44-.65,2.08-.49a6.08,6.08,0,0,1,1.48.94c3.68,2.27,8.24,2.2,12.4,2.07a.75.75,0,0,0,0-1.5,37.28,37.28,0,0,1-6.76-.2,14,14,0,0,1-5.8-2.29c-1.79-1.17-3.58.1-5.47.41a14.32,14.32,0,0,1-7.19-.73c-.91-.33-1.3,1.12-.4,1.44Z"/><path class="cls-5" d="M504,397.93a5.28,5.28,0,0,0,3-.2.85.85,0,0,0,.45-.34.79.79,0,0,0,.07-.58.76.76,0,0,0-.92-.53,4.81,4.81,0,0,1-1,.26l.2,0a4.43,4.43,0,0,1-1.26,0l.2,0-.33-.06a.75.75,0,1,0-.39,1.45Z"/><path class="cls-5" d="M436.17,474.42a7.69,7.69,0,0,1,1.08,1.13l-.12-.15a7.34,7.34,0,0,1,.75,1.18.75.75,0,0,0,1,.27.76.76,0,0,0,.27-1,8.08,8.08,0,0,0-1.95-2.47.79.79,0,0,0-.53-.22.81.81,0,0,0-.53.22.76.76,0,0,0,0,1.06Z"/><path class="cls-5" d="M432.25,438.79a10.93,10.93,0,0,0,.46,6.4,11.44,11.44,0,0,0,1.52,2.68c.66.89,1.6,1.9,1.66,3.07s-.56,2-.51,3.11a4.86,4.86,0,0,0,.94,2.73c.65.89,1.63,1.49,2.1,2.51a4.12,4.12,0,0,1-.13,3.64c-.45.85.84,1.61,1.29.75a5.61,5.61,0,0,0,0-5.46c-.57-1-1.57-1.57-2.16-2.52-.82-1.31-.36-2.48-.08-3.85.41-2.08-1-3.6-2.11-5.18a9.47,9.47,0,0,1-1.51-7.48c.21-.94-1.24-1.34-1.44-.4Z"/></svg>