<svg id="圖層_1" data-name="圖層 1" xmlns="http://www.w3.org/2000/svg" viewBox="0 0 623.62 623.62"><defs><style>.cls-1,.cls-2,.cls-5,.cls-9{fill:#1a1a1a;}.cls-1,.cls-11,.cls-12,.cls-2,.cls-3,.cls-8,.cls-9{stroke:#1a1a1a;}.cls-1,.cls-11,.cls-12,.cls-13,.cls-14,.cls-2,.cls-4,.cls-8,.cls-9{stroke-miterlimit:10;}.cls-1,.cls-2{stroke-width:0.93px;}.cls-2{opacity:0.3;}.cls-3{fill:#f9d7b2;stroke-linecap:round;stroke-linejoin:round;stroke-width:2px;}.cls-4,.cls-6,.cls-8{fill:#f2f0e5;}.cls-4{stroke:#f2f0e5;}.cls-11,.cls-4{stroke-width:2.8px;}.cls-7{fill:#e3875e;}.cls-8,.cls-9{stroke-width:2.52px;}.cls-10{fill:#fff;}.cls-11,.cls-12{fill:none;}.cls-12{stroke-width:1.87px;}.cls-13,.cls-14{fill:#6ba6dd;stroke:#6ba6dd;}.cls-13{stroke-width:2.48px;}.cls-14{stroke-width:1.84px;}</style></defs><g id="圖層_2" data-name="圖層 2"><path class="cls-1" d="M198.52,513.74c16-31.84-2.35-60.14-10.15-72.2-2.69-4.16-2.3-2.68-8.87-11.37-1.34-1.78-20.65-27.47-31.61-50.64C133.52,349.19,130.56,317,130.17,297a187.12,187.12,0,0,0-38.65,64.7c-6.23,18-19,56.55-4.78,100.66,4.08,12.64,14.11,43.75,45,63.79a103.66,103.66,0,0,0,43.15,15.6C181.79,536.23,192,526.79,198.52,513.74Z"/><path class="cls-2" d="M204.12,496c16-31.85-2.35-60.15-10.14-72.21-2.69-4.16-2.3-2.68-8.88-11.37-1.34-1.77-20.65-27.46-31.61-50.63-14.37-30.35-17.33-62.5-17.72-82.54A187.11,187.11,0,0,0,97.12,344c-6.23,18-19,56.56-4.78,100.66,4.08,12.65,14.11,43.75,45,63.79A103.52,103.52,0,0,0,180.49,524C187.39,518.49,197.57,509.06,204.12,496Z"/><path class="cls-3" d="M277.35,67.79l-21.18,50.36c-4.63,19.78-7.5,36.62-9.33,49.24-2.92,20.22-4.78,33.47-4.36,51.16a217.12,217.12,0,0,0,5,41.81c-1.53,35.94-10.24,61.56-18,78.38-2.76,6-10,20.23-26,47.52-11.87,20.19-17.21,27-24.73,43.87-16.06,36-37.39,107.57-8,135.72,2.31,2.2,19.34,6.63,53.3,15.38,44,11.35,59.28,15,76.14,7.9a62.5,62.5,0,0,0,22.35-16.45,137.11,137.11,0,0,1,20.81-1.6c19.54,0,27.87,4.15,43,1.65a67.66,67.66,0,0,0,19.44-6.43,94.8,94.8,0,0,0,35.6,5.1c14.65-.76,31-1.6,37-13.06,5.07-9.71,2.35-26.46-9.72-32.91-7.64-4.08-17.45-3.2-25.55,2q3.21-44.91,5.31-91.89,1.5-34.18,2.29-67.33a150.42,150.42,0,0,0,15.09-36.91,148.25,148.25,0,0,0,3.82-55,144.84,144.84,0,0,0-13.94-46.49,174,174,0,0,0-2.7-100.7L439.81,66.81l-32.67,43.53-100.6,1.77Z"/><path class="cls-4" d="M331.09,115.13a97,97,0,0,1,.73,29.16c-.73,5.81-2.76,21.42-12.21,36.28-11.63,18.29-23.28,18.32-41.18,35.14-8.66,8.14-19.8,21.2-28.76,42.06a133.66,133.66,0,0,0,14.75,29.68c2.84,4.27,5.37,7.55,7.08,9.69,6.66,8.29,12.77,13.79,20.57,22.27,16.08,17.49,34.69,48.17,46.28,69.56a501.55,501.55,0,0,1,26.08,56.19c10.66-4.8,39.89-18.94,58.76-41.76A216.4,216.4,0,0,0,440.84,378c1.55-2.59,6.15-10.82,11.69-22.24,3.38-7,9.45-19.47,12.85-33.39,7.82-32-1.29-60.23-4.85-70.89a139,139,0,0,0-9.85-22.61c-14.23-12.56-26.38-21.91-34.64-28-22.4-16.49-28.77-18.2-38.15-30.23A102,102,0,0,1,360,135a106.58,106.58,0,0,1-3.55-20.08Z"/><path class="cls-5" d="M294.28,554.2a13.88,13.88,0,0,1,20.59-1.47c5.77,5.69,5,14.76,4,22.09-.19,1.43,2.06,1.42,2.25,0,.88-6.63,1.44-14-1.95-20.08a15.94,15.94,0,0,0-26.49-2.13c-.89,1.13.69,2.73,1.59,1.59Z"/><path class="cls-5" d="M228.15,485.21c6.73-4.34,14.85-5.34,22.71-5.38s16,.63,23.35,3.6c14.43,5.8,21.81,20.62,24,35.26,1.51,9.95,1,20.08.44,30.09-.07,1.45,2.18,1.44,2.25,0,.88-17.12,1.6-35.37-7.25-50.75a38.34,38.34,0,0,0-15.89-15.45c-7.47-3.71-15.92-4.8-24.16-5-9.11-.19-18.76.6-26.61,5.66-1.21.78-.09,2.73,1.14,1.94Z"/><path class="cls-5" d="M298.11,573.1a6.37,6.37,0,0,1,4.66,4.43c1,3,.43,6.3-.09,9.35a1.43,1.43,0,0,0,1,1.72,1.41,1.41,0,0,0,1.73-1c.63-3.66,1.33-7.68-.07-11.26-1.1-2.84-3.34-5.39-6.45-6a1.45,1.45,0,0,0-1.73,1,1.42,1.42,0,0,0,1,1.72Z"/><path class="cls-5" d="M390.19,551.35a10.53,10.53,0,0,1,16.38,13,1.12,1.12,0,0,0,1.94,1.13,13.26,13.26,0,0,0-.29-13.58,12.53,12.53,0,0,0-12.3-5.57,12.87,12.87,0,0,0-7.32,3.45c-1.05,1,.54,2.6,1.59,1.59Z"/><path class="cls-5" d="M322.32,489a538.58,538.58,0,0,0,20.12,63.13q3.33,8.58,6.95,17.05c.57,1.33,2.51.18,1.95-1.14a534.65,534.65,0,0,1-22-61.68q-2.58-8.94-4.86-17.95a1.13,1.13,0,0,0-2.17.59Z"/><path class="cls-5" d="M388.66,564.51a9.68,9.68,0,0,1,1.25,1.23,1.39,1.39,0,0,1,.15.19c0-.08-.13-.19,0,0s.17.24.25.37a8.69,8.69,0,0,1,.46.77l.18.36c0,.07.07.15.1.23,0-.09-.09-.22,0-.06s.21.57.29.86.13.55.18.82a.73.73,0,0,1,0,.25c0-.08,0-.26,0-.07s0,.33,0,.5a1.4,1.4,0,0,0,2.8,0,10.22,10.22,0,0,0-3.69-7.39,1.52,1.52,0,0,0-1-.41,1.43,1.43,0,0,0-1,.41,1.41,1.41,0,0,0,0,2Z"/><path class="cls-5" d="M456.93,542.27a27.59,27.59,0,0,1,4.45,26.78c-.63,1.7,2.08,2.43,2.7.75a30.42,30.42,0,0,0-5.17-29.51c-1.15-1.39-3.12.6-2,2Z"/><path class="cls-5" d="M447.82,558.19l-.54,12.17a1.4,1.4,0,1,0,2.8,0l.54-12.17a1.41,1.41,0,0,0-1.4-1.4,1.43,1.43,0,0,0-1.4,1.4Z"/><path class="cls-5" d="M246.55,260.93a291.42,291.42,0,0,0,41.74,61.8q6.25,7.09,13,13.77a1.12,1.12,0,0,0,1.59-1.59,289.19,289.19,0,0,1-45.23-58.34q-4.83-8.24-9.12-16.77c-.65-1.3-2.59-.16-1.94,1.13Z"/><path class="cls-5" d="M325.77,375.05c7,9.13,12.25,19.33,17.12,29.68q7.78,16.56,15.27,33.27a177.6,177.6,0,0,1,7.56,19.13c.44,1.37,2.61.78,2.17-.6-3.71-11.69-9.18-22.75-14.28-33.87-5-10.8-9.69-21.76-15.36-32.21a127.72,127.72,0,0,0-10.53-16.53c-.87-1.14-2.82,0-2,1.13Z"/><path class="cls-5" d="M366.29,460.39q10.15,33.27,18.16,67.15,2.25,9.54,4.32,19.12c.31,1.41,2.48.81,2.17-.6q-7.37-34-16.92-67.47-2.7-9.42-5.56-18.8a1.13,1.13,0,0,0-2.17.6Z"/><path class="cls-5" d="M372.42,402.82A50.76,50.76,0,0,0,398.79,392a34.65,34.65,0,0,0,6.84-6.79c1.7-2.41,2.58-5.86.3-8.22a6.09,6.09,0,0,0-7.23-.93,8,8,0,0,0-3.67,7.4,11.06,11.06,0,0,0,3.63,7.28c6,5.62,14.54,4.2,21.88,2.61,1.76-.38,1-3.08-.75-2.7-5.46,1.18-11.83,2.62-17-.32-3.58-2.05-7.08-7.27-3.65-11.06,1.26-1.4,3.91-1.79,5,0,1.44,2.3-1.44,5.2-2.9,6.69A48.06,48.06,0,0,1,372.42,400c-1.77.19-1.79,3,0,2.8Z"/><path class="cls-1" d="M343.07,180.25c.5-.92,1.92-.49,8.75-.43,9.26.07,11.28-.68,12,.57,1.38,2.37-3,9.87-9.12,10.45C347.66,191.51,341.78,182.59,343.07,180.25Z"/><path class="cls-5" d="M353.53,190.28a52.2,52.2,0,0,1-2.9,20.25c-.45,1.28,1.58,1.83,2,.56a53.75,53.75,0,0,0,3-20.81c-.08-1.35-2.18-1.36-2.1,0Z"/><path class="cls-5" d="M343.43,198.21a1.4,1.4,0,0,0,0-2.8,1.4,1.4,0,0,0,0,2.8Z"/><path class="cls-5" d="M344.93,205a1.4,1.4,0,0,0,0-2.8,1.4,1.4,0,0,0,0,2.8Z"/><path class="cls-5" d="M335.36,198.11a1.4,1.4,0,0,0,0-2.8,1.4,1.4,0,0,0,0,2.8Z"/><path class="cls-5" d="M362.93,198a1.4,1.4,0,0,0,0-2.8,1.4,1.4,0,0,0,0,2.8Z"/><path class="cls-5" d="M362.36,203.48a1.4,1.4,0,0,0,0-2.8,1.4,1.4,0,0,0,0,2.8Z"/><path class="cls-5" d="M370.89,199.22a1.4,1.4,0,0,0,0-2.8,1.4,1.4,0,0,0,0,2.8Z"/><path class="cls-5" d="M347,109.89a28.63,28.63,0,0,0-4.78-9,1.4,1.4,0,0,0-2,0,1.43,1.43,0,0,0,0,2,25.86,25.86,0,0,1,4.06,7.73,1.4,1.4,0,0,0,2.7-.74Z"/><path class="cls-5" d="M350.9,110.6a32.14,32.14,0,0,1,1.24-8.31,1.4,1.4,0,1,0-2.7-.74,36,36,0,0,0-1.34,9,1.41,1.41,0,0,0,1.4,1.4,1.44,1.44,0,0,0,1.4-1.4Z"/><path class="cls-5" d="M355.34,111a10,10,0,0,1,0-2.25c0,.15,0,.1,0,0s0-.17,0-.26.08-.39.13-.58a9.65,9.65,0,0,1,.33-1.08c0-.08.07-.16.1-.25s.07-.16,0,0c.07-.16.15-.32.23-.48.17-.33.36-.66.56-1s.23-.33.34-.49c-.08.12,0,0,0,0l.17-.21a11,11,0,0,1,.82-.86,1.4,1.4,0,0,0,0-2,1.44,1.44,0,0,0-2,0,11.56,11.56,0,0,0-3.6,9.49,1.4,1.4,0,1,0,2.8,0Z"/><path class="cls-5" d="M455,228.31a76,76,0,0,1-25.4,10.36c-1.76.37-1,3.07.75,2.71a78.25,78.25,0,0,0,26.06-10.65c1.52-1,.11-3.4-1.41-2.42Z"/><path class="cls-5" d="M423.34,240.91l-11.44,1.32a1.44,1.44,0,0,0-1.4,1.4,1.41,1.41,0,0,0,1.4,1.4l11.44-1.32a1.44,1.44,0,0,0,1.4-1.4,1.41,1.41,0,0,0-1.4-1.4Z"/><path class="cls-6" d="M112.92,332.1a116.71,116.71,0,0,0-19.25,57,115.88,115.88,0,0,0,29.65,84.61c1.21,1.34,3.18-.64,2-2a113.75,113.75,0,0,1-26.21-50.35,113,113,0,0,1,16.25-87.83c1-1.5-1.42-2.9-2.42-1.41Z"/><path class="cls-6" d="M124.9,473.65c-.78,13.74.67,30,13.45,38.14,1.52,1,2.93-1.45,1.41-2.42-11.87-7.56-12.77-23.09-12.06-35.72.1-1.8-2.7-1.8-2.8,0Z"/><path class="cls-7" d="M439.14,69.86Q440.09,89,441,108.14H411.14Z"/><path class="cls-7" d="M277.63,70.54q-3.25,19.74-6.5,39.46l31.73-.93Z"/><path class="cls-5" d="M360.45,188.46a387.15,387.15,0,0,1,44.23-3.14,1.4,1.4,0,0,0,0-2.8,387.15,387.15,0,0,0-44.23,3.14c-1.77.22-1.79,3,0,2.8Z"/><path class="cls-5" d="M359.54,189.57a295.9,295.9,0,0,1,42.81,7.49,1.4,1.4,0,0,0,.74-2.7,300.35,300.35,0,0,0-43.55-7.59c-1.79-.17-1.78,2.63,0,2.8Z"/><path class="cls-5" d="M346.49,184.32A268.26,268.26,0,0,0,289,187c-1.78.28-1,3,.74,2.7a265.25,265.25,0,0,1,56.8-2.57c1.8.11,1.79-2.69,0-2.8Z"/><path class="cls-5" d="M348,186.45a213.63,213.63,0,0,0-42,10.91c-1.67.63-.95,3.33.74,2.7a213.72,213.72,0,0,1,42-10.91c1.77-.28,1-3-.75-2.7Z"/><path class="cls-6" d="M346.24,182.51l4-.19a.7.7,0,0,0,0-1.4l-4,.19a.7.7,0,1,0,0,1.4Z"/><path class="cls-6" d="M346.47,183a6.68,6.68,0,0,0,4-.42.7.7,0,0,0-.7-1.21c.14-.07-.09,0-.12,0l-.17.06a3.17,3.17,0,0,1-.41.12l-.42.09-.18,0h-.08a5.65,5.65,0,0,1-.82,0c-.15,0-.29,0-.43,0,.17,0,0,0-.05,0l-.24-.05a.73.73,0,0,0-.87.49.71.71,0,0,0,.49.86Z"/><path class="cls-6" d="M352.1,182.42l.6.06a.42.42,0,0,0,.27-.06.68.68,0,0,0,.23-.14.55.55,0,0,0,.14-.23.42.42,0,0,0,.06-.27l0-.18a.79.79,0,0,0-.18-.31l-.14-.11a.65.65,0,0,0-.36-.1l-.6-.06a.6.6,0,0,0-.27.06.57.57,0,0,0-.37.37.6.6,0,0,0-.06.27l0,.19a.83.83,0,0,0,.18.3l.15.11a.6.6,0,0,0,.35.1Z"/><path class="cls-8" d="M275.22,138.41c2.3-1.37,16.56-9.52,34.12-4.26,16.45,4.94,23.89,18.09,25.28,20.65a30.55,30.55,0,0,1-12.14,17.08c-9.85,6.54-22.14,5.68-30.86,1.05C279.86,166.68,273.18,152.84,275.22,138.41Z"/><circle class="cls-9" cx="315.58" cy="155.53" r="15.12"/><path class="cls-10" d="M324.81,155.77c3.41,0,3.42-5.3,0-5.3s-3.42,5.3,0,5.3Z"/><path class="cls-8" d="M430.4,137.48c-2.31-1.37-16.56-9.53-34.12-4.26A43.67,43.67,0,0,0,371,153.87,30.59,30.59,0,0,0,383.14,171c9.85,6.54,22.14,5.67,30.86,1.05C425.76,165.75,432.43,151.9,430.4,137.48Z"/><circle class="cls-9" cx="390.04" cy="154.6" r="15.12"/><path class="cls-10" d="M380.81,154.84c3.41,0,3.42-5.31,0-5.31s-3.42,5.31,0,5.31Z"/><path d="M330,123a14,14,0,0,1-15.79,3.16,1.44,1.44,0,0,0-1.91.51,1.4,1.4,0,0,0,.5,1.91,16.89,16.89,0,0,0,19.18-3.6c1.23-1.32-.74-3.3-2-2Z"/><path d="M364.24,122.6a17.85,17.85,0,0,0,19.84,7c1.71-.55,1-3.25-.74-2.7a15,15,0,0,1-16.68-5.68c-1-1.48-3.43-.08-2.42,1.42Z"/><path class="cls-11" d="M351.87,210.35a19.15,19.15,0,0,0-4.67,6.53c-.9,2.09-1.5,3.49-.93,4.67,1.56,3.23,11,2.86,12.13,0,.11-.27.32-1-1.86-4.67A49.07,49.07,0,0,0,351.87,210.35Z"/><path class="cls-5" d="M496.67,201.88a177.46,177.46,0,0,0-19.59,6.21c-1.67.64-.94,3.35.75,2.7a176.12,176.12,0,0,1,19.59-6.21c1.74-.44,1-3.14-.75-2.7Z"/><path class="cls-5" d="M502.37,215.89a196.39,196.39,0,0,0-20.95,2.27c-1.77.29-1,3,.75,2.7a190.06,190.06,0,0,1,20.2-2.17c1.79-.09,1.8-2.9,0-2.8Z"/><path class="cls-5" d="M498.25,231.28l-20.77-7.58c-1.69-.62-2.42,2.09-.74,2.7L497.5,234c1.7.62,2.43-2.09.75-2.7Z"/><path class="cls-5" d="M511.54,203a4.82,4.82,0,0,1,7.07-2.42,5.8,5.8,0,0,1,1.31,8.19,7.08,7.08,0,0,1-4.63,2.76,1.44,1.44,0,0,0-1.4,1.4c0,.68.65,1.5,1.4,1.4,4.75-.61,9.11-4.69,8.55-9.76-.52-4.76-4.8-8.55-9.67-7.28a7.48,7.48,0,0,0-5.33,5c-.53,1.73,2.17,2.46,2.7.74Z"/><path class="cls-5" d="M513.32,214.73c3.74,1,9.26,2.47,9.58,7.17a5.76,5.76,0,0,1-2.44,5.25,6,6,0,0,1-6.09.21,1.4,1.4,0,0,0-1.42,2.42c4.08,2.29,9.72.88,11.82-3.43a8.81,8.81,0,0,0,.51-6.7,9.61,9.61,0,0,0-4.23-5,25.55,25.55,0,0,0-7-2.63,1.41,1.41,0,0,0-.74,2.71Z"/><path class="cls-5" d="M511.91,229.6c3.2,2,5.5,6.31,4.33,10.09-.63,2-2.5,2.56-4.46,2.3a8.12,8.12,0,0,1-5.25-3.06,1.41,1.41,0,0,0-2,0,1.44,1.44,0,0,0,0,2,10.71,10.71,0,0,0,5.25,3.5c2.11.64,4.81.73,6.71-.55,3.7-2.5,3.23-7.91,1.54-11.46a12.65,12.65,0,0,0-4.72-5.22c-1.54-1-2.94,1.47-1.42,2.42Z"/><circle class="cls-12" cx="506.35" cy="180.94" r="4.2"/><circle class="cls-12" cx="507.75" cy="273.82" r="5.6"/><circle class="cls-12" cx="542.29" cy="239.28" r="3.73"/><path class="cls-5" d="M231.5,138.34a82.25,82.25,0,0,0-2.12,34.79c.27,1.78,3,1,2.7-.74a78.92,78.92,0,0,1,2.13-33.31,1.41,1.41,0,0,0-2.71-.74Z"/><path class="cls-5" d="M219.92,153.36c-.7,11.7-1,24.87,7.09,34.31,1.17,1.37,3.14-.62,2-2-7.55-8.78-6.92-21.51-6.27-32.33.1-1.8-2.7-1.8-2.8,0Z"/><path class="cls-13" d="M262.52,144.48c-1.17-.34-2.88,2.6-4.44,5.32-3.41,5.94-6,10.42-5.21,14,.68,3.23,3.82,4.83,6.24,3.26,4.67-3,4.59-16.58,4.58-17.45C263.67,147.91,263.63,144.79,262.52,144.48Z"/><path class="cls-14" d="M269,171.61c-.91,0-1.58,2.41-2.19,4.66-1.32,4.9-2.32,8.6-1.09,11.06,1.1,2.19,3.66,2.74,5.09,1.16,2.78-3.06.18-12.76,0-13.39C270.44,173.86,269.82,171.63,269,171.61Z"/></g></svg>