<svg id="圖層_1" data-name="圖層 1" xmlns="http://www.w3.org/2000/svg" viewBox="0 0 641 597"><defs><style>.cls-1,.cls-8{fill:#f7d5b0;stroke-width:3px;}.cls-1,.cls-2,.cls-3,.cls-5,.cls-8{stroke:#1a1a1a;}.cls-1,.cls-10,.cls-2,.cls-3,.cls-5,.cls-9{stroke-miterlimit:10;}.cls-2,.cls-5,.cls-6{fill:#1a1a1a;}.cls-2,.cls-3{stroke-width:2.12px;}.cls-3,.cls-7{fill:#f0eee3;}.cls-4{fill:#fff;}.cls-5{stroke-width:0.71px;}.cls-8{stroke-linecap:round;stroke-linejoin:round;}.cls-10,.cls-9{fill:#93c9e9;stroke:#93c9e9;}.cls-10{stroke-width:0.74px;}</style></defs><path class="cls-1" d="M59.78,256.11c.39-50.49,6.47-63.9,12.75-65.16s15.54,9.61,24.08,19.83A117.72,117.72,0,0,1,110.78,232l63-21.25a325.2,325.2,0,0,1,7.09-35.41c2.37-9.14,3.81-13,7.08-14.17,6.73-2.4,16.18,8.38,21.25,14.17a97.37,97.37,0,0,1,19.12,34,74.51,74.51,0,0,1,26.91,28.33c5.81-1.7,14.93-4.28,26.19-7.07,33.63-8.33,65.64-16.05,104-15,18.48.51,32.09,2.88,44,5,24.42,4.36,69.39,12.71,116,43a269.33,269.33,0,0,1,37,29c4.53,9.57,25.32,55.78,3.57,93.81-7.55,13.21-18,21.51-28.57,28.19-33.09,20.94-73.49,29.57-168.32,28.47C296.4,442,235,432.6,220.56,430.34c-38.58-6.06-71-13.33-95.26-19.47a78.85,78.85,0,0,1-25.85-4.61c-32.66-11.81-54.73-45.36-58.79-78.62C36.22,291.25,54.3,263.82,59.78,256.11Z"/><path class="cls-2" d="M530,242.12c-34.39-19.56-65-22.9-100.31-26.74-63.56-6.93-111.55,3.08-130.69,7.74a366.08,366.08,0,0,0-39.68,12.09c-2.52,3.07-3.91,6-4,8.86-.47,13.38,28.09,28.34,52.42,29,40.41,1.15,69.32-37.07,75.78-46a109.24,109.24,0,0,0,18.42,31.16c23.45,27.74,54.06,35.17,64.45,37.54,42.24,9.63,76.57-6,87.11-11.33-1.17,5-3.6,18.34,2.84,32.58,9.63,21.32,31.46,27.72,38.77,29.31.18-12-1.21-35-14.69-58.35C565.9,262.93,545.33,250.88,530,242.12Z"/><path class="cls-2" d="M255.79,237.36c-.17.11-.35.23-.53.33a74.51,74.51,0,0,0-26.91-28.33,97.37,97.37,0,0,0-19.12-34c-5.07-5.79-14.52-16.57-21.25-14.17-3.27,1.17-4.71,5-7.08,14.17a325.2,325.2,0,0,0-7.09,35.41l-63,21.25a117.72,117.72,0,0,0-14.17-21.25C88.07,200.56,79,189.67,72.53,191s-12.36,14.67-12.75,65.16c-4.94,6.95-20.13,29.95-19.8,61.1a51.47,51.47,0,0,0,14.85,9c25.1,9.68,49.89-4.43,54.53-7.08,34.89-20,38.32-63.8,38.59-68,9.13,11,18.61,15.64,24.45,17.74C198.58,278.25,231.72,265.72,255.79,237.36Z"/><path class="cls-3" d="M135.92,299.67a24.08,24.08,0,0,1-24.08,24.08c-14.75,0-25.55-14.58-24.08-24.08.6-3.91,3.8-7.12,10.19-13.55,6.57-6.61,9.86-9.92,13.89-10.53C121.36,274.13,135.92,284.91,135.92,299.67Z"/><path class="cls-3" d="M218.79,269.92c1.86,9.77-9.63,24.09-24.08,24.08-13.18,0-24.51-11.93-24.08-24.08.31-8.92,7-18.36,15.32-19.8,4.41-.76,7.88,1,14,4C209.13,258.69,217.44,262.82,218.79,269.92Z"/><ellipse class="cls-2" cx="113.61" cy="308.88" rx="17.35" ry="14.87"/><ellipse class="cls-2" cx="195.06" cy="279.84" rx="17.35" ry="14.87"/><path class="cls-4" d="M121.17,304.05c4.1,0,4.11-6.37,0-6.37s-4.11,6.37,0,6.37Z"/><path class="cls-4" d="M200.86,274c4.1,0,4.1-6.37,0-6.37s-4.11,6.37,0,6.37Z"/><path class="cls-5" d="M153,311c.12-.78,1.24-.84,6.14-2.56,6.62-2.33,7.87-3.38,8.71-2.68,1.59,1.34.37,7.83-3.83,9.81C159.17,317.86,152.68,313,153,311Z"/><path class="cls-6" d="M167.69,312.31a293.19,293.19,0,0,1,30.51-13.52c1.27-.47.72-2.53-.56-2a297.64,297.64,0,0,0-31,13.72c-1.22.63-.15,2.46,1.07,1.84Z"/><path class="cls-6" d="M167.08,313.45a224.58,224.58,0,0,1,32.48-5.7c1.34-.13,1.36-2.26,0-2.12a227.17,227.17,0,0,0-33.05,5.77,1.06,1.06,0,0,0,.57,2.05Z"/><path class="cls-6" d="M156.56,313a204.2,204.2,0,0,0-40.38,16.69c-1.21.66-.13,2.49,1.07,1.84a201,201,0,0,1,39.88-16.48,1.06,1.06,0,0,0-.57-2.05Z"/><path class="cls-6" d="M158.21,314.1a164.61,164.61,0,0,0-27.39,18.77c-1,.88.47,2.38,1.51,1.5a161.35,161.35,0,0,1,26.95-18.43c1.2-.66.13-2.49-1.07-1.84Z"/><path class="cls-7" d="M156.25,312.1a4.85,4.85,0,0,0,2.61-1.28.53.53,0,0,0,0-.75.54.54,0,0,0-.75,0l-.25.22s-.08.06,0,0,0,0,0,0l-.12.09a3.66,3.66,0,0,1-.57.33l-.15.07h0l-.07,0-.31.11a4.89,4.89,0,0,1-.64.14.52.52,0,0,0-.32.24.54.54,0,0,0-.06.41.55.55,0,0,0,.66.37Z"/><path class="cls-7" d="M160,310.24l.45-.11a.4.4,0,0,0,.18-.1.38.38,0,0,0,.14-.14.39.39,0,0,0,.06-.2.38.38,0,0,0,0-.21l-.05-.13a.58.58,0,0,0-.19-.19l-.13-.05a.45.45,0,0,0-.28,0l-.45.11a.31.31,0,0,0-.18.09.5.5,0,0,0-.14.15.36.36,0,0,0-.06.2.38.38,0,0,0,0,.21l.05.13a.58.58,0,0,0,.19.19l.13.05a.45.45,0,0,0,.28,0Z"/><path class="cls-6" d="M161.59,315.53l2.63,8.75a1.06,1.06,0,0,0,2.05-.57L163.64,315a1.06,1.06,0,0,0-2,.57Z"/><path class="cls-4" d="M192.06,165.54l.33,0-.28,0a4.55,4.55,0,0,1,1,.25l-.07,0,.1,0,.22.11a3.35,3.35,0,0,1,.45.27l.09.07s.18.12,0,0,0,0,0,0l.11.09.35.35c.07.07.12.14.18.21s0-.07-.06-.09a.76.76,0,0,1,.08.11c.1.15.19.3.28.45a1.06,1.06,0,1,0,1.83-1.07,5.66,5.66,0,0,0-4.62-2.89,1.05,1.05,0,0,0-1.06,1.06,1.07,1.07,0,0,0,1.06,1.06Z"/><path class="cls-4" d="M199.07,171.45a58.36,58.36,0,0,1,12.46,16c.64,1.2,2.47.13,1.83-1.08a60.2,60.2,0,0,0-12.79-16.46c-1-.91-2.52.59-1.5,1.51Z"/><path class="cls-4" d="M74.19,195.33a4.34,4.34,0,0,1,.72,0l-.29,0a4.58,4.58,0,0,1,1,.29l-.25-.11a4.85,4.85,0,0,1,.88.52l-.22-.16a3.76,3.76,0,0,1,.69.69l-.17-.22,0,0a1.2,1.2,0,0,0,.64.49,1.08,1.08,0,0,0,.82-.11,1.11,1.11,0,0,0,.49-.63,1,1,0,0,0-.11-.82,5,5,0,0,0-4.27-2.09,1.08,1.08,0,0,0-1.06,1.06,1.07,1.07,0,0,0,1.06,1.06Z"/><path class="cls-4" d="M480.78,239.94a114,114,0,0,1,54.43,21.16c1.11.81,2.17-1,1.08-1.83A116.31,116.31,0,0,0,493.84,240a117.8,117.8,0,0,0-13.06-2.18c-1.35-.15-1.34,2,0,2.12Z"/><path class="cls-4" d="M545.26,264.86l3.77,2.63a1.06,1.06,0,0,0,1.45-.38,1.09,1.09,0,0,0-.38-1.46L546.33,263a1.06,1.06,0,0,0-1.07,1.84Z"/><path class="cls-6" d="M156.23,322.37a.53.53,0,0,0,0-1.06.53.53,0,0,0,0,1.06Z"/><path class="cls-6" d="M150.48,324.72a.53.53,0,0,0,0-1.06.53.53,0,0,0,0,1.06Z"/><path class="cls-6" d="M153.87,326.29a.53.53,0,0,0,0-1.06.53.53,0,0,0,0,1.06Z"/><path class="cls-6" d="M168,315.84a.54.54,0,0,0,0-1.07.54.54,0,0,0,0,1.07Z"/><path class="cls-6" d="M171.38,317.4a.53.53,0,0,0,0-1.06.53.53,0,0,0,0,1.06Z"/><path class="cls-7" d="M501.62,421.44C501,434.58,413.42,442.2,347.76,441,283.6,439.72,197.1,429.2,197,416.12c-.15-12.54,79.18-27.41,152.8-26.13S502.21,408.89,501.62,421.44Z"/><path class="cls-8" d="M285.45,380.62a182.83,182.83,0,0,1-62,38c-43.81,15.9-80.62,10-91,8-27.51-5.21-69.35-20.56-69-38,.11-5.5,4.39-9.45,5-10,14.72-13.19,44.23,13.34,87,10a99.49,99.49,0,0,0,27-6"/><path class="cls-6" d="M154.62,333.66a26.57,26.57,0,0,1,26.51-9.58c1.33.31,1.9-1.74.56-2.05a28.64,28.64,0,0,0-28.57,10.13c-.83,1.07.66,2.58,1.5,1.5Z"/><path class="cls-9" d="M100.45,321.62c-.24,1.09,5,3.28,5.5,3.5,3.11,1.3,3.83.9,5,2,1.49,1.43,1.7,3.48,2,7a42.4,42.4,0,0,1,0,6c-.37,7-1.14,8.35,0,10,1.34,1.95,4.39,3,6,2,2.1-1.26,1.46-5.79,1-9-.34-2.32-.68-2.7-2-8-1.56-6.24-1.45-7.17-1-8,1-1.87,2.67-1.39,6-4,2-1.54,4.49-4.16,4-5s-4.43,1.31-10.5,2.5C107.36,322.42,100.71,320.41,100.45,321.62Z"/><path class="cls-9" d="M111.27,357.62a73.13,73.13,0,0,0,2,9c1.1,3.81,2,5.64,1,7a4.1,4.1,0,0,1-5,1C107.62,373.49,107,369.57,111.27,357.62Z"/><path class="cls-10" d="M220.45,284.71a54.7,54.7,0,0,1-.32,6.8c-.32,2.91-.73,4.34.15,5.22a3.05,3.05,0,0,0,3.77.09C225.1,295.79,225.05,292.86,220.45,284.71Z"/><path class="cls-6" d="M116.8,218.58a3.06,3.06,0,0,0,.33,1.26,2.61,2.61,0,0,0,.36.53,2.19,2.19,0,0,0,.34.34.61.61,0,0,0,.24.15.59.59,0,0,0,.29.07.75.75,0,0,0,.75-.75.73.73,0,0,0-.22-.53,2.59,2.59,0,0,1-.37-.37l.12.15a2.87,2.87,0,0,1-.28-.48l.08.18a2.48,2.48,0,0,1-.15-.55l0,.2a1.23,1.23,0,0,1,0-.2.84.84,0,0,0-.22-.53.79.79,0,0,0-.53-.22.75.75,0,0,0-.75.75Z"/><path class="cls-3" d="M126.11,197.06c-9.37-7.59-10.84-10.63-10.16-11.94.83-1.6,4.46.23,9-2,5.29-2.58,5-7.35,9-8,3.32-.53,4.24,2.71,9,3,5,.31,7.5-3,9-2,1.26.86,1.34,4.53-4,17a36.25,36.25,0,0,1,10.7,4.82c3.55,2.35,13,8.7,12.72,16.19-.45,11.86-23.14,17.68-25.44,18.24-3.09.76-27,6.65-33.18-4.82C108.63,219.89,113.41,206.31,126.11,197.06Z"/><path class="cls-3" d="M126,197.12a22.61,22.61,0,0,0,22-4"/><path class="cls-6" d="M125.42,204.26a18.94,18.94,0,0,0-8.59,16.33.75.75,0,0,0,1.5,0,17.44,17.44,0,0,1,7.85-15c.81-.52.06-1.82-.76-1.29Z"/><path class="cls-6" d="M148.45,181a3.83,3.83,0,0,1,0,.83l0-.2a4,4,0,0,1-.09.48,2.16,2.16,0,0,1-.15.45s.06-.14,0,0a.41.41,0,0,1,0,.09c0,.08-.08.16-.12.24L148,183l-.08.11s-.12.16,0,0a.79.79,0,0,0-.22.53.77.77,0,0,0,.22.53.75.75,0,0,0,.53.22.73.73,0,0,0,.53-.22,4.77,4.77,0,0,0,.84-1.57A4.26,4.26,0,0,0,150,181a.81.81,0,0,0-.22-.53.79.79,0,0,0-.53-.22.76.76,0,0,0-.75.75Z"/><path class="cls-2" d="M595,346.12c-.85,19.41-5.65,55.61-32,84-56.79,61.18-176.49,46-185,19-1.68-5.3,1.15-10.44,2-12,13.55-25,70.42-2.62,122-16C526.25,414.82,560.5,397.72,595,346.12Z"/><path class="cls-4" d="M436,464.72a58.57,58.57,0,0,1-42.86-10.4c-1.11-.81-2.17,1-1.07,1.83a60.61,60.61,0,0,0,44.49,10.62c1.35-.21.78-2.26-.56-2Z"/><path class="cls-4" d="M383.62,448.81a5.48,5.48,0,0,0,2.9,5,1,1,0,0,0,1-1.7,4.46,4.46,0,0,1-.52-.31s-.18-.13-.05,0,0,0,0,0l-.23-.21a4,4,0,0,1-.39-.43c-.08-.09.12.18,0,0l-.08-.13c-.06-.08-.11-.17-.17-.26l-.13-.24-.06-.14c-.07-.13,0,0,0,0-.06-.19-.14-.38-.19-.58s-.05-.2-.07-.3a.5.5,0,0,0,0-.12c.07.27,0,.1,0,0a4.14,4.14,0,0,1,0-.61,1,1,0,0,0-1-1,1,1,0,0,0-1,1Z"/><path d="M64.72,389.8a18.7,18.7,0,0,0,7.79,4,1.5,1.5,0,0,0,.79-2.89,16.9,16.9,0,0,1-1.84-.55l-.45-.17-.23-.09c-.15-.06-.09,0,0,0a4.88,4.88,0,0,1-.93-.43,17.13,17.13,0,0,1-1.66-1c-.27-.17-.53-.36-.79-.55,0,0-.24-.18-.09-.06s-.06-.05-.08-.07l-.42-.35a1.53,1.53,0,0,0-2.12,0,1.51,1.51,0,0,0,0,2.12Z"/><path d="M69.89,381l6.92,5a1.5,1.5,0,0,0,2-.53,1.55,1.55,0,0,0-.54-2.06l-6.92-5.05a1.5,1.5,0,0,0-2.05.53,1.55,1.55,0,0,0,.54,2.06Z"/><path class="cls-6" d="M328.62,211.7a.8.8,0,0,1,1.14-.89c.91.36,1.38,1.15,2.46,1.25a3,3,0,0,0,2.3-.8c.36-.32,1-1.39,1.42-1.48s1.57.85,2.1,1a3.79,3.79,0,0,0,2.61-.22c.76-.33,1.38-.85,2.11-1.24s1.3,0,2.09.45a5,5,0,0,0,5.08-.11,7.71,7.71,0,0,1,2.16-1c.79-.1,1.3.6,1.9,1,2,1.43,3.79.46,5.86-.24a5.11,5.11,0,0,1,5.18,1.14,1.52,1.52,0,0,0,2.35-.31,4.67,4.67,0,0,1,6.2-1.29,1.5,1.5,0,0,0,1.52-2.59,7.73,7.73,0,0,0-10.31,2.37l2.36-.31a8.19,8.19,0,0,0-4.47-2.19c-2-.29-3.52.33-5.35,1a1.83,1.83,0,0,1-2.18-.45,4.83,4.83,0,0,0-2.08-1.08c-1.59-.33-3,.5-4.37,1.21a3.26,3.26,0,0,1-1.61.54c-.82-.08-1.57-.89-2.34-1.17-1.59-.57-3,.07-4.3.93-.48.31-1,.78-1.61.66-.8-.16-1.47-.87-2.3-1-1.65-.34-2.67.7-3.67,1.81-.63.7-.74.13-1.46-.35a3.47,3.47,0,0,0-2.6-.57,3.84,3.84,0,0,0-3.19,4c.16,1.9,3.16,1.92,3,0Z"/><path class="cls-6" d="M452.59,214.46a1.16,1.16,0,0,1,1.33-.65c.73.19,1.15,1.25,1.75,1.69,1.61,1.16,3.14.38,4.85,0,1-.2,1.34.41,2,1a4.65,4.65,0,0,0,2.34,1.22c1.73.28,3.22-.59,4.8-1.12a2.2,2.2,0,0,1,1.92-.08c.88.49,1.43,1.29,2.46,1.57,1.76.49,3.25-.44,4.95-.67.88-.13,1.07.27,1.63.89a3.88,3.88,0,0,0,2.61,1.38c1.06.1,2.12-.28,3.14.07a3.27,3.27,0,0,1,2,1.82c.72,1.77,3.62,1,2.9-.8a6.46,6.46,0,0,0-3.38-3.64,6.22,6.22,0,0,0-2.51-.54c-1,0-1.89.4-2.62-.41a4.32,4.32,0,0,0-4.25-1.72c-1.23.2-2.9,1.23-4.06.5a13.28,13.28,0,0,0-2-1.37,4.45,4.45,0,0,0-2.37-.2c-1.43.24-2.68,1.13-4.11,1.35-.76.12-1.14-.22-1.66-.73a5.48,5.48,0,0,0-2.18-1.47,4.67,4.67,0,0,0-2.23,0c-.61.13-1.67.73-2.3.56s-1.16-1.36-1.74-1.75a4,4,0,0,0-2.22-.62,4.21,4.21,0,0,0-3.93,2.87c-.62,1.83,2.28,2.62,2.9.8Z"/><path class="cls-6" d="M589.39,297.52a4,4,0,0,1,2,.68c.54.55,0,.78-.37,1.29a2.26,2.26,0,0,0,.73,3.14c1,.57,2.07.4,2.39,1.68.37,1.47-.7,3-1.42,4.15a1.51,1.51,0,0,0,.89,2.2c.71.27,2,.71,2.2,1.57a4.25,4.25,0,0,1-.28,1.47,4.12,4.12,0,0,0,0,1.64,3.26,3.26,0,0,0,1.84,2.21c.78.4,1,.31.65,1.17-.6,1.55-1.69,3.07-.92,4.79a3.54,3.54,0,0,0,.9,1.2c.35.3.83.51,1,1,.29,1-.65,2.31-1.15,3.07-1,1.63,1.55,3.13,2.59,1.52,1.4-2.17,2.52-5.24.27-7.27-.86-.77-1-.72-.51-1.83a8.58,8.58,0,0,0,1-3,3.06,3.06,0,0,0-1.28-2.68c-.36-.27-1.14-.44-1.4-.77s.16-1.13.22-1.51c.54-3-1.81-4.56-4.29-5.49l.9,2.2c1.06-1.73,2.11-3.62,1.85-5.73a4.58,4.58,0,0,0-2.87-3.87c-.18-.07-.85-.37-1-.3,0,1,.19,1.26.53.72l.44-.57a3.2,3.2,0,0,0,.29-2.46c-.56-2-2.52-2.77-4.38-3.13s-2.69,2.52-.8,2.89Z"/></svg>