<svg id="圖層_1" data-name="圖層 1" xmlns="http://www.w3.org/2000/svg" viewBox="0 0 750.79 590.09"><defs><style>.cls-1,.cls-12,.cls-2,.cls-5,.cls-9{fill:#1a1a1a;}.cls-1,.cls-11,.cls-12,.cls-15,.cls-16,.cls-18,.cls-2,.cls-3,.cls-8,.cls-9{stroke:#1a1a1a;}.cls-1,.cls-11,.cls-12,.cls-13,.cls-14,.cls-15,.cls-16,.cls-18,.cls-2,.cls-4,.cls-8,.cls-9{stroke-miterlimit:10;}.cls-1,.cls-2{stroke-width:0.8px;}.cls-2{opacity:0.3;}.cls-3{fill:#f9d7b2;stroke-linecap:round;stroke-linejoin:round;stroke-width:1.71px;}.cls-11,.cls-4,.cls-6,.cls-8{fill:#f2f0e5;}.cls-4{stroke:#f2f0e5;stroke-width:2.39px;}.cls-7{fill:#e3875e;}.cls-8,.cls-9{stroke-width:2.08px;}.cls-10{fill:#fff;}.cls-11,.cls-12{stroke-width:2.06px;}.cls-13,.cls-14{fill:#6ba6dd;stroke:#6ba6dd;}.cls-13{stroke-width:2.12px;}.cls-14{stroke-width:1.57px;}.cls-15{fill:#cf855e;stroke-width:1.45px;}.cls-16{fill:#e1855e;}.cls-16,.cls-18{stroke-width:1.63px;}.cls-17{fill:#f0eee3;opacity:0.19;}.cls-18{fill:#f7d5b0;}</style></defs><path class="cls-1" d="M145.18,453.84c13.63-27.18-2-51.34-8.65-61.64-2.3-3.55-2-2.29-7.58-9.7-1.15-1.52-17.63-23.45-27-43.23-12.27-25.91-14.79-53.36-15.13-70.47a159.77,159.77,0,0,0-33,55.23c-5.32,15.36-16.22,48.28-4.08,85.94,3.48,10.8,12,37.35,38.41,54.46A88.34,88.34,0,0,0,125,477.74C130.9,473,139.6,465,145.18,453.84Z"/><path class="cls-2" d="M150,438.7c13.63-27.18-2-51.34-8.65-61.64-2.3-3.55-2-2.29-7.58-9.7-1.15-1.52-17.63-23.45-27-43.23C94.47,298.22,92,270.77,91.62,253.66a159.77,159.77,0,0,0-33,55.23c-5.32,15.36-16.22,48.28-4.08,85.94,3.48,10.79,12,37.35,38.42,54.46A88.26,88.26,0,0,0,129.8,462.6C135.68,457.9,144.38,449.85,150,438.7Z"/><path class="cls-3" d="M212.83,73.06l-18.15,43c-4,16.88-6.45,31.25-8,42-2.52,17.26-4.12,28.57-3.79,43.67a185.53,185.53,0,0,0,4.25,35.71c-1.35,30.67-8.82,52.54-15.45,66.88-2.36,5.11-8.56,17.27-22.29,40.54-10.17,17.23-14.73,23-21.18,37.42-13.75,30.69-32.06,91.79-7,115.86,2,1.89,16.5,5.68,45.49,13.2,37.58,9.75,50.59,12.92,65,6.84a53.32,53.32,0,0,0,19.1-14,90.59,90.59,0,0,1,17.77-1.34c11,.26,14.44,2.36,26.69,3.57,14.91,1.48,23.81,2.36,28-3,3.67-4.68,3.61-14-2-19-5.08-4.53-12.07-3.19-13-3q-7-29-14-58c34.8,33.25,73.2,48.39,97.48,35.54a39.07,39.07,0,0,0,12-10c5.89-11.05,1.86-24.48-8-30-8.48-4.76-19.86-2.86-27,5l-36-53a146.7,146.7,0,0,0,29.37-39.06c5-9.67,16.54-32.67,16.15-64.48a131.28,131.28,0,0,0-13.33-55.72,148.53,148.53,0,0,0-2.17-86L351.52,72.44l-27.95,37.12-85.88,1.38Z"/><path class="cls-4" d="M258.37,113.54a83,83,0,0,1,.62,24.9c-.63,5-2.35,18.28-10.42,31-9.94,15.62-19.88,15.65-35.16,30-7.39,6.94-16.91,18.09-24.56,35.91a114.61,114.61,0,0,0,12.6,25.34c2.43,3.64,4.58,6.44,6,8.27,5.68,7.07,10.91,11.77,17.57,19,13.72,14.93,29.61,41.12,39.5,59.38a426.82,426.82,0,0,1,22.27,48c9.1-4.1,34.05-16.18,50.17-35.66A184.64,184.64,0,0,0,352.06,338c1.33-2.22,5.25-9.24,10-19,2.89-5.94,8.07-16.63,11-28.51,6.68-27.34-1.1-51.41-4.14-60.52a117.65,117.65,0,0,0-8.41-19.3C348.32,199.92,338,192,330.89,186.76c-19.12-14.08-24.56-15.54-32.57-25.82a87,87,0,0,1-15.27-30.42,90.41,90.41,0,0,1-3-17.14Z"/><path class="cls-5" d="M226.94,488.39a11.85,11.85,0,0,1,17.59-1.24c4.91,4.86,4.24,12.59,3.41,18.84-.16,1.22,1.76,1.21,1.92,0,.95-7.12,1.34-15.84-4.77-20.92a13.75,13.75,0,0,0-19.51,2c-.76,1,.59,2.33,1.36,1.36Z"/><path class="cls-5" d="M170.48,429.49c5.76-3.71,12.68-4.56,19.4-4.59s13.58.53,19.85,3c12.35,4.93,18.69,17.57,20.58,30.1,1.29,8.5.82,17.16.38,25.72-.06,1.23,1.86,1.23,1.92,0,.75-14.68,1.37-30.36-6.3-43.51a32.53,32.53,0,0,0-13.72-13.13C206.2,424,199,423.12,192,423c-7.7-.14-15.83.57-22.47,4.84-1,.67-.08,2.33,1,1.66Z"/><path class="cls-5" d="M230.21,504.52a5.43,5.43,0,0,1,4,3.78c.88,2.58.38,5.38-.07,8a1.23,1.23,0,0,0,.83,1.47,1.2,1.2,0,0,0,1.47-.84c.54-3.12,1.14-6.55,0-9.61a7.76,7.76,0,0,0-5.51-5.09,1.22,1.22,0,0,0-1.47.83,1.2,1.2,0,0,0,.83,1.47Z"/><path class="cls-5" d="M250.88,432.74A461.79,461.79,0,0,0,268,486.6q2.85,7.35,5.95,14.59c.49,1.14,2.14.16,1.66-1a459.35,459.35,0,0,1-18.81-52.78q-2.19-7.57-4.11-15.21a1,1,0,0,0-1.85.51Z"/><path class="cls-5" d="M306.51,500.19a7.52,7.52,0,0,1,1.07,1,1.92,1.92,0,0,1,.13.17c0-.07-.11-.16,0,0l.22.32a7.16,7.16,0,0,1,.39.66l.15.31a1.63,1.63,0,0,1,.09.19c0-.07-.08-.19,0,0s.18.49.25.73.12.47.16.71a.82.82,0,0,1,0,.21c0-.07,0-.23,0-.06s0,.28,0,.42a1.22,1.22,0,0,0,1.2,1.2,1.21,1.21,0,0,0,1.19-1.2,8.68,8.68,0,0,0-3.15-6.3,1.3,1.3,0,0,0-.84-.35,1.23,1.23,0,0,0-.85.35,1.21,1.21,0,0,0,0,1.69Z"/><path class="cls-5" d="M186.19,238a249.05,249.05,0,0,0,35.48,52.59q5.42,6.15,11.22,11.93a1,1,0,0,0,1.36-1.36,246.61,246.61,0,0,1-38.69-49.94q-4.08-7-7.71-14.19c-.55-1.1-2.21-.13-1.66,1Z"/><path class="cls-5" d="M253.83,335.44c5.94,7.8,10.46,16.53,14.62,25.37q6.63,14.08,13,28.3a151,151,0,0,1,6.49,16.4c.37,1.17,2.23.67,1.85-.51-3.15-9.92-7.79-19.31-12.12-28.75s-8.33-18.73-13.21-27.73a109.57,109.57,0,0,0-9-14c-.74-1-2.41,0-1.66,1Z"/><path class="cls-5" d="M288.42,408.3q8.65,28.35,15.47,57.23,1.94,8.19,3.72,16.42c.26,1.2,2.11.69,1.85-.52q-6.29-29-14.42-57.5-2.31-8.08-4.77-16.14a1,1,0,0,0-1.85.51Z"/><path class="cls-5" d="M293.65,359.15a44,44,0,0,0,16-4.93,43.4,43.4,0,0,0,7-4.67,25.08,25.08,0,0,0,5.83-6.07c1.28-2.13,1.59-5-.49-6.72a5.2,5.2,0,0,0-6.14-.28c-4.42,3-3.06,9.27.35,12.4,5.17,4.72,12.37,3.51,18.61,2.16,1.5-.32.87-2.63-.64-2.3-4.53,1-9.86,2.2-14.19-.11-3.16-1.68-6.33-6-3.57-9.45,1-1.29,3.35-1.77,4.41-.19,1.31,1.94-1.19,4.47-2.43,5.74a41.08,41.08,0,0,1-24.66,12c-1.51.17-1.53,2.56,0,2.39Z"/><path class="cls-1" d="M268.59,169.13c.43-.78,1.64-.41,7.47-.37,7.91.07,9.63-.57,10.25.49,1.17,2-2.6,8.43-7.79,8.92C272.51,178.74,267.49,171.13,268.59,169.13Z"/><path class="cls-5" d="M277.52,177.69A44.47,44.47,0,0,1,275,195c-.38,1.09,1.35,1.56,1.73.48a45.73,45.73,0,0,0,2.54-17.78c-.06-1.14-1.86-1.15-1.79,0Z"/><path class="cls-5" d="M268.9,184.47a1.2,1.2,0,0,0,0-2.39,1.2,1.2,0,0,0,0,2.39Z"/><path class="cls-5" d="M270.18,190.25a1.2,1.2,0,0,0,0-2.39,1.2,1.2,0,0,0,0,2.39Z"/><path class="cls-5" d="M262,184.38a1.2,1.2,0,0,0,0-2.39,1.2,1.2,0,0,0,0,2.39Z"/><path class="cls-5" d="M285.55,184.31a1.2,1.2,0,0,0,0-2.39,1.2,1.2,0,0,0,0,2.39Z"/><path class="cls-5" d="M285.06,189a1.2,1.2,0,0,0,0-2.39,1.2,1.2,0,0,0,0,2.39Z"/><path class="cls-5" d="M292.34,185.33a1.2,1.2,0,0,0,0-2.39,1.2,1.2,0,0,0,0,2.39Z"/><path class="cls-5" d="M271.92,109.06a24.23,24.23,0,0,0-4.08-7.65,1.19,1.19,0,0,0-1.69,0,1.23,1.23,0,0,0,0,1.69,22,22,0,0,1,3.47,6.6,1.19,1.19,0,0,0,2.3-.64Z"/><path class="cls-5" d="M275.28,109.67a27.58,27.58,0,0,1,1.05-7.09,1.19,1.19,0,1,0-2.3-.64,30.61,30.61,0,0,0-1.14,7.73,1.19,1.19,0,0,0,1.19,1.19,1.22,1.22,0,0,0,1.2-1.19Z"/><path class="cls-5" d="M279.07,110.05a8.22,8.22,0,0,1,0-1.92c0,.13,0,.08,0,0a1.7,1.7,0,0,0,0-.22c0-.17.07-.33.11-.5s.17-.62.28-.92l.09-.21c0-.08.06-.14,0,0,.06-.14.12-.27.19-.41s.31-.56.48-.83l.29-.42c-.07.1,0,0,0,0l.15-.18a8.16,8.16,0,0,1,.71-.73,1.2,1.2,0,1,0-1.69-1.69,9.87,9.87,0,0,0-3.09,8.1,1.24,1.24,0,0,0,1.2,1.2,1.22,1.22,0,0,0,1.2-1.2Z"/><path class="cls-5" d="M364.14,210.16A64.91,64.91,0,0,1,342.46,219c-1.51.32-.87,2.62.63,2.31a67.07,67.07,0,0,0,22.26-9.09c1.29-.83.09-2.9-1.21-2.07Z"/><path class="cls-5" d="M337.12,220.92l-9.76,1.13a1.24,1.24,0,0,0-1.2,1.2,1.21,1.21,0,0,0,1.2,1.19l9.76-1.13a1.2,1.2,0,1,0,0-2.39Z"/><path class="cls-6" d="M72.11,298.77a99.64,99.64,0,0,0-16.44,48.71A99,99,0,0,0,81,419.64c1,1.14,2.72-.55,1.7-1.7a97,97,0,0,1-22.33-42.78A95.86,95.86,0,0,1,62,325.64,96.88,96.88,0,0,1,74.17,300c.86-1.28-1.21-2.48-2.06-1.21Z"/><path class="cls-6" d="M82.33,419.62c-.66,11.74.58,25.59,11.49,32.56,1.3.83,2.5-1.24,1.2-2.07-10.12-6.47-10.9-19.7-10.3-30.49.09-1.54-2.3-1.54-2.39,0Z"/><path class="cls-7" d="M350.62,74.89l1.59,32.68h-25.5Z"/><path class="cls-7" d="M212.72,75.47l-5.55,33.69,27.1-.8Z"/><path class="cls-5" d="M283.43,176.14a333.32,333.32,0,0,1,37.76-2.68,1.2,1.2,0,0,0,0-2.39,333.32,333.32,0,0,0-37.76,2.68c-1.51.19-1.53,2.59,0,2.39Z"/><path class="cls-5" d="M282.65,177.09a252.72,252.72,0,0,1,36.55,6.39,1.19,1.19,0,0,0,.64-2.3,256,256,0,0,0-37.19-6.48c-1.53-.15-1.52,2.24,0,2.39Z"/><path class="cls-5" d="M271.51,172.61a229.49,229.49,0,0,0-49.13,2.28c-1.51.23-.87,2.54.64,2.3A226.77,226.77,0,0,1,271.51,175c1.54.09,1.53-2.3,0-2.39Z"/><path class="cls-5" d="M272.82,174.42A183.37,183.37,0,0,0,237,183.74c-1.43.54-.81,2.85.64,2.31a183.18,183.18,0,0,1,35.85-9.32c1.51-.24.87-2.54-.64-2.31Z"/><path class="cls-6" d="M271.3,171.06l3.38-.16a.6.6,0,1,0,0-1.19l-3.38.16a.6.6,0,1,0,0,1.19Z"/><path class="cls-6" d="M271.5,171.52a5.62,5.62,0,0,0,3.41-.37.59.59,0,0,0,.22-.81.62.62,0,0,0-.82-.22l-.1,0-.15.05-.34.1-.36.08-.15,0c.14,0,0,0-.08,0a4.1,4.1,0,0,1-.7,0l-.36,0H272l-.2,0a.62.62,0,0,0-.74.42.61.61,0,0,0,.42.74Z"/><path class="cls-6" d="M276.3,171l.52,0a.59.59,0,0,0,.23,0,.5.5,0,0,0,.19-.13.35.35,0,0,0,.12-.19.37.37,0,0,0,.05-.23l0-.16a.61.61,0,0,0-.15-.26l-.12-.09a.55.55,0,0,0-.3-.09l-.52-.05a.46.46,0,0,0-.23.05.5.5,0,0,0-.19.13.35.35,0,0,0-.12.19.46.46,0,0,0-.06.23l0,.16a.54.54,0,0,0,.16.26l.12.09a.53.53,0,0,0,.3.09Z"/><path class="cls-8" d="M215.31,135.2c1.75-1.31,12.61-9.1,26.83-5.65,13.32,3.23,19.95,14,21.19,16.08-.45,2.34-2.19,9.92-8.68,15.27a23,23,0,0,1-24.42,2.72C220.55,159,214.49,147.6,215.31,135.2Z"/><path class="cls-9" d="M240.21,140.65c1.14,7-3.24,13.7-9.78,14.92-7,1.32-12.38-5-13.9-10.49a15.82,15.82,0,0,1,.31-9c.66-.94,4-5.39,9.47-5.92S239,133.23,240.21,140.65Z"/><path class="cls-10" d="M225.88,137.15c2.81,0,2.82-4.37,0-4.37s-2.82,4.37,0,4.37Z"/><path class="cls-11" d="M343,136.91c-1.6-1.47-11.55-10.29-25.72-8.25-13.28,1.9-20.65,12-22,13.93.24,2.38,1.31,10.09,7.2,16.06a22.33,22.33,0,0,0,23.62,5.11C335.9,160.11,342.77,149.35,343,136.91Z"/><ellipse class="cls-12" cx="308.9" cy="145.66" rx="11.79" ry="12.9"/><path class="cls-10" d="M303.73,139.75c2.78,0,2.79-4.33,0-4.33s-2.79,4.33,0,4.33Z"/><path d="M263.5,129.31a14.35,14.35,0,0,0-15.06-6.92c-1.42.28-.82,2.45.6,2.17a12.06,12.06,0,0,1,12.52,5.89c.7,1.26,2.65.13,1.94-1.14Z"/><path d="M304.67,124.91A12.89,12.89,0,0,1,319,120c1.38.44,2-1.73.6-2.17a15.17,15.17,0,0,0-16.86,5.91c-.82,1.21,1.13,2.33,1.94,1.14Z"/><path class="cls-5" d="M173.35,133.35a70.12,70.12,0,0,0-1.82,29.7c.24,1.52,2.54.88,2.31-.63A67.42,67.42,0,0,1,175.65,134a1.19,1.19,0,0,0-2.3-.64Z"/><path class="cls-5" d="M163.45,146.17c-.59,10-.86,21.23,6.05,29.3,1,1.17,2.69-.53,1.7-1.69-6.44-7.51-5.91-18.35-5.36-27.61.1-1.53-2.3-1.53-2.39,0Z"/><path class="cls-13" d="M199.82,138.59c-1-.28-2.46,2.22-3.79,4.55-2.9,5.07-5.1,8.9-4.44,12,.58,2.75,3.26,4.12,5.32,2.78,4-2.59,3.92-14.15,3.91-14.9C200.81,141.53,200.77,138.86,199.82,138.59Z"/><path class="cls-14" d="M205.33,161.76c-.77,0-1.35,2.05-1.87,4-1.13,4.19-2,7.35-.93,9.44.94,1.87,3.12,2.35,4.35,1,2.37-2.61.15-10.9,0-11.43C206.59,163.68,206.06,161.77,205.33,161.76Z"/><path class="cls-15" d="M526.23,496.34c-41.89-8.54-61.82-44.63-64.59-49.84a100.46,100.46,0,0,1-11.49-45.56A179.93,179.93,0,0,1,566.87,495.2,91.22,91.22,0,0,1,526.23,496.34Z"/><path class="cls-16" d="M448.4,401.09a164.79,164.79,0,0,0,116.73,94.26A145.41,145.41,0,0,1,557.78,533c-2.2,6.47-3.42,8.45-5.28,10-9.9,8.51-30.08-.15-43-5.85-12.26-5.42-27.47-13.78-50.82-33.24,0,0-44.46-37.05-51-66.77a17.45,17.45,0,0,1,.47-10.31c1.79-4.54,5.47-7,7.81-8.55C428,410.52,444.05,403.08,448.4,401.09Z"/><path class="cls-17" d="M469,437.3a108.49,108.49,0,0,0-19.07,10.33,109.67,109.67,0,0,0-23.36,21.43,88.68,88.68,0,0,0,11.19,14.43c1.63,1.71,3.26,3.28,4.86,4.72,2.22-2.86,5.08-6.36,8.56-10.22,1.16-1.29,5.14-5.67,11-11.24A228.7,228.7,0,0,1,480.81,451Z"/><path class="cls-5" d="M556.62,502.79c-.82,5.13-1.64,10.25-2.56,15.36-.81,4.47-1.22,9.75-4,13.52-.7,1,.9,1.88,1.59.93,2.79-3.79,3.26-9,4.08-13.47,1-5.27,1.81-10.56,2.65-15.85.18-1.16-1.59-1.65-1.77-.49Z"/><path class="cls-5" d="M547.78,538.59a6.76,6.76,0,0,1-.63,1c-.1.13.1-.12,0,0l-.08.1c-.07.08-.13.16-.2.23s-.28.29-.43.43l-.23.2-.1.09c-.11.09,0,0,0,0l-.5.35-.53.29a1.34,1.34,0,0,1-.24.12c-.08,0-.21,0,0,0l-.15.06a1,1,0,0,0-.55.42.92.92,0,0,0,1,1.35,7.64,7.64,0,0,0,4.13-3.68.92.92,0,1,0-1.59-.93Z"/><path class="cls-5" d="M413,425.05a8.42,8.42,0,0,0-1.54,10c.57,1,2.16.12,1.59-.92a6.55,6.55,0,0,1,1.25-7.76c.87-.81-.43-2.11-1.3-1.3Z"/><path class="cls-18" d="M538.24,491.39a26.56,26.56,0,0,1,8.78-9.14,26.13,26.13,0,0,1,8.2-3.38c.16-.61,2.2-8,9.65-10.61a15.74,15.74,0,0,1,13,1.44,38.28,38.28,0,0,1,20.74-14,37.15,37.15,0,0,1,21.71,1,36,36,0,0,1,15.43,11.1,18.45,18.45,0,0,1,26.53-3.86,20.06,20.06,0,0,1,6.75,9.16,18.72,18.72,0,0,1,5.41.28,25.59,25.59,0,0,1,9.06,4.54c5.17,4.27,13.27,17.92,8.72,32.49a32.74,32.74,0,0,1-13,17c.22,1.05,2.06,10.48-4,17s-17.78,7.56-27,1a44.2,44.2,0,0,1-20,8c-10.45,1.28-12.86-2.68-26-3-15.89-.38-19.2,5.51-29,2-6.31-2.25-13.61-7.76-15-15-.85-4.42,1-6.91,4-17a153.28,153.28,0,0,0,4-17Z"/><path d="M266.19,195.21c5,4.12,11.66,3.87,17.52,2,1.46-.47.83-2.77-.64-2.31-4.94,1.58-10.91,2.16-15.19-1.38-1.17-1-2.87.7-1.69,1.69Z"/><path class="cls-5" d="M324.13,502.71a13.87,13.87,0,0,0-9.21-15.83c-1.17-.41-1.67,1.45-.51,1.86a12.1,12.1,0,0,1,7.87,13.46c-.22,1.21,1.63,1.73,1.85.51Z"/><path class="cls-5" d="M384.69,426.08a16,16,0,0,1,13.82-2.73.75.75,0,0,0,.4-1.44A17.53,17.53,0,0,0,383.63,425c-.76.59.31,1.64,1.06,1.06Z"/><path class="cls-5" d="M398.89,430.2a7.21,7.21,0,0,1,5.21-1.42.75.75,0,0,0,0-1.5,8.7,8.7,0,0,0-6.27,1.86.75.75,0,0,0,0,1.06.76.76,0,0,0,1.06,0Z"/><path class="cls-5" d="M675.29,481.51a3.63,3.63,0,0,1,3.69,1.38,5.16,5.16,0,0,1,.92,2,12.65,12.65,0,0,1,.16,2.3c.08,1.58,1.76,1.38,2.6,2.32a2.72,2.72,0,0,1,.41,3.12.75.75,0,0,0,1.29.75,4.19,4.19,0,0,0-.07-4.18,4.1,4.1,0,0,0-1.53-1.51,6.67,6.67,0,0,1-1.06-.41c-.27-.2-.12-.71-.13-1a6.87,6.87,0,0,0-2-4.9,5.06,5.06,0,0,0-4.71-1.29.75.75,0,0,0,.4,1.44Z"/><path class="cls-5" d="M686.58,497.41a6.56,6.56,0,0,1,.53,5.3.75.75,0,1,0,1.45.4,8.11,8.11,0,0,0-.68-6.46.75.75,0,0,0-1.3.76Z"/><path class="cls-5" d="M670.08,542.61a3.37,3.37,0,0,0,3.23-2.63.83.83,0,0,0-.07-.58.77.77,0,0,0-.45-.34.75.75,0,0,0-.92.52,2.9,2.9,0,0,1-.14.48l.07-.18a2,2,0,0,1-.24.43.5.5,0,0,1-.08.12l.08-.1,0,.06-.17.18-.18.17c-.11.09.15-.11,0,0l-.11.08a2.64,2.64,0,0,1-.44.23l.18-.07a2.58,2.58,0,0,1-.62.17l.2,0a1.67,1.67,0,0,1-.32,0,.78.78,0,0,0-.75.75.76.76,0,0,0,.75.75Z"/><path class="cls-5" d="M651.52,469.48s.15-.08.15-.07h0l.29-.08s.22-.07,0,0a.78.78,0,0,1,.14,0h.31a.88.88,0,0,0,.16,0c-.07,0-.12,0,0,0l.3.08s.17.06.07,0,.06,0,.08.05a2.2,2.2,0,0,1,.26.15c.12.08-.07-.06,0,0l.1.09s.18.23.21.23-.09-.13,0,0l.07.11c0,.06.16.21.15.28s0-.12,0,0a.5.5,0,0,1,0,.13,1.28,1.28,0,0,1,.07.28c0,.14,0,0,0,0s0,.12,0,.15,0,.22,0,.32a.74.74,0,0,0,.75.75.78.78,0,0,0,.75-.75,3.17,3.17,0,0,0-4.68-3,.76.76,0,0,0-.27,1,.77.77,0,0,0,1,.27Z"/><path class="cls-5" d="M573.38,543.69a5,5,0,0,0,7.53,1.23l-1.54-.41a4.71,4.71,0,0,0,6.67,2.88c1-.58.1-2.16-.93-1.59a2.84,2.84,0,0,1-4-1.78.92.92,0,0,0-1.53-.4,3.16,3.16,0,0,1-4.64-.86c-.58-1-2.16-.11-1.59.93Z"/><path class="cls-5" d="M599.23,531.54a8,8,0,0,0,12-3,1,1,0,0,0-.33-1.26.92.92,0,0,0-1.25.33,6.18,6.18,0,0,1-9.48,2.4.91.91,0,0,0-1.25.33.93.93,0,0,0,.33,1.25Z"/><path class="cls-5" d="M610.94,528.65a9.9,9.9,0,0,0,5.07.58,4.37,4.37,0,0,0,3.21-2.69.92.92,0,0,0-.64-1.13,1,1,0,0,0-1.13.64c0,.11,0,.13,0,.06a1.62,1.62,0,0,1-.1.18,1.4,1.4,0,0,1-.1.16c-.07.1-.08.11,0,0a1.92,1.92,0,0,1-.28.29l-.2.17a3.43,3.43,0,0,1-1.39.54h-.06l-.24,0a3.11,3.11,0,0,1-.53,0,6.13,6.13,0,0,1-1-.1,21.64,21.64,0,0,1-2.1-.56c-1.13-.35-1.62,1.43-.49,1.77Z"/><path class="cls-5" d="M625,530.64a6.52,6.52,0,0,0,6.2-1.89,1,1,0,0,0,0-1.3.94.94,0,0,0-1.3,0,5.38,5.38,0,0,1-.49.47l-.15.13c.07-.06.06,0,0,0l-.26.18a4.83,4.83,0,0,1-.59.32l-.19.08h0l-.34.12a4.74,4.74,0,0,1-.65.16l-.16,0c-.1,0-.08,0,0,0l-.36,0a5.15,5.15,0,0,1-.68,0l-.15,0h0l-.39-.07a.92.92,0,1,0-.49,1.77Z"/><path class="cls-5" d="M629.85,545.59a7.29,7.29,0,0,0,8.8-2.61,7.37,7.37,0,0,0,.56-1.08c.1-.26.14-.51.44-.59a2.42,2.42,0,0,1,.7.1,4.67,4.67,0,0,0,2.43-.21,3.81,3.81,0,0,0,2.72-3.68c-.06-1-1.56-1-1.5,0,.1,1.43-1.3,2.37-2.61,2.47-.8,0-1.58-.34-2.36-.07s-1,1-1.31,1.65a5.71,5.71,0,0,1-7.11,2.72c-.88-.37-1.64.92-.76,1.3Z"/><path class="cls-5" d="M668.36,535.06a11,11,0,0,0,5.55-8.41.74.74,0,0,0-.75-.75.77.77,0,0,0-.75.75,9.47,9.47,0,0,1-4.8,7.12c-.85.46-.09,1.76.75,1.29Z"/><path class="cls-5" d="M615.74,460.73h.16l.14,0h.1l.16,0c.24,0,.48.1.72.16a6.23,6.23,0,0,1,1.21.48,6.7,6.7,0,0,1,2.13,1.68.75.75,0,0,0,1.06,0,.75.75,0,0,0,0-1.06,8.38,8.38,0,0,0-5.68-2.83.75.75,0,0,0-.75.75.76.76,0,0,0,.75.75Z"/><path class="cls-5" d="M625.05,466.86l.72.69a.49.49,0,0,0,.24.15.57.57,0,0,0,.29.07.59.59,0,0,0,.29-.07.61.61,0,0,0,.24-.15l.11-.16a.7.7,0,0,0,.11-.37l0-.2a.78.78,0,0,0-.19-.33l-.71-.69a.51.51,0,0,0-.25-.16.46.46,0,0,0-.28-.06.48.48,0,0,0-.29.06.51.51,0,0,0-.25.16l-.11.15a.7.7,0,0,0-.1.38l0,.2a.92.92,0,0,0,.19.33Z"/><path class="cls-5" d="M655.57,507.14a5.9,5.9,0,0,0,3.21-8.2c-.47-.84-1.77-.09-1.3.76a4.38,4.38,0,0,1-2.31,6c-.91.31-.52,1.76.4,1.45Z"/><path class="cls-5" d="M547.7,489.34a2.4,2.4,0,0,1,.12-.38l-.08.18a2.51,2.51,0,0,1,.26-.45l-.11.15a2.27,2.27,0,0,1,.41-.41l-.15.12a2.29,2.29,0,0,1,.5-.3l-.18.08a2,2,0,0,1,.53-.14l-.2,0a1.9,1.9,0,0,1,.34,0,.75.75,0,0,0,0-1.5,2.92,2.92,0,0,0-2.89,2.24.83.83,0,0,0,.08.58.77.77,0,0,0,.45.34.75.75,0,0,0,.92-.52Z"/><path class="cls-5" d="M552.92,486.64a9.67,9.67,0,0,1,7.33-2,.76.76,0,0,0,.72-.55l.85-3.12a.75.75,0,0,0-1.44-.4l-.85,3.12.72-.55a11.09,11.09,0,0,0-8.39,2.46.75.75,0,0,0,0,1.06.77.77,0,0,0,1.06,0Z"/><path class="cls-5" d="M634.38,422.53l-5.58,12.55a1.56,1.56,0,0,0,.54,2.06,1.52,1.52,0,0,0,2-.54L637,424a1.55,1.55,0,0,0-.54-2.05,1.51,1.51,0,0,0-2,.54Z"/><path class="cls-5" d="M628.45,443.74a1.5,1.5,0,0,0,0-3,1.5,1.5,0,0,0,0,3Z"/><path class="cls-5" d="M643.36,426.29a71.56,71.56,0,0,1-5.23,11.14,1.5,1.5,0,0,0,2.59,1.51,75.09,75.09,0,0,0,5.53-11.85,1.51,1.51,0,0,0-1-1.85,1.53,1.53,0,0,0-1.84,1.05Z"/><path class="cls-5" d="M637.13,446.63a1.5,1.5,0,0,0,0-3,1.5,1.5,0,0,0,0,3Z"/><path class="cls-5" d="M562.15,443.66c.57.16,1.11.39,1.67.58l-.07,0,.19.09.42.2q.39.19.78.42a14.67,14.67,0,0,1,1.43.94c.1.07.19.23,0,0a1,1,0,0,0,.16.13l.32.27q.36.3.69.63a1.5,1.5,0,0,0,2.12-2.12,16.32,16.32,0,0,0-6.91-4,1.5,1.5,0,0,0-.79,2.9Z"/><path class="cls-5" d="M569.12,436.3l1.28,4.59a1.5,1.5,0,0,0,2.9-.8L572,435.5a1.5,1.5,0,1,0-2.89.8Z"/></svg>