<svg id="圖層_1" data-name="圖層 1" xmlns="http://www.w3.org/2000/svg" viewBox="0 0 750.79 590.09"><defs><style>.cls-1,.cls-2,.cls-7{fill:#1a1a1a;}.cls-12,.cls-2,.cls-3,.cls-4,.cls-6,.cls-7{stroke:#1a1a1a;}.cls-2,.cls-3,.cls-6,.cls-7{stroke-miterlimit:10;}.cls-2{stroke-width:0.46px;opacity:0.3;}.cls-3,.cls-8{fill:#e3875e;}.cls-10,.cls-11,.cls-12,.cls-3,.cls-4{stroke-width:2px;}.cls-4{fill:#fcdab5;}.cls-10,.cls-11,.cls-12,.cls-4{stroke-linecap:round;stroke-linejoin:round;}.cls-5,.cls-6{fill:#f2f0e5;}.cls-6,.cls-7{stroke-width:1.37px;}.cls-9{fill:#fff;}.cls-10{fill:#ffd6b0;}.cls-10,.cls-11{stroke:#131313;}.cls-11{fill:#e4885e;}.cls-12{fill:#e2865e;}</style></defs><path class="cls-1" d="M225,152.84c2.93-44.69,7.32-51.72,10.12-51.9h.24l30.76,32.73Z"/><path class="cls-1" d="M375.47,151.47c-2.93-44.7-7.32-51.73-10.12-51.9h-.24L334.35,132.3Z"/><path class="cls-2" d="M342.42,472.29c-.62-2.58,12-4.4,25.6-15.83s18.79-24.7,28.2-47.18c14.52-34.65,21.78-52,25.66-58.48,9.74-16.29,29.77-49.79,66.05-57.82,19.44-4.3,36.56.25,46.57,3.94a39.66,39.66,0,0,0-16.35,9.75c-16.42,16.67-6.25,39.74-13.46,77.42-3.31,17.32-7.05,36.87-21.89,52.75-13.32,14.25-31.12,18.72-66.16,27.1S343.5,476.77,342.42,472.29Z"/><path class="cls-3" d="M357.14,493.35c-.8-2.53,11.64-5.21,24.44-17.56s17-25.94,24.87-49c12.08-35.58,18.13-53.36,21.55-60.11,8.59-16.93,26.25-51.74,61.89-62.26,19.09-5.63,36.49-2.28,46.73.71A39.7,39.7,0,0,0,521,316c-15.22,17.77-3.48,40.09-8.07,78.18-2.1,17.5-4.48,37.26-18.19,54.13-12.3,15.14-29.74,20.83-64.12,31.62S358.53,497.75,357.14,493.35Z"/><path class="cls-4" d="M171,513.44c-.84-33.88-.42-69.77,1.72-107.45,0,0,2.23-64.67,27.46-203.32,3.15-17.27,7.48-39.26,26.61-55.92,23.8-20.73,56.54-21,71.25-21.17,13.53-.13,52.93-.5,79,24,18.82,17.69,21.95,40.19,24.9,63.91C420.57,364.3,419,423.56,419,423.56c.12,23,.15,53.62-.19,89.88"/><path class="cls-5" d="M192.54,260.26c4,13.09,9.78,23,17.61,39.67,5.55,11.84,15.79,33.88,23.34,59.75,1.77,6.06,3.22,11.75,4.44,17.16A320.57,320.57,0,0,1,244.48,419c3.64,38.34,1.43,88,1.14,94.21H333c-.71-13.64-2.3-54.39,5-91.47a302.31,302.31,0,0,1,7.78-30.36A263.77,263.77,0,0,1,360,356.26c8.94-18.05,13.67-22.08,21.86-41.2,2.92-6.82,4.67-11.95,6.29-16.35,11.86-32.25,14.61-46.93,13.27-63-1.08-12.94-2.42-29-15.1-36.18-13.3-7.56-33.89-2.49-40.73-.81-16,3.94-20.35,9.68-27,7.32-9.73-3.46-10.82-19.5-11.67-31.92a127.85,127.85,0,0,1,5.95-47.54c-3.38-.22-6.32-.33-8.7-.39-5.58-.15-9.85-.05-11.44,0-3.26.09-6.06.24-8.24.39a128.42,128.42,0,0,1,7.78,47.14c-.34,12.32-.86,24.46-9.38,28.66-5.87,2.89-12.89.36-25.63-2.85-29.46-7.42-32.4-9.92-39.82-8.53a31.21,31.21,0,0,0-14.12,6.81c-.32,1.66-.62,3.28-.91,4.87Q196.76,234,192.54,260.26Z"/><circle class="cls-6" cx="264.16" cy="167.23" r="18.76"/><circle class="cls-7" cx="272.16" cy="167" r="10.75"/><circle class="cls-6" cx="340.13" cy="167.23" r="18.76"/><circle class="cls-7" cx="348.13" cy="167" r="10.75"/><path class="cls-7" d="M283.29,185.25c1-2.47,5.57-2.68,12.69-3,7.95-.37,17.53-.81,19,3,1.71,4.29-6.45,14.78-16,14.7S281.56,189.35,283.29,185.25Z"/><path class="cls-1" d="M297.91,198.48v16.64c0,2.65,4.12,2.65,4.12,0V198.48c0-2.66-4.12-2.66-4.12,0Z"/><path class="cls-1" d="M289.43,201.62a.69.69,0,0,0,0-1.37.69.69,0,0,0,0,1.37Z"/><path class="cls-1" d="M292,205.2a.69.69,0,0,0,0-1.38.69.69,0,0,0,0,1.38Z"/><path class="cls-1" d="M284.16,204.09a.69.69,0,0,0,0-1.37.69.69,0,0,0,0,1.37Z"/><path class="cls-1" d="M308.78,203.91a.69.69,0,0,0,0-1.37.69.69,0,0,0,0,1.37Z"/><path class="cls-1" d="M305.63,206.63a.69.69,0,0,0,0-1.37.69.69,0,0,0,0,1.37Z"/><path class="cls-1" d="M313.77,205.17a.69.69,0,0,0,0-1.37.69.69,0,0,0,0,1.37Z"/><path class="cls-1" d="M303.77,198.38q22.67.5,45.34-.61c.88,0,.88-1.41,0-1.37q-22.65,1.09-45.34.61a.69.69,0,0,0,0,1.37Z"/><path class="cls-1" d="M306.41,198.83a193.59,193.59,0,0,1,33.42,8c.84.29,1.2-1,.36-1.32a191.66,191.66,0,0,0-33.41-8c-.87-.13-1.24,1.2-.37,1.32Z"/><path class="cls-1" d="M296.79,195H248a.69.69,0,0,0,0,1.37h48.82a.69.69,0,0,0,0-1.37Z"/><path class="cls-1" d="M293.73,196q-17.79,3.78-35.39,8.43a.69.69,0,0,0,.37,1.32q17.58-4.63,35.39-8.42c.86-.19.5-1.51-.37-1.33Z"/><path class="cls-1" d="M323.42,158.3a17.09,17.09,0,0,1,3-4.35c5.41-5.72,13.22-5.72,14.87-5.72a18.39,18.39,0,0,1,6.41.92c3.35,1.15,4.7,2.83,8.69,4.12a23.27,23.27,0,0,0,4.12.91L355,156.47a24.13,24.13,0,0,0-10.07-4.12,25.84,25.84,0,0,0-7.32,0A30.86,30.86,0,0,0,323.42,158.3Z"/><path class="cls-1" d="M280.86,157.84a16.9,16.9,0,0,0-3-4.34c-5.41-5.72-13.22-5.72-14.87-5.72a18.58,18.58,0,0,0-6.41.91c-3.35,1.16-4.7,2.83-8.69,4.12a23.48,23.48,0,0,1-4.12.92l5.49,2.28a24.13,24.13,0,0,1,10.07-4.12,26.25,26.25,0,0,1,7.32,0A30.86,30.86,0,0,1,280.86,157.84Z"/><path class="cls-1" d="M342.42,144.35a17.66,17.66,0,0,1,10.13,4,1.37,1.37,0,0,0,1.94-1.94,20.76,20.76,0,0,0-12.07-4.77,1.37,1.37,0,1,0,0,2.74Z"/><path class="cls-1" d="M249.8,147.46a19.4,19.4,0,0,1,1.84-1.14l.85-.44.49-.23c.05,0,.52-.21.3-.13a20.93,20.93,0,0,1,4-1.18,1.37,1.37,0,0,0,1-1.68,1.41,1.41,0,0,0-1.69-1,21.07,21.07,0,0,0-8.17,3.39,1.37,1.37,0,0,0,1.39,2.37Z"/><path class="cls-5" d="M287.56,188.31a17.1,17.1,0,0,1,2.07-.65c.3-.07.61-.14.91-.19a6.08,6.08,0,0,1,.87-.12,14.78,14.78,0,0,1,4,.12,1.37,1.37,0,1,0,.73-2.65,17.15,17.15,0,0,0-9.27.85,1.4,1.4,0,0,0-1,1.68,1.39,1.39,0,0,0,1.69,1Z"/><path class="cls-5" d="M288.25,188.81a27.58,27.58,0,0,0,7.81-1.13,1.39,1.39,0,0,0,1-1.69,1.41,1.41,0,0,0-1.69-1,27.7,27.7,0,0,1-3.61.81c-.46.07.26,0-.2,0l-.43,0-1,.09c-.62,0-1.24.06-1.85.06a1.38,1.38,0,1,0,0,2.75Z"/><path class="cls-5" d="M300.47,186.78a1.37,1.37,0,0,0,0-2.74,1.37,1.37,0,0,0,0,2.74Z"/><path class="cls-5" d="M234.65,105.8a54.42,54.42,0,0,0-3.73,20,1.38,1.38,0,0,0,2.75,0,52,52,0,0,1,3.63-19.3c.64-1.65-2-2.36-2.65-.73Z"/><path class="cls-5" d="M229.94,132.38a21.11,21.11,0,0,0,.11,4.13,1.51,1.51,0,0,0,.4,1,1.38,1.38,0,0,0,2.35-1,20.36,20.36,0,0,1-.12-4.13,1.39,1.39,0,0,0-1.37-1.37,1.41,1.41,0,0,0-1.37,1.37Z"/><path class="cls-5" d="M366.51,106.6a1.38,1.38,0,0,0,0-2.75,1.38,1.38,0,0,0,0,2.75Z"/><path class="cls-5" d="M366.69,110.13a59.3,59.3,0,0,1,1.69,9.64,1.38,1.38,0,0,0,2.75,0,65,65,0,0,0-1.79-10.37,1.37,1.37,0,0,0-2.65.73Z"/><path class="cls-1" d="M300.18,124a6.15,6.15,0,0,0-2.92-4.83,1.39,1.39,0,0,0-1.88.49,1.41,1.41,0,0,0,.5,1.88l.36.25-.28-.21a4.79,4.79,0,0,1,.9.9l-.22-.28a5,5,0,0,1,.62,1l-.14-.33a5.14,5.14,0,0,1,.34,1.22l0-.36,0,.22a1.46,1.46,0,0,0,.4,1,1.37,1.37,0,0,0,1,.4,1.41,1.41,0,0,0,1-.4,1.37,1.37,0,0,0,.4-1Z"/><path class="cls-1" d="M300.91,124.77c.09-.24-.08.18,0,0l.08-.17.18-.38c.12-.25.24-.5.38-.75a16.23,16.23,0,0,1,.89-1.43l.22-.3.14-.19,0,.06.54-.64a15.74,15.74,0,0,1,1.22-1.23,1.37,1.37,0,0,0,0-1.94,1.39,1.39,0,0,0-1.94,0,16.87,16.87,0,0,0-4.29,6.22,1.37,1.37,0,0,0,1,1.68,1.4,1.4,0,0,0,1.06-.13,1.66,1.66,0,0,0,.63-.82Z"/><path class="cls-1" d="M284.53,213l8,4.39,3.91,2.14c1.27.69,2.56,1.52,4.07,1.43a10.44,10.44,0,0,0,3.91-1.53l4-2,8.34-4.27c2.36-1.21.28-4.76-2.08-3.56l-7.24,3.71-3.52,1.8-1.75.9a6.18,6.18,0,0,1-1.76.84c-.82.08-2.21-1.06-2.93-1.45l-3.48-1.9-7.38-4c-2.33-1.27-4.41,2.29-2.08,3.56Z"/><path class="cls-8" d="M271.8,326.54a12,12,0,0,0,19.81.33,2.08,2.08,0,0,0-.74-2.82,2.11,2.11,0,0,0-2.82.74,7.92,7.92,0,0,1-12.69-.33,2.11,2.11,0,0,0-2.82-.73,2.07,2.07,0,0,0-.74,2.81Z"/><path class="cls-8" d="M288,328.53a14,14,0,0,0,11.61,5,14.23,14.23,0,0,0,10.8-6.47c1.45-2.23-2.11-4.29-3.55-2.08a9.86,9.86,0,0,1-7.54,4.45,10.09,10.09,0,0,1-8.4-3.8,2.06,2.06,0,0,0-2.92,2.91Z"/><path class="cls-8" d="M307.53,326.32a10.6,10.6,0,0,0,17.92-.48,2.06,2.06,0,1,0-3.56-2.08,6.43,6.43,0,0,1-2.17,2.17,8.68,8.68,0,0,1-.85.46l-.09,0-.51.17c-.3.1-.61.17-.92.24-.11,0-.32.05-.09,0a4.53,4.53,0,0,1-.53.05,5.33,5.33,0,0,1-1.52-.1,7.66,7.66,0,0,1-.94-.25l-.42-.15c-.13-.05-.13-.05,0,0l-.2-.1c-.29-.15-.58-.3-.86-.48l-.36-.24c-.29-.21.17.15-.1-.08a6.56,6.56,0,0,1-.72-.67c-.13-.13-.25-.27-.37-.41-.25-.3.26.37-.14-.19a2.12,2.12,0,0,0-2.82-.74,2.09,2.09,0,0,0-.74,2.82Z"/><path class="cls-8" d="M280.71,341.81a14,14,0,0,0,11.61,5,14.26,14.26,0,0,0,10.8-6.48c1.45-2.23-2.12-4.29-3.56-2.08A9.86,9.86,0,0,1,292,342.7a10.16,10.16,0,0,1-8.41-3.81,2.07,2.07,0,0,0-2.91,0,2.11,2.11,0,0,0,0,2.92Z"/><path class="cls-8" d="M300.21,339.59a10.57,10.57,0,0,0,17.91-.48,2.06,2.06,0,1,0-3.55-2.08,6.43,6.43,0,0,1-2.17,2.17c-.28.17-.56.32-.85.46-.08,0-.3.12-.09,0l-.51.18c-.3.09-.62.16-.93.23-.1,0-.31.06-.08,0l-.53,0a5.78,5.78,0,0,1-1.52-.09c-.32-.07-.64-.16-.95-.26l-.41-.15c-.13-.05-.14-.05,0,0l-.2-.1c-.29-.15-.58-.3-.86-.48l-.36-.24c-.29-.21.17.15-.1-.08a7.73,7.73,0,0,1-.73-.67l-.36-.4c-.25-.31.26.37-.14-.2a2.13,2.13,0,0,0-2.82-.74,2.08,2.08,0,0,0-.74,2.82Z"/><path class="cls-1" d="M505.44,341.24c-6.29,23.1,2.8,47.32-3.7,70.39a40.41,40.41,0,0,1-8.25,15.78c-.95,1.09.64,2.69,1.59,1.59,15.75-18,10.59-43.67,10.25-65.42a78,78,0,0,1,2.28-21.74,1.13,1.13,0,0,0-2.17-.6Z"/><path class="cls-1" d="M489,433.07a16.49,16.49,0,0,1-2.76,4.21,15.83,15.83,0,0,1-3.91,3.17,1.12,1.12,0,0,0,1.13,1.94,18.47,18.47,0,0,0,7.48-8.19,1.16,1.16,0,0,0-.4-1.54,1.13,1.13,0,0,0-1.54.41Z"/><path class="cls-1" d="M463,327.74c11.39-9.76,24.64-18.06,39.73-20.28a50.23,50.23,0,0,1,13.36-.16c1.44.17,1.42-2.08,0-2.25-15.93-1.94-31.53,4.16-44.44,13.12a129,129,0,0,0-10.24,8c-1.1.94.5,2.53,1.59,1.59Z"/><path class="cls-1" d="M184,347.75c-4.25,21.68-5,43.82-4.92,65.86,0,6.25.11,12.49.2,18.74a1.13,1.13,0,0,0,2.25,0c-.31-21.87-.61-43.82,1.83-65.6q1-9.25,2.81-18.41c.28-1.41-1.89-2-2.17-.59Z"/><path class="cls-1" d="M178.2,442v10.79a1.13,1.13,0,0,0,2.25,0V442a1.13,1.13,0,0,0-2.25,0Z"/><path class="cls-1" d="M397.21,256.08a100.86,100.86,0,0,1,1.37,13.86,1.13,1.13,0,0,0,2.25,0,103.11,103.11,0,0,0-1.45-14.46,1.13,1.13,0,0,0-1.38-.78,1.15,1.15,0,0,0-.79,1.38Z"/><path class="cls-1" d="M399.21,279.59q1.21,28.35,3.85,56.6.75,8,1.61,16c.15,1.42,2.4,1.44,2.25,0q-3-28.22-4.66-56.55c-.3-5.35-.57-10.72-.8-16.08-.06-1.44-2.31-1.45-2.25,0Z"/><path class="cls-9" d="M352.25,163c2.65,0,2.66-4.12,0-4.12s-2.65,4.12,0,4.12Z"/><path class="cls-9" d="M275.46,164.05c2.65,0,2.65-4.12,0-4.12s-2.66,4.12,0,4.12Z"/><rect class="cls-10" x="470.89" y="126.93" width="107.88" height="91.51" rx="6.24"/><path class="cls-11" d="M442.1,142.71l83.65-54.19,81.82,54.34Z"/><path class="cls-12" d="M525.42,204.83a66.41,66.41,0,0,0,17.32-18c4.72-7.28,10.82-16.69,7.13-24.21-2.68-5.44-9-6.85-9.5-7-6-1.24-12.54,1.64-16.54,7.42-.26-.45-4-6.89-11.38-7.27a14.16,14.16,0,0,0-13.08,8c-4,8.56,4,19.23,8.75,25.52A59.53,59.53,0,0,0,525.42,204.83Z"/><path class="cls-1" d="M588.77,97.29a93.71,93.71,0,0,1,10.84-11.6c1.08-1-.51-2.56-1.59-1.59a93.71,93.71,0,0,0-10.84,11.6,1.17,1.17,0,0,0,0,1.59,1.13,1.13,0,0,0,1.59,0Z"/><path class="cls-1" d="M597.42,105.21l11.76-5.64a1.13,1.13,0,0,0,.4-1.54,1.14,1.14,0,0,0-1.54-.4l-11.75,5.63a1.14,1.14,0,0,0-.41,1.54,1.16,1.16,0,0,0,1.54.41Z"/><path class="cls-1" d="M578.24,88.59l.6-12.89c.06-1.44-2.19-1.44-2.25,0L576,88.59c-.06,1.45,2.19,1.45,2.25,0Z"/></svg>