<svg id="圖層_1" data-name="圖層 1" xmlns="http://www.w3.org/2000/svg" xmlns:xlink="http://www.w3.org/1999/xlink" viewBox="0 0 610.79 590.09"><defs><style>.cls-1,.cls-10,.cls-27,.cls-9{fill:none;}.cls-11,.cls-18,.cls-19,.cls-2,.cls-25,.cls-5{fill:#1a1a1a;}.cls-10,.cls-11,.cls-17,.cls-18,.cls-2,.cls-21,.cls-22,.cls-23,.cls-24,.cls-25,.cls-27,.cls-3,.cls-4,.cls-5,.cls-6,.cls-7,.cls-9{stroke:#1a1a1a;}.cls-11,.cls-2,.cls-21,.cls-27,.cls-3,.cls-4,.cls-5,.cls-6,.cls-7,.cls-9{stroke-miterlimit:10;}.cls-2,.cls-3,.cls-4,.cls-9{stroke-width:1.83px;}.cls-3,.cls-6,.cls-7{fill:#f7d5b0;}.cls-4,.cls-8{fill:#e1855e;}.cls-5,.cls-6{stroke-width:1.58px;}.cls-17,.cls-27,.cls-7{stroke-width:2px;}.cls-10,.cls-17,.cls-18,.cls-22,.cls-23,.cls-24,.cls-25{stroke-linecap:round;stroke-linejoin:round;}.cls-10{stroke-width:2.28px;}.cls-11{stroke-width:1.26px;}.cls-12{font-size:18px;font-family:DelaGothicOne-Regular, Dela Gothic One;}.cls-12,.cls-15,.cls-23{fill:#fff;}.cls-13{letter-spacing:-0.06em;}.cls-14{letter-spacing:-0.03em;}.cls-16{clip-path:url(#clip-path);}.cls-17{fill:#f9d7b2;}.cls-18{stroke-width:1.92px;}.cls-20{fill:#e3875e;}.cls-21{stroke-width:0.45px;}.cls-22{stroke-width:1.53px;}.cls-23{stroke-width:1px;}.cls-24{stroke-width:1.88px;}.cls-25{stroke-width:0.76px;}.cls-26{fill:#f2f0e5;}</style><clipPath id="clip-path"><circle class="cls-1" cx="304.19" cy="272.29" r="90"/></clipPath></defs><path class="cls-2" d="M445.56,114.5H178.82a36.73,36.73,0,0,0-36.63,36.63V544a36.74,36.74,0,0,0,36.63,36.63H445.56A36.74,36.74,0,0,0,482.19,544V151.13A36.73,36.73,0,0,0,445.56,114.5Z"/><path class="cls-3" d="M439.56,108.5H172.82a36.73,36.73,0,0,0-36.63,36.63V538a36.74,36.74,0,0,0,36.63,36.63H439.56A36.74,36.74,0,0,0,476.19,538V145.13A36.73,36.73,0,0,0,439.56,108.5Z"/><rect class="cls-4" x="218.45" y="394.71" width="174.57" height="19.19" rx="9.6"/><rect class="cls-4" x="240.38" y="430.62" width="130.7" height="19.19" rx="9.6"/><circle class="cls-5" cx="393.02" cy="528.93" r="15.54"/><circle class="cls-6" cx="431.41" cy="528.93" r="15.54"/><line class="cls-7" x1="178.23" y1="502.42" x2="260.49" y2="502.42"/><line class="cls-7" x1="255.01" y1="516.13" x2="275.12" y2="516.13"/><line class="cls-7" x1="164.52" y1="516.13" x2="239.47" y2="516.13"/><line class="cls-7" x1="173.66" y1="531.67" x2="202" y2="531.67"/><line class="cls-7" x1="212.97" y1="531.67" x2="270.55" y2="531.67"/><line class="cls-7" x1="183.72" y1="544.47" x2="265.98" y2="544.47"/><path class="cls-8" d="M438.8,108.5H173.53a36.48,36.48,0,0,0-36.42,36.33V331.49a158.47,158.47,0,0,0,22.64,1.75s32.15.15,61.44-11.95c49.53-20.46,38-89,105-151,34.28-31.76,65.47-39.92,73.59-41.85,30.3-7.2,56.48-3.06,71.84.69A36.54,36.54,0,0,0,438.8,108.5Z"/><path class="cls-9" d="M439.56,108.5H172.82a36.73,36.73,0,0,0-36.63,36.63V538a36.74,36.74,0,0,0,36.63,36.63H439.56A36.74,36.74,0,0,0,476.19,538V145.13A36.73,36.73,0,0,0,439.56,108.5Z"/><path class="cls-10" d="M219.36,109.41l17.37-24.68H376.58q7.76,11.43,15.53,22.85"/><path class="cls-11" d="M323.19,55,292,56.46c-5.73.26-10.31,2.95-10.17,6l1.27,28c.14,3,4.94,5.31,10.66,5L325,94.1c5.73-.26,10.31-2.95,10.17-6l-1.27-28C333.72,57.05,328.92,54.79,323.19,55Zm-16,20.23c-5.52.25-10.09-1.91-10.23-4.83s4.23-5.49,9.75-5.74,10.09,1.92,10.22,4.83S312.66,75,307.15,75.27Z"/><path class="cls-4" d="M327.85,19.75,295.26,15.2a11,11,0,0,0-12.37,9.35l-7.71,55.21a11,11,0,0,0,9.35,12.38l32.59,4.55a11,11,0,0,0,12.38-9.35l7.7-55.22A11,11,0,0,0,327.85,19.75Zm-23,35.87a10.51,10.51,0,1,1,11.86-9A10.52,10.52,0,0,1,304.85,55.62Z"/><path class="cls-2" d="M308.93,36.29a13.33,13.33,0,0,0-7.31,17.37,9.44,9.44,0,0,1,7.31-17.37Z"/><text class="cls-12" transform="translate(151.26 140.97)">C<tspan class="cls-13" x="16.97" y="0">A</tspan><tspan x="32.87" y="0">T.ID ca</tspan><tspan class="cls-14" x="112.3" y="0">r</tspan><tspan x="122.15" y="0">d</tspan></text><circle class="cls-15" cx="304.19" cy="272.29" r="90"/><g class="cls-16"><path class="cls-17" d="M336.82,392.35c.92,1.49,2,3.84,1.28,6-1.26,3.7-6.85,4.88-11,5.54a130,130,0,0,1-31.57.81c-6.54-.5-15.82-1-27.19-.71a27,27,0,0,1-5.32,2.47,34.6,34.6,0,0,1-15.51.81c-78.25-13.71-86.55-54.94-86.55-54.94a36.39,36.39,0,0,1,1.33-19.81c2.59-6.89,8.56-15.49,36.74-28.21a273.7,273.7,0,0,1,52.71-17.52A40.67,40.67,0,0,1,247,271.69c-.37-3.57-1.26-14,5-23.53a29.74,29.74,0,0,1,4.57-5.42A28.42,28.42,0,0,1,252,229.57c-.74-9,2.95-20.08,8.28-20.8,2.43-.32,4.48,1.6,7.95,4.86a44.5,44.5,0,0,1,9.85,13.63,74.82,74.82,0,0,1,18.86-2.73c13-.21,23,3.08,29.66,5.34A107.56,107.56,0,0,1,342,236.5a42,42,0,0,1,6.94-7.12c3.77-3.06,8.79-7.14,12.08-5.55,2.49,1.19,2.9,5.09,3.18,7.77A25.36,25.36,0,0,1,360.46,247a47.85,47.85,0,0,1,5,17.17c1.21,13-3.4,22.85-5.69,27.61a59.69,59.69,0,0,1-13.07,17.69,106.25,106.25,0,0,1,15.2,13.28c7.41,7.84,16,17,18.71,31.06a35.45,35.45,0,0,1,.57,12.51c-1.54,10.57-8.58,22.45-20.79,27.39a33.15,33.15,0,0,1-17.12,1.95"/><path class="cls-18" d="M162.66,332.18a25.58,25.58,0,0,0-27.92,16.62c-5.77,13.88.19,27.68,1.63,31,1.52,3.5,5.6,11.79,23.24,25.16,11,8.31,27.86,20.84,53.67,27.15,5.9,1.44,35.9,8.78,42.44-1.66a11.51,11.51,0,0,0,1.49-6.15c-.46-6.88-7.61-11.64-13.33-14.95-14-8.09-23.11-9.56-34.86-14.12-22.83-8.85-38.31-22.7-44.62-34.39a33.21,33.21,0,0,1-4.3-15.21A32.44,32.44,0,0,1,162.66,332.18Z"/><path class="cls-19" d="M348.35,386.88c-.68,3.19-1.3,7.18,1.51,9.58.62.54,1.52-.36.9-.9-2.43-2.08-1.76-5.6-1.18-8.34.17-.8-1.06-1.14-1.23-.34Z"/><path class="cls-19" d="M354.28,388.86a6.05,6.05,0,0,0,2.48,5.25.64.64,0,0,0,.87-.22.67.67,0,0,0-.22-.88,4.79,4.79,0,0,1-1.86-4.15.64.64,0,1,0-1.27,0Z"/><path class="cls-19" d="M324.87,399.14c.16.26.32.52.46.8l.21.44a1.22,1.22,0,0,1,.07.17c0-.11.05.11.06.13a10,10,0,0,1,.5,1.78.64.64,0,0,0,.78.45.67.67,0,0,0,.45-.79,10.36,10.36,0,0,0-1.43-3.63.64.64,0,1,0-1.1.65Z"/><path class="cls-19" d="M265.33,338.87a109.48,109.48,0,0,1,30,47c.3.91,1.74.52,1.45-.4A112.37,112.37,0,0,0,275.3,347a110.94,110.94,0,0,0-8.91-9.23c-.71-.66-1.77.4-1.06,1.06Z"/><path class="cls-20" d="M292,225.83A64.18,64.18,0,0,0,290.8,239c.06,4.14.5,6.43,2.17,7.49a4.4,4.4,0,0,0,3.11.5c.72-.15,2.14-.65,4.25-4.19a27.65,27.65,0,0,0,3.16-7.94,33.16,33.16,0,0,0,.75-9.27"/><path class="cls-20" d="M308.87,225.93c-.3,2.49-.68,4.6-1,6.22-.64,3.15-1.11,4.52-1.64,7.81-.63,3.89-.48,5.16-.25,6.16.32,1.32.83,3.48,2.68,4.38s4.15-.17,4.57-.39c1.41-.73,2.12-1.87,3.48-4.13a31.8,31.8,0,0,0,3.23-7.18c.2-.68.17-.64,1.13-4.7.48-2,.88-3.62,1.14-4.7"/><path class="cls-20" d="M326.15,230.6c-.54,3.31-1.16,6-1.64,7.81-.3,1.16-1,3.68-1.7,7.05s-.88,4.67-.25,6.16a5.54,5.54,0,0,0,2.55,2.85,4.84,4.84,0,0,0,3.11.51c1.87-.39,2.9-2,4.25-4.2a41.55,41.55,0,0,0,2.59-5.59c.7-1.68,1-2.46,2.53-6.36l1.26-3.17"/><path class="cls-19" d="M308.42,218.8a32.56,32.56,0,0,1,1.3,5.65.88.88,0,0,0,.85.85c.41,0,.91-.39.85-.85a33.6,33.6,0,0,0-1.36-6.1.87.87,0,0,0-1.05-.59.85.85,0,0,0-.59,1Z"/><path class="cls-19" d="M316,218.86a59.66,59.66,0,0,1-1.52,6.34.85.85,0,1,0,1.64.46,59.84,59.84,0,0,0,1.52-6.35.85.85,0,0,0-1.64-.45Z"/><path class="cls-19" d="M321.55,227.11c.05-.13.1-.27.16-.4-.06.14,0-.11,0-.11l.09-.19c.13-.27.27-.53.42-.79s.3-.48.46-.71.16-.23.25-.34l.08-.1.13-.16a11.08,11.08,0,0,1,1.24-1.23,9.41,9.41,0,0,1,1.36-.93.86.86,0,0,0,.3-1.16.87.87,0,0,0-1.16-.31,11.38,11.38,0,0,0-5,6,.85.85,0,0,0,.6,1,.86.86,0,0,0,1-.59Z"/><path class="cls-19" d="M251,214.15l1.72.93a.92.92,0,0,0,.65.08.85.85,0,0,0,.6-1,.88.88,0,0,0-.39-.51l-1.72-.93a.86.86,0,0,0-.65-.09.88.88,0,0,0-.51.4.86.86,0,0,0-.09.65.91.91,0,0,0,.39.51Z"/><path class="cls-19" d="M252.76,210.1l0,0-.21-.09a4.56,4.56,0,0,1,1,.57l-.17-.13a4,4,0,0,1,.77.77l-.13-.17c.09.12.18.24.26.37a.84.84,0,0,0,.51.39.85.85,0,0,0,1-1.25,5.37,5.37,0,0,0-1-1.2,5.86,5.86,0,0,0-.71-.52,6.09,6.09,0,0,0-.81-.4.85.85,0,0,0-.66.09.88.88,0,0,0-.39.51.83.83,0,0,0,.09.65l.13.17a.81.81,0,0,0,.38.22Z"/><path class="cls-21" d="M361.1,226.48c-.7-.12-1.37,1.92-4.48,7.26-1.55,2.64-2.91,4.77-3.84,6.17.83.33,2.06.85,3.49,1.56,1.63.8,2,1.1,2.51,1.05,1.44-.13,1.87-2.88,2.15-5.19C361.55,232.24,362.23,226.67,361.1,226.48Z"/><path class="cls-22" d="M262.32,219.91a39.14,39.14,0,0,0-1.07,5.46,38.43,38.43,0,0,0-.24,6.16,25.47,25.47,0,0,0,8.31-1.47l-3.3-2.79-4.13-3.49"/><ellipse class="cls-23" cx="286.93" cy="261.17" rx="11.47" ry="9.94" transform="translate(-43.58 464.39) rotate(-73.9)"/><circle class="cls-24" cx="285.91" cy="258.19" r="6.12"/><path class="cls-15" d="M284,254.92a1.15,1.15,0,0,0,0-2.29,1.15,1.15,0,0,0,0,2.29Z"/><ellipse class="cls-23" cx="326.75" cy="269.3" rx="11.47" ry="9.94" transform="translate(-22.61 508.53) rotate(-73.9)"/><circle class="cls-24" cx="325.73" cy="266.31" r="6.12"/><path class="cls-15" d="M323.87,263.05a1.15,1.15,0,0,0,0-2.3,1.15,1.15,0,0,0,0,2.3Z"/><path class="cls-25" d="M294.29,280.11c.73-.94,2.56-.54,6.16.24,2.95.65,4.43,1,4.77,1.9.58,1.58-1.52,4.44-4.19,5-3.06.59-5.3-2.22-5.59-2.6C294.56,283.47,293.44,281.2,294.29,280.11Z"/><path class="cls-19" d="M299,286.72a19.69,19.69,0,0,1-1.16,6.35.86.86,0,0,0,.59,1.05.87.87,0,0,0,1.05-.6,21,21,0,0,0,1.22-6.8.85.85,0,0,0-1.7,0Z"/><path class="cls-19" d="M295.54,280.39a150.45,150.45,0,0,0-32.67-7.26c-.82-.09-.81,1.18,0,1.27a149.75,149.75,0,0,1,32.33,7.22c.78.26,1.12-1,.34-1.23Z"/><path class="cls-19" d="M298.24,281.83a68.33,68.33,0,0,0-28.93.46c-.8.19-.46,1.42.34,1.23a66.94,66.94,0,0,1,28.25-.46c.81.16,1.15-1.07.34-1.23Z"/><path class="cls-19" d="M304.43,284.06a148.83,148.83,0,0,1,32.92,3.72c.8.18,1.14-1,.34-1.23a150.71,150.71,0,0,0-33.26-3.77.64.64,0,0,0,0,1.28Z"/><path class="cls-19" d="M301.24,284.52A67.24,67.24,0,0,1,328,294.2c.7.44,1.34-.66.65-1.1a68.15,68.15,0,0,0-27-9.81c-.81-.11-1.15,1.12-.34,1.23Z"/><path class="cls-19" d="M293.26,286.22a.58.58,0,0,0,0-1.15.58.58,0,0,0,0,1.15Z"/><path class="cls-19" d="M289.54,286.82a.58.58,0,0,0,0-1.15.58.58,0,0,0,0,1.15Z"/><path class="cls-19" d="M291.88,288.79a.57.57,0,0,0,0-1.14.57.57,0,0,0,0,1.14Z"/><path class="cls-19" d="M306.18,288.45a.58.58,0,0,0,0-1.15.58.58,0,0,0,0,1.15Z"/><path class="cls-19" d="M307.74,289.76a.58.58,0,0,0,0-1.15.58.58,0,0,0,0,1.15Z"/><path class="cls-15" d="M295.47,281.34a.58.58,0,0,0,0-1.15.58.58,0,0,0,0,1.15Z"/><path class="cls-15" d="M297.52,281.65l.26,0-.15,0a4.83,4.83,0,0,1,1.26,0l-.15,0,.12,0,.06,0s-.14-.06,0,0-.08-.08,0,0-.07-.11,0-.05,0,.08,0,0,0,0,0,0l0-.15a.11.11,0,0,1,0,.08l0-.15c0,.1.07-.12,0-.05l.07-.08,0,0q.08,0,0,0s0,0,.09,0H299l.15,0a.61.61,0,0,1-.19,0l.15,0a3.45,3.45,0,0,1-.62-.2l-.74-.28a.56.56,0,0,0-.44.06.6.6,0,0,0-.27.34.6.6,0,0,0,.4.71l1,.38a1.38,1.38,0,0,0,1,.05.82.82,0,0,0,.3-1.31,1.48,1.48,0,0,0-1.2-.43,7.17,7.17,0,0,0-1.31.11.6.6,0,0,0-.34.27.61.61,0,0,0-.06.44.59.59,0,0,0,.71.4Z"/><path class="cls-26" d="M283,355.3c-1-6.46,7.62-12.85,11.24-15.53,4-2.93,15.95-11.8,33-10.07,3.35.34,18.19,2.23,28,14.13,4.4,5.31,9.76,15,6.84,20.32-.41.76-1.1,1.62-2.65,4.25-1.79,3-3.07,5.6-3.9,7.36-.84.27-2,.69-3.4,1.29a29.24,29.24,0,0,0-7.19,4.13,19.82,19.82,0,0,0-5.81,8.53c0,2-.43,2.46-.78,2.58-.78.29-1.7-1.2-3.75-2.69a19.51,19.51,0,0,0-4.2-2.16,88.15,88.15,0,0,0-21.63-6.2,47.79,47.79,0,0,0-7.06-.4,45.23,45.23,0,0,0-6,.5,73.68,73.68,0,0,0-2.63-7.31,93.34,93.34,0,0,0-4.84-9.64C284.07,356.88,283.29,357.17,283,355.3Z"/><path class="cls-19" d="M257.15,243.06a37.64,37.64,0,0,1,4.68-3.55.64.64,0,1,0-.65-1.1,40,40,0,0,0-4.93,3.75.63.63,0,0,0,0,.9.64.64,0,0,0,.9,0Z"/><path class="cls-19" d="M364.23,227.79l.48-.09-.23,0a5.24,5.24,0,0,1,1.37,0l-.23,0a5.3,5.3,0,0,1,.81.18.86.86,0,0,0,1.05-.59.87.87,0,0,0-.59-1,6,6,0,0,0-3.11-.09.85.85,0,0,0-.6,1,.87.87,0,0,0,1.05.6Z"/><path class="cls-19" d="M364,230.69a2.29,2.29,0,0,1,.37.12l-.2-.09a2.82,2.82,0,0,1,.53.31l-.18-.13a2.19,2.19,0,0,1,.43.43l-.13-.17a2.62,2.62,0,0,1,.3.51l-.09-.2a.69.69,0,0,1,.05.13,1,1,0,0,0,.39.51.9.9,0,0,0,.66.09.91.91,0,0,0,.51-.39.85.85,0,0,0,.08-.66,3.13,3.13,0,0,0-.86-1.34,3.18,3.18,0,0,0-1.41-.76.91.91,0,0,0-.65.08.86.86,0,0,0-.39.51.89.89,0,0,0,.08.66.87.87,0,0,0,.51.39Z"/><path class="cls-19" d="M297,383.68c6.61-1.27,13.66-.34,20.14,1.2a68.11,68.11,0,0,1,17.77,7,.64.64,0,0,0,.64-1.1,69.87,69.87,0,0,0-18.5-7.21c-6.6-1.52-13.69-2.38-20.39-1.09-.8.15-.46,1.38.34,1.23Z"/><path class="cls-19" d="M197.36,341.8c5.71-.92,11.52-1.67,17.3-1.06a30.72,30.72,0,0,1,14,5.13c8.41,5.67,13.83,14.64,17.09,24.06a116.94,116.94,0,0,1,4.37,17.79c.15.81,1.38.47,1.23-.33-2-10.91-4.67-22.08-11-31.37-5.49-8.11-13.65-14.61-23.48-16.25-6.61-1.11-13.32-.25-19.88.8-.8.13-.46,1.36.34,1.23Z"/><path class="cls-19" d="M250.27,388.88l11.09,5.42c1.65.8,3.36,1.54,5,2.46,1.41.82,3.06,2.51,1.95,4.23-.45.69.65,1.33,1.1.64a3.75,3.75,0,0,0-.45-4.39c-1.25-1.52-3.25-2.25-5-3.09l-13-6.38c-.74-.36-1.39.74-.65,1.11Z"/><path class="cls-19" d="M262.07,399.31l.33.09.16.06c-.13,0,0,0,.05,0l.3.17.11.08s0,0,0,0l.06.06a4,4,0,0,1,.46.46c.1.11,0-.05,0,.06l.1.14a2.14,2.14,0,0,1,.17.3l.08.15c.06.12,0-.08,0,.06l.1.3c0,.1.05.2.07.3l0,.17c0-.14,0,0,0,.06a1.9,1.9,0,0,1,0,.34,1,1,0,0,1,0,.17s0,.2,0,0a2.94,2.94,0,0,1-.19.66.63.63,0,0,0,.45.78.65.65,0,0,0,.78-.44,4,4,0,0,0-2.78-5.26.64.64,0,1,0-.34,1.23Z"/><path class="cls-19" d="M258.63,401.27l.14,0,.07,0-.07,0a.8.8,0,0,1,.24.13l.11.08-.05,0,.05,0a2,2,0,0,1,.2.21l0,0c0,.06-.1-.14,0,0a.76.76,0,0,1,.08.11c.05.08.09.16.13.24h0c0-.11,0,0,0,0a.93.93,0,0,1,0,.13,1.57,1.57,0,0,1,.06.28l0-.16a1.69,1.69,0,0,1,0,.45l0-.17s0,.06,0,.09a.7.7,0,0,0,.06.49.65.65,0,0,0,1.17-.15,2.6,2.6,0,0,0-1.88-3,.64.64,0,0,0-.78.44.65.65,0,0,0,.44.79Z"/><path class="cls-15" d="M146.17,338a5.11,5.11,0,0,0-3.57,4.59.64.64,0,0,0,1.19.32,6.66,6.66,0,0,1,.63-1l.09-.13.05-.06s.06-.08.07-.09l.1-.12.4-.45a9.38,9.38,0,0,1,.87-.79l.05,0,.12-.1.24-.16a4.86,4.86,0,0,1,.54-.33.65.65,0,0,0,.22-.88.65.65,0,0,0-.87-.23,9.57,9.57,0,0,0-3.62,3.74l1.19.33a1,1,0,0,0,0-.17s0-.2,0-.06a2.33,2.33,0,0,1,.05-.28,3.78,3.78,0,0,1,.17-.6s.08-.19,0-.06l.08-.16c0-.08.08-.17.13-.25a1.75,1.75,0,0,1,.18-.29.83.83,0,0,1,.08-.12l.07-.09.06-.07a.69.69,0,0,1,.11-.13l.22-.23.23-.21s.16-.11.05,0l.12-.08a4.15,4.15,0,0,1,.53-.32l.13-.06c.17-.08-.11,0,.06,0l.32-.11a.64.64,0,1,0-.33-1.23Z"/><path class="cls-15" d="M140.33,346.45c-2.53,5.07-5.09,10.35-5,16.16a22.4,22.4,0,0,0,5.17,14c.52.63,1.42-.28.9-.91a20.93,20.93,0,0,1-4.79-13.54c.06-5.42,2.49-10.36,4.86-15.11.37-.73-.73-1.38-1.1-.64Z"/><path class="cls-15" d="M216.48,428.67l9.12,2.52a.64.64,0,0,0,.34-1.23l-9.12-2.52a.64.64,0,0,0-.34,1.23Z"/><path class="cls-20" d="M298.75,334c3.86,1.54,9.08,1.48,12.35-1.39a4.76,4.76,0,0,0,1.74-4.41,3.88,3.88,0,0,0-3-3.2,3.33,3.33,0,0,0-3.43,2.23,4.62,4.62,0,0,0,.94,4.74,10.31,10.31,0,0,0,10.21,2.94c3-.84,6.69-4.56,4.45-7.83a3.32,3.32,0,0,0-3.89-1.29,3.18,3.18,0,0,0-1.45,4.09c1.45,3.79,7.18,4.64,10.57,3.68a6.34,6.34,0,0,0,4.21-3.26,3.51,3.51,0,0,0-1-4.16,2.75,2.75,0,0,0-4.24.45c-1,1.7-.36,3.92.94,5.27,3.7,3.83,9.07,1.42,12.91-.76a.75.75,0,0,0-.76-1.3c-2.42,1.38-5.29,3.08-8.2,2.51a5.51,5.51,0,0,1-2.89-1.51c-.8-.84-1.76-3.16-.24-3.88,1-.5,2.22.84,2.27,1.79.08,1.4-1.31,2.5-2.42,3a8.87,8.87,0,0,1-8.16-.62c-1-.65-2.15-1.83-1.69-3.16.57-1.66,2.67-.71,3,.57.73,2.65-2.35,4.68-4.54,5.09a9.19,9.19,0,0,1-6.63-1.41,4.87,4.87,0,0,1-2.23-2.83c-.24-1.16.39-2.9,1.79-2.91s2.25,1.91,2,3.13a4.76,4.76,0,0,1-2.63,2.81,11.77,11.77,0,0,1-9.57.14c-.89-.36-1.28,1.09-.4,1.45Z"/><path class="cls-19" d="M342.3,394a8.78,8.78,0,0,1,1-8.06,16.92,16.92,0,0,1,6.94-5.75c5.1-2.61,10.93-4.12,14.92-8.48.55-.61-.35-1.51-.9-.91-4.54,5-11.51,6.1-17,9.62-4.66,3-8.5,8.6-6.06,14.23.33.75,1.43.1,1.11-.65Z"/><path class="cls-19" d="M363.56,364.4a35,35,0,0,0-4.55,9.21c-.26.78,1,1.12,1.23.34a33.73,33.73,0,0,1,4.43-8.91c.46-.67-.64-1.31-1.11-.64Z"/><path class="cls-19" d="M330.64,396.56a13.61,13.61,0,0,1,2,5.75.64.64,0,1,0,1.27,0,15.14,15.14,0,0,0-2.17-6.39c-.44-.7-1.54-.06-1.11.64Z"/><path class="cls-19" d="M293.32,293.45a10.23,10.23,0,0,0,11.17.91c1-.53.1-2-.86-1.47a8.46,8.46,0,0,1-9.1-.65.89.89,0,0,0-1.21,0,.87.87,0,0,0,0,1.21Z"/></g><circle class="cls-27" cx="304.19" cy="272.29" r="90"/><path class="cls-19" d="M390.08,514.46,380,509.34l-.33,10.27"/><path class="cls-19" d="M395,515l12-6,.37,12.13"/><path class="cls-19" d="M465.55,191.87v19.79a1.13,1.13,0,0,0,2.25,0V191.87a1.13,1.13,0,0,0-2.25,0Z"/><path class="cls-19" d="M466.31,222.32v4.57a1.13,1.13,0,1,0,2.25,0v-4.57a1.13,1.13,0,0,0-2.25,0Z"/><path class="cls-19" d="M467.83,439.3v34.26a1.13,1.13,0,0,0,2.25,0V439.3a1.13,1.13,0,0,0-2.25,0Z"/><path class="cls-19" d="M466.91,533.29a28.22,28.22,0,0,1-10.58,27c-1.15.86,0,2.81,1.13,1.94a30.57,30.57,0,0,0,11.62-29.56c-.26-1.42-2.43-.82-2.17.6Z"/><path class="cls-19" d="M141.22,379.16v9.14a1.13,1.13,0,0,0,2.25,0v-9.14a1.13,1.13,0,0,0-2.25,0Z"/><path class="cls-19" d="M141.22,309.12V367a1.13,1.13,0,0,0,2.25,0V309.12a1.13,1.13,0,0,0-2.25,0Z"/><path class="cls-19" d="M444.06,120.59c5.1-.8,9.69,3,13.28,6.13,1.09.94,2.69-.64,1.59-1.59-4.32-3.72-9.41-7.66-15.47-6.71a1.13,1.13,0,0,0,.6,2.17Z"/><path class="cls-19" d="M141.05,152v11.06a1.13,1.13,0,0,0,2.25,0V152a1.13,1.13,0,0,0-2.25,0Z"/><path class="cls-19" d="M142.18,175.94a1.13,1.13,0,0,0,0-2.25,1.13,1.13,0,0,0,0,2.25Z"/><path class="cls-19" d="M367.73,197.87a96.27,96.27,0,0,1,10.08,9.39c1,1.07,2.57-.53,1.59-1.59a96.27,96.27,0,0,0-10.08-9.39,1.16,1.16,0,0,0-1.59,0,1.13,1.13,0,0,0,0,1.59Z"/><path class="cls-19" d="M384.89,216.94a86.47,86.47,0,0,1,15.49,47.92,83.79,83.79,0,0,1-1,14.5c-.22,1.42,1.95,2,2.17.6a88.8,88.8,0,0,0-7.18-51.11,86.12,86.12,0,0,0-7.51-13c-.83-1.18-2.78-.06-1.95,1.13Z"/><path class="cls-19" d="M210.91,316.57A26.14,26.14,0,0,0,217.27,330c1,1.09,2.55-.51,1.59-1.59A24.12,24.12,0,0,1,213.08,316a1.14,1.14,0,0,0-1.39-.79,1.15,1.15,0,0,0-.78,1.38Z"/><path class="cls-19" d="M222.78,336.26a1.13,1.13,0,0,0,0-2.25,1.13,1.13,0,0,0,0,2.25Z"/><path class="cls-19" d="M326.15,26.31a14.06,14.06,0,0,1,1.55,1.44q.35.38.66.78c.07.08,0-.06.07.08l.14.19c.11.15.22.31.32.47a13.58,13.58,0,0,1,1,1.78l.12.26s.11.26,0,.1c.07.16.13.32.19.48.12.34.23.68.33,1a1.17,1.17,0,0,0,1.39.79,1.15,1.15,0,0,0,.78-1.39,15.06,15.06,0,0,0-5-7.6,1.12,1.12,0,0,0-1.59,1.59Z"/><path class="cls-19" d="M331.49,40.59a1.13,1.13,0,0,0,0-2.25,1.13,1.13,0,0,0,0,2.25Z"/><path class="cls-19" d="M281.29,62.23l-3.12,14.33c-.68,3.12-1.67,7.22,1.47,9.35,1.2.82,2.32-1.13,1.13-1.94s-1.14-2.32-1-3.55a41.28,41.28,0,0,1,1.08-5.4l2.65-12.19c.31-1.41-1.86-2-2.17-.6Z"/><path class="cls-19" d="M282.43,58.7a1.13,1.13,0,0,0,0-2.25,1.13,1.13,0,0,0,0,2.25Z"/></svg>