<svg width="181" height="191" viewBox="0 0 181 191" fill="none" xmlns="http://www.w3.org/2000/svg">
<path d="M67.8864 121.32L49.082 148.937L65.3714 147.107L69.2693 160.644L86.2807 130.63C80.1615 127.527 74.03 124.423 67.8864 121.32Z" fill="#E1855E" stroke="#1A1A1A" stroke-width="1.43" stroke-miterlimit="10"/>
<path d="M114.007 121.32L132.787 148.937L116.504 147.107L112.6 160.644L95.5637 130.66L114.007 121.32Z" fill="#E1855E" stroke="#1A1A1A" stroke-width="1.43" stroke-miterlimit="10"/>
<path d="M147.069 83.7109C147.069 89.4576 141.011 94.1854 139.322 99.3769C137.566 104.758 139.622 112.121 136.354 116.599C133.087 121.076 125.34 121.436 120.836 124.724C116.332 128.013 113.689 135.187 108.292 136.925C103.09 138.615 96.7141 134.394 90.9498 134.394C85.1855 134.394 78.8093 138.615 73.6019 136.925C68.2047 135.181 65.549 127.976 61.0575 124.724C56.566 121.473 48.8191 121.119 45.5392 116.599C42.2593 112.078 44.3154 104.758 42.5714 99.3769C40.8825 94.1854 34.8245 89.4576 34.8245 83.7109C34.8245 77.9642 40.8825 73.2303 42.5714 68.0388C44.3276 62.6581 42.2715 55.2948 45.5392 50.8171C48.8068 46.3393 56.5538 45.9855 61.0575 42.6912C65.5612 39.397 68.2047 32.2289 73.6019 30.4903C78.8093 28.8004 85.1794 33.022 90.9498 33.022C96.7202 33.022 103.09 28.7943 108.31 30.5025C113.707 32.2472 116.363 39.4519 120.854 42.7034C125.346 45.955 133.093 46.3088 136.373 50.8293C139.653 55.3498 137.597 62.6703 139.341 68.051C141.011 73.2059 147.069 77.9581 147.069 83.7109Z" fill="#E1855E"/>
<path d="M147.069 83.7109C147.069 89.4576 141.011 94.1854 139.322 99.3769C137.566 104.758 139.622 112.121 136.354 116.599C133.087 121.076 125.34 121.436 120.836 124.724C116.332 128.013 113.689 135.187 108.292 136.925C103.09 138.615 96.7141 134.394 90.9498 134.394C85.1855 134.394 78.8093 138.615 73.6019 136.925C68.2047 135.181 65.549 127.976 61.0575 124.724C56.566 121.473 48.8191 121.119 45.5392 116.599C42.2593 112.078 44.3154 104.758 42.5714 99.3769C40.8825 94.1854 34.8245 89.4576 34.8245 83.7109C34.8245 77.9642 40.8825 73.2303 42.5714 68.0388C44.3276 62.6581 42.2715 55.2948 45.5392 50.8171C48.8068 46.3393 56.5538 45.9855 61.0575 42.6912C65.5612 39.397 68.2047 32.2289 73.6019 30.4903C78.8093 28.8004 85.1794 33.022 90.9498 33.022C96.7202 33.022 103.09 28.7943 108.31 30.5025C113.707 32.2472 116.363 39.4519 120.854 42.7034C125.346 45.955 133.093 46.3088 136.373 50.8293C139.653 55.3498 137.597 62.6703 139.341 68.051C141.011 73.2059 147.069 77.9581 147.069 83.7109Z" stroke="#1A1A1A" stroke-width="1.5" stroke-miterlimit="10"/>
<path d="M138.832 83.7109C138.832 88.5913 133.668 92.6481 132.224 97.0771C130.725 101.671 132.481 107.954 129.69 111.773C126.9 115.592 120.322 115.909 116.448 118.703C112.575 121.497 110.329 127.634 105.746 129.123C101.303 130.563 95.8695 126.963 90.9497 126.963C86.0299 126.963 80.5899 130.563 76.1473 129.123C71.5396 127.634 69.2755 121.485 65.4448 118.703C61.6142 115.921 55.0422 115.653 52.2029 111.773C49.3636 107.893 51.1687 101.671 49.6695 97.0771C48.2315 92.6481 43.0608 88.6157 43.0608 83.7109C43.0608 78.8061 48.2315 74.7676 49.6695 70.3387C51.1687 65.745 49.4125 59.4676 52.2029 55.6426C54.9932 51.8176 61.5775 51.5187 65.4754 48.7124C69.3734 45.9062 71.5946 39.7813 76.1779 38.2928C80.6205 36.8531 86.0543 40.4524 90.9803 40.4524C95.9062 40.4524 101.34 36.8531 105.777 38.2928C110.384 39.7813 112.648 45.9306 116.479 48.7124C120.31 51.4943 126.882 51.7627 129.721 55.6426C132.56 59.5225 130.755 65.745 132.254 70.3387C133.668 74.7676 138.832 78.8 138.832 83.7109Z" fill="#F0EEE3"/>
<path d="M138.832 83.7109C138.832 88.5913 133.668 92.6481 132.224 97.0771C130.725 101.671 132.481 107.954 129.69 111.773C126.9 115.592 120.322 115.909 116.448 118.703C112.575 121.497 110.329 127.634 105.746 129.123C101.303 130.563 95.8695 126.963 90.9497 126.963C86.0299 126.963 80.5899 130.563 76.1473 129.123C71.5396 127.634 69.2755 121.485 65.4448 118.703C61.6142 115.921 55.0422 115.653 52.2029 111.773C49.3636 107.893 51.1687 101.671 49.6695 97.0771C48.2315 92.6481 43.0608 88.6157 43.0608 83.7109C43.0608 78.8061 48.2315 74.7676 49.6695 70.3387C51.1687 65.745 49.4125 59.4676 52.2029 55.6426C54.9932 51.8176 61.5775 51.5187 65.4754 48.7124C69.3734 45.9062 71.5946 39.7813 76.1779 38.2928C80.6205 36.8531 86.0543 40.4524 90.9803 40.4524C95.9062 40.4524 101.34 36.8531 105.777 38.2928C110.384 39.7813 112.648 45.9306 116.479 48.7124C120.31 51.4943 126.882 51.7627 129.721 55.6426C132.56 59.5225 130.755 65.745 132.254 70.3387C133.668 74.7676 138.832 78.8 138.832 83.7109Z" stroke="#E1855E" stroke-width="4" stroke-miterlimit="10"/>
<path d="M141.262 90.7753C141.011 91.8125 140.519 92.776 139.824 93.5876C139.747 93.6708 139.705 93.7797 139.705 93.8926C139.705 94.0055 139.747 94.1144 139.824 94.1976C139.906 94.2766 140.016 94.3208 140.13 94.3208C140.244 94.3208 140.354 94.2766 140.436 94.1976C141.235 93.278 141.803 92.1824 142.094 91.001C142.121 90.8895 142.104 90.772 142.048 90.6722C141.991 90.5725 141.898 90.4981 141.788 90.4641C141.677 90.4343 141.558 90.4496 141.459 90.5068C141.359 90.564 141.286 90.6584 141.256 90.7692L141.262 90.7753Z" fill="#F0EEE3"/>
<path d="M120.065 46.2294C122.464 48.2364 125.719 48.395 128.405 49.8896C131.097 51.3628 133.177 53.7409 134.274 56.6002C135.498 59.9127 135.216 63.5242 135.687 66.971C135.888 68.5957 136.338 70.18 137.021 71.6684C137.764 73.1329 138.602 74.5472 139.53 75.9021C141.568 79.0316 143.899 83.0702 142.112 86.8403C141.898 87.2917 142.571 87.6882 142.786 87.2307C146.029 80.386 138.233 74.7674 136.776 68.6303C135.914 64.97 136.385 61.1694 135.406 57.5519C134.609 54.6743 132.889 52.1356 130.51 50.3228C129.105 49.2817 127.53 48.4912 125.854 47.9863C124.018 47.3763 122.103 46.9309 120.597 45.6742C120.212 45.357 119.661 45.906 120.047 46.2294H120.065Z" fill="#F0EEE3"/>
<path d="M136.183 97.9494C136.416 99.7368 135.314 101.384 135.088 103.129C134.843 105.038 135.149 106.966 134.996 108.888C134.721 112.45 132.94 116.153 129.33 117.349C128.852 117.501 129.06 118.258 129.538 118.099C133.056 116.934 135.1 113.585 135.657 110.059C135.981 107.985 135.657 105.917 135.822 103.83C135.987 101.744 137.248 99.9686 136.979 97.9494C136.917 97.4613 136.134 97.4552 136.201 97.9494H136.183Z" fill="#F0EEE3"/>
<path d="M127.01 118.868L124.281 119.826C124.228 119.836 124.178 119.857 124.133 119.888C124.089 119.918 124.051 119.957 124.023 120.003C123.994 120.049 123.976 120.1 123.968 120.153C123.96 120.207 123.964 120.261 123.978 120.313C123.993 120.365 124.018 120.413 124.052 120.455C124.086 120.497 124.128 120.531 124.176 120.556C124.224 120.58 124.277 120.595 124.33 120.598C124.384 120.602 124.438 120.594 124.489 120.576L127.218 119.618C127.271 119.608 127.322 119.587 127.366 119.556C127.41 119.526 127.448 119.486 127.477 119.441C127.505 119.395 127.524 119.344 127.531 119.29C127.539 119.237 127.535 119.183 127.521 119.131C127.507 119.079 127.482 119.031 127.448 118.989C127.414 118.947 127.371 118.913 127.323 118.888C127.275 118.863 127.223 118.849 127.169 118.845C127.115 118.842 127.061 118.849 127.01 118.868Z" fill="#F0EEE3"/>
<path d="M120.75 121.088C119.526 120.643 118.547 121.644 117.911 122.54C117.14 123.626 116.387 124.718 115.622 125.81C115.335 126.219 116.014 126.609 116.295 126.201L118.339 123.285C118.823 122.589 119.563 121.454 120.542 121.839C121.019 122.01 121.221 121.259 120.75 121.088Z" fill="#F0EEE3"/>
<path d="M90.0808 35.8281C91.2234 35.9962 92.39 35.802 93.4158 35.2729C93.4604 35.2477 93.4995 35.2138 93.5308 35.1733C93.562 35.1328 93.5849 35.0865 93.598 35.037C93.6111 34.9876 93.6142 34.9361 93.6071 34.8855C93.6 34.8348 93.5828 34.7861 93.5565 34.7422C93.5042 34.6537 93.4189 34.5893 93.3193 34.563C93.2196 34.5367 93.1136 34.5507 93.0242 34.6019C92.1823 35.0345 91.228 35.2005 90.2889 35.0777C90.1892 35.0527 90.0837 35.0666 89.9938 35.1164C89.904 35.1663 89.8366 35.2485 89.8055 35.3461C89.7807 35.4464 89.7954 35.5522 89.8466 35.6419C89.8979 35.7316 89.9817 35.7983 90.0808 35.8281Z" fill="#F0EEE3"/>
<path d="M65.6591 42.0934L70.2424 37.878C71.5948 36.603 72.9471 35.206 74.6544 34.3763C76.5697 33.4307 78.6196 33.8151 80.6083 34.2848L86.8561 35.7611C87.3456 35.877 87.5536 35.1511 87.0641 35.0108C84.8428 34.4861 82.6277 33.9432 80.4003 33.4368C78.5095 33.0037 76.5513 32.7292 74.7094 33.5039C72.8676 34.2787 71.5458 35.6452 70.1506 36.9263L65.1329 41.5444C64.7596 41.886 65.3164 42.4351 65.6836 42.0934H65.6591Z" fill="#F0EEE3"/>
<path d="M45.741 57.6434C45.3106 58.7334 45.2717 59.9383 45.6308 61.0536C45.7838 61.5294 46.5426 61.3281 46.3835 60.8462C46.0712 59.8643 46.1145 58.8042 46.5059 57.8509C46.5325 57.7514 46.5193 57.6455 46.4691 57.5556C46.4188 57.4656 46.3355 57.3987 46.2366 57.3689C46.1361 57.3442 46.0299 57.3589 45.9399 57.41C45.85 57.461 45.7831 57.5446 45.7532 57.6434H45.741Z" fill="#F0EEE3"/>
<path d="M45.6983 63.4816C46.0716 69.4418 40.5153 73.4132 38.4042 78.5071C36.2502 83.7169 38.3002 89.3721 41.3598 93.7583C42.3885 95.047 43.3056 96.4205 44.1012 97.8639C44.8682 99.5278 45.1401 101.376 44.8844 103.19C44.8232 103.684 45.6004 103.678 45.6677 103.19C45.975 100.353 45.163 97.509 43.4036 95.259C41.6841 92.8799 40.0319 90.5251 39.0834 87.7188C38.0732 85.0141 38.0171 82.047 38.9243 79.3063C39.8973 76.6038 41.8004 74.3649 43.4158 72.0284C45.1598 69.5028 46.6774 66.6295 46.4754 63.4877C46.4754 62.9875 45.6616 62.9875 45.6922 63.4877L45.6983 63.4816Z" fill="#F0EEE3"/>
<path d="M45.074 106.221V109.272C45.074 109.375 45.1152 109.475 45.1887 109.548C45.2621 109.621 45.3617 109.662 45.4656 109.662C45.5695 109.662 45.6691 109.621 45.7425 109.548C45.816 109.475 45.8572 109.375 45.8572 109.272V106.221C45.8572 106.118 45.816 106.019 45.7425 105.945C45.6691 105.872 45.5695 105.831 45.4656 105.831C45.3617 105.831 45.2621 105.872 45.1887 105.945C45.1152 106.019 45.074 106.118 45.074 106.221Z" fill="#F0EEE3"/>
<path d="M46.3101 111.846C46.414 111.846 46.5136 111.805 46.587 111.732C46.6605 111.659 46.7017 111.559 46.7017 111.456C46.7017 111.352 46.6605 111.253 46.587 111.18C46.5136 111.107 46.414 111.065 46.3101 111.065C46.2062 111.065 46.1066 111.107 46.0332 111.18C45.9597 111.253 45.9185 111.352 45.9185 111.456C45.9185 111.559 45.9597 111.659 46.0332 111.732C46.1066 111.805 46.2062 111.846 46.3101 111.846Z" fill="#F0EEE3"/>
<path d="M61.5348 122.699C62.9117 122.833 63.9213 124.023 64.5944 125.139C65.3593 126.408 65.9345 127.799 67.0421 128.854C67.4032 129.202 67.9539 128.653 67.599 128.299C66.4547 127.183 65.9223 125.652 65.0411 124.346C64.2273 123.126 63.0891 122.083 61.5716 121.906C61.0698 121.857 61.0759 122.638 61.5716 122.687L61.5348 122.699Z" fill="#F0EEE3"/>
<path d="M68.9696 130.892L70.1567 131.734C70.2479 131.785 70.3557 131.798 70.4565 131.77C70.5069 131.758 70.5542 131.735 70.5956 131.704C70.637 131.672 70.6716 131.633 70.6973 131.588C70.723 131.543 70.7393 131.493 70.7453 131.442C70.7512 131.39 70.7467 131.338 70.7319 131.289C70.7005 131.194 70.638 131.112 70.5545 131.057L69.3306 130.221C69.2402 130.168 69.1325 130.152 69.0308 130.178C68.9818 130.192 68.9361 130.215 68.8962 130.247C68.8563 130.278 68.823 130.317 68.7982 130.361C68.745 130.451 68.7296 130.559 68.7554 130.66C68.7896 130.755 68.8541 130.837 68.939 130.892H68.9696Z" fill="#F0EEE3"/>
<path d="M126.784 83.7108C126.784 87.3711 122.917 90.4213 121.84 93.7156C120.72 97.1501 122.029 101.854 119.943 104.696C117.856 107.539 112.93 107.789 110.036 109.888C107.141 111.987 105.471 116.568 102.026 117.684C98.7028 118.764 94.6336 116.068 90.9498 116.068C87.2661 116.068 83.1968 118.764 79.8679 117.684C76.4228 116.568 74.7278 111.968 71.864 109.888C69.0002 107.808 64.062 107.588 61.9509 104.696C59.8398 101.805 61.1738 97.1379 60.0539 93.7156C58.977 90.403 55.1096 87.3833 55.1096 83.7108C55.1096 80.0383 58.977 77.0002 60.0539 73.6999C61.1738 70.2653 59.8642 65.5618 61.9509 62.719C64.0375 59.8762 68.9635 59.6322 71.864 57.5275C74.7645 55.4228 76.4228 50.817 79.8679 49.7311C83.1968 48.6574 87.2599 51.3477 90.9498 51.3477C94.6397 51.3477 98.7028 48.6574 102.026 49.7311C105.471 50.8475 107.166 55.4472 110.036 57.5275C112.906 59.6078 117.838 59.8274 119.943 62.719C122.048 65.6106 120.72 70.2775 121.84 73.6999C122.917 77.0185 126.784 80.0322 126.784 83.7108Z" fill="#F7D5B0"/>
<path d="M126.784 83.7108C126.784 87.3711 122.917 90.4213 121.84 93.7156C120.72 97.1501 122.029 101.854 119.943 104.696C117.856 107.539 112.93 107.789 110.036 109.888C107.141 111.987 105.471 116.568 102.026 117.684C98.7028 118.764 94.6336 116.068 90.9498 116.068C87.2661 116.068 83.1968 118.764 79.8679 117.684C76.4228 116.568 74.7278 111.968 71.864 109.888C69.0002 107.808 64.062 107.588 61.9509 104.696C59.8398 101.805 61.1738 97.1379 60.0539 93.7156C58.977 90.403 55.1096 87.3833 55.1096 83.7108C55.1096 80.0383 58.977 77.0002 60.0539 73.6999C61.1738 70.2653 59.8642 65.5618 61.9509 62.719C64.0375 59.8762 68.9635 59.6322 71.864 57.5275C74.7645 55.4228 76.4228 50.817 79.8679 49.7311C83.1968 48.6574 87.2599 51.3477 90.9498 51.3477C94.6397 51.3477 98.7028 48.6574 102.026 49.7311C105.471 50.8475 107.166 55.4472 110.036 57.5275C112.906 59.6078 117.838 59.8274 119.943 62.719C122.048 65.6106 120.72 70.2775 121.84 73.6999C122.917 77.0185 126.784 80.0322 126.784 83.7108Z" stroke="#E1855E" stroke-width="9" stroke-miterlimit="10"/>
<path d="M90.9497 68.0083L95.2148 76.6283L104.755 78.007L97.8522 84.7175L99.4799 94.1916L90.9497 89.7199L82.4134 94.1916L84.0411 84.7175L77.1387 78.007L86.6785 76.6283L90.9497 68.0083Z" fill="#F0EEE3" stroke="#1A1A1A" stroke-width="1.5" stroke-linecap="round" stroke-linejoin="round"/>
<path d="M62.4587 81.0999H72.9226" stroke="#1A1A1A" stroke-width="1.43" stroke-linecap="round" stroke-linejoin="round"/>
<path d="M68.272 74.7249L72.9226 77.9093" stroke="#1A1A1A" stroke-width="1.43" stroke-linecap="round" stroke-linejoin="round"/>
<path d="M68.272 87.4747L72.9226 84.2903" stroke="#1A1A1A" stroke-width="1.43" stroke-linecap="round" stroke-linejoin="round"/>
<path d="M118.853 81.0999H108.389" stroke="#1A1A1A" stroke-width="1.43" stroke-linecap="round" stroke-linejoin="round"/>
<path d="M113.04 74.7249L108.389 77.9093" stroke="#1A1A1A" stroke-width="1.43" stroke-linecap="round" stroke-linejoin="round"/>
<path d="M113.04 87.4747L108.389 84.2903" stroke="#1A1A1A" stroke-width="1.43" stroke-linecap="round" stroke-linejoin="round"/>
<path d="M62.416 132.057C60.5068 135.396 58.467 138.65 56.2968 141.818C55.9724 142.282 56.7312 142.715 57.0494 142.257C59.2319 139.097 61.2717 135.844 63.1686 132.496C63.2271 132.397 63.2434 132.278 63.2142 132.167C63.1849 132.055 63.1124 131.96 63.0126 131.902C62.9128 131.843 62.7938 131.827 62.682 131.856C62.5701 131.885 62.4744 131.958 62.416 132.057Z" fill="#1A1A1A"/>
<path d="M54.4611 144.331L54.2591 144.533C54.2162 144.57 54.1845 144.619 54.1673 144.673C54.143 144.724 54.1305 144.781 54.1306 144.838C54.1304 144.897 54.1429 144.955 54.1673 145.008C54.186 145.062 54.2175 145.11 54.2591 145.149L54.3448 145.216C54.4119 145.254 54.4877 145.275 54.5651 145.277H54.6813C54.7555 145.259 54.8232 145.221 54.8772 145.167L55.0791 144.96C55.1204 144.923 55.152 144.877 55.1709 144.825C55.1953 144.772 55.2078 144.713 55.2076 144.655C55.2084 144.598 55.1958 144.541 55.1709 144.49C55.1537 144.436 55.122 144.387 55.0791 144.35L54.9873 144.282C54.9233 144.242 54.8489 144.221 54.7731 144.221H54.6569C54.5828 144.243 54.5154 144.283 54.4611 144.337V144.331Z" fill="#1A1A1A"/>
<path d="M117.354 130.843L118.394 132.862C118.423 132.913 118.463 132.958 118.509 132.994C118.556 133.03 118.61 133.056 118.667 133.071C118.724 133.085 118.783 133.089 118.842 133.08C118.9 133.072 118.956 133.051 119.006 133.021C119.107 132.96 119.181 132.862 119.21 132.748C119.24 132.634 119.224 132.513 119.165 132.411L118.125 130.392C118.067 130.292 117.971 130.22 117.859 130.191C117.747 130.161 117.628 130.178 117.529 130.236C117.429 130.294 117.356 130.39 117.327 130.501C117.298 130.613 117.314 130.731 117.372 130.831L117.354 130.843Z" fill="#1A1A1A"/>
<path d="M119.936 135.144C122.225 139.105 124.673 142.969 127.28 146.735C127.598 147.193 128.356 146.735 128.032 146.296C125.438 142.53 122.99 138.666 120.689 134.705C120.631 134.605 120.535 134.533 120.423 134.504C120.311 134.475 120.192 134.491 120.092 134.549C119.993 134.608 119.92 134.703 119.891 134.814C119.862 134.926 119.878 135.045 119.936 135.144Z" fill="#1A1A1A"/>
<path d="M109.246 152.354L110.225 154.409C110.255 154.46 110.294 154.504 110.341 154.539C110.388 154.575 110.442 154.6 110.499 154.614C110.556 154.628 110.615 154.631 110.673 154.622C110.732 154.613 110.787 154.593 110.837 154.562C110.889 154.533 110.934 154.494 110.969 154.447C111.005 154.4 111.031 154.347 111.045 154.29C111.06 154.233 111.062 154.173 111.053 154.115C111.043 154.057 111.022 154.002 110.99 153.952L110.011 151.902C109.983 151.85 109.944 151.805 109.897 151.769C109.851 151.732 109.797 151.706 109.74 151.691C109.682 151.676 109.623 151.673 109.564 151.682C109.505 151.691 109.449 151.712 109.399 151.744C109.349 151.773 109.304 151.812 109.269 151.859C109.233 151.906 109.208 151.959 109.193 152.016C109.178 152.072 109.175 152.131 109.183 152.189C109.191 152.247 109.21 152.303 109.24 152.354H109.246Z" fill="#1A1A1A"/>
<path d="M140.809 103.958L161.939 99.7917L157.71 107.6L167.22 111.505L147.149 115.165" fill="#F7D5B0"/>
<path d="M140.809 103.958L161.939 99.7917L157.71 107.6L167.22 111.505L147.149 115.165" stroke="#1A1A1A" stroke-width="1.43" stroke-linecap="round" stroke-linejoin="round"/>
<path d="M40.191 103.958L19.0675 99.7917L23.2898 107.6L13.7805 111.505L33.8515 115.165" fill="#F7D5B0"/>
<path d="M40.191 103.958L19.0675 99.7917L23.2898 107.6L13.7805 111.505L33.8515 115.165" stroke="#1A1A1A" stroke-width="1.43" stroke-linecap="round" stroke-linejoin="round"/>
<path d="M146.622 109.522L140.809 103.727C140.458 106.415 140.107 109.107 139.757 111.804L146.622 109.522Z" fill="#F7D5B0" stroke="#1A1A1A" stroke-width="1.43" stroke-linecap="round" stroke-linejoin="round"/>
<path d="M34.647 109.87L40.4602 104.08C40.807 106.773 41.1578 109.463 41.5127 112.151L34.647 109.87Z" fill="#F7D5B0" stroke="#1A1A1A" stroke-width="1.43" stroke-linecap="round" stroke-linejoin="round"/>
<path d="M150.294 123.309C111.195 132.667 70.4293 132.667 31.3303 123.309C32.4359 118.709 33.5414 114.114 34.6469 109.522C71.5641 118.355 110.054 118.355 146.971 109.522L150.294 123.309Z" fill="#F7D5B0"/>
<path d="M150.294 123.309C111.195 132.667 70.4293 132.667 31.3303 123.309C32.4359 118.709 33.5414 114.114 34.6469 109.522C71.5641 118.355 110.054 118.355 146.971 109.522L150.294 123.309Z" stroke="#1A1A1A" stroke-width="1.43" stroke-linecap="round" stroke-linejoin="round"/>
</svg>
